<?xml version="1.0" encoding="UTF-8"?>
<svg version="1.1" viewBox="0 0 2048 893" width="1280" height="1280" xmlns="http://www.w3.org/2000/svg">
<path transform="translate(0)" d="m0 0h2048v893h-2048z" fill="#FCFCFC"/>
<path transform="translate(1260,272)" d="m0 0h255l1 1v273l-9 20-8 16-3 5v7l-8 7-4 4-3 6 1 7 3 1 14-5 2 1v40l-5-2-11-10-18-13-17-10-5-3 1-4 7-8 7-12 5-15 2 1 4-4 6-10 6-15 4-14 1-6v-30l-3-15-6-15-7-12-4-13-5-17-6-15-8-13-9-10-8-7-12-6-14-3h-8l2 6 15 2 10 4 9 7 8 8 8 14 6 13 2 5v5l-4-2-10-8-18-10-19-6-13-2h-24l-16 3-16 6-16 9-13 10-9 10-9 13-2-1-4-17v-22l3-9 10-9 11-4h6v-8l-19 6-9 7-5 6-4 10-1 7 1 16 4 17 3 9-1 7-4 12-3 18v22l3 15 6 17 8 15 11 13 1 3 4 2 9 8 13 8 11 5 15 5 13 2h23l11-2 10 3 12 1 17 8 15 9 14 10 16 13 8 8 3 4v73l-47 1h-43-1v20l-4 17-8 16-9 13-11 12-13 11-4 4 16 9 14 6 16 4 10 1h18l15-2 18-5 18-8 15-9 14-12 10-11 9-13 3-2 2-4 3-3 5-11h2l2-21h2l2-3v26l-6 18-8 15-8 10-7 8-10 9-19 13-22 10-20 6-12 2-10 1h-14l-21-3-16-5-12-5-16-9-4-3-5 1-13 8-12 6-14 5-16 3h-31l-20-4-18-6-21-10-17-11-16-12-10-9-11-11-10-13-9-14-8-15-9-21-10-31-8-32-4-24-3-24-3 1-5 5-14 13-11 9-10 9-22 18-2 2-4-1-15-13-12-11-8-7-16-15-7-7-2-1v-2l-4-2-40-40v-2l6-3v-14l-3-15-16 4h-6-3l-1 6 3 8-1 5-23 7-6 2-8-1-7-3-6-2v6h-12l2 6-3 3 5 2-2 2v3l11 1 19-7 25-5 10-1 1 1 1 8v21l-5 57-5 1-1 46v51l3 9v3l-2 1-31 1-6-1-1-7 9-3 10-3h5l-9-70-2-16v-12l-30-1-3 8-3 3v24l2 50 1 16 1 1v13h-37l-1-2v-6l23-6-1-13-7-38-6-36v-9l3-7h-3l1-6 14-41 4-13v-6l-6-9-3-11v-10l4-12 6-10h2l1-3 13-5 2-4-6-4-6-1-3 7-10-3-3-2 1-4 10-14 6-10 6-11v-9l-4-9-3-15v-20l3-21 8-24 8-16 8-12 9-10 10-8 12-7 18-6 4-1h26l20 5 14 6 15 10 13 11 11 13 9 15 8 17 2-2 6-12 8-12 12-14 9-8 15-10 12-6 15-5 11-2h24l16 4 16 8 11 8 11 11 11 16 8 16 6 17 2 10 13 2 4 2 9 12 1-190z" fill="#A7EAE0"/>
<path transform="translate(458,257)" d="m0 0 22 3 71 11 7 2-1 14 23 3 99 15 39 6h2l2-13h8l91 14 2 1-3 21-7 44-5 34-10 66-5 31-7 49-6 38-12 79-10 66-4 24-2 18-15-1-38-6 3 5 8 11v4h-5l-14-10-12-9v-5l-8 1v11l10 4 10 2 3 3-1 4-9 1h-26l-1-1 1-12v-14l-6-2-93-14-99-15v25l-1 7h-15l-2-10-2-19v-7l-13-1-19-3 4 35v5h-14l-5-15-10-35-7-24-1-5v-10l18-57 6-20 2-1 37 4 12 1h17l1-1v-40l3 3 2 9 4 4 6 2 4-4 1-2h2l1-5h2l1-5 10-18 2-4h2l1-5 2-4h-8l-4-1-1 4-5 5-2 4-3 3-1 2h-2l-5-36-5-10-3-3-5-3-3-3-1-5v-15l2-7 3-3 4-2h8l4-5-1-6-4-3-3-10-1-2-11-1-5-2h-7l-9 3-4 6-6 1v8l6 3-3 21v6l-13-1 1-12 13-86 20-131z" fill="#AAECE2"/>
<path transform="translate(1260,272)" d="m0 0h255l1 1v273l-9 20-8 16-3 5v7l-8 7-4 4-3 6 1 7 3 1 14-5 2 1v40l-5-2-11-10-18-13-17-10-5-3 1-4 7-8 7-12 5-15 2 1 4-4 6-10 6-15 4-14 1-6v-30l-3-15-6-15-7-12-4-13-5-17-6-15-8-13-9-10-8-7-12-6-14-3h-8l2 6 15 2 10 4 9 7 8 8 8 14 6 13 2 5v5l-4-2-10-8-18-10-19-6-13-2h-24l-16 3-16 6-16 9-13 10-9 10-9 13-2-1-4-17v-22l3-9 10-9 11-4h6v-8l-19 6-9 7-5 6-4 10-1 7 1 16 4 17 3 9-1 7-4 12-3 18v22l3 15 6 17 8 15 11 13 1 3 4 2 9 8 13 8 11 5 15 5 13 2h23l11-2 10 3 12 1 17 8 15 9 14 10 16 13 8 8 3 4v73l-47 1h-43-1v20l-4 17-8 16-9 13-11 12-13 11-4 4 16 9 14 6 16 4 10 1h18l15-2 18-5 18-8 15-9 14-12 10-11 9-13 3-2 2-4 3-3 5-11h2l2-21h2l2-3v26l-6 18-8 15-8 10-7 8-10 9-19 13-22 10-20 6-12 2-10 1h-14l-21-3-16-5-12-5-16-9-4-3-5 1-13 8-12 6-14 5-16 3h-31l-20-4-18-6-21-10-17-11-16-12-10-9-11-11-10-13-9-14-8-15-9-21-10-31-8-32-4-24-2-17-1-18v-19l2-32 1-7v-12h3v2l9 1 2 2-1 2-3 29v43l4 34 5 24 6 22 8 25 11 26 11 19 10 14 23 23 18 13 15 9 17 8 21 7 11 2h32l16-4 13-5 15-8 4-2v-3l-4-2-11-11-12-17-8-15-2-5-3-1h-47l-7-1v-168l1-14 1-3 1-13 5-1v-2h4l-1-28-3-32-3-7-5-5v-16l-6 1h-9l-4-3-9-3 1-2 9-2 4-2 2-4 3-3 6-1 1-7-4-3-5-3-8-8-9-2-10 4-4 5-4 9-2 3 1 5 8 4 7 6-1 9-1 2-18 2-2-5-1-7v-14l4-13 6-9 8-6 8-3h11l8 3 9 12 1-190z" fill="#16A898"/>
<path transform="translate(1397,373)" d="m0 0h9l16 4 10 5 12 11 7 8 9 16 7 20 5 18 12 24 4 14 1 7v30l-4 17-5 13-6 12-5 7-3 1-8 19-8 11-4 4 1 4 12 6 12 8 11 8 11 9 6 5 2 1-1-40 3-3 5-3 7-12h1v75l7 11 6 9 3 1 1-9 11-58 1-3 22-3 36-3 11-1 24 15 22 14 15 9 4 11 18 70 2 7v5l-12 5-7 4h-3l-15-43-11-32-4-5-30-13-24-10h-5l-8 16-18 38-8 17-5 4 3 11 3 15v24h-1l-1-17-2 1-2 17-1 3-2 1-5 12-4 4 1 2-5 2-9 13-11 12-13 11-15 9-18 8-18 5-15 2h-18l-14-2-15-4-19-9-9-6 5-5 15-13 9-10 10-15 6-13 4-17v-22l2 1h90l-1-73-11-12-16-13-21-14-21-11-3-1-17-2-7-2-9 2h-23l-16-3-17-6-13-7-13-10-6-5-9-11-7-10-7-15-5-15-2-12v-22l3-18 4-12 1-7-6-21-2-13v-8l2-10 5-10 7-7 6-4 12-4 7-1v8l-12 3-6 3-8 7-3 9v22l4 17 11-14 9-10 12-9 16-9 19-7 13-2h24l17 3 17 6 16 9 10 8 4 3-4-13-11-21-9-10-9-7-10-4-15-2z" fill="#070D1F"/>
<path transform="translate(905,351)" d="m0 0h26l20 5 14 6 15 10 13 11 11 13 9 15 8 17 2-2 6-12 8-12 12-14 9-8 15-10 12-6 15-5 11-2h24l16 4 16 8 11 8 11 11 11 16 8 16 6 17 2 11-12 5-6 5-6 10-3 11v14l2 12 11-2h7l1-11-9-7-6-3-1-5 4-7 4-8 5-4 8-3 9 2 10 10 6 3 2 2-1 5-3 3-6 1-2 4-5 5-9 2 10 4 5 4h-3v7l6 2 2 2v16l-3-1 1-5-1-11-4 1-5 16-3 12-2 3h-3l-2-11-1-1-1-9-1-1-1-11-10 1-8 3h-2l-1 3h-55l-1 3-4-10-4-4v-2l-5-2-8-5h-20l-7 4-7 6-7 10-2 3v-3l-21 1-9 6-13 9-5 2-4-10-6-17-5-13v-2l-3 3-11 23-8 16-8 14-2-3-13-29-14-33h-3l-10 13-14 17-7 9-2-4-1-15-4-10-8-11-9-11-8-12-7-9-8-4-11-1-9 2-9 6-4 7-1 4v8l3 13 5-5 2-7 9-10 5-4 3-4 7 1 6 5h7l3 4-1 4-3 2-2 11 1 7 10 22v3l-20 10h-10l-2-3 1-9 2-13 9-7 1-2-9 3-6-1-7-1-5 1-3-1-1 8-3 7h-1l-2-7-4-12-2-11v-20l3-21 8-24 8-16 8-12 9-10 10-8 12-7 18-6z" fill="#FD5066"/>
<path transform="translate(1260,272)" d="m0 0h255l1 1v273l-9 20-5 10h-2v-271h-241v443l37-1 4-10 8-11 9-8 10-5 13-3h22l13 4 13 7 10 8 8 11 3 9v20l-4 17-8 16-9 13-11 12-13 11-4 4 16 9 14 6 16 4 10 1h18l15-2 18-5 18-8 15-9 14-12 10-11 9-13 3-2 2-4 3-3 5-11h2l2-21h2l2-3v26l-6 18-8 15-8 10-7 8-10 9-19 13-22 10-20 6-12 2-10 1h-14l-21-3-16-5-12-5-16-9-4-3-5 1-13 8-12 6-14 5-16 3h-31l-20-4-18-6-21-10-17-11-16-12-10-9-11-11-10-13-9-14-8-15-9-21-10-31-8-32-4-24-2-17-1-18v-19l2-32 1-7v-12h3v2l9 1 2 2-1 2-3 29v43l4 34 5 24 6 22 8 25 11 26 11 19 10 14 23 23 18 13 15 9 17 8 21 7 11 2h32l16-4 13-5 15-8 4-2v-3l-4-2-11-11-12-17-8-15-2-5-3-1h-47l-7-1v-168l1-14 1-3 1-13 5-1v-2h4l-1-28-3-32-3-7-5-5v-16l-6 1h-9l-4-3-9-3 1-2 9-2 4-2 2-4 3-3 6-1 1-7-4-3-5-3-8-8-9-2-10 4-4 5-4 9-2 3 1 5 8 4 7 6-1 9-1 2-18 2-2-5-1-7v-14l4-13 6-9 8-6 8-3h11l8 3 9 12 1-190z" fill="#203648"/>
<path transform="translate(1397,373)" d="m0 0h9l16 4 10 5 12 11 7 8 9 16 7 20 5 18 12 24 4 14 1 7v30l-4 17-5 13-6 12-5 7-3 1 1-6 5-25 2-12 1-12 1-43-8 1-4-1v49l-2 14-3 9-6 5-7 8-9 9-11 7-9 3h-23l-19-3-6-3-8-8-6-7v-2l-4-2-3-4v-2h-2l-2-5h-2l-5-7v-2h-2l-1-4h-2l-4-5-3-1-1 3-3 2h-3l1 3 4 4 9 12 7 9 7 8 11 12 5 4 5 5 2 4 6 3v2l4 1v2l5 2 9 6 10 5v2l-9 2h-23l-16-3-17-6-13-7-13-10-6-5-9-11-7-10-7-15-5-15-2-12v-22l3-18 4-12 1-7-6-21-2-13v-8l2-10 5-10 7-7 6-4 12-4 7-1v8l-12 3-6 3-8 7-3 9v22l4 17 11-14 9-10 12-9 16-9 19-7 13-2h24l17 3 17 6 16 9 10 8 4 3-4-13-11-21-9-10-9-7-10-4-15-2z" fill="#AAECE2"/>
<path transform="translate(1828,485)" d="m0 0 4 1 10 16 8 2-4 13 1 9h10l8-6 5-5 10 14 10 16 4 7 9 14v3l-9 4-6-1-12-5-3-5-6 2-8-3-3-6-9-4-9-2-7-1-2 3v7l5 5 16 7 14 7 1 4-1 6v24l1 5v18l-4 20-8 26-5 1-1 7-4 8 1 5 10 12 6 8 1-18 3-3 12-2 2-7 19-1h19v42h-19l-28 1 11 13 9 11 4 4h23l2 15 6 9 2 2h-40l-1 3-9 7-5-4 1-6-11-1-1-1v-36l-15-14-10-9-3-2v-2l-4-2v-2l-4-2-4-3 1 18v34h-11l2 9 2 3v13l-10 1h-27v-8l6-3 14-2-2-12-54-1v-98l30-1h2v-5l4-10 5-15 5-11h-32l-9-2-1-1v-28l5-1 26-1 30 1 2-5 6-13 2-9 2-25 3-12-1-7-12-28 1-4z" fill="#FDBFA2"/>
<path transform="translate(111,419)" d="m0 0h8l1 2 2 17 2 2h10l7-2h13l8 6 4 6 2 16 1 5-9 9-5 6 1 5 3 9 14 1 9 2 18 18 8 10-2 5-8 14-5-1-6-3 2 7 6 40v4l10-2 5-4 10 1 48 12-3 13-11-2-9-1-5 21-7 26-1 7 9 3 1 2-3 11-18-4-5-1 2 4-1 9-11 42-8 28-3 4h-14l-4-1 1-13 8-53v-12l-12-23-8-15-1-1-12 46-14 69-1 2h-18v-16l3-55 3-46v-20l-1-52-2-19-3-13v-15l5-10 7-8 6-4-1-17-3-3-8-7-4-1 1-6h2v-2l-6 1-1-1 1-8 3-11v-6l-4-4-3-1h-14l-11 1-2-1 1-5 7-8 8-6z" fill="#203748"/>
<path transform="translate(458,257)" d="m0 0 22 3 71 11 7 2-1 14 23 3 99 15 39 6h2l2-13h8l91 14 2 1-3 21-7 44-5 34-10 66-5 31-7 49-6 38-12 79-10 66-4 24-2 18-15-1-38-6 3 5 8 11v4h-5l-14-10-12-9v-5h-7v-22l1-1 14 1 4 1-1 20 9 3 3-11 4-9 17 1 16 3 4 1v-7l9-57 22-145 10-64 2-18 2-9 3-24 3-16 2-17 2-9 6-39 3-21-18-1-15-3-17-2-9-2-12-2-18-2-2 15-10-1-20-3-17-2-16-3-32-5-18-2-15-3-30-4-5-1 1-7 2-10h-9l-36-6-42-6h-2l-3 17-2 17-3 16-13 85-1 9 12-1 5-5h8l9 4 5 9 3 5v6l-3 5 9-3 16-3 2-11 1-6-8-11-2-3 1-1 1-9 11-10 10-2 12 2 3 2v8l2 2v15l-4 1-2-1-2 5-3 1-6 18v4l11 7 5 5 3 19-30-4-20-3-14-2 4-5-1-6-4-3-3-10-1-2-11-1-5-2h-7l-9 3-4 6-6 1v8l6 3-3 21v6l-13-1 1-12 13-86 20-131z" fill="#060C1E"/>
<path transform="translate(1607,429)" d="m0 0h9l6 3 4 6-1 7-3 3h-2v12l-2 3 1 1v5l-6 3-8 7v13l3 17 5 5 8 24 6 10 4 2 7-8 8-7 14-14 3-2h3l1 4 3 1v2h9l-1 11 16-8 13-7 22-12h3l5 8-1 7 13 23 6 12-9 6-29 15-22 12-8 4-3-1-8-16-10-19-5-2-4-6-4 6-8 9-9 7-2 1h-7l-8-3v15l-1 24-2 5-13 1-46 4-12 1-2 14-11 56-4-1-8-12-5-8v-74l-6 11-10 6-14 5-4-2-1-7 6-10 8-6 1-3v-5l8-14 4-9 9-21 5-5 5-6 10-7 14-8 22-11h3l1-3 4-4h2v-7l4-12v-5l-6-7v-2l-7-2 2-5v-15l3-4 3-7 2-2 7-1 4 2v2l7-3z" fill="#A9ECE2"/>
<path transform="translate(1087,556)" d="m0 0h3v2l9 1 2 2-1 2-3 29v43l4 34 5 24 6 22 8 25 11 26 11 19 10 14 23 23 18 13 15 9 17 8 21 7 11 2h32l16-4 13-5 15-8 4-2v-3l-4-2-11-11-12-17-8-15-5-14-2-8v-19l3-11 5-10 10-11 9-6 12-4 6-1h22l13 4 13 7 10 8 8 11 3 9v20l-4 17-8 16-9 13-11 12-13 11-4 4 16 9 14 6 16 4 10 1h18l15-2 18-5 18-8 15-9 14-12 10-11 9-13 3-2 2-4 3-3 5-11h2l2-21h2l2-3v26l-6 18-8 15-8 10-7 8-10 9-19 13-22 10-20 6-12 2-10 1h-14l-21-3-16-5-12-5-16-9-4-3-5 1-13 8-12 6-14 5-16 3h-31l-20-4-18-6-21-10-17-11-16-12-10-9-11-11-10-13-9-14-8-15-9-21-10-31-8-32-4-24-2-17-1-18v-19l2-32 1-7z" fill="#060911"/>
<path transform="translate(855,444)" d="m0 0 11 1 8 4 6 7 11 16 8 10 8 11 4 10 1 20-2 11v8l2 10v8l-9 3-7 2h-6-3l-1 6 3 8-1 5-23 7-6 2-8-1-7-3-6-2v6h-12l2 6-3 3 5 2-2 2v3l11 1 19-7 25-5 10-1 1 1 1 8v21l-5 57-5 1-1 46v51l3 9v3l-2 1-31 1-6-1-1-7 9-3 10-3h5l-9-70-2-16v-12l-30-1-3 8-3 3v24l2 50 1 16 1 1v13h-37l-1-2v-6l23-6-1-13-7-38-6-36v-9l3-7h-3l1-6 14-41 4-13v-6l-6-9-3-11v-10l4-12 6-10h2l1-3 13-5 2-4-6-4-6-1-3 7-10-3-3-2 1-4 10-14 6-10 7-14 3-7 1-8 2-1 5 1 6-1 5 2 8-1 5-1-2 4-7 5-2 13-1 9 1 2h10l17-8 3-1-11-25-1-7 2-11 4-3-1-5-4-1-5-1-5-4-7-1-4 5-8 7-5 7-2 6-3 4h-2l-4-13v-8l4-10 7-6 7-3z" fill="#17A898"/>
<path transform="translate(1175,542)" d="m0 0 2 4-1 3v8l-6 1-1 2v16l7 2 12 1-3 9-15 36-8 23-4 20-4 18 4 1 3 9 20 59 4 17-3 6-4 5-14 3-1 1h-6v3l4 4 8 2 27 2 9 2 44 3 50 1h5l-3-6 1-2 3 3 9 16 11 14 10 10 2 1v3l-13 8-13 6-16 5-6 1h-32l-18-4-17-6-16-8-19-12-14-11-23-23-12-18-10-18-11-27-9-30-6-25-4-26-1-9v-22l15-13 16-15 12-11 15-14 14-14z" fill="#FCFBFB"/>
<path transform="translate(942,505)" d="m0 0 3 4 13 30 16 37 2 2 11-22 11-23 5-9 2 2 10 26v2l7-4 18-13 10-7h18l1-4 2 12 4 8 3 4 4 2 6 6v10l-2 18-1 21v30l-4 1-5 5-14 13-11 9-10 9-22 18-2 2-4-1-15-13-12-11-8-7-16-15-7-7-2-1v-2l-4-2-40-40v-2l6-3v-14l-3-15-3-19v-8l2 2h6l12-14 7-9z" fill="#FC5066"/>
<path transform="translate(400,605)" d="m0 0 38 4 12 1h16v13l-1 36-1 4-1 51-1 3 14 1 39 6 18 2 1 1 13 2 18 2 22 4 66 10 3 1 1 9v14l-12-1-86-13-99-15v25l-1 7h-15l-2-10-2-19v-7l-13-1-19-3 4 35v5h-14l-5-15-10-35-7-24-1-5v-10l18-57 6-20z" fill="#203749"/>
<path transform="translate(662,496)" d="m0 0h4l4 17 2 17h-12l-2 4h-15l2 8 1 16 8 1 20 4 14 5 1 1-1 9-4 2h-8l-11-2-16-2 2 8 1 6h48l-6-40-2-18-3 2h-8l-1-4 9-29 2-2 5 1 1 1 1 12 1-13 4 2 7 8 6 8 8 16 5 12v2l4-4 11-14 10-13 1-2h2l3-10 5-8 5-1 2 1v10l-2 5-3 4-3 8-7 15-12 21-9 13-7 3-7-2-7-8-7-13 2 16 5 15 8 33 2 5 5 35v12h-3v-2h-43l-3-6-5-21-4-17v-3h-2v15l-4 35-21 1-8-1v-17l1-4v-12l4-44 1-8v-11h-9l-25-4-8-3v-7l11-22 11-17 7-9 9-7 16-6h2l-2 18 5 2v4l5-4-10-3 1-7 3-9z" fill="#FBFAFA"/>
<path transform="translate(1828,485)" d="m0 0 4 1 10 16 8 2-4 13 1 9h10l8-6 5-5 10 14 10 16 4 7 9 14v3l-9 4-6-1-12-5-3-5-6 2-8-3-3-6-9-4-9-2-7-1-2 3v7l5 5 16 7 14 7 1 4-1 6v24l1 5v18l-4 20-8 26-5 1-22-3-53-9-1-3 10-30 5-11h-32l-9-2-1-1v-28l5-1 26-1 30 1 2-5 6-13 2-9 2-25 3-12-1-7-12-28 1-4z" fill="#203748"/>
<path transform="translate(452,440)" d="m0 0h7l5 2 11 1 3 5 3 9 4 4-1 6-3 2 5 1v1h-14l-6 2-2 11v13l2 6 3 3 5 3 4 5 3 7 3 20 1 16h2l2-5h2l2-5 3-4h2l1-4 12 1-3 9h-2l-2 6-10 18-1 3h-2l-1 5h-2l-2 5-5 2-7-4-2-3-2-9-1-2v39l-3 2h-16l-41-4-11-1-1-5 5-56 1-5-5 3-9 9-6 1-6-5-13-17-10-13-6-10 4-7 7 6 8 7 16 15v2l4-1 11-18 11-17 4-5 8-2h12l3 1-1-6 3-21-6-3v-6l1-2 7-3 4-6z" fill="#FD5066"/>
<path transform="translate(1536,737)" d="m0 0 2 1 4 15 1 17-2 12-5 15-5 9-8 11-9 10-9 8-13 9-15 8-17 6-16 4-10 1h-18l-14-2-15-4-19-9-9-6 5-5 15-13 9-10 10-15 5-11 2-1h46l4 1-1-3v-8l4-6 8-5h9l22 7 13 3 6 3v-29l10-7 7-5z" fill="#FCFAFA"/>
<path transform="translate(126,578)" d="m0 0 3 3 2 5 4 2 1 4 4 1 13 4 32 6 7 1v3l2 5 2 14 3 9 10 26v2l-9-3-3 10-1 4 10 2 9 3 3 4-1 9-11 42-8 28-3 4h-14l-4-1 1-13 8-53v-12l-12-23-8-15-1-1-12 46-14 69-1 2h-18v-16l3-55 3-46z" fill="#203749"/>
<path transform="translate(1750,624)" d="m0 0h33l4 1-3 10-4 10-7 21-4 1h-28v98h46l8 1 2 7v5l-7 2-10 2-2 1-1 8 37-1-1-13-3-6-1-7 12 1-1-34v-18l4 2 5 5 10 9 12 11 10 9v36l12 1-1 7v3l-1 2h2v2l-16 1h-56l-68-2-42-3-24-3-8-3-1-2 17-4 7-1h13l28-3 3 1 1 2 1-134 3-7 6-5v-2l8-3h4v-2l6-1h11v-2l-13-1z" fill="#DAE2E6"/>
<path transform="translate(1609,616)" d="m0 0 7 1 44 28 15 9 4 11 18 70 2 7v5l-12 5-7 4h-3l-15-43-11-32-4-5-30-13-24-10h-5l-8 16-18 38-8 17-5 4-3-3-8-16-8-14-1-2h3l1-9 11-58 1-3 22-3 36-3z" fill="#18A898"/>
<path transform="translate(317,674)" d="m0 0h39l1 3v16l1 1 1 88h21v3l9-2h10l9 2 6-2 3 2 1 12-1 2h4l-1-3 1-9 1-1 17-3h7l9 2 7-1v4h2l1 2 3 1v-2l9 2 3 1-1 3-15 3-2 1-21 3-26 2h-43-2l-6 10-5 3-8 1-20-8-2-4 7-18 3-5-1-3-16-5-8-2-8 3-5 5-1 9v3l-3-1 1-117z" fill="#4FBEB1"/>
<path transform="translate(1236,665)" d="m0 0h7v122h55l4 4 1 5v3l1 4-5 1-50-1-44-3-9-2-27-2-10-3-3-5 1-2 21-5 4-5 2-7-7-24-18-53-1-6 15 1 44 6 14 2 2 1 1-27z" fill="#DDDFE1"/>
<path transform="translate(645,220)" d="m0 0 6 4 4 9 8 6 7 9v10l36 6 19 3 1 2-3 20v9l-2 13-3 1-93-14-51-8-17-3v-15l2-1 4-28 13 1 45 7 2-6 4-6 6-5 11-4 5-1-3-6-2-2z" fill="#4FBEB1"/>
<path transform="translate(1925,451)" d="m0 0 3 1-8 7-2 6-1 211-1 14-38 2-2 7-12 2-2 2-1 19-5-4-8-11-6-8 1-4 4-9 1-5 4-1 6-19 5-21 1-6v-18l-1-5v-24l1-9-14-7-16-7-6-6v-7l3-4 7 1 12 3 8 5 1 5 10 2 4-2 3 4v2l5 1 10 4 4-1 9-3 4 8 6 9 1-81 1-42 4-6z" fill="#FCF7F5"/>
<path transform="translate(670,620)" d="m0 0h2l9 35 2 9 1 2 43 1 3 12 1 8-1 2h-4l-1 7-14 43-5 14h5v1l-5 1-7 19-7-1-3-2 1-13 1-7-18-1-1 22-1 1v11l10 4 10 2 3 3-1 4-9 1h-26l-1-1 1-12v-14l-2-2v-23l-3-1h3l-1-2-3-30v-12l5-2-8-1-2-21v-6l19-1v-9l3-26z" fill="#FCBDA1"/>
<path transform="translate(819,320)" d="m0 0h2v8l-8 50-5 34-10 66-5 31-7 49-6 38-12 79-10 66-4 24-2 18-15-1-38-6 3 5 8 11v4h-5l-14-10-12-9v-5h-7v-22l1-1 14 1 4 1-1 20 9 3 3-11 4-9 17 1 16 3 4 1v-7l9-57 22-145 10-64 2-18 2-9 3-24 3-16 2-17 2-9 6-39 3-21h-8v-2h14l-2 18-2 7v8l5-35h2v-3h-2l1-4z" fill="#060B12"/>
<path transform="translate(1341,723)" d="m0 0h18l13 4 10 6 9 8 2 5h2l2 7v15l-4 15-10 17-8 10-11 11-13 10-4 1-10-9-8-10-10-14-6-10-5-12-2-17 2-11 1-3 3-3 7-9 8-6 9-4z" fill="#203849"/>
<path transform="translate(164,647)" d="m0 0 4 4 12 23 7 13v12l-10 66 16 1-2 11 6 1 17 4 1 1v8h-42v1l17 2 19 1-4 2-18 1h-7l-1 2h-37l-24-2-14-4-4-2-1-3 1-3 8-3h4v2h5l1-5 2-3 1-12h17l5-27 10-48z" fill="#FCFAF9"/>
<path transform="translate(234,199)" d="m0 0h16l11 4 10 6 9 11 5 11 1 4v16l-5 13-7 10-9 8-8 4-8 2h-13l-13-4-6-3h-2l-7 10-1-2 5-9h2l-1-3-7-6-5-8-3-9-1-6v-8l2-10 7-13 10-10 11-6z" fill="#ABECE2"/>
<path transform="translate(1285,470)" d="m0 0h1l2 6 17 35 8 13 7 11-2 1 1 3 4 4 9 12 7 9 7 8 11 12 5 4 5 5 2 4 6 3v2l4 1v2l5 2 9 6 10 5v2l-9 2h-23l-16-3-17-6-13-7-13-10-6-5-9-11-7-10-7-15-5-15-2-12v-22l3-18 4-12z" fill="#A9ECE2"/>
<path transform="translate(1593,79)" d="m0 0h16l14 5 10 9 7 10 3 8v19l-4 11-8 11 3 4-1 2-3-3-5 1-10 5-6 2h-16l-11-4-9-7-7-9-5-10-2-9v-10l-6-1-1-2h8l5-12 9-10 10-7z" fill="#ABECE3"/>
<path transform="translate(1342,169)" d="m0 0h19l10 4 6 4 7 6 6 9 3 7 1 5v14l-3 10-6 9-9 8-8 5-9 3h-15l-12-5-8-6-7-7-5-10-2-7v-16l5-13 7-9 9-7z" fill="#ABECE3"/>
<path transform="translate(1087,556)" d="m0 0h3v2l9 1 2 2-1 2-3 29v43l4 34 5 24 6 22 8 25 11 26 11 19 10 14 23 23 18 13 15 9 17 8 21 7 11 2h32l16-4 13-5 15-8 5-1v3l-11 7-3 3-5 3-8 3 12-3 4 1-1 3-21 8-16 3h-31l-20-4-18-6-21-10-17-11-16-12-10-9-11-11-10-13-9-14-8-15-9-21-10-31-8-32-4-24-2-17-1-18v-19l2-32 1-7z" fill="#070B12"/>
<path transform="translate(672,414)" d="m0 0h6l9 6 1 2v9l-4 2 1 5 5 5 3 4 3 8-1 9h-2l-2 7-5 7 2 4 3 11v3l6 2 1 1 1 14-2 1-1-13-5-1-3 8-7 22v3h8l4-2 3 25 5 35h-49l-2-7-1-8 16 1 11 2h8l3-1 1-9-18-6-16-3-8-2-3-24 15-1 2-4 12 1-5-25-1-9-5 2-3 3 1-4 6-4h2l1-5 8-5 3-2-11-1-10-4-3-5v-3h-2l-4-11 1-10 6-8 5-3-2-4-3-2-1-4 4-8z" fill="#FDB49B"/>
<path transform="translate(844,26)" d="m0 0 12 1 10 4 10 6 8 10 6 14 1 11 2 3-4 4-6 11-9 10-14 8-3 1h-15l-11-4-11-7-8-9-4-10-2-8-7-1 1-4h7l1-9 6-12 9-10 7-5z" fill="#AAECE2"/>
<path transform="translate(477,377)" d="m0 0 49 7 31 5 14 2 3 1-1 14-10 64-2 11-5 1-11-2-2-3-3-17-5-5-11-7 1-7 4-12 6-7 1-2h5v-15l-2-2 1-8-6-2-11-1-8 2-10 9-1 9v3l7 9 2 3-1 6-3 11-5 2-16 3-4 1 2-5-1-9-4-5-2-5-10-5 4-26 3-17z" fill="#4EBEB1"/>
<path transform="translate(1876,436)" d="m0 0 4 2 1 11-3 5 12 3 7 6 5 10 1 8v16l-2 10-8 14-5 5-5-2-11-10-2 1-8 9-5 3h-8l-3-3-1-7 4-12-7-2-7-10-4-7-9 2-8 2-6-1-8-19-1-3v-9l2-2 57-1 8-7 4-2 1-4h1v6l4-1z" fill="#FDB89E"/>
<path transform="translate(1783,297)" d="m0 0 11 1 12 5 10 9 7 10 4 11v10l-3 10-3 6 2 5 4 7v3h-3v-2h-2l-4-7-4 2-9 7-12 5h-14l-12-4-8-6-7-8-5-10-2-8v-12l5-12 8-11 7-7 1-2z" fill="#AAECE2"/>
<path transform="translate(1500,675)" d="m0 0 1 3 4 2 6 7 3 6v3l3 1 6 10 6 11 7 15 1 4-11 7-9 6-1 29-9-3-16-4-16-5h-9l-8 5-3 5v11h-51l4-19v-22l2 1h90z" fill="#203849"/>
<path transform="translate(1750,624)" d="m0 0h33l4 1-3 10-4 10-7 21-4 1h-28v98h46l8 1 2 7v5l-7 2-10 2-2 1-1 7-6 2-32-1-10-1-1-40v-101l3-7 6-5v-2l8-3h4v-2l6-1h11v-2l-13-1z" fill="#AAECE2"/>
<path transform="translate(463,717)" d="m0 0 13 1 39 6 18 2 1 1 13 2 18 2 22 4 66 10 3 1 1 9v14l-12-1-86-13-92-14-5-2 1-7-1-1v-7h2z" fill="#060C1E"/>
<path transform="translate(1258,584)" d="m0 0h1v164l38-1-1 6v19l4 16h-50l-7-1v-168l1-14h1l1 13 2-7 2-22h7z" fill="#21384A"/>
<path transform="translate(1729,510)" d="m0 0h3l5 8-1 7 13 23 6 12-9 6-29 15-22 12-8 4-3-1-8-16-10-19-5-2-5-7 2-4 10-6 9-3v-2l10-4 20-11z" fill="#FD5066"/>
<path transform="translate(1391,472)" d="m0 0h6l1 1v27h27l1 1v24l-1 6h-27v27l-1 1h-23l-6-1-1-27-28-1v-29l1-1 27-1 1-26z" fill="#19A999"/>
<path transform="translate(830,682)" d="m0 0 28 1 2 1 4 37 6 45 1 16-15 4-26-1v11h-1l-2-11-1-1-2-43-1-23v-24l2-3h2l2-8z" fill="#FCFCFC"/>
<path transform="translate(951,206)" d="m0 0h8l12 3 6 3 4-1 7-2-1 2h-2l-2 4 1 5 5 8 2 8v12l-3 8-6 9-9 8-7 4h-20l-10-5-4-3h-3l-4 7h-4l1-5 4-6-2-6-3-6-1-5v-11l4-13 7-8 6-5 9-4z" fill="#AAECE2"/>
<path transform="translate(310,323)" d="m0 0 1 3-13 49-12 46v6l3 2v2l-5-2h-6l-4 18 10 2 17 4-2 11-12 45-5 19-1 2-16-4-26-6h-4l2-11 17-65 5-1 13 3 1-8 3-10 1-2 5-1 3-10 10-38 8-31 5-20z" fill="#F45066"/>
<path transform="translate(945,481)" d="m0 0 3 2 11 26 16 36 1 2 12-23 8-17 8-15h2l9 23 6 18 5-2 20-14 2-1h21v10l-1 4-18 1-18 13-14 10h-3l-10-25-2-4-14 28-11 23-3 3-7-14-15-35-10-23-1-1-7 9-8 10-10 12h-6l-1-1 1-13 11-13 22-28z" fill="#FDF7F4"/>
<path transform="translate(1340,710)" d="m0 0h22l13 4 13 7 10 8 8 11 3 9v20l-4 17-8 16-6 9-5-1-2-2-2-1-1 2v-2l-2-1 3-2 2 1v-2l5-1 1-2-5-1 1-5 7-14 3-12v-15l-1-7h-2l-6-8-11-8-12-5-5-1h-18l-10 3-10 6-7 8-3 5h-2l-2 18 3 16 6 12 10 16 9 11h-3l-4-2v4l3 1v2l3 1 1 2 7 4-1 2 3 1v6l-5 7 4 2 2 2-9 6-7 4-6-1-13 3 2-3 7-2 2-2 4-2 5-4 6-4h2v-3l-4 1 1-2h2v-3l-4-2-11-11-12-17-8-15-5-14-2-8v-19l3-11 5-10 10-11 9-6 12-4z" fill="#060C1E"/>
<path transform="translate(1134,529)" d="m0 0h46l-1 5-2 6-5 11-3 6-23 23-8 7-17 16-12 11-11 9-1 12h-1v-43l3-29 2-3 16-4v-2h3v-2l4-2 5-6 4-10z" fill="#FC5066"/>
<path transform="translate(1761,666)" d="m0 0h11l1 3-4 12v11l3 12 7 20 10 27 4 11v4l-52-1v-98z" fill="#4AD4BE"/>
<path transform="translate(210,591)" d="m0 0 10 1 48 12-3 13-11-2-9-1-5 21-7 26-1 7 9 3 1 2-3 11-18-4h-6l-9-3-10-3 1-6 3-8 5 1 4 2-13-33 1-3h2l-2-13v-9h18l-10-2 2-7-2-1z" fill="#18A999"/>
<path transform="translate(533,136)" d="m0 0h14l11 4 10 9h4l4-2 3 1-5 2-2 6 1 4v17l11 2 2 4-5-1-7-2-2-1-6 11-7 6-9 4h-17l-9-3-7-6-6-10-3-9v-8l-14-1-1-3 1-1 14 1 6-11 7-7z" fill="#A9ECE2"/>
<path transform="translate(1552,549)" d="m0 0h3v10l-6 43-8 45-9 46-4-1-8-12-5-8 1-78 12-21 10-16 10-6z" fill="#FBFCFC"/>
<path transform="translate(1092,495)" d="m0 0h20l4 3 9 5 6 8 3 8 1 10-3 11-4 7-6 5h-2v2h-3v2l-8 3-10 1-9-2v-2l-7-1-2-3-5-3-5-8-2-6v-16l4-8 8-9 8-6z" fill="#A2E7DD"/>
<path transform="translate(1260,272)" d="m0 0h255l1 1v273l-9 20-4 8h-2v-167h1l1 8v123l1 23h3v-7l1-2 1-14 1-98v-157l-1-5h-259l-3 3-1 6-1 34-2-2v-46z" fill="#123945"/>
<path transform="translate(624,332)" d="m0 0h12l10 3v2l6 2 4 4 2 6h2l2 4 1 11v8l-3 7h-2l-2 6-5 5-15 6h-8l-12-3-6-4-8-9-2-5-1-7v-11l4-10 6-7 11-7z" fill="#FD5468"/>
<path transform="translate(1464,482)" d="m0 0h12v43l-2 19-5 25-4 13-4 1-2-1 1-4-2 1-1 4-4-2 1-7 2-9-2-1-2 4-8 8-13 9-12 5h-28l-10-1 5 5 15 10 15 6 4 3-1 1-13-1h-2l12 6 7 2v1h-13l-11-5-11-6-9-6v-2l-4-1v-2l-4-2-8-7-1-3-3-1v-2l-4-2-12-13-5-6-11-14-6-8v-2l-3-1v-3l6-3 1-2 4 1 3 3v2h2l1 4h2l5 7v2h2l2 5h2l5 7 5 5 12 13 5 2 19 3h23l11-4 11-8 12-12 5-6 3-3 3-12 1-9z" fill="#050910"/>
<path transform="translate(111,419)" d="m0 0h8l1 2 2 17 2 2h10l7-2h13l8 6 4 6 2 16 1 5-9 9-5 6 1 5 3 9h2v21l-5-2-15-10-2-1-1-4-1-14-3-3-8-7-4-1 1-6h2v-2l-6 1-1-1 1-8 3-11v-6l-4-4-3-1h-14l-11 1-2-1 1-5 7-8 8-6z" fill="#FDB59C"/>
<path transform="translate(357,694)" d="m0 0h1l1 88h21v3l9-2h10l9 2 6-2 3 2 1 12-1 2h4l-1-3 1-9 1-1 17-3h7l9 2 7-1v4h2l1 2 3 1v-2l9 2 3 1-1 3-15 3-2 1-21 3-26 2h-43-2l-6 10-5 3-8 1-20-8-2-4 7-18 4-6 8 1 8 3z" fill="#DADEDE"/>
<path transform="translate(523,391)" d="m0 0 11 1 6 3v8l2 2v15l-4 1-2-1-2 5-3 1-6 18v4l11 7 5 5 3 19-30-4-20-3-14-2 4-5-1-9-3-2 1-4 17-4 11-2 2-11 1-6-8-11-2-3 1-1 1-9 11-10z" fill="#203648"/>
<path transform="translate(1772,669)" d="m0 0 12 1 23 4 1 2-1 3h-2l-2 5-7 13v8l4 17 11 49 3 6v13l-10 1h-27v-8l6-3 14-2-2-12h-2l-8-24-7-18-9-26-1-6v-11z" fill="#FDBFA1"/>
<path transform="translate(343,699)" d="m0 0h6l1 1v51l-2 11-21 1h-22v-33l1-29 1-1z" fill="#ABEDE3"/>
<path transform="translate(453,286)" d="m0 0h2l1 3v17l-2 10-1 9-2 10-1 7h3l3 6-1 11-9 59-1 9 12-1 5-5h8l9 4 5 9 3 5v6l-3 5h-3v4l3 2-1 3-4-3-3-10-1-2-11-1-5-2h-7l-9 3-4 6-6 1v8l6 3-3 21v6l-13-1 1-12 13-86z" fill="#060C14"/>
<path transform="translate(1422,662)" d="m0 0h37l8 2 5 6 1 3v13l-2 10-5 5-10 2h-38l-9-2-5-3-3-7v-18l3-6 5-4z" fill="#FD5568"/>
<path transform="translate(1205,610)" d="m0 0h1l2 9 1 41 11 3 15 2-1 24-1 7-54-7-22-3-3-1 1-9 5-21 4-1 21 3 15 2 3-39z" fill="#203849"/>
<path transform="translate(666,497)" d="m0 0 3 4 1 4h15l4-3-2 9-6 19v3h8l4-2 3 25 5 35h-49l-2-7-1-8 16 1 11 2h8l3-1 1-9-18-6-16-3-8-2-3-24 15-1 2-4 12 1-5-25z" fill="#1F3647"/>
<path transform="translate(670,620)" d="m0 0h2l9 35 2 9 1 2 43 1 3 12 1 8-1 2-31 5-32 4h-18l-2-21v-6l19-1v-9l3-26z" fill="#19A999"/>
<path transform="translate(1607,429)" d="m0 0h9l6 3 4 6-1 7-3 3h-2v12l-2 3 1 1v5l-6 3-8 7v13l3 17-1 1h-9l-13-7-4-4 2-9 3-10v-5l-6-7v-2l-7-2 2-5v-15l3-4 3-7 2-2 7-1 4 2v2l7-3z" fill="#FDB89D"/>
<path transform="translate(1304,663)" d="m0 0h47l7 2 4 4 1 3v19l-3 7-7 3h-51l-5-3-3-4-1-4v-13l2-9 5-4z" fill="#203648"/>
<path transform="translate(337,443)" d="m0 0h9l7 3 9 7 5 5 3 8v10l-3 9-4 6-9 7h-13l-9-1v-2h-5l-3-3-8-5-4-11 1-11 4-9 7-8 8-4z" fill="#ADEBE2"/>
<path transform="translate(802,681)" d="m0 0 28 1-3 9-3 3v24l2 50 1 16 1 1v13h-37l-1-2v-6l23-6-1-13-7-38-6-36v-9z" fill="#FDBFA1"/>
<path transform="translate(1939,464)" d="m0 0h7v18l3 1-3 1 1 6-2 7 3 1-3 1 1 5 8 1v1l-8 1 1 5 1 2h-3l2 7-1 1v5l3 2-3 1v5l2 2-2 1v5h15l1 2-16 1v11l3 2-3 1-1 6 4 2h-4l1 5 16 1-2 2h-14l-1 5 4 1-3 1v6l2 2-2 1 1 6-1 6 3 1h-3l-1 7 3 1-2 1v7l3 1-3 1v5 3 3l16 1v2h-17l2 7-1 5v3 6l2 2-2 1v4l2 2-2 1v4l4 2h-4l-1 7 8 1v1l-7 1 1 5 6 1v1l-7 1v3l3 2-3 1v4l5 1v1l-5 1-1 6 8 1v1l-7 1v4l3 2h-3v7h16v1l-16 1 1 20 3 4v5l-4 4h-7l-4-3v-8l4-2v-21h-15v-1h15v-5-4-4l-9-1v-2h9v-7l-10 1v-2l10-1v-5h-9v-1l9-1v-4l-2-1h2v-6l-10-1v-1h10l-1-7-1-2 2-1-1-6 1-4-2-3h2v-6-4-5l-2-1h2v-5l-2-2 1-5v-10l1-6-2-1v-2l2-1v-6h-9v-1h9l-1-6 1-6-2-2h2v-6l-2-3 2-1-1-6 1-5-2-2h2v-8h-9v-1l9-1-1-5-1-2h2v-5h-17l1-2 16 1-1-8 1-7-2-1 2-1v-5l-3-2h3v-5-4-4l-3-2 3-1 1-5-4-2h3v-7h-8v-1l8-1v-4l-3-2 3-1z" fill="#FC5468"/>
<path transform="translate(858,683)" d="m0 0h11l16 1-1 47v51l3 9v3l-2 1-31 1-6-1-1-7 9-3 10-3h5l-9-70-2-16v-12z" fill="#FDBFA1"/>
<path transform="translate(760,716)" d="m0 0h1l-1 12-6 37-2 18-15-1-38-6 3 5 8 11v4h-5l-14-10-12-9v-5h-7v-22l1-1 14 1 4 1-1 20 9 3 3-11 4-9 17 1 16 3 4 1v-7l4 1 1-1 2-10h1l1-7v-2-9l2-5h1l2 6v-2l1-1-2-2z" fill="#060E1F"/>
<path transform="translate(855,444)" d="m0 0 11 1 8 4 6 7 11 16 8 10 8 11 4 10 1 20-3 13-3-4-3-6-11-9-5-3-11-25-1-7 2-11 4-3-1-5-4-1-5-1-5-4-7-1-4 5-8 7-5 7-2 6-3 4h-2l-4-13v-8l4-10 7-6 7-3z" fill="#04050A"/>
<path transform="translate(452,440)" d="m0 0h7l5 2 11 1 3 5 3 9 4 4-1 6-3 2 5 1v1h-14l-6 2-2 11v18l-4 1h-10l-6-3-5-6-4-7 2-19 1-6-6-3v-6l1-2 7-3 4-6z" fill="#FCB99F"/>
<path transform="translate(1897,690)" d="m0 0h19v42h-47l-8-9v-20l3-3 12-2 2-7z" fill="#17A898"/>
<path transform="translate(319,647)" d="m0 0h13l28 1-1 8h5l1 12v7l-8 2-1-2h-58v96h-1v-96h-7l-1-1-1-14 5-1 1-11z" fill="#A9EBE1"/>
<path transform="translate(408,732)" d="m0 0 13 1 19 3 4 36h15l2 12-8 2-7-2h-7l-17 3-1 12h-4l-1-14-4-1-6 2-13-3v-1h6l-1-10h14l-3-24z" fill="#FCF9F9"/>
<path transform="translate(1182,689)" d="m0 0 19 2 7 1 1 1 1 11 3 66v9l-10 5-11 2-4 4-2 1 7 1-4 2-5 1-5-2-1-2 3-1 5-5 14-11 3-2-1-5-9-6-10-59-2-12z" fill="#FCFCFB"/>
<path transform="translate(1314,787)" d="m0 0h32l43 1-2 6-10 14-13 13-13 10-4 1-10-9-8-10-10-14-5-9z" fill="#DCE1E4"/>
<path transform="translate(859,455)" d="m0 0 7 1 6 5h7l3 4-1 4-3 2-2 11 1 7 10 22v3l-20 10h-10l-2-3 1-9 2-13 9-7 1-2-9 3-6-1-7-1-5 1-3-3-1-5 3-4 2-7 9-10 5-4z" fill="#FDB69D"/>
<path transform="translate(667,697)" d="m0 0h8l-1 3-2 48 3 1-2 1-1 22-1 1v11l10 4 10 2 3 3-1 4-9 1h-26l-1-1 1-12v-14l-2-2v-23l-3-1h3l-1-2-3-30v-12l5-2z" fill="#FDBCA0"/>
<path transform="translate(234,519)" d="m0 0 2 2-4 16 14 2 1 2-10-1-6-1-4 16 6 1 9 3-4 1-11-3-5 17 8 1 7 2v2l-16-3-2 10-1 6h-8l-5 4-3 1h-7l-6-36-2-15 6 2 5 1 8-15 5 2 2 3 4 1 12-4z" fill="#FBFAFA"/>
<path transform="translate(1215,455)" d="m0 0 9 2 10 10 6 3 2 2-1 5-3 3-6 1-2 4-5 5-9 2 10 4 5 4h-3v7l6 2 2 2v16l-3-1 1-5-1-11-4 1-5 16-3 12-2 3h-3l-2-11-1-1-1-9-1-1-1-11-10 1-8 3-2-1 9-4 10-2 1-14-9-7-6-3-1-5 4-7 4-8 5-4z" fill="#FDB39B"/>
<path transform="translate(193,777)" d="m0 0 17 4 5 2v8h-42v1l17 2 19 1-4 2-18 1h-7l-1 2h-37l-24-2-14-4-4-2-1-3 1-3 8-3h4v2h5l1-5 13 1 3-1h9l6 1 5-2 6-1 11 1 2 2 2-2h16z" fill="#DAE1E5"/>
<path transform="translate(911,560)" d="m0 0 2 1 3 15v14l-5 3h-2l-1 2-12 1-13 3-25 5-19 7-11-1-1-4v-2l-3-3 3-3-1-5h12v-6h5l5 3 7 2 8-1 21-7 4-1-1-6-2-6 1-6 3-2 1 1 10-1z" fill="#FCC1A4"/>
<path transform="translate(1209,693)" d="m0 0 16 1 6 1-1 17-6 60-1 6 2 3v11l-1 1-27-1-7-1 1-5 6-2 9-2 5-3h2l-1-9-3-66z" fill="#FDBFA1"/>
<path transform="translate(1158,686)" d="m0 0 15 1 9 2 2 13 8 47 2 12 9 6 1 5-18 14-6 4h-6v-5l8-9 2-7-7-24-18-53z" fill="#FDBFA1"/>
<path transform="translate(1087,556)" d="m0 0h3v2l9 1 2 2-1 2-3 29-1 50h-4l-1-5-1-32-1 10v11l2 16 2 23 2 10 2 9 5 23 8 26 6 18 7 16 12 21v3l-2-1v2l-3-1-6-10-10-21-8-21-9-29-7-30-3-19-2-17-1-18v-19l2-32 1-7z" fill="#050C13"/>
<path transform="translate(1384,797)" d="m0 0 1 2 5 1-2 4-4-1v2l-4 1 5 1 1 3 4-1-1 5-12 13-13 11-4 4 16 9 14 6 24 6v1h-7v2h-8l-5-2-8-2-9-4h-3l8 4 15 5 11 2 9 1-4 4h-11l-19-5-16-7-15-9-3-2-9-1-2-3 1-3 4-4 1-6h-5l2-3h-2l-1-2-4-2-4-5-3-3 1-3 9 5 7 8 5 2 6-4 13-11 9-9z" fill="#070D1E"/>
<path transform="translate(1774,592)" d="m0 0 31 1-2 5-6 10-8 15-2 3-4-1h-28l-9-2-1-1v-28l5-1z" fill="#18A898"/>
<path transform="translate(1808,675)" d="m0 0h6l3 2 2 32 1 2 1 20v34h-11l-2-3-9-40-4-17v-8l10-18h2z" fill="#4DD4BF"/>
<path transform="translate(1341,723)" d="m0 0h18l13 4 10 6 9 8 3 5v2l-23 1h-26l-35-1 2-5 7-9 8-6 9-4z" fill="#16A898"/>
<path transform="translate(671,772)" d="m0 0h8l1 5 19 14 6 4 5 1 1-3v3l8-4h2v-2l4-1 14 3 2 1v5l-10 5-10 2-11 1-39 1-19-1-16-3-9-3-2-1v-2l10-5 2-4 11-2 10 1v10h26l9-1v-5l-15-3-8-4v-11z" fill="#DAE1E6"/>
<path transform="translate(427,638)" d="m0 0h2l3 23 2 23 2 13v15l-14-1-16-3-2-3v-18l8-19 12-24z" fill="#A5EADF"/>
<path transform="translate(525,150)" d="m0 0h8l5 3 5-1 5-2h8l5 3 3 5-1 10-4 11-5 8-9 4-10 1-6-4-6-9-5-12v-10l2-4z" fill="#ABEDE3"/>
<path transform="translate(1236,665)" d="m0 0h6v114h-20l6-56 3-27h2l1-27z" fill="#FCFCFB"/>
<path transform="translate(1831,547)" d="m0 0 7 1 12 3 8 5 1 5 10 2 4-2 3 4v2l5 1 10 4 4-1 9-3 4 8 6 9v6l-7 4-12-3-15-7-12-6-4-1-14-7-16-7-6-6v-7z" fill="#FDBA9F"/>
<path transform="translate(1861,750)" d="m0 0 6 4 1 5 5 2 8 6 3 4v2l6-3 3-4v-5h23l2 15 6 9 2 2h-40l-1 3-9 7-5-4 1-6-11-1-1-1z" fill="#18A898"/>
<path transform="translate(1096,506)" d="m0 0h12l7 3v2l4 1 4 9v12l-5 9-7 5-3 1h-13l-7-4-6-7-2-4v-11l4-9 4-3h2v-2z" fill="#ACECE2"/>
<path transform="translate(1260,272)" d="m0 0h255l1 3-1 2-6-1h-17l-2 1-201 1h-39l-3 3-1 6-1 34-2-2v-46z" fill="#122939"/>
<path transform="translate(1214,448)" d="m0 0h11l8 3 8 11 4 8v24l-1 4-7 1h-9l-4-3-9-3 1-2 9-2 4-2 2-4 3-3 6-1 1-7-4-3-5-3-8-8-9-2-10 4-4 5-4 9-2 3 1 5 8 4 7 6-1 9-1 2-18 2-2-5-1-7v-14l4-13 6-9 8-6z" fill="#05070D"/>
<path transform="translate(672,414)" d="m0 0h6l9 6 1 2v9l-4 2 1 5 5 5 3 4 1 5h-16l-5-2-2-2-2 7-12 8-2 5h-2l-4-11 1-10 6-8 5-3-2-4-3-2-1-4 4-8z" fill="#060D20"/>
<path transform="translate(699,693)" d="m0 0h6l-4 2v7l-4 20-4 26-1 2h-14l-6-2v-18l1-30 3-4z" fill="#AEECE3"/>
<path transform="translate(1454,564)" d="m0 0 3 1-3 12-7 16-7 9-8 7-4 2h-12l-15-6-15-10-5-4-1-3 11 1h28l12-5 15-11 7-7z" fill="#A1E8DD"/>
<path transform="translate(520,505)" d="m0 0h2l7 20 2 5 8 4-1 3-5 1v2l-6 3-12-2-16-2-1 4-5 5-2 4-3 3-1 2h-2l-1-5v-11l6-3 5-1-4-8v-7l3-6 8-4 8-3 6-2z" fill="#FBF8F7"/>
<path transform="translate(830,785)" d="m0 0h17l6 1v1l-5 1v7l37-1 4-1v5h5v-2l-4-2v-3l8 1 3 1v2h2v3l-8 4-6 2-25 2h-60l-7-2-11-2-10-5 1-4 8-1v2l-3 3 4-1 4 2 1-2v2h37v-7h1z" fill="#DDDFE2"/>
<path transform="translate(111,419)" d="m0 0h8l1 2 2 17 2 2h10l7-2h13l8 6 4 6 1 11-1 2-4-1-7-8-7-3h-8l-9 4-5 8-2 7-5 2-1-1 1-8 3-11v-6l-4-4-3-1h-14l-11 1-2-1 1-5 7-8 8-6z" fill="#060A11"/>
<path transform="translate(1313,391)" d="m0 0h2v8l-12 3-6 3-8 7-3 9v22l5 22 9 21 12 24 12 16 2 5-5 5-3-3-7-11-9-15-15-31-4-10-5-18-2-13v-8l2-10 5-10 7-7 6-4 12-4z" fill="#F5FAFA"/>
<path transform="translate(1473,460)" d="m0 0 3 3 8 16 4 14 1 7v30l-4 17-5 13-6 12-5 7-3 1 1-6 5-25 2-12 1-12 1-43h-2l-2-11v-8z" fill="#A4E9DF"/>
<path transform="translate(1872,664)" d="m0 0 45 1v11l-1 14-39 2-6-2v-25z" fill="#FD5066"/>
<path transform="translate(1833,725)" d="m0 0 4 2 15 14 9 8v14l-1 16-27-1z" fill="#FCFCFC"/>
<path transform="translate(1873,456)" d="m0 0h15l6 4 4 5 4 8 1 8v16l-2 10-8 14-5 5-5-2-12-11 1-8-8-8v-2l9 3h16l4 1 3-3 1-4-4-11-2-5-4-2-4-9-3-4-5-1-11 5-3-1 4-4z" fill="#080F1F"/>
<path transform="translate(1090,599)" d="m0 0h1l1 43h2l2-7h1l4 34 5 24 6 22 8 25 8 19-2 4-2 1 6 10 6 11 6 9 7 9-1 2-8-8-10-16-6-10-10-22-7-22-8-28-3-15-2-9-3-17-1-16-2-16v-11z" fill="#090D18"/>
<path transform="translate(440,402)" d="m0 0 4 4 2 1v11l-1 9 12-1 5-5h8l9 4 5 9 3 5v6l-3 5h-3v4l3 2-1 3-4-3-3-10-1-2-11-1-5-2h-7l-9 3-4 6-6-1 5-31z" fill="#060B1D"/>
<path transform="translate(1940,389)" d="m0 0 8 1 5 6 2 12 1 17v13h-26l-1-1 2-26 1-15 4-5z" fill="#17A798"/>
<path transform="translate(1897,731)" d="m0 0h18l1 1v29h-23l-1 2-6-8-14-17-4-6z" fill="#ACECE2"/>
<path transform="translate(1397,373)" d="m0 0h9l16 4 10 5 12 11 7 8 9 16 7 20 5 18 1 8v8l1 4v7l-6 1-2-2-4-29-4-18-4-9-11-21-9-10-9-7-10-4-15-2z" fill="#F3F9F9"/>
<path transform="translate(1820,713)" d="m0 0 4 2 9 9v53l-2 8-2 3-9 2h-6l-1-13-3-6-1-7 12 1-1-34z" fill="#ACECE3"/>
<path transform="translate(578,463)" d="m0 0 65 10 23 5 2 1 13 1-5 4-11 6-6-2-67-11-15-3-1-2 1-8z" fill="#50BFB2"/>
<path transform="translate(857,47)" d="m0 0 6 1 8 7 7 10 3 7v11l-4 6-6 3h-14l-5-4-1-2-1-13 4-21z" fill="#FDFDFD"/>
<path transform="translate(197,605)" d="m0 0 27 1 1 1-1 8-12 45-1 2-3-1-11-29-1-4 3-1-2-13z" fill="#F9F9F8"/>
<path transform="translate(1495,773)" d="m0 0 15 3 10 4 2 3 10 3 2 4-7-1-1 8-4 6-6 3h-11l-16-4-2-2v-6l4-10 1-4 1-6z" fill="#A7EAE0"/>
<path transform="translate(340,782)" d="m0 0 8 1 9 4 9 7 3 6v6l-5 8-5 3-8 1-20-8-2-4 7-18z" fill="#FD5066"/>
<path transform="translate(1315,788)" d="m0 0 6 1 4 4 2 6 3 4 9 1h39l-1 4-13 13-13 10-4 1-10-9-8-10-10-14-4-7z" fill="#FCF8F8"/>
<path transform="translate(1553,758)" d="m0 0h1v26l-6 18-8 15-8 10-7 8-10 9-19 13-22 10-9 3h-6l2-1 1-4 6-2 12-5 12-6 7-1 5-7 4-4v2h2l-1-5 2-3-2-1 6-5 2 2 5-4 4-2 4-4h2l2-5 3-5 5-9-1-1-4 6v2l-3 1-3 3-4-1 6-9 3-2 2-4 3-3 5-11h2l2-21h2z" fill="#050A12"/>
<path transform="translate(1968,728)" d="m0 0h2v44l-3 8-6 7-4 1v2l7-1 12-1v2l-16 4-22 3-31 2h-32v-3l5-3 5-4 3-3h26l15 1 4 1h17l10-3 4-5 3-9z" fill="#D8E1E4"/>
<path transform="translate(149,572)" d="m0 0h2l2 7 11 3 27 11 2 2-1 9-13-1-30-6-9-3-5-8-2-5v-4z" fill="#FDB79D"/>
<path transform="translate(544,497)" d="m0 0 7 1 5 3 5 8v6l-4 6-5 4-9 4-10 3-3-2-5-14-4-12 10-3 9-3z" fill="#1E3647"/>
<path transform="translate(188,818)" d="m0 0h7l5 2 9 8 1 3v10l-4 7-3 3-8 2h-7l-6-4-5-6-1-2v-9l6-11h3v-2z" fill="#ADE8DC"/>
<path transform="translate(627,344)" d="m0 0 11 1 2 1v9l-1 3 10 1 2 2-1 11-1 1h-13v10l-1 1h-7l-6-2-1-5 1-6-10-2-1-1v-9l2-5 11 1 2-10z" fill="#FDF8F5"/>
<path transform="translate(1607,429)" d="m0 0h9l6 3 4 6-1 7-3 3h-2v12l-4 1-2-9-2-2-13-2-5-1h-7l-5 5-3 5h-3l-1-4v-9l3-4 3-7 2-2 7-1 4 2v2l7-3z" fill="#070910"/>
<path transform="translate(1170,557)" d="m0 0h8l18 6 30 3 3 3v5l-16 3v2h-2v-2l-22 1-1 2-16-2-4-2v-16z" fill="#ADECE3"/>
<path transform="translate(497,639)" d="m0 0 49 7 31 5-1 10-4 1-77-12 1-10z" fill="#50BFB2"/>
<path transform="translate(1515,597)" d="m0 0h1v74l-2 1-2-4-5-3-6-7-4-4 4 1-1-40 3-3 5-3z" fill="#203749"/>
<path transform="translate(505,584)" d="m0 0 13 1 41 6 25 4 1 5-1 6-13-1-51-8-16-3z" fill="#50BFB2"/>
<path transform="translate(664,409)" d="m0 0h15l8 4 6 7-1 3-6-8-5-3-7-1-12 1-5 4-1 11 1 4h-9l-50-8-14-2 2-11 11 1 56 9 2-5 6-5z" fill="#4FBEB1"/>
<path transform="translate(1405,787)" d="m0 0h51l5 5 10 5 3 1v2l-17 2-27 2-24-1-1-3 2-5 5-5-6-1-4 3 1-4z" fill="#DCE0E2"/>
<path transform="translate(688,424)" d="m0 0 14 3 51 8 9 1 2 1-1 10-3 1-57-9-15-2-2-1v-2l-2-1 3-2z" fill="#4FBEB1"/>
<path transform="translate(556,303)" d="m0 0h2l2 4 16 2 7 2 12 1 8 2 31 5 38 5 9 1 1 1 27 3 6 2v5l-9-1-20-3-17-2-16-3-32-5-18-2-15-3-30-4-5-1 1-7z" fill="#070F16"/>
<path transform="translate(161,653)" d="m0 0h1l-1 10-9 36-13 64-1 2h-18v-16l2-36 2-2 1 3v38l1 10 7-2 2-6 3-11 2-15 1-1 4-24 5-20 4-15 3-12z" fill="#122D3C"/>
<path transform="translate(220,223)" d="m0 0 5 4 5 8 1 1h12l1-3 4 5 11 23v9l-4 5-6 1-5-5-5-8-11-23-7-14z" fill="#FDFDFD"/>
<path transform="translate(1838,467)" d="m0 0h18v6l-3 1-3 9v14l2 6-1 1h-7l-5-5-9-14-3-1-7-11v-4z" fill="#FCF9F8"/>
<path transform="translate(582,436)" d="m0 0 58 9 9 1 1 5-1 6h-9l-58-9-2-1 1-10z" fill="#4FBEB1"/>
<path transform="translate(688,481)" d="m0 0 15 1 52 8v10l-1 1-14-1-48-7-3-4z" fill="#50BFB2"/>
<path transform="translate(1087,556)" d="m0 0h3v2l9 1 2 2-1 2-3 29-1 50h-4l-1-5-1-32-1 10-2 1-1-12h-1v-18l2-18z" fill="#05080E"/>
<path transform="translate(673,749)" d="m0 0 14 1 4 1-1 20 8 4 3 5 8 10 1 6h-5l-14-10-12-9v-5h-7v-22z" fill="#060D1E"/>
<path transform="translate(838,490)" d="m0 0 6 1 6-1 5 2 8-1 5-1-2 4-7 5-1 7-9 1-11 4-6 8-9 21v10l-1 3-10-3-3-2 1-4 10-14 6-10 7-14 3-7 1-8z" fill="#070B12"/>
<path transform="translate(234,519)" d="m0 0 2 2-4 16 14 2 1 2-10-1-6-1-4 16 6 1 9 3-4 1-11-3-5 17 8 1 7 2v2l-16-3-2 10-2 4-1-3 7-27v-3l-9 3-12-6-2-2-5-1 4-4 7-13 5 2 2 3 4 1 12-4z" fill="#FDB99E"/>
<path transform="translate(1212,491)" d="m0 0 14 5 5 4h-3v7l6 2 2 2v16l-3-1 1-5-1-11-4 1-5 16-3 12-2 3h-3l-2-11-1-1-1-9-1-1-1-11-10 1-8 3-2-1 9-4 10-2 2-14z" fill="#FBBEA3"/>
<path transform="translate(538,535)" d="m0 0 14 3 35 5 6 2-1 9-3 1-42-6-29-5-5-2v-2l6 1 8 1 6-2v-2l5-1z" fill="#50BFB2"/>
<path transform="translate(211,678)" d="m0 0 4 1 3 4-1 9-11 42-8 28-3 4h-14l-4-1 1-13 8-53 2-12 2 3v7l-2 9-1 19-2 9-1 12-2 8v8l4 1 8-3v-6l3-7 2-9 2-6 4-17 2-5 4-19 2-6 1-2-3-1z" fill="#133240"/>
<path transform="translate(439,463)" d="m0 0h2l5 8 13 13 3 2 2-2v18l-4 1h-10l-6-3-5-6-4-7 2-19z" fill="#FCBFA1"/>
<path transform="translate(698,454)" d="m0 0 34 5 26 4 1 1-1 10h-8l-37-6-16-2-2-1v-3l2-1z" fill="#50BFB2"/>
<path transform="translate(1134,516)" d="m0 0h53l-2 6-4 10-1-3-2 1-43-1-1-1z" fill="#FDF4F1"/>
<path transform="translate(837,47)" d="m0 0 3 1-6 8-6 12 6-1 1-7 3-2 3-9 3 1v16l1 4-5 3-2 7-3 2-4-4-3-5-3-2-3 6 1 5 4 3 4 1h7l3-2 2-9h3l1-2 1 10-4 7-4 2h-12l-6-3-5-6v-9l6-12 8-11z" fill="#FDFDFD"/>
<path transform="translate(406,709)" d="m0 0h9l16 2 6 3 1 14-6 1 7 3v3h-12l-14-2-5-2v-3l11-1-11-2-1-3z" fill="#050B1D"/>
<path transform="translate(1861,608)" d="m0 0h2l2 8v18l-4 20-8 26-5 1-22-3-53-9-1-3h10l29 5 3-12h1l-1 12 21 4 13 1 2-1 1-7 5-17 3-17 1-21z" fill="#102434"/>
<path transform="translate(1516,698)" d="m0 0 4 4 5 9 9 17 3 9-11 7-10 6-1-4v-35z" fill="#17A898"/>
<path transform="translate(694,574)" d="m0 0h2l1 7 3 1 1 9h-49l-2-7-1-8 16 1 17 3v2h6v-2l2-1v-3z" fill="#1E3748"/>
<path transform="translate(1845,818)" d="m0 0 9 1 5 3 3 6v8l-2 5-3 3-6 2-8-1-7-5-2-4v-7l1-4 7-6z" fill="#9AE3D8"/>
<path transform="translate(1683,510)" d="m0 0h7l3 2 1 4 12 2 4 3-14 8-16 8h-2l1-11-7 1-4-4v-5l10-6z" fill="#FDBC9F"/>
<path transform="translate(1260,272)" d="m0 0h83l-4 2 9 1v1h-28l-5 2h-65l-3 3-1 6-1 34-2-2v-46z" fill="#142A3B"/>
<path transform="translate(525,150)" d="m0 0h8l5 3 5-1 5-2h8l5 3 3 5-1 10-4 11-5 8-9 4-10 1-6-4-6-9-5-12v-10l2-4zm23 3-5 4h-6l-4-3h-6l-5 4v8l7 14 6 7 3 1v-4l11 1 5-5 6-11v-11l-5-4z" fill="#FDFDFD"/>
<path transform="translate(684,479)" d="m0 0 4 3 3 11v3l6 2 1 1 1 14-2 1-1-13-5-1-6 6h-13l-3-3-3-6-5 1-3 3 1-4 6-4h2l1-5 8-5z" fill="#F4BDA1"/>
<path transform="translate(1366,847)" d="m0 0 6 2 15 7 22 6 5 1v1h-7v2h-8l-5-2-8-2-9-4h-3l8 4 15 5 11 2 9 1-4 4h-11l-19-5-16-7-6-4 2-5 2-1-1-4z" fill="#050911"/>
<path transform="translate(1090,599)" d="m0 0h1l1 43h2l2-7h1v9l-2 2-1-1 2 21 4 23 5 19 1 4 8 26 6 14 2 7 7 14 10 17 10 13-1 2-8-8-10-16-6-10-10-22-7-22-8-28-3-15-2-9-3-17-1-16-2-16v-11z" fill="#122939"/>
<path transform="translate(1861,750)" d="m0 0 6 4 1 5 5 2 8 6 4 6-6 8-5 6-13-1-1-1z" fill="#1DAB9B"/>
<path transform="translate(1373,857)" d="m0 0 6 1 9 4 9 2 10 2v-2l2-2h32l-4 2 1 2 7 1v-2h5l-4 8 4 1-18 2h-14l-10-1 4-3 2-1-17-3-20-7z" fill="#060D1E"/>
<path transform="translate(1496,593)" d="m0 0 6 2 10 7-4 8-14 7-9 3-4-2-1-7 6-10 8-6z" fill="#FDBEA1"/>
<path transform="translate(389,783)" d="m0 0h10l9 2 6-2 2 1v12h-41v-8l10-4z" fill="#070D15"/>
<path transform="translate(439,783)" d="m0 0h7l9 2 7-1 1 4v7l-4 1h-37l-1-9 1-1z" fill="#09141B"/>
<path transform="translate(1464,482)" d="m0 0h12v43h-2l-1-5-2 1-2-4-2 7-3-1z" fill="#0D2533"/>
<path transform="translate(1717,751)" d="m0 0h6l2 6-2 4-28 13-3 2-4-1-2-4v-6l10-5 8-5z" fill="#1EAB9B"/>
<path transform="translate(193,777)" d="m0 0 17 4 5 2v8h-41v-11l4-1h13z" fill="#1C3847"/>
<path transform="translate(1604,120)" d="m0 0h18l2 1-1 5-7 9-6 4h-10l-7-4-2-2 1-4 7-7z" fill="#FDFDFD"/>
<path transform="translate(177,830)" d="m0 0 2 4 13 1 17 3-2 6-4 5-8 4h-7l-6-4-5-6-1-2v-9z" fill="#98E3D9"/>
<path transform="translate(118,780)" d="m0 0 13 1 3-1h9l13 3 2 1v7l-1 1h-36l-4-1z" fill="#1E4C58"/>
<path transform="translate(1515,597)" d="m0 0h1v74l-2 1-2-4-3-2v-54l-2-1 5-9z" fill="#123C47"/>
<path transform="translate(1177,546)" d="m0 0 6 1 7-1 5 2v-2l4 1-2 2v5l3-1v-2l3 1-4 6-2 5h12l15 1 6 2 1 5h2l1-5 2 3-3 6-12 2h-9v-1l17-2-1-7-32-3-18-6-3-3v-8z" fill="#E3BCA1"/>
<path transform="translate(1812,777)" d="m0 0h2v13l-10 1h-27v-8l6-3 7-1h18z" fill="#1C3D4B"/>
<path transform="translate(1363,285)" d="m0 0h44l1 1v7l-1 1h-44l-1-4z" fill="#16A898"/>
<path transform="translate(518,741)" d="m0 0 21 3 17 3 17 2 22 4v1h-18l-4 2-14-1-45-7v-1l10-1v-2l-7-1z" fill="#081424"/>
<path transform="translate(809,785)" d="m0 0 4 1 2 1h7l6-1v12h-37l-1-2v-6z" fill="#080D15"/>
<path transform="translate(1249,518)" d="m0 0h3l3 5 2 1 1 32 1 3v25l-2 5-6 1-2 21-3 10h-1v-19l1-13 5-1v-2h4l-1-28-3-32-2-5z" fill="#153542"/>
<path transform="translate(863,783)" d="m0 0h7l8 2 6-2 3 8v3l-2 1-31 1-6-1-1-7 9-3z" fill="#070E16"/>
<path transform="translate(1894,762)" d="m0 0 2 1 1 3 6 3 1 2-5 6-8 7-3 3h-2l-1 3-9 7-5-4 1-6h2l2-4 9-10 6-4z" fill="#0A121F"/>
<path transform="translate(1099,503)" d="m0 0h9l10 5 6 7 2 6v13l-4 8-5 5h-2l-4 4h-16l-10-6-5-6 2-4 4 6 6 5 3 1h13l8-4 5-7 1-3v-12l-4-9-3-1-1-2-6-2h-12l-6 1v2l-4 3h-2l-3 9-1 5-3 3v-7l2-7 5-7 8-5z" fill="#FD7E7F"/>
<path transform="translate(462,610)" d="m0 0h4v13l-1 36-1 4-2 49-2 2-1-3-1-12v-19l2-18 2-8-1-40-2-1-13-1v-1z" fill="#122737"/>
<path transform="translate(1704,546)" d="m0 0 5 1 1 3 8-1 3 3v6l-4 2 1 8-3 2h-5l-4-4-3 2-4-1-2-4 1-5 5-1-3-5 1-4z" fill="#FDF3EF"/>
<path transform="translate(666,497)" d="m0 0 3 4 1 4h15l4-3-2 9-7 22-1-2-7-1-5-25z" fill="#1AA999"/>
<path transform="translate(663,562)" d="m0 0h7l18 6 1 1-1 9-4 2h-8l-11-2-11-1v-1h9z" fill="#FCB69C"/>
<path transform="translate(662,496)" d="m0 0h4l4 17 2 17h-12l-2 1-2-4 1-4 6-2 2-2-10-3 1-7 3-9z" fill="#F5F4F1"/>
<path transform="translate(1790,309)" d="m0 0 5 1-1 4-6 4-5 8 1 4 5 6 6-1 5-5 1-7-2-7v-4l4 2 2 6v9l-4 7-5 4-6 4h-2l-1 8-5 10-4 3-6-1v-2h5l4-6 4-10 1-4-6-10v-9l7-11z" fill="#FDFDFD"/>
<path transform="translate(669,786)" d="m0 0 9 1 13 3 3 3-1 4-9 1h-26l-1-1 1-10z" fill="#081118"/>
<path transform="translate(296,781)" d="m0 0h1l1 11 5 3 9 6 4 1v2l-10-2-21-3-15-4v-4l20-5 6 1z" fill="#DAE1E4"/>
<path transform="translate(809,595)" d="m0 0h1l3 12-4 10-9 20-2 1-1-7-3 1-1 2-1 12-4-1v-7l15-30 4-9h2z" fill="#FDBFA1"/>
<path transform="translate(671,772)" d="m0 0h8l1 5 19 14 9 6-4 2-8 1-11-1-1-2 9-1v-5l-15-3-8-4v-11z" fill="#FAF1EF"/>
<path transform="translate(1090,583)" d="m0 0 2 1v3l4-1 1 6-1 50h-4l-1-5-1-32-1 10h-1l-1-16v-12l1-3z" fill="#060B1B"/>
<path transform="translate(1195,762)" d="m0 0 7 4 2 3-1 4-20 15-3 2h-6v-5l8-9 2-5 9-5z" fill="#1F3C4C"/>
<path transform="translate(1873,456)" d="m0 0h15l6 4 4 5 4 8v2h-2l-1 2-2-2-4 3h-2v-2l-4-2-4-9-3-4-5-1-11 5-3-1 4-4z" fill="#060B1C"/>
<path transform="translate(643,240)" d="m0 0 8 2 8 7 2 7-1 1-12-1-17-3-1-3 6-7z" fill="#F0F9F8"/>
<path transform="translate(1209,780)" d="m0 0h5l2 2 8-2 1 1v11l-1 1-27-1-7-1 1-5 6-2 9-2z" fill="#123843"/>
<path transform="translate(1434,806)" d="m0 0 7 1 5 4 2 9-4 6-3 2h-9l-5-5 1-3 14-2 1-1-16 1v-6l5-5z" fill="#FBFBFC"/>
<path transform="translate(1501,407)" d="m0 0h1l1 8v123l1 23h3v5l-4 8h-2z" fill="#122939"/>
<path transform="translate(1155,681)" d="m0 0 25 3 46 6 7 2v4l-54-7-22-3-3-1z" fill="#102A36"/>
<path transform="translate(1861,608)" d="m0 0h2l2 8v18l-4 20-7 23-4-1 1-8 5-17 3-17 1-21z" fill="#122D3C"/>
<path transform="translate(1244,322)" d="m0 0h1l1 107v17l-1 19-2-1v-140z" fill="#192F40"/>
<path transform="translate(1107,729)" d="m0 0 3 4 6 18 7 16 12 21v3l-2-1v2l-3-1-6-10-10-21-8-21z" fill="#050A12"/>
<path transform="translate(1505,272)" d="m0 0h10l1 3-1 2-6-1h-75l-27-1v-2z" fill="#040D13"/>
<path transform="translate(400,605)" d="m0 0 28 3 5 1v1h-10l-18-1-2 1-5 17-2 7-3 10-4 13-5 6h-1l1-9 14-44z" fill="#112A39"/>
<path transform="translate(691,499)" d="m0 0 5 1 1 1 1 12 1-6h1v14h-7l2 5v4h-2l-1-5-9-3 3-11 3-10z" fill="#F2F2F1"/>
<path transform="translate(1322,386)" d="m0 0h6l5 4 1 2v8l-6 5h-6l-5-3-1-2v-9l4-4z" fill="#080E20"/>
<path transform="translate(1388,369)" d="m0 0 6 1 4 4 1 8-6 6h-7l-5-4-1-8 3-5z" fill="#081022"/>
<path transform="translate(766,496)" d="m0 0 6 1v10l-2 5-8 11h-4l-3-3 3-10 6-12z" fill="#FEC0A2"/>
<path transform="translate(1363,855)" d="m0 0 6 1 1 2 20 7 18 4 9 1-4 4h-11l-19-5-16-7-6-4z" fill="#070B12"/>
<path transform="translate(382,665)" d="m0 0 1 4-1 9-2 3v15l2 5 2 12 7 23 1 7h-3l-9-30-5-20v-10l5-16z" fill="#102A39"/>
<path transform="translate(867,63)" d="m0 0 4 2 5 9v8l-5 4-2 1h-9l-4-2-1-2v-7l4-1 5 5h4v-7l-4-2 2-5z" fill="#ABEDE3"/>
<path transform="translate(188,687)" d="m0 0 2 3v7l-2 9-1 19-2 9-1 12-2 8v8l4 3h-9l1-13 8-53z" fill="#0F2434"/>
<path transform="translate(1328,816)" d="m0 0 9 5 7 8 3 2 1 2h2l-1 5-1 1 3 3 5-2 1 5h-2l-1 2-7-1-1 4h-6l-2-3 1-3 4-4 1-6h-5l2-3h-2l-1-2-4-2-4-5-3-3z" fill="#04050A"/>
<path transform="translate(1869,515)" d="m0 0 5 5 11 17 7 12 10 16-1 2-4-1v-3h-2l-5-10-14-22-1-3-7-6-7 6-4 1 3-5 6-5z" fill="#152F3D"/>
<path transform="translate(1543,737)" d="m0 0h2l2 7 2 3 1 9v17l-2 9-2 1-5 12-4 4 1 2-5 1 6-16 2-7 1-9 2 4 1-2h2l-1-20-3-12z" fill="#0A151F"/>
<path transform="translate(1541,798)" d="m0 0 2 1-2 5-5 10-4 6-5 2 1 3-5 1-6 6-2-1v-2l-5 4-1 2-3-1 14-14 6-8 7-1 2-4 2-3z" fill="#071022"/>
<path transform="translate(423,642)" d="m0 0 1 3-7 15-9 19-3 8-1 17-3-1-2-8 3-14 5-10 5-12 7-14h2v-2z" fill="#132E3D"/>
<path transform="translate(490,517)" d="m0 0h4l-2 5v7l3 5v4l-6 2-6 1-2-12v-9z" fill="#4CBDB0"/>
<path transform="translate(121,765)" d="m0 0h16l-3 10v3l4 2-7 2-10-1-2-2 1-2z" fill="#FDB89D"/>
<path transform="translate(493,282)" d="m0 0 13 1 34 5 6 2 1 3h-10l-46-7z" fill="#050810"/>
<path transform="translate(325,496)" d="m0 0 16 1 11 1-1 7-2 3-9-2-8-3-12-1-2-1 1-3z" fill="#FEC0A2"/>
<path transform="translate(1090,599)" d="m0 0h1l1 43h2l2-7h1v9l-2 2-1-1 2 21 2 11v7h-2l-2-9-3-17-1-16-2-16v-11z" fill="#152C3C"/>
<path transform="translate(127,602)" d="m0 0h1l2 26 1 1v16l-1 3-2 32-1 1-1 7h-1v-29l1-11z" fill="#112B3A"/>
<path transform="translate(193,596)" d="m0 0 2 2 7-2h5l-1 5-1 2 10 1 1 2h-15l-4-1 2 22-4-1-3-18-4-3h4z" fill="#112231"/>
<path transform="translate(123,711)" d="m0 0 2 3v38l1 10 2 2h-8v-15l2-36z" fill="#0C1B29"/>
<path transform="translate(1244,688)" d="m0 0h1l1 8v90l-3 1v-82z" fill="#12293A"/>
<path transform="translate(1161,654)" d="m0 0 24 3 14 3-3 2h-9l-8-2h-14l-3 4-2 13-4 2v-8l4-16z" fill="#122333"/>
<path transform="translate(1501,849)" d="m0 0m-1 1m-1 1m-7 1h7v3l-16 8-15 6-9 1 2-1 1-4 6-2 12-5z" fill="#04070F"/>
<path transform="translate(176,761)" d="m0 0 1 4 16 1-2 11 2 1-2 2h-13l-3-2h2l1-10 1-2h-3z" fill="#FCBC9F"/>
<path transform="translate(1853,473)" d="m0 0 4 1 2 13 1 4-8 10-2-1-1-3v-14z" fill="#080C13"/>
<path transform="translate(1225,517)" d="m0 0h2l-3 10-3 12-2 3h-3l-2-11-1-1-1-11 11-1z" fill="#112A35"/>
<path transform="translate(694,775)" d="m0 0h4l3 5 8 10 1 6h-5l-14-10-2-4 1-2 6 1-1-3-2-1z" fill="#070D14"/>
<path transform="translate(168,649)" d="m0 0h2v2h2l4 7v2h2l2 6 5 10 6 13v13l-3 13h-1v-9l2-9v-7l-1 5h-1l-2-10-10-19-7-13z" fill="#142F3D"/>
<path transform="translate(1790,779)" d="m0 0h9l9 1v4h-14l-1 1h-13l1 2 9 1 12 1v1l-25 1v-8l6-3z" fill="#0E222F"/>
<path transform="translate(760,716)" d="m0 0h1l-1 12-3 20-1-3-3 1-1-1-2 11h-2l1-11 2-3 1-7v-2-9l2-5h1l2 6v-2l1-1-2-2z" fill="#08151F"/>
<path transform="translate(1750,624)" d="m0 0h33l4 1-2 6h-36v-1l6-1h11v-2l-13-1z" fill="#AEECE3"/>
<path transform="translate(523,503)" d="m0 0h5v10l3 11 2 2 5-1 10-3 9-3-2 4-12 6-10 3-3-2-5-14-4-12z" fill="#133844"/>
<path transform="translate(439,735)" d="m0 0 3 1v2h2l1 4 1 24h2v2h7l1-3 3-1v8h-15l-2-10z" fill="#112837"/>
<path transform="translate(1205,610)" d="m0 0h1l1 7v32l-3 9-3 1 1-28 1-11z" fill="#0B1B23"/>
<path transform="translate(1897,474)" d="m0 0 2 2 3-1 1 6v16l-5 5-4-2 3-6-3-11-2-3 1-3z" fill="#04070D"/>
<path transform="translate(1355,272)" d="m0 0h124v1h-72v2h27v1h-41l2-2-40-1z" fill="#106E6A"/>
<path transform="translate(697,581)" d="m0 0 3 1v7l-1 1h-46l1-4h42z" fill="#03040B"/>
<path transform="translate(439,463)" d="m0 0h2l5 8 3 2v3l-5 4-5 9h-3l-1-6 3-19z" fill="#AEE8E0"/>
<path transform="translate(121,538)" d="m0 0h1l3 12 2 10 3 11v3h2l5 14 1 4h-2l-1-4-5-2-5-10-2-19-2-8z" fill="#132C3B"/>
<path transform="translate(444,772)" d="m0 0h15l2 12-8 2-12-3v-1h5v-9z" fill="#FDB99E"/>
<path transform="translate(1260,272)" d="m0 0h83l-4 2 9 1v1h-30l-21-1v-1l-37-1z" fill="#0B4B4B"/>
<path transform="translate(398,772)" d="m0 0h14l2 11-6 3-15-3v-1h6z" fill="#FBB89E"/>
<path transform="translate(1237,498)" d="m0 0h6v14l-2 2-11-6-2-1v-7z" fill="#FAF6F4"/>
<path transform="translate(211,783)" d="m0 0h4v8h-41l1-6 2 1v2l6-1h29z" fill="#102334"/>
<path transform="translate(1465,483)" d="m0 0h10v24l-6-2-1-6 2-7h2l1-4h-3l-2 9h-2l-1-5z" fill="#030309"/>
<path transform="translate(1356,842)" d="m0 0 5 1 6 3-1 2h-2l1 4-3 5-2 1-11-7-3-1 1-4h7z" fill="#080E1F"/>
<path transform="translate(462,610)" d="m0 0h4v13l-1 36-3-1-1-44-2-1-13-1v-1z" fill="#132A3B"/>
<path transform="translate(1968,728)" d="m0 0h2v44l-3 8-6 7-7 3-6 1h-9l-11-2-1-2 6 1h17l10-3 4-5 3-9z" fill="#FDB99E"/>
<path transform="translate(1698,520)" d="m0 0h7l2 1v2l-24 13h-3l2-9 10-4 5-1z" fill="#FBF6F4"/>
<path transform="translate(1818,712)" d="m0 0h2l1 19v34h-11l-1-3h9z" fill="#4CBDB0"/>
<path transform="translate(1115,728)" d="m0 0 2 3 6 17 5 11-2 4-4-2-3-7-3-10-3-6 1-3-1-5z" fill="#15111C"/>
<path transform="translate(496,535)" d="m0 0 4 3-2 5-5 5-2 4-3 3-1 2h-2l-1-5v-11l6-3 5-1z" fill="#BBEAE0"/>
<path transform="translate(1512,749)" d="m0 0h2l1 2v26l-8-1-9-3-3-2 11 1 5 1-1-9v-12z" fill="#122939"/>
<path transform="translate(1812,499)" d="m0 0h2l5 9 3 8h2v7h2v5l-2 4-1 10h-3l-1 2v-9l2-6-1-7-8-19z" fill="#102736"/>
<path transform="translate(1339,273)" d="m0 0h59l-3 2-2 1h-44l-11-1z" fill="#03040E"/>
<path transform="translate(1896,766)" d="m0 0 7 3 1 2-5 6-8 7-2 1v-3l-4 1-7 7v-3l9-10 5-4z" fill="#162C3D"/>
<path transform="translate(185,508)" d="m0 0 4 2 11 11 8 10-2 5-8 14h-4l1-4 3-2 1-3h2l1-10-5-6v-2l-3-1-7-10z" fill="#152737"/>
<path transform="translate(156,785)" d="m0 0h1v7h-36l-3-1v-3l38-1z" fill="#0A1820"/>
<path transform="translate(574,753)" d="m0 0h14l7 2 5 2h11l-2 4h-9l-27-4z" fill="#060E15"/>
<path transform="translate(534,532)" d="m0 0 5 2-1 3-5 1v2l-6 3-18-3 3-2 9-3z" fill="#FEC0A2"/>
<path transform="translate(518,741)" d="m0 0 21 3 17 3 17 2 22 4v1h-18l-4 2h-7l4-3h3v-2l-12-1-40-6-4-2z" fill="#0F2434"/>
<path transform="translate(1373,857)" d="m0 0 6 1 9 4 9 2 10 2v-2l2-2h7l2 2-2 6h-10l-16-4-13-5z" fill="#122939"/>
<path transform="translate(825,545)" d="m0 0 6 1 7 5-2 4-12 5-1-3-2-4 3-7z" fill="#FDB79D"/>
<path transform="translate(1548,779)" d="m0 0h1v7l-5 15-2-2-4 5-1 4-3 1-3 3-4-1 6-9 3-2 2-4 3-3 5-11h2z" fill="#040819"/>
<path transform="translate(723,617)" d="m0 0 14 1 1 1v8l-1 2h-11z" fill="#50BFB2"/>
<path transform="translate(1350,210)" d="m0 0h6l3 4v5l-5 5-5-1-4-5 1-5z" fill="#FDFDFD"/>
<path transform="translate(1195,762)" d="m0 0 7 4 2 3-1 4-20 15h-3l1-4h2v-2l13-10 4-1v-3h-6z" fill="#14323F"/>
<path transform="translate(1693,749)" d="m0 0 2 4 1 3 4 2-9 6-5 1-1 3-1-12v-3z" fill="#FEC0A2"/>
<path transform="translate(1540,742)" d="m0 0h3v2h2l2 8v20l-1 2h-2l-1 2-2-23z" fill="#050C12"/>
<path transform="translate(1155,681)" d="m0 0 25 3 9 2 4 2-1 1h-13l-22-3-3-1z" fill="#122C39"/>
<path transform="translate(1322,820)" d="m0 0 5 1 7 7 5 7 2 1v3l-3 1-5-3-11-11-1-4z" fill="#05080F"/>
<path transform="translate(692,531)" d="m0 0h1l3 25v15h-3l-1-4-1-14-1-1v-17z" fill="#12333E"/>
<path transform="translate(1244,404)" d="m0 0h1l1 25v17l-1 19-2-1v-59z" fill="#142A3A"/>
<path transform="translate(847,37)" d="m0 0h3l1 2v19l-1 15-2-1v-2h-2v-32z" fill="#FDFDFD"/>
<path transform="translate(1591,539)" d="m0 0h11l5 1v8l-19-1 2-7z" fill="#143341"/>
<path transform="translate(1407,273)" d="m0 0h56l-1 3h-28l-27-1z" fill="#030308"/>
<path transform="translate(1886,461)" d="m0 0 5 2v2l6-2 5 10v2h-2l-1 2-2-2-4 3h-2v-2l-4-2 2-3h3l-4-6-3-3z" fill="#0A1120"/>
<path transform="translate(1249,518)" d="m0 0h3l3 5 2 1v23l-1 2h-3l-2-23-2-5z" fill="#132B3B"/>
<path transform="translate(1385,809)" d="m0 0h5l-1 5-12 13-5 3-1-3v-3h2l1-3h2l2-4z" fill="#050F14"/>
<path transform="translate(1818,562)" d="m0 0h2v9l-2 4-1 8-3 5-2 3h-2v2l-3 3h-2l1-5 8-16 3-12z" fill="#112D3B"/>
<path transform="translate(195,630)" d="m0 0h2l11 28 1 5-5-2-1-6h-2l-3-10-4-10z" fill="#162B3A"/>
<path transform="translate(1375,811)" d="m0 0 1 2 3 1-5 5-6 5-2 3h-3l-1 2-2-1v2h-4l2-5 14-13z" fill="#05080F"/>
<path transform="translate(684,521)" d="m0 0 7 2 2 4v3l2 1-2 2h-2l-2 1h-8l-1-4 3-8z" fill="#F9F3EF"/>
<path transform="translate(1467,762)" d="m0 0h8l16 5 10 3-3 2 1 2-11-3-16-5-6-1z" fill="#143945"/>
<path transform="translate(1542,801)" d="m0 0 1 3h3l-2 6-6 9-6 8-1-3-2-1 7-10z" fill="#060D15"/>
<path transform="translate(378,699)" d="m0 0 2 3 6 17 6 21-1 4-2-1-9-30-2-8z" fill="#060A13"/>
<path transform="translate(452,342)" d="m0 0 3 3 1 8-2 9-1-2h-2v2h-2v-2l-2-1 1-12 2-4z" fill="#050918"/>
<path transform="translate(1209,780)" d="m0 0h5l5 3 1 4-13 1-2-1v-2l-5 2-10 2 2-4 14-3z" fill="#16464F"/>
<path transform="translate(456,740)" d="m0 0h4v25l-5 1v-21z" fill="#133341"/>
<path transform="translate(1822,673)" d="m0 0 22 3h7l2-1v5l-5 1-22-3-7-1 3-2z" fill="#112633"/>
<path transform="translate(1507,684)" d="m0 0 4 3 3 6v3l3 1-1 14-2 3h-3l-1-6v-9l1-6-3-6z" fill="#1A3441"/>
<path transform="translate(637,542)" d="m0 0h4v11l1 4-11-2-3-1 2-4z" fill="#ABEDE3"/>
<path transform="translate(674,410)" d="m0 0 7 1v5l-9-1-13 3-2 5h-1v-7l6-5z" fill="#95E1D6"/>
<path transform="translate(751,744)" d="m0 0 5 1v9l-3 15h-2l-1 3-1-11 1-8z" fill="#050A10"/>
<path transform="translate(1192,780)" d="m0 0 2 1-1 2 5-2h9l-1 2-14 3-4 4-2 1 7 1-4 2-5 1-5-2-1-2 3-1 5-5z" fill="#F1EFEB"/>
<path transform="translate(1543,737)" d="m0 0h2l2 7 2 3 1 9v17l-2 9h-2v-30l-3-12z" fill="#122939"/>
<path transform="translate(124,675)" d="m0 0h1l1 6 2-1v10l-2 24-4-1z" fill="#143542"/>
<path transform="translate(668,539)" d="m0 0 6 1 2 2v6l-5 3-6-2-2-5z" fill="#FD5066"/>
<path transform="translate(1775,339)" d="m0 0 5 1 2 3v3l-11 3-1 9 1 3-4-2-1-6 5-8z" fill="#FDFDFD"/>
<path transform="translate(430,640)" d="m0 0 2 4 3 10 1 14v10l-2 2-3-19-1-10z" fill="#132A3A"/>
<path transform="translate(1501,538)" d="m0 0h2l1 23h3v5l-4 8h-2z" fill="#102636"/>
<path transform="translate(1099,503)" d="m0 0h6l1 2-16 3v2l-4 3h-2l-3 9-1 5-3 3v-7l2-7 5-7 8-5z" fill="#E06670"/>
<path transform="translate(1886,781)" d="m0 0 4 1-2 5h-2l-1 3-9 7-5-4v-4l4-1 3 3 2-4z" fill="#09141E"/>
<path transform="translate(888,563)" d="m0 0 6 2 4 12v3l-3 1-9-11v-5z" fill="#FD5468"/>
<path transform="translate(1789,622)" d="m0 0h2l-2 9-8 19-4 9-2 2 1-7 6-18z" fill="#0E212F"/>
<path transform="translate(1091,605)" d="m0 0 2 4v16h3v17h-4l-1-5z" fill="#040715"/>
<path transform="translate(186,549)" d="m0 0h2l3 18v16l-3-1-2-17z" fill="#0C1F2B"/>
<path transform="translate(1203,785)" d="m0 0h2v2h12v4h-27l1-3z" fill="#060C1D"/>
<path transform="translate(819,320)" d="m0 0h2v8l-2 13-1-2-4 1-1-5 1-6h2v-3h-2l1-4z" fill="#060F17"/>
<path transform="translate(747,763)" d="m0 0 3 4 1 2h2l-1 14h-1l-1-6-4 3-7-3-4-2h10l1-10z" fill="#0C1425"/>
<path transform="translate(1222,665)" d="m0 0h7l5 1v23h-3l-1-2v-18l-4-1v-2z" fill="#133140"/>
<path transform="translate(1072,513)" d="m0 0 1 3-1 4v15l5 10 3 3v2h3l4 6-5-2-1-2-5-3-5-8-2-6v-16z" fill="#2FA297"/>
<path transform="translate(707,552)" d="m0 0 4 4 6 12 7 6 3 2-6-1-10-4-2-5z" fill="#1EAB9B"/>
<path transform="translate(1501,614)" d="m0 0h3l-1 45-6-4 2-1 2 1-1-40z" fill="#122939"/>
<path transform="translate(475,441)" d="m0 0h11v6l-2 3h-3v4l3 2-1 3-4-3-3-10z" fill="#04060D"/>
<path transform="translate(465,623)" d="m0 0h1l1 18 1 4 5 1-1 4-6 9-2-3z" fill="#2CB0A1"/>
<path transform="translate(1094,644)" d="m0 0 4 1 2 17v6l-2 2-2-4h-1l-2-21z" fill="#07111A"/>
<path transform="translate(1526,812)" d="m0 0 1 2h2l-2 5-2 2-7 8-4 1-5 5-3-1 14-14z" fill="#060E16"/>
<path transform="translate(742,563)" d="m0 0 2 4 2 1-1 8-3 2-10-2 6-7z" fill="#3DB4A7"/>
<path transform="translate(1553,758)" d="m0 0h1v23h-3l-1 5h-1v-13l1-12h2z" fill="#030308"/>
<path transform="translate(1322,534)" d="m0 0 2 1-1 2 7 1 3 5-1 4-5-1-4-1-2-5-3-1v-3z" fill="#05091C"/>
<path transform="translate(1246,589)" d="m0 0h3v22l-3 10h-1v-19z" fill="#132A3B"/>
<path transform="translate(140,595)" d="m0 0 9 1 36 7 2 2h-9l-17-3-7-2-11-2z" fill="#122536"/>
<path transform="translate(126,518)" d="m0 0h2v5l-2 1-2 7v9l1 1v9l-2-3-1-4-2 1v-15l5-10z" fill="#163240"/>
<path transform="translate(1253,867)" d="m0 0h38l-1 2-4 1h-22l-11-2z" fill="#172D3E"/>
<path transform="translate(523,503)" d="m0 0h5v10l3 11 1 5 4 1-5 1-5-11-5-16z" fill="#071019"/>
<path transform="translate(1244,273)" d="m0 0h63v1l-10 1h-48l-5 1z" fill="#03050F"/>
<path transform="translate(839,50)" d="m0 0h1l-1 8-2 3-1-1-1 7-5 2h-3l2-6 5-8z" fill="#ABEDE3"/>
<path transform="translate(407,737)" d="m0 0 2 3 1 8v16h-4l-1-25z" fill="#13313F"/>
<path transform="translate(859,53)" d="m0 0 4 1 3 4-1 4-9 7h-2l2-5 2-10z" fill="#ABEDE3"/>
<path transform="translate(1552,743)" d="m0 0 2 4 1 7v24h-1l-1-17h-3l-1-10 2-7z" fill="#091728"/>
<path transform="translate(1244,688)" d="m0 0h1l1 8v21l-1 14-2 1v-27z" fill="#152C3C"/>
<path transform="translate(507,472)" d="m0 0h14l7 2 15 1 1 4-30-4-7-2z" fill="#080D16"/>
<path transform="translate(448,389)" d="m0 0h1v9l-2 13-2 1v-5h-2l-2-3v-3h2l1-11 1 2h3z" fill="#050810"/>
<path transform="translate(759,704)" d="m0 0h3v11l-4 5 1 3-2 3-2-2v-9l2-9z" fill="#04060D"/>
<path transform="translate(1092,647)" d="m0 0 2 2 3 23 1 5v7h-2l-2-9-2-10z" fill="#1D3345"/>
<path transform="translate(1109,712)" d="m0 0h2l4 13-1 8 1 3h-2l-3-7-3-12z" fill="#0C131F"/>
<path transform="translate(1353,571)" d="m0 0 3 1 4-1 7 6v7l5 5-1 3-5-4-3-7-5-5-5-1-1-3z" fill="#04081B"/>
<path transform="translate(485,461)" d="m0 0 2 1 1 5 13 1 4 4h-11l-14-2 4-5z" fill="#122736"/>
<path transform="translate(687,445)" d="m0 0 4 1 2 1 1 5h-16l-4-1v-2l10-2z" fill="#04070E"/>
<path transform="translate(728,78)" d="m0 0h6l-4 2-29 8-15 5-3-1 15-6 25-7z" fill="#C6E6E5"/>
<path transform="translate(134,780)" d="m0 0h9l3 2v2l-27 1v-4h12z" fill="#0A1826"/>
<path transform="translate(1544,729)" d="m0 0 5 1 3 9v5l-2 7-2-4-2-2z" fill="#080C14"/>
<path transform="translate(1096,664)" d="m0 0 5 5 2 11v5l-4 2-3-15z" fill="#060C13"/>
<path transform="translate(646,545)" d="m0 0 2 3 2 8 17 2 1 3h-11l-11-3z" fill="#0F2432"/>
<path transform="translate(450,475)" d="m0 0 14 1-1 11-6-4-7-7z" fill="#0C1D27"/>
<path transform="translate(1831,562)" d="m0 0 19 8 14 7 1 4-2 8h-1v-7l1-4-6-2-5-3-9-3-10-4z" fill="#0C1D2B"/>
<path transform="translate(121,538)" d="m0 0h1l3 12 2 10 1 4v10h-2l-2-8-2-13-1-4z" fill="#061018"/>
<path transform="translate(1230,484)" d="m0 0v3zm-3 3 2 1-2 2h5l4 3-9 2-1 2-11-4 1-2 9-2z" fill="#0A111C"/>
<path transform="translate(1184,837)" d="m0 0 5 2 10 6 15 8 13 6-4 1-16-8-19-10-1-3-3-1z" fill="#122939"/>
<path transform="translate(787,501)" d="m0 0h1l-1 16-2 9-1 13-3 1 1-13 4-25z" fill="#122939"/>
<path transform="translate(447,366)" d="m0 0 1 2 3-1 1 1v11l-1 6-5-2 1-6-1-2z" fill="#050812"/>
<path transform="translate(1120,501)" d="m0 0 5 2 6 8 3 8 1 10-3 11-2 1 1-6v-17l-3-6-7-9z" fill="#31A79B"/>
<path transform="translate(1187,769)" d="m0 0 3 1-4 8-7 7-1 4h-3v-5l7-8 2-5z" fill="#172F3D"/>
<path transform="translate(790,505)" d="m0 0 2 2v11l-4 6-2-1 1-16z" fill="#04070D"/>
<path transform="translate(445,418)" d="m0 0h1v5l14-3 2 2-5 5h-12z" fill="#2DA59A"/>
<path transform="translate(458,257)" d="m0 0 15 2 2 2-14 2-1 4h-3l-1 3 1-11z" fill="#08151B"/>
<path transform="translate(1429,807)" d="m0 0 2 1-3 4-1 6 11-2h6l-2 3-14 2 2 4 2 3-4-2-3-4v-9z" fill="#E8D3C8"/>
<path transform="translate(211,783)" d="m0 0h4v8h-22l2-3 17-1z" fill="#0C0C15"/>
<path transform="translate(440,406)" d="m0 0h1v10l-3 24-2 5h-1l1-15 3-22z" fill="#132A3A"/>
<path transform="translate(399,784)" d="m0 0 9 1h3v3l-9 2-5 1-8-1-1-2 12-2z" fill="#060C1E"/>
<path transform="translate(555,750)" d="m0 0h12l6 1v2l-2 2h-12l-6-2 2-1z" fill="#050B12"/>
<path transform="translate(649,576)" d="m0 0 16 1 11 2-1 3-4-1h-18l-2 2z" fill="#0F2230"/>
<path transform="translate(1675,245)" d="m0 0h3l1 7v10l-3 1-10-2v-2h10z" fill="#ABECE3"/>
<path transform="translate(463,717)" d="m0 0 13 1 5 1v5l-7-1-9-1-2-1z" fill="#060B14"/>
<path transform="translate(389,783)" d="m0 0h10v2l3 1-4 1-11 1v2l4 2h-6l-2-7z" fill="#0A0F19"/>
<path transform="translate(771,615)" d="m0 0 4 1v13l-3 4-4-2 2-6z" fill="#03060C"/>
<path transform="translate(191,573)" d="m0 0h1l3 20v4h6v1h-6l-1 2-2-5-4-4h2l-1-9h1z" fill="#16404B"/>
<path transform="translate(1050,160)" d="m0 0 7 5v3h2l4 6v3l-10 3h-3l1-3 8-3-6-7-3-4z" fill="#A4E8DF"/>
<path transform="translate(1894,788)" d="m0 0h29l-3 2-2 1h-21z" fill="#FDFDFD"/>
<path transform="translate(749,776)" d="m0 0 2 1v6l-14-1-6-1v-2l4-1h9l3 1z" fill="#071218"/>
<path transform="translate(518,741)" d="m0 0 21 3 17 3 5 1v1h-8l-32-5-4-2z" fill="#122939"/>
<path transform="translate(188,687)" d="m0 0 2 3v7l-2 9-2 16h-2v-10z" fill="#0A1B2C"/>
<path transform="translate(762,674)" d="m0 0 5 1-1 13h-1l-2-6-2-1v7l-2 3-1-1 1-12 3-3z" fill="#071123"/>
<path transform="translate(1864,495)" d="m0 0 9 3 8 1v2h-4l-2 7h-2l-2-5-7-6z" fill="#060A12"/>
<path transform="translate(1233,467)" d="m0 0 7 3 2 2-1 5-3 3-6 1 1-3h2z" fill="#FA8984"/>
<path transform="translate(1081,535)" d="m0 0 4 5 7 6 5 2 8 1 1 2h-11l-10-6-5-6z" fill="#FD8281"/>
<path transform="translate(179,746)" d="m0 0 3 2v14l4 3h-9l1-13z" fill="#122C3C"/>
<path transform="translate(649,745)" d="m0 0 7 1 1 16h-2l-2-7 1-3-8-4v-2z" fill="#05080F"/>
<path transform="translate(110,425)" d="m0 0h3v2h2v6l-7 1-3-1-1-3 4-4z" fill="#122939"/>
<path transform="translate(435,681)" d="m0 0h1l1 14h2l1 17h-2l-2-8-1-7z" fill="#0F2030"/>
<path transform="translate(308,651)" d="m0 0h18l7 1 1 2h-7l-13 2-3-3z" fill="#DAE2E7"/>
<path transform="translate(462,610)" d="m0 0h4v13l-1 8h-1l-2-16-3-2-13-1v-1z" fill="#0D1928"/>
<path transform="translate(541,748)" d="m0 0h12l8 1v1h-6v2l-2 1-13-1z" fill="#050F14"/>
<path transform="translate(652,584)" d="m0 0 9 1v1h-7v3h46l1 2h-49z" fill="#162E3E"/>
<path transform="translate(1772,666)" d="m0 0h10l14 3v1l-12 1-11-2z" fill="#0F2130"/>
<path transform="translate(205,599)" d="m0 0 1 2-1 2 10 1 1 2h-15l-4-1-1 3v-5z" fill="#1F4250"/>
<path transform="translate(1223,564)" d="m0 0 7 2 1 5h2l1-5 2 3-3 6-12 2h-9v-1l17-2-1-7-9-1z" fill="#F7B89E"/>
<path transform="translate(1849,483)" d="m0 0h1l1 5h2v3h2l2 4-5 6-2-1-1-3z" fill="#091929"/>
<path transform="translate(1780,781)" d="m0 0 3 1-2 1v4l9 1 12 1v1l-25 1v-8z" fill="#122D3C"/>
<path transform="translate(1580,504)" d="m0 0h5v2l-17 5-14 6-2-1 14-7 9-4z" fill="#2AB0A1"/>
<path transform="translate(796,479)" d="m0 0 1 4-1 9h-1v-5h-3l-3 9h-1v-9l1-6z" fill="#091728"/>
<path transform="translate(118,780)" d="m0 0 3 1h-2v4l32 2v1h-33l-1 3z" fill="#173543"/>
<path transform="translate(1189,686)" d="m0 0 14 1 10 2v1h-12l-1 1-14-1v-1l6-1z" fill="#13313F"/>
<path transform="translate(1860,577)" d="m0 0 3 1v30h-2l-1-18z" fill="#2F3645"/>
<path transform="translate(448,382)" d="m0 0 2 3v7h-5l-2 7h-1l1-14z" fill="#0A1527"/>
<path transform="translate(1115,728)" d="m0 0 2 3 4 11-1 2-5-1-2-7v-3l1-4z" fill="#0F1321"/>
<path transform="translate(710,604)" d="m0 0 2 2 2 6-2 2h-19l-3-3v-5l2 2 1 3 18 1z" fill="#E8BDA1"/>
<path transform="translate(531,287)" d="m0 0 13 2 3 3v1h-10l-7-2z" fill="#05070E"/>
<path transform="translate(540,172)" d="m0 0 6 1 1 1v5h-7l-2 1-2-1 1-5z" fill="#FDFDFD"/>
<path transform="translate(1089,630)" d="m0 0 2 2 1 10h2l2-7h1v9l-2 2-1-1-1 2-1 11h-1l-1-16-1-5z" fill="#102939"/>
<path transform="translate(696,563)" d="m0 0h1l2 13v5l-3 1v-8l-6 2 1-8 2-1 1 4h1z" fill="#11333F"/>
<path transform="translate(175,779)" d="m0 0 17 1-2 4h-9l-6-1z" fill="#0F2132"/>
<path transform="translate(1097,684)" d="m0 0h2l5 21 1 5-2 1-3-8-3-15z" fill="#132A3A"/>
<path transform="translate(771,631)" d="m0 0h3l-1 11h-1v-5l-3-1-2 11-2 1v-9l2-7z" fill="#122939"/>
<path transform="translate(1903,568)" d="m0 0 3 4 2 5-7-1-7-3 3-3z" fill="#FDC4A9"/>
<path transform="translate(1365,849)" d="m0 0 1 2 4 1 3 2 3 3-2 1 2 1-1 2-6-3-5-2-1-4h2z" fill="#05091B"/>
<path transform="translate(1516,698)" d="m0 0 4 4 3 5v3l-4 2h-3z" fill="#EBF2EF"/>
<path transform="translate(400,605)" d="m0 0 28 3 5 1v1h-10l-18-1-4 1-2-1z" fill="#162D3D"/>
<path transform="translate(1889,549)" d="m0 0 5 4 4 5 4 7-1 2-4-1v-3h-2l-5-10z" fill="#1A2E3D"/>
<path transform="translate(1828,485)" d="m0 0 4 1 7 12v3l-4-2v-3h-2l-1-6-10-2 3-2z" fill="#1A3644"/>
<path transform="translate(1886,461)" d="m0 0 5 2v2l6-2 3 5-1 2h-4l-1 2-7-8-2-2z" fill="#101022"/>
<path transform="translate(284,424)" d="m0 0 5 5v2l-5-2h-6l-4 17h-2l1-8 3-10 1-2z" fill="#FDB19A"/>
<path transform="translate(677,750)" d="m0 0h7l1 4 1 1-1 9-3 1 1-6 1-2-8-2z" fill="#030308"/>
<path transform="translate(1225,517)" d="m0 0h2l-3 10-1-4-1-2-3 7h-2l-1-2v-6l-4 1v-2l11-1z" fill="#1C5A60"/>
<path transform="translate(523,391)" d="m0 0 11 1 6 3v4h-2l-1 2-1-6h-13v-2l-3-1z" fill="#132A3A"/>
<path transform="translate(457,269)" d="m0 0 2 2 1 11-4 3h-2l1-13z" fill="#060D15"/>
<path transform="translate(1596,91)" d="m0 0 7 1 1 1v6l-1 2-4-1-3-4z" fill="#FDFDFD"/>
<path transform="translate(885,567)" d="m0 0 4 5 6 8v3h-6l-4-12z" fill="#EFEDE5"/>
<path transform="translate(221,571)" d="m0 0 1 3 8 1 7 2v2l-16-3-2 10-2 4-1-3 4-15z" fill="#F9B99E"/>
<path transform="translate(1587,479)" d="m0 0 10 1v3l-8 3h-4z" fill="#0E141E"/>
<path transform="translate(1066,179)" d="m0 0 5 1 8 9v2l-5-1-5-5z" fill="#97E4D9"/>
<path transform="translate(1896,770)" d="m0 0 2 2-4 4-5 3-11 11v-3l9-10z" fill="#1BAA9A"/>
<path transform="translate(790,520)" d="m0 0 1 4-2 13h-1l-1-7-3-1 1-8 2 2z" fill="#091727"/>
<path transform="translate(1873,456)" d="m0 0 4 1 2 3-7 1-8 4-3-1 4-4z" fill="#0C1D2A"/>
<path transform="translate(538,405)" d="m0 0h4v15l-5-1z" fill="#132A3A"/>
<path transform="translate(1791,761)" d="m0 0 2 1v4l-19-1v-2z" fill="#48BCAE"/>
<path transform="translate(673,749)" d="m0 0h5l-2 16h-3l-1-5v-10z" fill="#060A12"/>
<path transform="translate(753,737)" d="m0 0 1 3 3 1v7l-1-3-3 1-1-1-2 11h-2l1-11 2-3 2 1z" fill="#081727"/>
<path transform="translate(757,697)" d="m0 0 2 4 5-4-1 11-1-4-4 2-2 7h-1v-8z" fill="#0E2535"/>
<path transform="translate(394,627)" d="m0 0 1 4-3 11-3 6-2 1 1-7 4-13z" fill="#1B1723"/>
<path transform="translate(667,541)" d="m0 0h5l2 2-1 6h-5l-2-2v-5z" fill="#FDE2D5"/>
<path transform="translate(1881,533)" d="m0 0 4 4 7 12 2 5-7-6-5-8z" fill="#15212E"/>
<path transform="translate(1244,761)" d="m0 0h2v25l-3 1v-25z" fill="#162D3D"/>
<path transform="translate(391,744)" d="m0 0 2 3 3 5 2 7-1 6-2-1-4-14z" fill="#0D1B29"/>
<path transform="translate(1175,542)" d="m0 0 2 4-1 3v8l-8 1z" fill="#F8EAE3"/>
<path transform="translate(182,488)" d="m0 0 5 5 3 5-2 4-3-1-4-12z" fill="#A9EAE1"/>
<path transform="translate(534,270)" d="m0 0h11l4 2v3h-7l-7-2z" fill="#04080E"/>
<path transform="translate(483,519)" d="m0 0h6l-3 7-2 3h-3v-9z" fill="#25AE9E"/>
<path transform="translate(544,497)" d="m0 0 7 1v2h-12v3h-9l2-3z" fill="#0A1625"/>
<path transform="translate(137,489)" d="m0 0h12l-5 5-5 3-2-7z" fill="#0D212D"/>
<path transform="translate(907,315)" d="m0 0 3 1-2 12-4 1 1-12z" fill="#A7ECE1"/>
<path transform="translate(622,202)" d="m0 0 6 2 6 5v3l-5-1-8-7z" fill="#91E3D7"/>
<path transform="translate(468,569)" d="m0 0 3 3 2 9v3h-5z" fill="#BDCDBB"/>
<path transform="translate(755,72)" d="m0 0h7l-3 2-12 3-13 1 4-2z" fill="#C2E7E5"/>
<path transform="translate(122,744)" d="m0 0h1v12l-1 6 3 1v1h-5v-15z" fill="#091A25"/>
<path transform="translate(418,711)" d="m0 0h13l5 2-1 4-11-3-6-2z" fill="#05070E"/>
<path transform="translate(1161,654)" d="m0 0 17 2 1 2h-15l-4 4v-7z" fill="#0A1422"/>
<path transform="translate(374,797)" d="m0 0 21 2-4 2h-15l-2-1z" fill="#FDFDFD"/>
<path transform="translate(1215,662)" d="m0 0 15 2 5 1-1 4v-3h-8v2l2 1-6-1-7-2z" fill="#174851"/>
<path transform="translate(657,502)" d="m0 0 1 4-3 10 10 2 1 2-4 3h-2v-4l-6-2 1-9z" fill="#A7B2A1"/>
<path transform="translate(951,240)" d="m0 0 5 1v7h-6l-1-1v-5z" fill="#FDFDFD"/>
<path transform="translate(697,581)" d="m0 0 3 1v7l-1 1h-7l2-2-7-1v-1h9z" fill="#060F19"/>
<path transform="translate(1072,538)" d="m0 0 8 10v2h3l4 6-5-2-1-2-5-3-4-6z" fill="#349A92"/>
<path transform="translate(1083,511)" d="m0 0 2 2-4 9-1 5-3 3v-7l2-7z" fill="#FD7479"/>
<path transform="translate(1847,437)" d="m0 0 4 1 1 12-3 1-2-10z" fill="#99E7DB"/>
<path transform="translate(1122,274)" d="m0 0 4 1 3 7 1 5h-3l-5-10z" fill="#A3E7DE"/>
<path transform="translate(1085,167)" d="m0 0h7l-1 3-8 2h-6l-1-3z" fill="#97E5D9"/>
<path transform="translate(1614,99)" d="m0 0 9 1 4 5 1 6h-2l-4-6-8-5z" fill="#FDFDFD"/>
<path transform="translate(1389,791)" d="m0 0 4 4 1 3-6 2-3-1 1-5z" fill="#04060F"/>
<path transform="translate(432,659)" d="m0 0h2l2 9v10l-2 2-2-10z" fill="#0A1527"/>
<path transform="translate(1093,562)" d="m0 0h2v16l-5-1 1-12h2z" fill="#060B1D"/>
<path transform="translate(1114,544)" d="m0 0 4 1-1 2h-2l-4 4h-5l-1-1-8-1v-1l11-1z" fill="#CC9B90"/>
<path transform="translate(692,531)" d="m0 0h1v18l-3-1v-13z" fill="#0A1C2C"/>
<path transform="translate(451,360)" d="m0 0h2l1 5-1 7-3-4h-2l-1 5h-1v-8l3-1v-2h2z" fill="#0A1425"/>
<path transform="translate(444,159)" d="m0 0h9v2l-5 2h-10v-3z" fill="#ABEAE1"/>
<path transform="translate(1537,802)" d="m0 0 1 2-1 4-3 1-3 3-4-1 5-8z" fill="#0B0B17"/>
<path transform="translate(1894,762)" d="m0 0 2 1v6l-6 7h-2v-2l-3-1 6-4z" fill="#0C1928"/>
<path transform="translate(1091,605)" d="m0 0 2 4v13l1 10-1 2h-2z" fill="#030308"/>
<path transform="translate(400,607)" d="m0 0 2 3v5l-3 2-3 8h-1l1-8 3-8z" fill="#0A2029"/>
<path transform="translate(338,468)" d="m0 0 5 5 10 14 3 5-4-2-14-20z" fill="#289F94"/>
<path transform="translate(1830,385)" d="m0 0 4 2 5 8v3l-4-1-1-1v-5l-3-1z" fill="#92E3D7"/>
<path transform="translate(1139,327)" d="m0 0 4 1 2 10h-4l-2-7z" fill="#ABEDE3"/>
<path transform="translate(197,303)" d="m0 0h3l-1 5-3 1-1 6-4 2 3-10z" fill="#92E4D8"/>
<path transform="translate(1142,159)" d="m0 0 4 1-1 3h-14v-3z" fill="#9EE4DA"/>
<path transform="translate(1541,798)" d="m0 0 2 1-2 5-4 7h-2l-1 2-2-2 3-4 2-3z" fill="#122939"/>
<path transform="translate(195,779)" d="m0 0 11 1 4 1v3h-9l-4-2v-2z" fill="#081422"/>
<path transform="translate(406,709)" d="m0 0h9l1 2-4 1-3 1 3 4v2l-4 1-2-9z" fill="#04050B"/>
<path transform="translate(378,699)" d="m0 0 2 3 4 11v6l-2 1-4-15z" fill="#08141F"/>
<path transform="translate(386,650)" d="m0 0h2l1 7-5 6h-1l1-9z" fill="#0D2430"/>
<path transform="translate(1086,588)" d="m0 0h1l1 13v15h-1l-1-12h-1v-15z" fill="#030308"/>
<path transform="translate(913,289)" d="m0 0h3l-1 9-2 4-3-1z" fill="#94E6D9"/>
<path transform="translate(1620,258)" d="m0 0h5v3l-2 1h-13v-2z" fill="#94DFD5"/>
<path transform="translate(483,241)" d="m0 0 2 1-4 8-4 5h-2l1-5 6-8z" fill="#ACECE3"/>
<path transform="translate(1293,186)" d="m0 0 10 2 3 2-1 4-5-2-5-3v-2z" fill="#9BE5DA"/>
<path transform="translate(1495,771)" d="m0 0 11 1 9 3v2l-8-1-9-3z" fill="#070D18"/>
<path transform="translate(1844,516)" d="m0 0h1l2 10 10 1-1 2-5 1-7-3-1-6z" fill="#08111F"/>
<path transform="translate(771,491)" d="m0 0h4l-1 8-2 2v-4l-6-1 1-3z" fill="#E9EEF0"/>
<path transform="translate(660,412)" d="m0 0h4l1 3-4 3h-2l-2 5h-1v-7z" fill="#CCE9E5"/>
<path transform="translate(819,320)" d="m0 0h2v8l-5 1v-3h-2l1-4z" fill="#04080E"/>
<path transform="translate(778,68)" d="m0 0h7v2l-9 2h-11l4-2z" fill="#9EE1D8"/>
<path transform="translate(1468,863)" d="m0 0 2 3v2l-5 2h-6l2-1 1-4z" fill="#04050B"/>
<path transform="translate(815,790)" d="m0 0 4 1-1 3h-17v-2z" fill="#122939"/>
<path transform="translate(684,750)" d="m0 0 7 1v7l-5-1-3-4z" fill="#080F21"/>
<path transform="translate(407,722)" d="m0 0 1 3h8l4 2v1h-12v3l3 1h-4z" fill="#122939"/>
<path transform="translate(165,600)" d="m0 0 14 2 8 2v1h-9l-14-3z" fill="#152B3C"/>
<path transform="translate(1226,527)" d="m0 0h4l4 6-2 4-8 6-3-1 9-7h2l-1-3-5-3z" fill="#37AFA2"/>
<path transform="translate(1124,532)" d="m0 0h1l-1 7-5 6-3-1 6-11z" fill="#FD767A"/>
<path transform="translate(698,517)" d="m0 0 1 3-6 1 2 5v4h-2l-1-5-5-2v-2l10-3z" fill="#87BFAF"/>
<path transform="translate(527,515)" d="m0 0 2 2 2 7 1 5 4 1-5 1-5-11z" fill="#070B17"/>
<path transform="translate(139,508)" d="m0 0 5 2 12 8 4 4-4-1-10-7-5-3z" fill="#122738"/>
<path transform="translate(1809,490)" d="m0 0h6l-3 11-2-2-2-5z" fill="#183241"/>
<path transform="translate(669,480)" d="m0 0h12l-5 4-6 2z" fill="#0F1C28"/>
<path transform="translate(1841,411)" d="m0 0h2v2h2l1 13-3-2-2-8z" fill="#92DED4"/>
<path transform="translate(186,328)" d="m0 0h1l-1 7-3 6-3 1 2-9z" fill="#ABEDE3"/>
<path transform="translate(1132,300)" d="m0 0 4 1 3 11h-3l-3-6z" fill="#AEECE3"/>
<path transform="translate(1916,807)" d="m0 0 9 1 4 5v9h-1l-2-9-3-3h-8l-3 1 1-3z" fill="#FDB59C"/>
<path transform="translate(1803,791)" d="m0 0 4 1-6 2-8 1-11-2v-1z" fill="#FDFDFD"/>
<path transform="translate(747,763)" d="m0 0h1v8l-2 6h-7l-4-2h10l1-10z" fill="#122939"/>
<path transform="translate(407,737)" d="m0 0 2 3v14l-1-2h-2l-1-13z" fill="#0F2333"/>
<path transform="translate(186,716)" d="m0 0h1v9l-2 9-3-3 1-12 1 3h2z" fill="#102636"/>
<path transform="translate(1106,703)" d="m0 0 3 2 1 7-2 5-2-2-2-5v-6l2 3z" fill="#04060E"/>
<path transform="translate(1095,666)" d="m0 0h1l2 11v7h-2l-2-9v-8z" fill="#182F40"/>
<path transform="translate(153,577)" d="m0 0h8l2 3 5 1 1 3-5-1-11-4z" fill="#122738"/>
<path transform="translate(161,501)" d="m0 0h2l1 8v10h-2l-1-3z" fill="#0A1727"/>
<path transform="translate(1886,457)" d="m0 0 6 1 4 4v2l-5 1-5-6z" fill="#03030A"/>
<path transform="translate(1584,143)" d="m0 0 4 2 1 6-2 1-3-1v-2h-2l1-5z" fill="#FDFDFD"/>
<path transform="translate(1184,786)" d="m0 0 2 1-3 4 10 1-4 2-5 1-5-2-1-2 3-1z" fill="#FCF9F8"/>
<path transform="translate(145,781)" d="m0 0 9 1 4 2v7l-2-4-5 1 2-1-1-2-6-1z" fill="#194852"/>
<path transform="translate(1466,766)" d="m0 0h9l13 4v1h-7l-9-3-10 1z" fill="#FDBDA0"/>
<path transform="translate(1468,522)" d="m0 0 2 1v17h-3z" fill="#122939"/>
<path transform="translate(491,263)" d="m0 0h9l4 3-3 2-10-2z" fill="#05070E"/>
<path transform="translate(1137,788)" d="m0 0 12 15-1 2-8-8-4-6z" fill="#132A3A"/>
<path transform="translate(752,759)" d="m0 0 2 2-1 8h-2l-1 3-1-11z" fill="#050815"/>
<path transform="translate(709,559)" d="m0 0 8 12v1h-5l-3-6z" fill="#4FC0B2"/>
<path transform="translate(521,537)" d="m0 0 6 3 6-1-2 2-4 2-10-2v-3z" fill="#D4F2ED"/>
<path transform="translate(1229,508)" d="m0 0 5 1 2 2v16l-3-1 1-5-1-11h-4z" fill="#44BAAC"/>
<path transform="translate(170,436)" d="m0 0 3 1 2 13-4-1z" fill="#B5EAE3"/>
<path transform="translate(722,298)" d="m0 0h8l-2 2 1 4 2 1h-6l-2-2h-1z" fill="#0B1D2C"/>
<path transform="translate(497,220)" d="m0 0h3l-2 4-6 8h-2l1-5z" fill="#98E5DA"/>
<path transform="translate(1035,183)" d="m0 0h3l-1 3-4 2h-5v2h-4l1-3z" fill="#94E1D7"/>
<path transform="translate(343,182)" d="m0 0 3 1-3 3-9 4h-3l2-4z" fill="#A3E8DE"/>
<path transform="translate(1418,863)" d="m0 0h14v1l-9 1 5 1v1h-18v-1l6-1z" fill="#030308"/>
<path transform="translate(1882,779)" d="m0 0 3 1-7 8v3l-6-2v-2l6-4z" fill="#1B2C3D"/>
<path transform="translate(1086,603)" d="m0 0h1v14h-1l-1 9h-1v-19z" fill="#121E31"/>
<path transform="translate(1818,562)" d="m0 0h2v9l-2 4-2-1v-8z" fill="#0D1F2E"/>
<path transform="translate(637,542)" d="m0 0h4v5l-5 2-2-3z" fill="#8BE5D6"/>
<path transform="translate(170,382)" d="m0 0h3l-1 13h-3v-8z" fill="#A9E9E0"/>
<path transform="translate(752,303)" d="m0 0h11l-1 5-9-2z" fill="#04090E"/>
<path transform="translate(1596,262)" d="m0 0 4 1-2 2-12 3h-5l4-3z" fill="#ACE5DF"/>
<path transform="translate(1113,162)" d="m0 0h5v3l-4 1h-10v-2z" fill="#ABEDE3"/>
<path transform="translate(679,93)" d="m0 0 3 1-8 4-8 3-4-1 8-4z" fill="#AEE7E0"/>
<path transform="translate(195,788)" d="m0 0h13v3h-15z" fill="#040612"/>
<path transform="translate(1102,724)" d="m0 0 4 1v2h2v8l-3 1-3-9z" fill="#091422"/>
<path transform="translate(189,689)" d="m0 0h2v13l-3 13h-1v-9l2-9z" fill="#122939"/>
<path transform="translate(399,616)" d="m0 0 1 3-3 9-1 6h-2v-6l-1-2 2-3 1 1z" fill="#172B39"/>
<path transform="translate(1882,508)" d="m0 0h5l-2 5h2v2h-2v2h-2v-2h-2v-6z" fill="#030308"/>
<path transform="translate(645,220)" d="m0 0 6 4 3 8-10-1v-1l5-1-3-6-2-2z" fill="#93DFD5"/>
<path transform="translate(1487,853)" d="m0 0 2 1-14 7-8 2 2-3 7-2z" fill="#122939"/>
<path transform="translate(1384,797)" d="m0 0 1 2 5 1-2 4-4-1v2h-2l-1-4z" fill="#091624"/>
<path transform="translate(1780,650)" d="m0 0 1 2-3 8v6h-5v-5l3-2z" fill="#122F3E"/>
<path transform="translate(1467,518)" d="m0 0h1v9h-2l1 6-3 4v-14l3 1z" fill="#030309"/>
<path transform="translate(1123,520)" d="m0 0 3 1v13l-3-1z" fill="#FD938A"/>
<path transform="translate(1683,516)" d="m0 0 4 1 1 4-3 2-4-1 1-5z" fill="#FDFDFD"/>
<path transform="translate(1842,504)" d="m0 0h8l-4 11h-1l-1-7z" fill="#080F1B"/>
<path transform="translate(532,475)" d="m0 0h11l1 4-16-2z" fill="#09101B"/>
<path transform="translate(488,469)" d="m0 0h14l3 3h-11l-6-2z" fill="#060A13"/>
<path transform="translate(1112,250)" d="m0 0 4 1 4 10h-3l-3-4z" fill="#9CE3DA"/>
<path transform="translate(951,219)" d="m0 0 4 1 2 1-1 4h-7l1-5z" fill="#FDFDFD"/>
<path transform="translate(368,173)" d="m0 0 4 1-5 3-5 2h-5v-2z" fill="#ABEDE3"/>
<path transform="translate(1499,844)" d="m0 0 3 1-4 5 1 2-10 1 2-3h3l1-3 1 1 1-2h2z" fill="#070E1F"/>
<path transform="translate(1769,626)" d="m0 0 3 1v1l6 1v1h-23v-1h11v-2z" fill="#DAE2E7"/>
<path transform="translate(1090,583)" d="m0 0 2 1-1 3v11h-1l-1-9-1 10h-1v-12l1-3z" fill="#060B1E"/>
<path transform="translate(613,581)" d="m0 0h4v6l2 1-1 2-7-2z" fill="#50BFB2"/>
<path transform="translate(1837,544)" d="m0 0h4l2 3 3 2-6 1-6-4z" fill="#122A3A"/>
<path transform="translate(121,538)" d="m0 0h1l3 12v6l-2 1-2-8z" fill="#091424"/>
<path transform="translate(1253,536)" d="m0 0 3 1 1 10-1 2h-3z" fill="#050713"/>
<path transform="translate(1841,505)" d="m0 0h2l2 3 1 9-2 3h-2v-12z" fill="#122939"/>
<path transform="translate(104,422)" d="m0 0 2 1 2 4-3 1-1 3-2-1-1-6z" fill="#061222"/>
<path transform="translate(1528,417)" d="m0 0h12l-1 3-10 1-2-1z" fill="#ABEDE3"/>
<path transform="translate(1320,387)" d="m0 0 2 1-3 3 3 1v7l-3-1-3-5 2-5z" fill="#112536"/>
<path transform="translate(1159,159)" d="m0 0h12l1 3h-12z" fill="#9EE6DC"/>
<path transform="translate(175,785)" d="m0 0 2 1v2h13v2h-16z" fill="#040715"/>
<path transform="translate(876,461)" d="m0 0 4 1 2 3-1 4h-3l-3-5z" fill="#FDC1A7"/>
<path transform="translate(512,431)" d="m0 0h2v10l-4 2 1-10z" fill="#112435"/>
<path transform="translate(168,409)" d="m0 0h3v12h-3z" fill="#9BE5DA"/>
<path transform="translate(803,394)" d="m0 0h2l-2 17h-2v-8z" fill="#122939"/>
<path transform="translate(1677,272)" d="m0 0h2v13l-3 1v-12z" fill="#ABEDE3"/>
<path transform="translate(422,161)" d="m0 0h2v3l-8 2h-5l-1-2z" fill="#ADE6DF"/>
<path transform="translate(1387,157)" d="m0 0v3l-5 6-5 2 2-4 5-5z" fill="#ABEDE3"/>
<path transform="translate(1409,862)" d="m0 0h7l2 2v2l-12 1 1-3z" fill="#091829"/>
<path transform="translate(1341,836)" d="m0 0h2l1 4-3 4h-7l1-2h2l1-3h3z" fill="#060F21"/>
<path transform="translate(656,763)" d="m0 0h1v6l-12-1 4-2z" fill="#08151D"/>
<path transform="translate(770,611)" d="m0 0h1v14l-3 1 1-14z" fill="#142B3B"/>
<path transform="translate(773,589)" d="m0 0h2l-1 13-2 4h-1l1-14z" fill="#122939"/>
<path transform="translate(1872,560)" d="m0 0 4 2 8 5v2l-5-1-3-1z" fill="#0F2735"/>
<path transform="translate(821,313)" d="m0 0h2l-1 9-1-2-4 1-4-2 2-2h5z" fill="#0C2331"/>
<path transform="translate(799,310)" d="m0 0h8l2 3-8 1-4-2z" fill="#040A10"/>
<path transform="translate(1328,272)" d="m0 0h15l-4 2-1 1h-10z" fill="#0B4A48"/>
<path transform="translate(1572,269)" d="m0 0 4 1-13 5h-5l3-3z" fill="#ACE6DF"/>
<path transform="translate(1187,160)" d="m0 0h11l2 1v2h-12z" fill="#93E0D5"/>
<path transform="translate(698,86)" d="m0 0 4 1-9 4-10 2 2-2z" fill="#B1E7E1"/>
<path transform="translate(1336,828)" d="m0 0 5 2v3l3 1v2h-5l-5-7z" fill="#05091B"/>
<path transform="translate(119,781)" d="m0 0 12 1v2l-12 1z" fill="#0E1E2D"/>
<path transform="translate(1157,667)" d="m0 0 2 3h2l-1 7-4 2v-8z" fill="#1A2D3D"/>
<path transform="translate(1222,665)" d="m0 0h7l5 1v5l-8-3v-2z" fill="#04081B"/>
<path transform="translate(1181,659)" d="m0 0h14l4 2-3 1h-9l-6-2z" fill="#122939"/>
<path transform="translate(1246,589)" d="m0 0h3v9l-2 5h-1z" fill="#060B1A"/>
<path transform="translate(1322,534)" d="m0 0 2 1-1 3h2l-1 5-3-1v-2l-3-1v-3z" fill="#0B1F24"/>
<path transform="translate(1421,873)" d="m0 0 13 1-2 2h-14l-1-2z" fill="#0D3436"/>
<path transform="translate(282,791)" d="m0 0h7v4l-4 1-4-1z" fill="#FDFDFD"/>
<path transform="translate(1195,762)" d="m0 0 7 4-1 3-7-1z" fill="#0A1F2B"/>
<path transform="translate(1119,743)" d="m0 0 3 2-1 8-3-3-1-6z" fill="#0C0810"/>
<path transform="translate(462,717)" d="m0 0h1l1 7h-2l1 7v4l-2 4v-18z" fill="#122939"/>
<path transform="translate(763,654)" d="m0 0h2l-1 14h-3z" fill="#122939"/>
<path transform="translate(1229,573)" d="m0 0h5l-1 2-12 2h-9v-1z" fill="#40B8AA"/>
<path transform="translate(1831,562)" d="m0 0 16 7v2l-10-3-5-2z" fill="#132A3A"/>
<path transform="translate(136,508)" d="m0 0 1 3-8 8-2-2 5-6z" fill="#1F4651"/>
<path transform="translate(710,324)" d="m0 0 2 1-1 5-15-2v-1h11l2 1z" fill="#122939"/>
<path transform="translate(1638,257)" d="m0 0 15 1v2h-15z" fill="#B2EBE3"/>
<path transform="translate(123,752)" d="m0 0h2l1 10 2 2-4-1-2-1z" fill="#122939"/>
<path transform="translate(549,748)" d="m0 0 12 1v1h-6v2l-2 1h-6l2-4z" fill="#071123"/>
<path transform="translate(1803,683)" d="m0 0 1 2-2 5-4 8-3 1 2-5z" fill="#69CBBF"/>
<path transform="translate(1179,686)" d="m0 0h10l4 2-1 1h-9l-4-2z" fill="#050A1A"/>
<path transform="translate(761,676)" d="m0 0 1 2-2 13-2-1 1-12z" fill="#122939"/>
<path transform="translate(469,634)" d="m0 0h10l-1 5-2 1v-3l-7-1z" fill="#4EC3B4"/>
<path transform="translate(1869,518)" d="m0 0m-3 1 2 2-7 7-4 1 3-5z" fill="#122738"/>
<path transform="translate(1470,488)" d="m0 0h3l-1 4h-2l-1 7-2 4-1-1v-5h2l1-6z" fill="#05091C"/>
<path transform="translate(175,357)" d="m0 0h3l-2 10h-3l1-9z" fill="#A6E9E0"/>
<path transform="translate(1544,279)" d="m0 0 3 1-10 5-6 1 3-3z" fill="#B9E7E2"/>
<path transform="translate(1097,224)" d="m0 0 6 1 3 8-1 3-3-5v-2l-3-1z" fill="#82D8CD"/>
<path transform="translate(391,167)" d="m0 0h5l-1 3-14 1 3-2z" fill="#A1E4DB"/>
<path transform="translate(1214,163)" d="m0 0 11 1 5 2v1l-12-1-4-1z" fill="#B6E6E1"/>
<path transform="translate(1230,860)" d="m0 0 17 4 1 3-11-3-7-2z" fill="#142B3C"/>
<path transform="translate(179,750)" d="m0 0h1v13l1 2h-4l1-13z" fill="#0B192A"/>
<path transform="translate(375,683)" d="m0 0h3v10h-3z" fill="#111325"/>
<path transform="translate(694,561)" d="m0 0h2v10h-3l-1-2 1-7z" fill="#03030B"/>
<path transform="translate(646,545)" d="m0 0 2 3 1 9 2 1h-5z" fill="#050916"/>
<path transform="translate(780,546)" d="m0 0h1v12l-1 2h-2v-8z" fill="#132A3A"/>
<path transform="translate(1092,547)" d="m0 0 13 2 1 2h-11l-3-2z" fill="#FD626F"/>
<path transform="translate(1220,530)" d="m0 0 1 3-2 9h-3v-6h2z" fill="#080F1A"/>
<path transform="translate(1580,499)" d="m0 0 5 3 1 2-11 1z" fill="#C5EEE9"/>
<path transform="translate(789,481)" d="m0 0h2v8l-2 7h-1v-9z" fill="#122939"/>
<path transform="translate(174,463)" d="m0 0 4 1 1 11-3-3z" fill="#C0E8E4"/>
<path transform="translate(538,459)" d="m0 0 3 1 1 10-3-1-1-6z" fill="#132A3A"/>
<path transform="translate(454,352)" d="m0 0h1v7l-2 3v-2h-2l-1 2-1-4h3l-1-3z" fill="#05070D"/>
<path transform="translate(1242,168)" d="m0 0 13 3 2 2-10-1-6-2z" fill="#9BE1D8"/>
<path transform="translate(1323,817)" d="m0 0 5 2v2l3 1v2l3 1 2 4-4-2-9-9z" fill="#122939"/>
<path transform="translate(1213,787)" d="m0 0 4 1v3h-10l1-3z" fill="#040717"/>
<path transform="translate(686,766)" d="m0 0h3l1 8-6-2z" fill="#04040A"/>
<path transform="translate(1109,722)" d="m0 0 3 3v2h3l-1 6 1 3h-2l-3-7z" fill="#03040D"/>
<path transform="translate(400,605)" d="m0 0 12 2v1l-11 2-2-1z" fill="#152B3B"/>
<path transform="translate(782,566)" d="m0 0h2l-1 11-2-4h-2v-5z" fill="#0B202F"/>
<path transform="translate(556,519)" d="m0 0v3l-6 4-7 1 1-2 9-4z" fill="#09101A"/>
<path transform="translate(1244,494)" d="m0 0h1l1 5v8l-2 2-1-4v-7z" fill="#13293A"/>
<path transform="translate(1230,490)" d="m0 0 6 2-4 2-6 1v-4z" fill="#05091C"/>
<path transform="translate(793,460)" d="m0 0h1v13l-3 1 1-12z" fill="#122939"/>
<path transform="translate(1886,461)" d="m0 0 5 2 4 6-1 3-7-8-2-2z" fill="#122939"/>
<path transform="translate(284,424)" d="m0 0 5 5v2l-5-2h-7v-3z" fill="#C89489"/>
<path transform="translate(292,207)" d="m0 0h4v2l-9 6h-2l1-3h2l1-3z" fill="#73DECD"/>
<path transform="translate(317,194)" d="m0 0 1 2h-2v2l-7 4h-3l1-3z" fill="#8FDFD4"/>
<path transform="translate(477,158)" d="m0 0 3 1-1 2h-14l1-2z" fill="#ACEAE1"/>
<path transform="translate(1320,856)" d="m0 0 3 2v2l-13 3 2-3 7-2z" fill="#091325"/>
<path transform="translate(1518,822)" d="m0 0 2 1-10 10-1 2-3-1 5-5z" fill="#17202E"/>
<path transform="translate(1910,819)" d="m0 0 7 5 7 1-3 2-7-1-4-5z" fill="#FCB9A0"/>
<path transform="translate(664,791)" d="m0 0h11v2l-12 1-1-2z" fill="#122939"/>
<path transform="translate(1901,769)" d="m0 0 3 1-3 5-4 3-2-1z" fill="#101F31"/>
<path transform="translate(1822,534)" d="m0 0h1v8h-3l-1 2v-9z" fill="#132E3D"/>
<path transform="translate(860,456)" d="m0 0h6l4 3-1 3-5-3-2-1v2h-2l-1-3z" fill="#FDDEDA"/>
<path transform="translate(455,423)" d="m0 0 3 1-3 3h-9v-2z" fill="#AFEBE3"/>
<path transform="translate(637,312)" d="m0 0 7 1 1 3h-7l-3-1v-2z" fill="#030308"/>
<path transform="translate(516,268)" d="m0 0h11l-1 3-11-1z" fill="#030308"/>
<path transform="translate(626,116)" d="m0 0 1 3-10 5-2-1 3-1v-2z" fill="#85D7CD"/>
<path transform="translate(1542,801)" d="m0 0 1 3h3l-2 6-4-3 1-4z" fill="#070D20"/>
<path transform="translate(156,785)" d="m0 0h1v6h-6l-3-3 8-1z" fill="#05091C"/>
<path transform="translate(1198,781)" d="m0 0h9l-1 2-3 1h-10l4-2z" fill="#D6DFDC"/>
<path transform="translate(494,738)" d="m0 0 11 1 4 2-2 1-13-2z" fill="#122939"/>
<path transform="translate(699,693)" d="m0 0h6l-4 2v7l-2 4z" fill="#E2EDEF"/>
<path transform="translate(771,631)" d="m0 0h3l-1 11h-1v-5l-3-1 1-4z" fill="#0C2432"/>
<path transform="translate(1828,485)" d="m0 0 4 1 1 5-4-2-7-1 3-2z" fill="#1C2F3E"/>
<path transform="translate(1887,466)" d="m0 0 4 1 1 4-6 2z" fill="#050810"/>
<path transform="translate(453,444)" d="m0 0 1 4-4 5-2-5 3-3z" fill="#FD5066"/>
<path transform="translate(1658,191)" d="m0 0 3 2 4 7 1 3h-3l-5-10z" fill="#B5EAE3"/>
<path transform="translate(1050,160)" d="m0 0 7 5 1 4-4-1-4-5z" fill="#73D1C5"/>
<path transform="translate(872,786)" d="m0 0 2 2-4 2h-8l3-3z" fill="#142B3B"/>
<path transform="translate(298,779)" d="m0 0 2 2v12l-3-1z" fill="#20AC9C"/>
<path transform="translate(1523,784)" d="m0 0 9 2 2 4-9-2z" fill="#DAE2E7"/>
<path transform="translate(404,768)" d="m0 0m6 0 1 3-13 1v-3h10z" fill="#081120"/>
<path transform="translate(1809,762)" d="m0 0h8v2l4 1h-11z" fill="#47BBAE"/>
<path transform="translate(532,738)" d="m0 0 6 1v3l-8 1 1-4z" fill="#030308"/>
<path transform="translate(183,730)" d="m0 0h1l-1 12h-2v-10z" fill="#07111C"/>
<path transform="translate(186,710)" d="m0 0h1l-1 12h-2v-10z" fill="#07111C"/>
<path transform="translate(660,578)" d="m0 0h10l6 1-1 3-15-3z" fill="#091020"/>
<path transform="translate(142,571)" d="m0 0h8l-1 2-6 2h-5z" fill="#13293A"/>
<path transform="translate(740,569)" d="m0 0h4l-2 5-5 1 2-5z" fill="#49D2BC"/>
<path transform="translate(1871,561)" d="m0 0 3 1 2 5-6-1v-4z" fill="#FAF1ED"/>
<path transform="translate(1215,536)" d="m0 0h1v6l4 1-2 4-5-5h2z" fill="#3AB2A5"/>
<path transform="translate(645,540)" d="m0 0 1 2h2l1 3v7l-2-4-2 3z" fill="#133844"/>
<path transform="translate(800,417)" d="m0 0h1l-1 13-2 1v-9z" fill="#122939"/>
<path transform="translate(680,412)" d="m0 0 4 1 3 2v3l-6-1z" fill="#CBE0E0"/>
<path transform="translate(523,391)" d="m0 0 11 1v2h-11l-3-2z" fill="#0A1224"/>
<path transform="translate(806,374)" d="m0 0h1v11l-2 3-1-1 1-10z" fill="#122939"/>
<path transform="translate(460,308)" d="m0 0h2l-1 9h-4v-5h2z" fill="#03030A"/>
<path transform="translate(730,299)" d="m0 0 13 1-2 2-5 1-3-1v-2z" fill="#081720"/>
<path transform="translate(1670,219)" d="m0 0 3 1 2 9h-3z" fill="#AEECE3"/>
<path transform="translate(1027,141)" d="m0 0 4 1 8 7h-3l-8-5z" fill="#7FD6CB"/>
<path transform="translate(1170,826)" d="m0 0 5 2 5 4v2l3 1-2 1-2-1v-2l-5-2z" fill="#122939"/>
<path transform="translate(1328,816)" d="m0 0 4 5 4 4-1 3-5-6-3-3z" fill="#040716"/>
<path transform="translate(1384,803)" d="m0 0 3 1v5l-5-2-1 2v-2l-2-1 3-2 2 1z" fill="#03040B"/>
<path transform="translate(889,794)" d="m0 0 7 2-2 3h-5l-1-4z" fill="#FDFDFD"/>
<path transform="translate(1452,779)" d="m0 0h2l1 9h-4v-2l-2-1h3z" fill="#1C464F"/>
<path transform="translate(1896,766)" d="m0 0 6 2-2 4-4-1h-3z" fill="#1A3041"/>
<path transform="translate(391,744)" d="m0 0 2 3 2 4v6h-2l-2-7z" fill="#070D18"/>
<path transform="translate(750,742)" d="m0 0h1v11l-1 3h-2l1-11z" fill="#122939"/>
<path transform="translate(1783,637)" d="m0 0h1v6l-3 7-1-3 1-7z" fill="#0E1D2C"/>
<path transform="translate(176,503)" d="m0 0h6l2 1v3h-6z" fill="#0D2130"/>
<path transform="translate(552,500)" d="m0 0 4 1 3 4-1 4-6-8z" fill="#080D1B"/>
<path transform="translate(325,450)" d="m0 0 4 2 5 8-1 2-8-10z" fill="#2AAFA1"/>
<path transform="translate(460,278)" d="m0 0h2l-1 10-1 2h-2l1-11z" fill="#122939"/>
<path transform="translate(475,260)" d="m0 0h5l1 3-5 1-6-1 3-2z" fill="#060E14"/>
<path transform="translate(649,105)" d="m0 0 4 1-5 3-7 2v-2h2v-2z" fill="#90DED4"/>
</svg>
