<svg width="1148" height="269" viewBox="0 0 1148 269" fill="none" xmlns="http://www.w3.org/2000/svg">
<rect width="1148" height="269" rx="20" fill="#D1E8FF"/>
<rect x="239" y="81" width="670" height="4" fill="#5981FC"/>
<path d="M243 158C243.552 158 244 157.552 244 157C244 156.448 243.552 156 243 156V158ZM153 158H243V156H153V158Z" fill="black" fill-opacity="0.3"/>
<path d="M161.046 136.574C161.718 136.694 162.288 137.048 162.756 137.636C163.224 138.224 163.458 138.89 163.458 139.634C163.458 140.27 163.29 140.846 162.954 141.362C162.63 141.866 162.156 142.268 161.532 142.568C160.908 142.856 160.182 143 159.354 143H154.35V130.49H159.12C159.972 130.49 160.704 130.634 161.316 130.922C161.928 131.21 162.39 131.6 162.702 132.092C163.014 132.572 163.17 133.112 163.17 133.712C163.17 134.432 162.978 135.032 162.594 135.512C162.21 135.992 161.694 136.346 161.046 136.574ZM156.402 135.746H158.94C159.612 135.746 160.134 135.596 160.506 135.296C160.89 134.984 161.082 134.54 161.082 133.964C161.082 133.4 160.89 132.962 160.506 132.65C160.134 132.326 159.612 132.164 158.94 132.164H156.402V135.746ZM159.174 141.326C159.87 141.326 160.416 141.158 160.812 140.822C161.208 140.486 161.406 140.018 161.406 139.418C161.406 138.806 161.196 138.32 160.776 137.96C160.356 137.6 159.798 137.42 159.102 137.42H156.402V141.326H159.174ZM169.99 143.162C169.054 143.162 168.208 142.952 167.452 142.532C166.696 142.1 166.102 141.5 165.67 140.732C165.238 139.952 165.022 139.052 165.022 138.032C165.022 137.024 165.244 136.13 165.688 135.35C166.132 134.57 166.738 133.97 167.506 133.55C168.274 133.13 169.132 132.92 170.08 132.92C171.028 132.92 171.886 133.13 172.654 133.55C173.422 133.97 174.028 134.57 174.472 135.35C174.916 136.13 175.138 137.024 175.138 138.032C175.138 139.04 174.91 139.934 174.454 140.714C173.998 141.494 173.374 142.1 172.582 142.532C171.802 142.952 170.938 143.162 169.99 143.162ZM169.99 141.38C170.518 141.38 171.01 141.254 171.466 141.002C171.934 140.75 172.312 140.372 172.6 139.868C172.888 139.364 173.032 138.752 173.032 138.032C173.032 137.312 172.894 136.706 172.618 136.214C172.342 135.71 171.976 135.332 171.52 135.08C171.064 134.828 170.572 134.702 170.044 134.702C169.516 134.702 169.024 134.828 168.568 135.08C168.124 135.332 167.77 135.71 167.506 136.214C167.242 136.706 167.11 137.312 167.11 138.032C167.11 139.1 167.38 139.928 167.92 140.516C168.472 141.092 169.162 141.38 169.99 141.38ZM176.482 137.996C176.482 137 176.686 136.118 177.094 135.35C177.514 134.582 178.078 133.988 178.786 133.568C179.506 133.136 180.304 132.92 181.18 132.92C181.828 132.92 182.464 133.064 183.088 133.352C183.724 133.628 184.228 134 184.6 134.468V129.68H186.67V143H184.6V141.506C184.264 141.986 183.796 142.382 183.196 142.694C182.608 143.006 181.93 143.162 181.162 143.162C180.298 143.162 179.506 142.946 178.786 142.514C178.078 142.07 177.514 141.458 177.094 140.678C176.686 139.886 176.482 138.992 176.482 137.996ZM184.6 138.032C184.6 137.348 184.456 136.754 184.168 136.25C183.892 135.746 183.526 135.362 183.07 135.098C182.614 134.834 182.122 134.702 181.594 134.702C181.066 134.702 180.574 134.834 180.118 135.098C179.662 135.35 179.29 135.728 179.002 136.232C178.726 136.724 178.588 137.312 178.588 137.996C178.588 138.68 178.726 139.28 179.002 139.796C179.29 140.312 179.662 140.708 180.118 140.984C180.586 141.248 181.078 141.38 181.594 141.38C182.122 141.38 182.614 141.248 183.07 140.984C183.526 140.72 183.892 140.336 184.168 139.832C184.456 139.316 184.6 138.716 184.6 138.032ZM198.294 133.082L192.21 147.662H190.086L192.102 142.838L188.196 133.082H190.482L193.272 140.642L196.17 133.082H198.294ZM208.64 143.126C207.8 143.126 207.044 142.982 206.372 142.694C205.7 142.394 205.172 141.974 204.788 141.434C204.404 140.894 204.212 140.264 204.212 139.544H206.408C206.456 140.084 206.666 140.528 207.038 140.876C207.422 141.224 207.956 141.398 208.64 141.398C209.348 141.398 209.9 141.23 210.296 140.894C210.692 140.546 210.89 140.102 210.89 139.562C210.89 139.142 210.764 138.8 210.512 138.536C210.272 138.272 209.966 138.068 209.594 137.924C209.234 137.78 208.73 137.624 208.082 137.456C207.266 137.24 206.6 137.024 206.084 136.808C205.58 136.58 205.148 136.232 204.788 135.764C204.428 135.296 204.248 134.672 204.248 133.892C204.248 133.172 204.428 132.542 204.788 132.002C205.148 131.462 205.652 131.048 206.3 130.76C206.948 130.472 207.698 130.328 208.55 130.328C209.762 130.328 210.752 130.634 211.52 131.246C212.3 131.846 212.732 132.674 212.816 133.73H210.548C210.512 133.274 210.296 132.884 209.9 132.56C209.504 132.236 208.982 132.074 208.334 132.074C207.746 132.074 207.266 132.224 206.894 132.524C206.522 132.824 206.336 133.256 206.336 133.82C206.336 134.204 206.45 134.522 206.678 134.774C206.918 135.014 207.218 135.206 207.578 135.35C207.938 135.494 208.43 135.65 209.054 135.818C209.882 136.046 210.554 136.274 211.07 136.502C211.598 136.73 212.042 137.084 212.402 137.564C212.774 138.032 212.96 138.662 212.96 139.454C212.96 140.09 212.786 140.69 212.438 141.254C212.102 141.818 211.604 142.274 210.944 142.622C210.296 142.958 209.528 143.126 208.64 143.126ZM217.775 134.756V140.246C217.775 140.618 217.859 140.888 218.027 141.056C218.207 141.212 218.507 141.29 218.927 141.29H220.187V143H218.567C217.643 143 216.935 142.784 216.443 142.352C215.951 141.92 215.705 141.218 215.705 140.246V134.756H214.535V133.082H215.705V130.616H217.775V133.082H220.187V134.756H217.775ZM221.395 137.996C221.395 137 221.599 136.118 222.007 135.35C222.427 134.582 222.991 133.988 223.699 133.568C224.419 133.136 225.211 132.92 226.075 132.92C226.855 132.92 227.533 133.076 228.109 133.388C228.697 133.688 229.165 134.066 229.513 134.522V133.082H231.583V143H229.513V141.524C229.165 141.992 228.691 142.382 228.091 142.694C227.491 143.006 226.807 143.162 226.039 143.162C225.187 143.162 224.407 142.946 223.699 142.514C222.991 142.07 222.427 141.458 222.007 140.678C221.599 139.886 221.395 138.992 221.395 137.996ZM229.513 138.032C229.513 137.348 229.369 136.754 229.081 136.25C228.805 135.746 228.439 135.362 227.983 135.098C227.527 134.834 227.035 134.702 226.507 134.702C225.979 134.702 225.487 134.834 225.031 135.098C224.575 135.35 224.203 135.728 223.915 136.232C223.639 136.724 223.501 137.312 223.501 137.996C223.501 138.68 223.639 139.28 223.915 139.796C224.203 140.312 224.575 140.708 225.031 140.984C225.499 141.248 225.991 141.38 226.507 141.38C227.035 141.38 227.527 141.248 227.983 140.984C228.439 140.72 228.805 140.336 229.081 139.832C229.369 139.316 229.513 138.716 229.513 138.032ZM236.672 134.756V140.246C236.672 140.618 236.756 140.888 236.924 141.056C237.104 141.212 237.404 141.29 237.824 141.29H239.084V143H237.464C236.54 143 235.832 142.784 235.34 142.352C234.848 141.92 234.602 141.218 234.602 140.246V134.756H233.432V133.082H234.602V130.616H236.672V133.082H239.084V134.756H236.672ZM244.575 143.162C243.795 143.162 243.093 143.024 242.469 142.748C241.857 142.46 241.371 142.076 241.011 141.596C240.651 141.104 240.459 140.558 240.435 139.958H242.559C242.595 140.378 242.793 140.732 243.153 141.02C243.525 141.296 243.987 141.434 244.539 141.434C245.115 141.434 245.559 141.326 245.871 141.11C246.195 140.882 246.357 140.594 246.357 140.246C246.357 139.874 246.177 139.598 245.817 139.418C245.469 139.238 244.911 139.04 244.143 138.824C243.399 138.62 242.793 138.422 242.325 138.23C241.857 138.038 241.449 137.744 241.101 137.348C240.765 136.952 240.597 136.43 240.597 135.782C240.597 135.254 240.753 134.774 241.065 134.342C241.377 133.898 241.821 133.55 242.397 133.298C242.985 133.046 243.657 132.92 244.413 132.92C245.541 132.92 246.447 133.208 247.131 133.784C247.827 134.348 248.199 135.122 248.247 136.106H246.195C246.159 135.662 245.979 135.308 245.655 135.044C245.331 134.78 244.893 134.648 244.341 134.648C243.801 134.648 243.387 134.75 243.099 134.954C242.811 135.158 242.667 135.428 242.667 135.764C242.667 136.028 242.763 136.25 242.955 136.43C243.147 136.61 243.381 136.754 243.657 136.862C243.933 136.958 244.341 137.084 244.881 137.24C245.601 137.432 246.189 137.63 246.645 137.834C247.113 138.026 247.515 138.314 247.851 138.698C248.187 139.082 248.361 139.592 248.373 140.228C248.373 140.792 248.217 141.296 247.905 141.74C247.593 142.184 247.149 142.532 246.573 142.784C246.009 143.036 245.343 143.162 244.575 143.162Z" fill="black"/>
<path d="M161.596 168.242V178H160.322V173.576H155.352V178H154.078V168.242H155.352V172.526H160.322V168.242H161.596ZM170.771 173.87C170.771 174.113 170.757 174.369 170.729 174.64H164.597C164.644 175.396 164.901 175.989 165.367 176.418C165.843 176.838 166.417 177.048 167.089 177.048C167.64 177.048 168.097 176.922 168.461 176.67C168.835 176.409 169.096 176.063 169.245 175.634H170.617C170.412 176.371 170.001 176.973 169.385 177.44C168.769 177.897 168.004 178.126 167.089 178.126C166.361 178.126 165.708 177.963 165.129 177.636C164.56 177.309 164.112 176.847 163.785 176.25C163.459 175.643 163.295 174.943 163.295 174.15C163.295 173.357 163.454 172.661 163.771 172.064C164.089 171.467 164.532 171.009 165.101 170.692C165.68 170.365 166.343 170.202 167.089 170.202C167.817 170.202 168.461 170.361 169.021 170.678C169.581 170.995 170.011 171.434 170.309 171.994C170.617 172.545 170.771 173.17 170.771 173.87ZM169.455 173.604C169.455 173.119 169.348 172.703 169.133 172.358C168.919 172.003 168.625 171.737 168.251 171.56C167.887 171.373 167.481 171.28 167.033 171.28C166.389 171.28 165.839 171.485 165.381 171.896C164.933 172.307 164.677 172.876 164.611 173.604H169.455ZM173.111 169.082C172.868 169.082 172.663 168.998 172.495 168.83C172.327 168.662 172.243 168.457 172.243 168.214C172.243 167.971 172.327 167.766 172.495 167.598C172.663 167.43 172.868 167.346 173.111 167.346C173.344 167.346 173.54 167.43 173.699 167.598C173.867 167.766 173.951 167.971 173.951 168.214C173.951 168.457 173.867 168.662 173.699 168.83C173.54 168.998 173.344 169.082 173.111 169.082ZM173.727 170.328V178H172.453V170.328H173.727ZM179.062 170.202C179.725 170.202 180.304 170.347 180.798 170.636C181.302 170.925 181.676 171.289 181.918 171.728V170.328H183.206V178.168C183.206 178.868 183.057 179.489 182.758 180.03C182.46 180.581 182.03 181.01 181.47 181.318C180.92 181.626 180.276 181.78 179.538 181.78C178.53 181.78 177.69 181.542 177.018 181.066C176.346 180.59 175.95 179.941 175.828 179.12H177.088C177.228 179.587 177.518 179.96 177.956 180.24C178.395 180.529 178.922 180.674 179.538 180.674C180.238 180.674 180.808 180.455 181.246 180.016C181.694 179.577 181.918 178.961 181.918 178.168V176.558C181.666 177.006 181.293 177.379 180.798 177.678C180.304 177.977 179.725 178.126 179.062 178.126C178.381 178.126 177.76 177.958 177.2 177.622C176.65 177.286 176.216 176.815 175.898 176.208C175.581 175.601 175.422 174.911 175.422 174.136C175.422 173.352 175.581 172.666 175.898 172.078C176.216 171.481 176.65 171.019 177.2 170.692C177.76 170.365 178.381 170.202 179.062 170.202ZM181.918 174.15C181.918 173.571 181.802 173.067 181.568 172.638C181.335 172.209 181.018 171.882 180.616 171.658C180.224 171.425 179.79 171.308 179.314 171.308C178.838 171.308 178.404 171.42 178.012 171.644C177.62 171.868 177.308 172.195 177.074 172.624C176.841 173.053 176.724 173.557 176.724 174.136C176.724 174.724 176.841 175.237 177.074 175.676C177.308 176.105 177.62 176.437 178.012 176.67C178.404 176.894 178.838 177.006 179.314 177.006C179.79 177.006 180.224 176.894 180.616 176.67C181.018 176.437 181.335 176.105 181.568 175.676C181.802 175.237 181.918 174.729 181.918 174.15ZM189.167 170.188C189.746 170.188 190.269 170.314 190.735 170.566C191.202 170.809 191.566 171.177 191.827 171.672C192.098 172.167 192.233 172.769 192.233 173.478V178H190.973V173.66C190.973 172.895 190.782 172.311 190.399 171.91C190.017 171.499 189.494 171.294 188.831 171.294C188.159 171.294 187.623 171.504 187.221 171.924C186.829 172.344 186.633 172.955 186.633 173.758V178H185.359V167.64H186.633V171.42C186.885 171.028 187.231 170.725 187.669 170.51C188.117 170.295 188.617 170.188 189.167 170.188ZM195.868 171.378V175.9C195.868 176.273 195.948 176.539 196.106 176.698C196.265 176.847 196.54 176.922 196.932 176.922H197.87V178H196.722C196.013 178 195.481 177.837 195.126 177.51C194.772 177.183 194.594 176.647 194.594 175.9V171.378H193.6V170.328H194.594V168.396H195.868V170.328H197.87V171.378H195.868ZM166.342 189.242L163.514 199H162.086L159.818 191.146L157.466 199L156.052 199.014L153.322 189.242H154.68L156.808 197.516L159.16 189.242H160.588L162.828 197.488L164.97 189.242H166.342ZM174.736 194.87C174.736 195.113 174.722 195.369 174.694 195.64H168.562C168.609 196.396 168.866 196.989 169.332 197.418C169.808 197.838 170.382 198.048 171.054 198.048C171.605 198.048 172.062 197.922 172.426 197.67C172.8 197.409 173.061 197.063 173.21 196.634H174.582C174.377 197.371 173.966 197.973 173.35 198.44C172.734 198.897 171.969 199.126 171.054 199.126C170.326 199.126 169.673 198.963 169.094 198.636C168.525 198.309 168.077 197.847 167.75 197.25C167.424 196.643 167.26 195.943 167.26 195.15C167.26 194.357 167.419 193.661 167.736 193.064C168.054 192.467 168.497 192.009 169.066 191.692C169.645 191.365 170.308 191.202 171.054 191.202C171.782 191.202 172.426 191.361 172.986 191.678C173.546 191.995 173.976 192.434 174.274 192.994C174.582 193.545 174.736 194.17 174.736 194.87ZM173.42 194.604C173.42 194.119 173.313 193.703 173.098 193.358C172.884 193.003 172.59 192.737 172.216 192.56C171.852 192.373 171.446 192.28 170.998 192.28C170.354 192.28 169.804 192.485 169.346 192.896C168.898 193.307 168.642 193.876 168.576 194.604H173.42ZM177.076 190.082C176.833 190.082 176.628 189.998 176.46 189.83C176.292 189.662 176.208 189.457 176.208 189.214C176.208 188.971 176.292 188.766 176.46 188.598C176.628 188.43 176.833 188.346 177.076 188.346C177.309 188.346 177.505 188.43 177.664 188.598C177.832 188.766 177.916 188.971 177.916 189.214C177.916 189.457 177.832 189.662 177.664 189.83C177.505 189.998 177.309 190.082 177.076 190.082ZM177.692 191.328V199H176.418V191.328H177.692ZM183.027 191.202C183.69 191.202 184.268 191.347 184.763 191.636C185.267 191.925 185.64 192.289 185.883 192.728V191.328H187.171V199.168C187.171 199.868 187.022 200.489 186.723 201.03C186.424 201.581 185.995 202.01 185.435 202.318C184.884 202.626 184.24 202.78 183.503 202.78C182.495 202.78 181.655 202.542 180.983 202.066C180.311 201.59 179.914 200.941 179.793 200.12H181.053C181.193 200.587 181.482 200.96 181.921 201.24C182.36 201.529 182.887 201.674 183.503 201.674C184.203 201.674 184.772 201.455 185.211 201.016C185.659 200.577 185.883 199.961 185.883 199.168V197.558C185.631 198.006 185.258 198.379 184.763 198.678C184.268 198.977 183.69 199.126 183.027 199.126C182.346 199.126 181.725 198.958 181.165 198.622C180.614 198.286 180.18 197.815 179.863 197.208C179.546 196.601 179.387 195.911 179.387 195.136C179.387 194.352 179.546 193.666 179.863 193.078C180.18 192.481 180.614 192.019 181.165 191.692C181.725 191.365 182.346 191.202 183.027 191.202ZM185.883 195.15C185.883 194.571 185.766 194.067 185.533 193.638C185.3 193.209 184.982 192.882 184.581 192.658C184.189 192.425 183.755 192.308 183.279 192.308C182.803 192.308 182.369 192.42 181.977 192.644C181.585 192.868 181.272 193.195 181.039 193.624C180.806 194.053 180.689 194.557 180.689 195.136C180.689 195.724 180.806 196.237 181.039 196.676C181.272 197.105 181.585 197.437 181.977 197.67C182.369 197.894 182.803 198.006 183.279 198.006C183.755 198.006 184.189 197.894 184.581 197.67C184.982 197.437 185.3 197.105 185.533 196.676C185.766 196.237 185.883 195.729 185.883 195.15ZM193.132 191.188C193.711 191.188 194.233 191.314 194.7 191.566C195.167 191.809 195.531 192.177 195.792 192.672C196.063 193.167 196.198 193.769 196.198 194.478V199H194.938V194.66C194.938 193.895 194.747 193.311 194.364 192.91C193.981 192.499 193.459 192.294 192.796 192.294C192.124 192.294 191.587 192.504 191.186 192.924C190.794 193.344 190.598 193.955 190.598 194.758V199H189.324V188.64H190.598V192.42C190.85 192.028 191.195 191.725 191.634 191.51C192.082 191.295 192.581 191.188 193.132 191.188ZM199.833 192.378V196.9C199.833 197.273 199.913 197.539 200.071 197.698C200.23 197.847 200.505 197.922 200.897 197.922H201.835V199H200.687C199.978 199 199.446 198.837 199.091 198.51C198.737 198.183 198.559 197.647 198.559 196.9V192.378H197.565V191.328H198.559V189.396H199.833V191.328H201.835V192.378H199.833ZM160.084 210.242V211.278H157.424V220H156.15V211.278H153.476V210.242H160.084ZM168.652 215.87C168.652 216.113 168.638 216.369 168.61 216.64H162.478C162.525 217.396 162.782 217.989 163.248 218.418C163.724 218.838 164.298 219.048 164.97 219.048C165.521 219.048 165.978 218.922 166.342 218.67C166.716 218.409 166.977 218.063 167.126 217.634H168.498C168.293 218.371 167.882 218.973 167.266 219.44C166.65 219.897 165.885 220.126 164.97 220.126C164.242 220.126 163.589 219.963 163.01 219.636C162.441 219.309 161.993 218.847 161.666 218.25C161.34 217.643 161.176 216.943 161.176 216.15C161.176 215.357 161.335 214.661 161.652 214.064C161.97 213.467 162.413 213.009 162.982 212.692C163.561 212.365 164.224 212.202 164.97 212.202C165.698 212.202 166.342 212.361 166.902 212.678C167.462 212.995 167.892 213.434 168.19 213.994C168.498 214.545 168.652 215.17 168.652 215.87ZM167.336 215.604C167.336 215.119 167.229 214.703 167.014 214.358C166.8 214.003 166.506 213.737 166.132 213.56C165.768 213.373 165.362 213.28 164.914 213.28C164.27 213.28 163.72 213.485 163.262 213.896C162.814 214.307 162.558 214.876 162.492 215.604H167.336ZM179.56 212.188C180.157 212.188 180.689 212.314 181.156 212.566C181.623 212.809 181.991 213.177 182.262 213.672C182.533 214.167 182.668 214.769 182.668 215.478V220H181.408V215.66C181.408 214.895 181.217 214.311 180.834 213.91C180.461 213.499 179.952 213.294 179.308 213.294C178.645 213.294 178.118 213.509 177.726 213.938C177.334 214.358 177.138 214.969 177.138 215.772V220H175.878V215.66C175.878 214.895 175.687 214.311 175.304 213.91C174.931 213.499 174.422 213.294 173.778 213.294C173.115 213.294 172.588 213.509 172.196 213.938C171.804 214.358 171.608 214.969 171.608 215.772V220H170.334V212.328H171.608V213.434C171.86 213.033 172.196 212.725 172.616 212.51C173.045 212.295 173.517 212.188 174.03 212.188C174.674 212.188 175.243 212.333 175.738 212.622C176.233 212.911 176.601 213.336 176.844 213.896C177.059 213.355 177.413 212.935 177.908 212.636C178.403 212.337 178.953 212.188 179.56 212.188ZM186.032 213.742C186.284 213.303 186.657 212.939 187.152 212.65C187.656 212.351 188.239 212.202 188.902 212.202C189.583 212.202 190.199 212.365 190.75 212.692C191.31 213.019 191.748 213.481 192.066 214.078C192.383 214.666 192.542 215.352 192.542 216.136C192.542 216.911 192.383 217.601 192.066 218.208C191.748 218.815 191.31 219.286 190.75 219.622C190.199 219.958 189.583 220.126 188.902 220.126C188.248 220.126 187.67 219.981 187.166 219.692C186.671 219.393 186.293 219.025 186.032 218.586V223.64H184.758V212.328H186.032V213.742ZM191.24 216.136C191.24 215.557 191.123 215.053 190.89 214.624C190.656 214.195 190.339 213.868 189.938 213.644C189.546 213.42 189.112 213.308 188.636 213.308C188.169 213.308 187.735 213.425 187.334 213.658C186.942 213.882 186.624 214.213 186.382 214.652C186.148 215.081 186.032 215.581 186.032 216.15C186.032 216.729 186.148 217.237 186.382 217.676C186.624 218.105 186.942 218.437 187.334 218.67C187.735 218.894 188.169 219.006 188.636 219.006C189.112 219.006 189.546 218.894 189.938 218.67C190.339 218.437 190.656 218.105 190.89 217.676C191.123 217.237 191.24 216.724 191.24 216.136ZM201.219 215.87C201.219 216.113 201.205 216.369 201.177 216.64H195.045C195.091 217.396 195.348 217.989 195.815 218.418C196.291 218.838 196.865 219.048 197.537 219.048C198.087 219.048 198.545 218.922 198.909 218.67C199.282 218.409 199.543 218.063 199.693 217.634H201.065C200.859 218.371 200.449 218.973 199.833 219.44C199.217 219.897 198.451 220.126 197.537 220.126C196.809 220.126 196.155 219.963 195.577 219.636C195.007 219.309 194.559 218.847 194.233 218.25C193.906 217.643 193.743 216.943 193.743 216.15C193.743 215.357 193.901 214.661 194.219 214.064C194.536 213.467 194.979 213.009 195.549 212.692C196.127 212.365 196.79 212.202 197.537 212.202C198.265 212.202 198.909 212.361 199.469 212.678C200.029 212.995 200.458 213.434 200.757 213.994C201.065 214.545 201.219 215.17 201.219 215.87ZM199.903 215.604C199.903 215.119 199.795 214.703 199.581 214.358C199.366 214.003 199.072 213.737 198.699 213.56C198.335 213.373 197.929 213.28 197.481 213.28C196.837 213.28 196.286 213.485 195.829 213.896C195.381 214.307 195.124 214.876 195.059 215.604H199.903ZM204.174 213.574C204.398 213.135 204.716 212.795 205.126 212.552C205.546 212.309 206.055 212.188 206.652 212.188V213.504H206.316C204.888 213.504 204.174 214.279 204.174 215.828V220H202.9V212.328H204.174V213.574ZM207.647 216.136C207.647 215.352 207.806 214.666 208.123 214.078C208.44 213.481 208.874 213.019 209.425 212.692C209.985 212.365 210.606 212.202 211.287 212.202C211.959 212.202 212.542 212.347 213.037 212.636C213.532 212.925 213.9 213.289 214.143 213.728V212.328H215.431V220H214.143V218.572C213.891 219.02 213.513 219.393 213.009 219.692C212.514 219.981 211.936 220.126 211.273 220.126C210.592 220.126 209.976 219.958 209.425 219.622C208.874 219.286 208.44 218.815 208.123 218.208C207.806 217.601 207.647 216.911 207.647 216.136ZM214.143 216.15C214.143 215.571 214.026 215.067 213.793 214.638C213.56 214.209 213.242 213.882 212.841 213.658C212.449 213.425 212.015 213.308 211.539 213.308C211.063 213.308 210.629 213.42 210.237 213.644C209.845 213.868 209.532 214.195 209.299 214.624C209.066 215.053 208.949 215.557 208.949 216.136C208.949 216.724 209.066 217.237 209.299 217.676C209.532 218.105 209.845 218.437 210.237 218.67C210.629 218.894 211.063 219.006 211.539 219.006C212.015 219.006 212.449 218.894 212.841 218.67C213.242 218.437 213.56 218.105 213.793 217.676C214.026 217.237 214.143 216.729 214.143 216.15ZM219.138 213.378V217.9C219.138 218.273 219.217 218.539 219.376 218.698C219.535 218.847 219.81 218.922 220.202 218.922H221.14V220H219.992C219.283 220 218.751 219.837 218.396 219.51C218.041 219.183 217.864 218.647 217.864 217.9V213.378H216.87V212.328H217.864V210.396H219.138V212.328H221.14V213.378H219.138ZM229.487 212.328V220H228.213V218.866C227.971 219.258 227.63 219.566 227.191 219.79C226.762 220.005 226.286 220.112 225.763 220.112C225.166 220.112 224.629 219.991 224.153 219.748C223.677 219.496 223.299 219.123 223.019 218.628C222.749 218.133 222.613 217.531 222.613 216.822V212.328H223.873V216.654C223.873 217.41 224.065 217.993 224.447 218.404C224.83 218.805 225.353 219.006 226.015 219.006C226.697 219.006 227.233 218.796 227.625 218.376C228.017 217.956 228.213 217.345 228.213 216.542V212.328H229.487ZM232.913 213.574C233.137 213.135 233.454 212.795 233.865 212.552C234.285 212.309 234.793 212.188 235.391 212.188V213.504H235.055C233.627 213.504 232.913 214.279 232.913 215.828V220H231.639V212.328H232.913V213.574ZM243.861 215.87C243.861 216.113 243.847 216.369 243.819 216.64H237.687C237.734 217.396 237.991 217.989 238.457 218.418C238.933 218.838 239.507 219.048 240.179 219.048C240.73 219.048 241.187 218.922 241.551 218.67C241.925 218.409 242.186 218.063 242.335 217.634H243.707C243.502 218.371 243.091 218.973 242.475 219.44C241.859 219.897 241.094 220.126 240.179 220.126C239.451 220.126 238.798 219.963 238.219 219.636C237.65 219.309 237.202 218.847 236.875 218.25C236.549 217.643 236.385 216.943 236.385 216.15C236.385 215.357 236.544 214.661 236.861 214.064C237.179 213.467 237.622 213.009 238.191 212.692C238.77 212.365 239.433 212.202 240.179 212.202C240.907 212.202 241.551 212.361 242.111 212.678C242.671 212.995 243.101 213.434 243.399 213.994C243.707 214.545 243.861 215.17 243.861 215.87ZM242.545 215.604C242.545 215.119 242.438 214.703 242.223 214.358C242.009 214.003 241.715 213.737 241.341 213.56C240.977 213.373 240.571 213.28 240.123 213.28C239.479 213.28 238.929 213.485 238.471 213.896C238.023 214.307 237.767 214.876 237.701 215.604H242.545Z" fill="#101010"/>
<path d="M618 157C618.552 157 619 156.552 619 156C619 155.448 618.552 155 618 155V157ZM528 157H618V155H528V157Z" fill="black" fill-opacity="0.3"/>
<path d="M538.098 134.216C538.098 134.852 537.948 135.452 537.648 136.016C537.348 136.58 536.868 137.042 536.208 137.402C535.548 137.75 534.702 137.924 533.67 137.924H531.402V143H529.35V130.49H533.67C534.63 130.49 535.44 130.658 536.1 130.994C536.772 131.318 537.27 131.762 537.594 132.326C537.93 132.89 538.098 133.52 538.098 134.216ZM533.67 136.25C534.45 136.25 535.032 136.076 535.416 135.728C535.8 135.368 535.992 134.864 535.992 134.216C535.992 132.848 535.218 132.164 533.67 132.164H531.402V136.25H533.67ZM549.037 133.082V143H546.985V141.83C546.661 142.238 546.235 142.562 545.707 142.802C545.191 143.03 544.639 143.144 544.051 143.144C543.271 143.144 542.569 142.982 541.945 142.658C541.333 142.334 540.847 141.854 540.487 141.218C540.139 140.582 539.965 139.814 539.965 138.914V133.082H541.999V138.608C541.999 139.496 542.221 140.18 542.665 140.66C543.109 141.128 543.715 141.362 544.483 141.362C545.251 141.362 545.857 141.128 546.301 140.66C546.757 140.18 546.985 139.496 546.985 138.608V133.082H549.037ZM553.797 129.68V143H551.745V129.68H553.797ZM560.091 143.162C559.311 143.162 558.609 143.024 557.985 142.748C557.373 142.46 556.887 142.076 556.527 141.596C556.167 141.104 555.975 140.558 555.951 139.958H558.075C558.111 140.378 558.309 140.732 558.669 141.02C559.041 141.296 559.503 141.434 560.055 141.434C560.631 141.434 561.075 141.326 561.387 141.11C561.711 140.882 561.873 140.594 561.873 140.246C561.873 139.874 561.693 139.598 561.333 139.418C560.985 139.238 560.427 139.04 559.659 138.824C558.915 138.62 558.309 138.422 557.841 138.23C557.373 138.038 556.965 137.744 556.617 137.348C556.281 136.952 556.113 136.43 556.113 135.782C556.113 135.254 556.269 134.774 556.581 134.342C556.893 133.898 557.337 133.55 557.913 133.298C558.501 133.046 559.173 132.92 559.929 132.92C561.057 132.92 561.963 133.208 562.647 133.784C563.343 134.348 563.715 135.122 563.763 136.106H561.711C561.675 135.662 561.495 135.308 561.171 135.044C560.847 134.78 560.409 134.648 559.857 134.648C559.317 134.648 558.903 134.75 558.615 134.954C558.327 135.158 558.183 135.428 558.183 135.764C558.183 136.028 558.279 136.25 558.471 136.43C558.663 136.61 558.897 136.754 559.173 136.862C559.449 136.958 559.857 137.084 560.397 137.24C561.117 137.432 561.705 137.63 562.161 137.834C562.629 138.026 563.031 138.314 563.367 138.698C563.703 139.082 563.877 139.592 563.889 140.228C563.889 140.792 563.733 141.296 563.421 141.74C563.109 142.184 562.665 142.532 562.089 142.784C561.525 143.036 560.859 143.162 560.091 143.162ZM575.196 137.798C575.196 138.17 575.172 138.506 575.124 138.806H567.546C567.606 139.598 567.9 140.234 568.428 140.714C568.956 141.194 569.604 141.434 570.372 141.434C571.476 141.434 572.256 140.972 572.712 140.048H574.926C574.626 140.96 574.08 141.71 573.288 142.298C572.508 142.874 571.536 143.162 570.372 143.162C569.424 143.162 568.572 142.952 567.816 142.532C567.072 142.1 566.484 141.5 566.052 140.732C565.632 139.952 565.422 139.052 565.422 138.032C565.422 137.012 565.626 136.118 566.034 135.35C566.454 134.57 567.036 133.97 567.78 133.55C568.536 133.13 569.4 132.92 570.372 132.92C571.308 132.92 572.142 133.124 572.874 133.532C573.606 133.94 574.176 134.516 574.584 135.26C574.992 135.992 575.196 136.838 575.196 137.798ZM573.054 137.15C573.042 136.394 572.772 135.788 572.244 135.332C571.716 134.876 571.062 134.648 570.282 134.648C569.574 134.648 568.968 134.876 568.464 135.332C567.96 135.776 567.66 136.382 567.564 137.15H573.054ZM589.973 130.49V132.164H586.643V143H584.591V132.164H581.243V130.49H589.973ZM601.141 137.798C601.141 138.17 601.117 138.506 601.069 138.806H593.491C593.551 139.598 593.845 140.234 594.373 140.714C594.901 141.194 595.549 141.434 596.317 141.434C597.421 141.434 598.201 140.972 598.657 140.048H600.871C600.571 140.96 600.025 141.71 599.233 142.298C598.453 142.874 597.481 143.162 596.317 143.162C595.369 143.162 594.517 142.952 593.761 142.532C593.017 142.1 592.429 141.5 591.997 140.732C591.577 139.952 591.367 139.052 591.367 138.032C591.367 137.012 591.571 136.118 591.979 135.35C592.399 134.57 592.981 133.97 593.725 133.55C594.481 133.13 595.345 132.92 596.317 132.92C597.253 132.92 598.087 133.124 598.819 133.532C599.551 133.94 600.121 134.516 600.529 135.26C600.937 135.992 601.141 136.838 601.141 137.798ZM598.999 137.15C598.987 136.394 598.717 135.788 598.189 135.332C597.661 134.876 597.007 134.648 596.227 134.648C595.519 134.648 594.913 134.876 594.409 135.332C593.905 135.776 593.605 136.382 593.509 137.15H598.999ZM606.761 143.162C605.981 143.162 605.279 143.024 604.655 142.748C604.043 142.46 603.557 142.076 603.197 141.596C602.837 141.104 602.645 140.558 602.621 139.958H604.745C604.781 140.378 604.979 140.732 605.339 141.02C605.711 141.296 606.173 141.434 606.725 141.434C607.301 141.434 607.745 141.326 608.057 141.11C608.381 140.882 608.543 140.594 608.543 140.246C608.543 139.874 608.363 139.598 608.003 139.418C607.655 139.238 607.097 139.04 606.329 138.824C605.585 138.62 604.979 138.422 604.511 138.23C604.043 138.038 603.635 137.744 603.287 137.348C602.951 136.952 602.783 136.43 602.783 135.782C602.783 135.254 602.939 134.774 603.251 134.342C603.563 133.898 604.007 133.55 604.583 133.298C605.171 133.046 605.843 132.92 606.599 132.92C607.727 132.92 608.633 133.208 609.317 133.784C610.013 134.348 610.385 135.122 610.433 136.106H608.381C608.345 135.662 608.165 135.308 607.841 135.044C607.517 134.78 607.079 134.648 606.527 134.648C605.987 134.648 605.573 134.75 605.285 134.954C604.997 135.158 604.853 135.428 604.853 135.764C604.853 136.028 604.949 136.25 605.141 136.43C605.333 136.61 605.567 136.754 605.843 136.862C606.119 136.958 606.527 137.084 607.067 137.24C607.787 137.432 608.375 137.63 608.831 137.834C609.299 138.026 609.701 138.314 610.037 138.698C610.373 139.082 610.547 139.592 610.559 140.228C610.559 140.792 610.403 141.296 610.091 141.74C609.779 142.184 609.335 142.532 608.759 142.784C608.195 143.036 607.529 143.162 606.761 143.162ZM615.17 134.756V140.246C615.17 140.618 615.254 140.888 615.422 141.056C615.602 141.212 615.902 141.29 616.322 141.29H617.582V143H615.962C615.038 143 614.33 142.784 613.838 142.352C613.346 141.92 613.1 141.218 613.1 140.246V134.756H611.93V133.082H613.1V130.616H615.17V133.082H617.582V134.756H615.17Z" fill="black"/>
<path d="M536.596 167.242V177H535.322V172.576H530.352V177H529.078V167.242H530.352V171.526H535.322V167.242H536.596ZM545.771 172.87C545.771 173.113 545.757 173.369 545.729 173.64H539.597C539.644 174.396 539.901 174.989 540.367 175.418C540.843 175.838 541.417 176.048 542.089 176.048C542.64 176.048 543.097 175.922 543.461 175.67C543.835 175.409 544.096 175.063 544.245 174.634H545.617C545.412 175.371 545.001 175.973 544.385 176.44C543.769 176.897 543.004 177.126 542.089 177.126C541.361 177.126 540.708 176.963 540.129 176.636C539.56 176.309 539.112 175.847 538.785 175.25C538.459 174.643 538.295 173.943 538.295 173.15C538.295 172.357 538.454 171.661 538.771 171.064C539.089 170.467 539.532 170.009 540.101 169.692C540.68 169.365 541.343 169.202 542.089 169.202C542.817 169.202 543.461 169.361 544.021 169.678C544.581 169.995 545.011 170.434 545.309 170.994C545.617 171.545 545.771 172.17 545.771 172.87ZM544.455 172.604C544.455 172.119 544.348 171.703 544.133 171.358C543.919 171.003 543.625 170.737 543.251 170.56C542.887 170.373 542.481 170.28 542.033 170.28C541.389 170.28 540.839 170.485 540.381 170.896C539.933 171.307 539.677 171.876 539.611 172.604H544.455ZM546.977 173.136C546.977 172.352 547.136 171.666 547.453 171.078C547.77 170.481 548.204 170.019 548.755 169.692C549.315 169.365 549.936 169.202 550.617 169.202C551.289 169.202 551.872 169.347 552.367 169.636C552.862 169.925 553.23 170.289 553.473 170.728V169.328H554.761V177H553.473V175.572C553.221 176.02 552.843 176.393 552.339 176.692C551.844 176.981 551.266 177.126 550.603 177.126C549.922 177.126 549.306 176.958 548.755 176.622C548.204 176.286 547.77 175.815 547.453 175.208C547.136 174.601 546.977 173.911 546.977 173.136ZM553.473 173.15C553.473 172.571 553.356 172.067 553.123 171.638C552.89 171.209 552.572 170.882 552.171 170.658C551.779 170.425 551.345 170.308 550.869 170.308C550.393 170.308 549.959 170.42 549.567 170.644C549.175 170.868 548.862 171.195 548.629 171.624C548.396 172.053 548.279 172.557 548.279 173.136C548.279 173.724 548.396 174.237 548.629 174.676C548.862 175.105 549.175 175.437 549.567 175.67C549.959 175.894 550.393 176.006 550.869 176.006C551.345 176.006 551.779 175.894 552.171 175.67C552.572 175.437 552.89 175.105 553.123 174.676C553.356 174.237 553.473 173.729 553.473 173.15ZM558.188 170.574C558.412 170.135 558.729 169.795 559.14 169.552C559.56 169.309 560.069 169.188 560.666 169.188V170.504H560.33C558.902 170.504 558.188 171.279 558.188 172.828V177H556.914V169.328H558.188V170.574ZM563.691 170.378V174.9C563.691 175.273 563.77 175.539 563.929 175.698C564.087 175.847 564.363 175.922 564.755 175.922H565.693V177H564.545C563.835 177 563.303 176.837 562.949 176.51C562.594 176.183 562.417 175.647 562.417 174.9V170.378H561.423V169.328H562.417V167.396H563.691V169.328H565.693V170.378H563.691ZM576.107 177L573.783 173.01H572.243V177H570.969V167.242H574.119C574.856 167.242 575.477 167.368 575.981 167.62C576.494 167.872 576.877 168.213 577.129 168.642C577.381 169.071 577.507 169.561 577.507 170.112C577.507 170.784 577.311 171.377 576.919 171.89C576.536 172.403 575.957 172.744 575.183 172.912L577.633 177H576.107ZM572.243 171.988H574.119C574.809 171.988 575.327 171.82 575.673 171.484C576.018 171.139 576.191 170.681 576.191 170.112C576.191 169.533 576.018 169.085 575.673 168.768C575.337 168.451 574.819 168.292 574.119 168.292H572.243V171.988ZM579.01 173.136C579.01 172.352 579.169 171.666 579.486 171.078C579.804 170.481 580.238 170.019 580.788 169.692C581.348 169.365 581.969 169.202 582.65 169.202C583.322 169.202 583.906 169.347 584.4 169.636C584.895 169.925 585.264 170.289 585.506 170.728V169.328H586.794V177H585.506V175.572C585.254 176.02 584.876 176.393 584.372 176.692C583.878 176.981 583.299 177.126 582.636 177.126C581.955 177.126 581.339 176.958 580.788 176.622C580.238 176.286 579.804 175.815 579.486 175.208C579.169 174.601 579.01 173.911 579.01 173.136ZM585.506 173.15C585.506 172.571 585.39 172.067 585.156 171.638C584.923 171.209 584.606 170.882 584.204 170.658C583.812 170.425 583.378 170.308 582.902 170.308C582.426 170.308 581.992 170.42 581.6 170.644C581.208 170.868 580.896 171.195 580.662 171.624C580.429 172.053 580.312 172.557 580.312 173.136C580.312 173.724 580.429 174.237 580.662 174.676C580.896 175.105 581.208 175.437 581.6 175.67C581.992 175.894 582.426 176.006 582.902 176.006C583.378 176.006 583.812 175.894 584.204 175.67C584.606 175.437 584.923 175.105 585.156 174.676C585.39 174.237 585.506 173.729 585.506 173.15ZM590.501 170.378V174.9C590.501 175.273 590.58 175.539 590.739 175.698C590.898 175.847 591.173 175.922 591.565 175.922H592.503V177H591.355C590.646 177 590.114 176.837 589.759 176.51C589.404 176.183 589.227 175.647 589.227 174.9V170.378H588.233V169.328H589.227V167.396H590.501V169.328H592.503V170.378H590.501ZM601.047 172.87C601.047 173.113 601.033 173.369 601.005 173.64H594.873C594.919 174.396 595.176 174.989 595.643 175.418C596.119 175.838 596.693 176.048 597.365 176.048C597.915 176.048 598.373 175.922 598.737 175.67C599.11 175.409 599.371 175.063 599.521 174.634H600.893C600.687 175.371 600.277 175.973 599.661 176.44C599.045 176.897 598.279 177.126 597.365 177.126C596.637 177.126 595.983 176.963 595.405 176.636C594.835 176.309 594.387 175.847 594.061 175.25C593.734 174.643 593.571 173.943 593.571 173.15C593.571 172.357 593.729 171.661 594.047 171.064C594.364 170.467 594.807 170.009 595.377 169.692C595.955 169.365 596.618 169.202 597.365 169.202C598.093 169.202 598.737 169.361 599.297 169.678C599.857 169.995 600.286 170.434 600.585 170.994C600.893 171.545 601.047 172.17 601.047 172.87ZM599.731 172.604C599.731 172.119 599.623 171.703 599.409 171.358C599.194 171.003 598.9 170.737 598.527 170.56C598.163 170.373 597.757 170.28 597.309 170.28C596.665 170.28 596.114 170.485 595.657 170.896C595.209 171.307 594.952 171.876 594.887 172.604H599.731ZM532.172 198.098C531.528 198.098 530.949 197.986 530.436 197.762C529.932 197.529 529.535 197.211 529.246 196.81C528.957 196.399 528.807 195.928 528.798 195.396H530.156C530.203 195.853 530.389 196.241 530.716 196.558C531.052 196.866 531.537 197.02 532.172 197.02C532.779 197.02 533.255 196.871 533.6 196.572C533.955 196.264 534.132 195.872 534.132 195.396C534.132 195.023 534.029 194.719 533.824 194.486C533.619 194.253 533.362 194.075 533.054 193.954C532.746 193.833 532.331 193.702 531.808 193.562C531.164 193.394 530.646 193.226 530.254 193.058C529.871 192.89 529.54 192.629 529.26 192.274C528.989 191.91 528.854 191.425 528.854 190.818C528.854 190.286 528.989 189.815 529.26 189.404C529.531 188.993 529.909 188.676 530.394 188.452C530.889 188.228 531.453 188.116 532.088 188.116C533.003 188.116 533.749 188.345 534.328 188.802C534.916 189.259 535.247 189.866 535.322 190.622H533.922C533.875 190.249 533.679 189.922 533.334 189.642C532.989 189.353 532.531 189.208 531.962 189.208C531.43 189.208 530.996 189.348 530.66 189.628C530.324 189.899 530.156 190.281 530.156 190.776C530.156 191.131 530.254 191.42 530.45 191.644C530.655 191.868 530.903 192.041 531.192 192.162C531.491 192.274 531.906 192.405 532.438 192.554C533.082 192.731 533.6 192.909 533.992 193.086C534.384 193.254 534.72 193.52 535 193.884C535.28 194.239 535.42 194.724 535.42 195.34C535.42 195.816 535.294 196.264 535.042 196.684C534.79 197.104 534.417 197.445 533.922 197.706C533.427 197.967 532.844 198.098 532.172 198.098ZM543.819 191.098C543.819 191.91 543.539 192.587 542.979 193.128C542.428 193.66 541.583 193.926 540.445 193.926H538.569V198H537.295V188.242H540.445C541.546 188.242 542.381 188.508 542.951 189.04C543.529 189.572 543.819 190.258 543.819 191.098ZM540.445 192.876C541.154 192.876 541.677 192.722 542.013 192.414C542.349 192.106 542.517 191.667 542.517 191.098C542.517 189.894 541.826 189.292 540.445 189.292H538.569V192.876H540.445ZM549.826 198.098C548.921 198.098 548.095 197.888 547.348 197.468C546.602 197.039 546.009 196.446 545.57 195.69C545.141 194.925 544.926 194.066 544.926 193.114C544.926 192.162 545.141 191.308 545.57 190.552C546.009 189.787 546.602 189.194 547.348 188.774C548.095 188.345 548.921 188.13 549.826 188.13C550.741 188.13 551.572 188.345 552.318 188.774C553.065 189.194 553.653 189.782 554.082 190.538C554.512 191.294 554.726 192.153 554.726 193.114C554.726 194.075 554.512 194.934 554.082 195.69C553.653 196.446 553.065 197.039 552.318 197.468C551.572 197.888 550.741 198.098 549.826 198.098ZM549.826 196.992C550.508 196.992 551.119 196.833 551.66 196.516C552.211 196.199 552.64 195.746 552.948 195.158C553.266 194.57 553.424 193.889 553.424 193.114C553.424 192.33 553.266 191.649 552.948 191.07C552.64 190.482 552.216 190.029 551.674 189.712C551.133 189.395 550.517 189.236 549.826 189.236C549.136 189.236 548.52 189.395 547.978 189.712C547.437 190.029 547.008 190.482 546.69 191.07C546.382 191.649 546.228 192.33 546.228 193.114C546.228 193.889 546.382 194.57 546.69 195.158C547.008 195.746 547.437 196.199 547.978 196.516C548.529 196.833 549.145 196.992 549.826 196.992ZM556.044 196.978C557.229 196.026 558.158 195.247 558.83 194.64C559.502 194.024 560.067 193.385 560.524 192.722C560.991 192.05 561.224 191.392 561.224 190.748C561.224 190.141 561.075 189.665 560.776 189.32C560.487 188.965 560.015 188.788 559.362 188.788C558.727 188.788 558.233 188.989 557.878 189.39C557.533 189.782 557.346 190.309 557.318 190.972H556.086C556.123 189.927 556.441 189.119 557.038 188.55C557.635 187.981 558.405 187.696 559.348 187.696C560.309 187.696 561.07 187.962 561.63 188.494C562.199 189.026 562.484 189.759 562.484 190.692C562.484 191.467 562.251 192.223 561.784 192.96C561.327 193.688 560.804 194.332 560.216 194.892C559.628 195.443 558.877 196.087 557.962 196.824H562.778V197.888H556.044V196.978Z" fill="#101010"/>
<path d="M901.056 143.126C899.892 143.126 898.818 142.856 897.834 142.316C896.862 141.764 896.088 141.002 895.512 140.03C894.948 139.046 894.666 137.942 894.666 136.718C894.666 135.494 894.948 134.396 895.512 133.424C896.088 132.452 896.862 131.696 897.834 131.156C898.818 130.604 899.892 130.328 901.056 130.328C902.232 130.328 903.306 130.604 904.278 131.156C905.262 131.696 906.036 132.452 906.6 133.424C907.164 134.396 907.446 135.494 907.446 136.718C907.446 137.942 907.164 139.046 906.6 140.03C906.036 141.002 905.262 141.764 904.278 142.316C903.306 142.856 902.232 143.126 901.056 143.126ZM901.056 141.344C901.884 141.344 902.622 141.158 903.27 140.786C903.918 140.402 904.422 139.862 904.782 139.166C905.154 138.458 905.34 137.642 905.34 136.718C905.34 135.794 905.154 134.984 904.782 134.288C904.422 133.592 903.918 133.058 903.27 132.686C902.622 132.314 901.884 132.128 901.056 132.128C900.228 132.128 899.49 132.314 898.842 132.686C898.194 133.058 897.684 133.592 897.312 134.288C896.952 134.984 896.772 135.794 896.772 136.718C896.772 137.642 896.952 138.458 897.312 139.166C897.684 139.862 898.194 140.402 898.842 140.786C899.49 141.158 900.228 141.344 901.056 141.344ZM911.859 134.756V140.246C911.859 140.618 911.943 140.888 912.111 141.056C912.291 141.212 912.591 141.29 913.011 141.29H914.271V143H912.651C911.727 143 911.019 142.784 910.527 142.352C910.035 141.92 909.789 141.218 909.789 140.246V134.756H908.619V133.082H909.789V130.616H911.859V133.082H914.271V134.756H911.859ZM921.293 132.92C922.049 132.92 922.721 133.082 923.309 133.406C923.909 133.73 924.377 134.21 924.713 134.846C925.061 135.482 925.235 136.25 925.235 137.15V143H923.201V137.456C923.201 136.568 922.979 135.89 922.535 135.422C922.091 134.942 921.485 134.702 920.717 134.702C919.949 134.702 919.337 134.942 918.881 135.422C918.437 135.89 918.215 136.568 918.215 137.456V143H916.163V129.68H918.215V134.234C918.563 133.814 919.001 133.49 919.529 133.262C920.069 133.034 920.657 132.92 921.293 132.92ZM936.942 137.798C936.942 138.17 936.918 138.506 936.87 138.806H929.292C929.352 139.598 929.646 140.234 930.174 140.714C930.702 141.194 931.35 141.434 932.118 141.434C933.222 141.434 934.002 140.972 934.458 140.048H936.672C936.372 140.96 935.826 141.71 935.034 142.298C934.254 142.874 933.282 143.162 932.118 143.162C931.17 143.162 930.318 142.952 929.562 142.532C928.818 142.1 928.23 141.5 927.798 140.732C927.378 139.952 927.168 139.052 927.168 138.032C927.168 137.012 927.372 136.118 927.78 135.35C928.2 134.57 928.782 133.97 929.526 133.55C930.282 133.13 931.146 132.92 932.118 132.92C933.054 132.92 933.888 133.124 934.62 133.532C935.352 133.94 935.922 134.516 936.33 135.26C936.738 135.992 936.942 136.838 936.942 137.798ZM934.8 137.15C934.788 136.394 934.518 135.788 933.99 135.332C933.462 134.876 932.808 134.648 932.028 134.648C931.32 134.648 930.714 134.876 930.21 135.332C929.706 135.776 929.406 136.382 929.31 137.15H934.8ZM941.013 134.522C941.313 134.018 941.709 133.628 942.201 133.352C942.705 133.064 943.299 132.92 943.983 132.92V135.044H943.461C942.657 135.044 942.045 135.248 941.625 135.656C941.217 136.064 941.013 136.772 941.013 137.78V143H938.961V133.082H941.013V134.522ZM958.627 130.49V132.164H955.297V143H953.245V132.164H949.897V130.49H958.627ZM969.795 137.798C969.795 138.17 969.771 138.506 969.723 138.806H962.145C962.205 139.598 962.499 140.234 963.027 140.714C963.555 141.194 964.203 141.434 964.971 141.434C966.075 141.434 966.855 140.972 967.311 140.048H969.525C969.225 140.96 968.679 141.71 967.887 142.298C967.107 142.874 966.135 143.162 964.971 143.162C964.023 143.162 963.171 142.952 962.415 142.532C961.671 142.1 961.083 141.5 960.651 140.732C960.231 139.952 960.021 139.052 960.021 138.032C960.021 137.012 960.225 136.118 960.633 135.35C961.053 134.57 961.635 133.97 962.379 133.55C963.135 133.13 963.999 132.92 964.971 132.92C965.907 132.92 966.741 133.124 967.473 133.532C968.205 133.94 968.775 134.516 969.183 135.26C969.591 135.992 969.795 136.838 969.795 137.798ZM967.653 137.15C967.641 136.394 967.371 135.788 966.843 135.332C966.315 134.876 965.661 134.648 964.881 134.648C964.173 134.648 963.567 134.876 963.063 135.332C962.559 135.776 962.259 136.382 962.163 137.15H967.653ZM975.415 143.162C974.635 143.162 973.933 143.024 973.309 142.748C972.697 142.46 972.211 142.076 971.851 141.596C971.491 141.104 971.299 140.558 971.275 139.958H973.399C973.435 140.378 973.633 140.732 973.993 141.02C974.365 141.296 974.827 141.434 975.379 141.434C975.955 141.434 976.399 141.326 976.711 141.11C977.035 140.882 977.197 140.594 977.197 140.246C977.197 139.874 977.017 139.598 976.657 139.418C976.309 139.238 975.751 139.04 974.983 138.824C974.239 138.62 973.633 138.422 973.165 138.23C972.697 138.038 972.289 137.744 971.941 137.348C971.605 136.952 971.437 136.43 971.437 135.782C971.437 135.254 971.593 134.774 971.905 134.342C972.217 133.898 972.661 133.55 973.237 133.298C973.825 133.046 974.497 132.92 975.253 132.92C976.381 132.92 977.287 133.208 977.971 133.784C978.667 134.348 979.039 135.122 979.087 136.106H977.035C976.999 135.662 976.819 135.308 976.495 135.044C976.171 134.78 975.733 134.648 975.181 134.648C974.641 134.648 974.227 134.75 973.939 134.954C973.651 135.158 973.507 135.428 973.507 135.764C973.507 136.028 973.603 136.25 973.795 136.43C973.987 136.61 974.221 136.754 974.497 136.862C974.773 136.958 975.181 137.084 975.721 137.24C976.441 137.432 977.029 137.63 977.485 137.834C977.953 138.026 978.355 138.314 978.691 138.698C979.027 139.082 979.201 139.592 979.213 140.228C979.213 140.792 979.057 141.296 978.745 141.74C978.433 142.184 977.989 142.532 977.413 142.784C976.849 143.036 976.183 143.162 975.415 143.162ZM983.824 134.756V140.246C983.824 140.618 983.908 140.888 984.076 141.056C984.256 141.212 984.556 141.29 984.976 141.29H986.236V143H984.616C983.692 143 982.984 142.784 982.492 142.352C982 141.92 981.754 141.218 981.754 140.246V134.756H980.584V133.082H981.754V130.616H983.824V133.082H986.236V134.756H983.824ZM991.727 143.162C990.947 143.162 990.245 143.024 989.621 142.748C989.009 142.46 988.523 142.076 988.163 141.596C987.803 141.104 987.611 140.558 987.587 139.958H989.711C989.747 140.378 989.945 140.732 990.305 141.02C990.677 141.296 991.139 141.434 991.691 141.434C992.267 141.434 992.711 141.326 993.023 141.11C993.347 140.882 993.509 140.594 993.509 140.246C993.509 139.874 993.329 139.598 992.969 139.418C992.621 139.238 992.063 139.04 991.295 138.824C990.551 138.62 989.945 138.422 989.477 138.23C989.009 138.038 988.601 137.744 988.253 137.348C987.917 136.952 987.749 136.43 987.749 135.782C987.749 135.254 987.905 134.774 988.217 134.342C988.529 133.898 988.973 133.55 989.549 133.298C990.137 133.046 990.809 132.92 991.565 132.92C992.693 132.92 993.599 133.208 994.283 133.784C994.979 134.348 995.351 135.122 995.399 136.106H993.347C993.311 135.662 993.131 135.308 992.807 135.044C992.483 134.78 992.045 134.648 991.493 134.648C990.953 134.648 990.539 134.75 990.251 134.954C989.963 135.158 989.819 135.428 989.819 135.764C989.819 136.028 989.915 136.25 990.107 136.43C990.299 136.61 990.533 136.754 990.809 136.862C991.085 136.958 991.493 137.084 992.033 137.24C992.753 137.432 993.341 137.63 993.797 137.834C994.265 138.026 994.667 138.314 995.003 138.698C995.339 139.082 995.513 139.592 995.525 140.228C995.525 140.792 995.369 141.296 995.057 141.74C994.745 142.184 994.301 142.532 993.725 142.784C993.161 143.036 992.495 143.162 991.727 143.162Z" fill="black"/>
<path d="M984 157C984.552 157 985 156.552 985 156C985 155.448 984.552 155 984 155V157ZM894 157H984V155H894V157Z" fill="black" fill-opacity="0.3"/>
<path d="M902.964 171.974C903.319 172.03 903.641 172.175 903.93 172.408C904.229 172.641 904.462 172.931 904.63 173.276C904.807 173.621 904.896 173.99 904.896 174.382C904.896 174.877 904.77 175.325 904.518 175.726C904.266 176.118 903.897 176.431 903.412 176.664C902.936 176.888 902.371 177 901.718 177H898.078V167.242H901.578C902.241 167.242 902.805 167.354 903.272 167.578C903.739 167.793 904.089 168.087 904.322 168.46C904.555 168.833 904.672 169.253 904.672 169.72C904.672 170.299 904.513 170.779 904.196 171.162C903.888 171.535 903.477 171.806 902.964 171.974ZM899.352 171.456H901.494C902.091 171.456 902.553 171.316 902.88 171.036C903.207 170.756 903.37 170.369 903.37 169.874C903.37 169.379 903.207 168.992 902.88 168.712C902.553 168.432 902.082 168.292 901.466 168.292H899.352V171.456ZM901.606 175.95C902.241 175.95 902.735 175.801 903.09 175.502C903.445 175.203 903.622 174.788 903.622 174.256C903.622 173.715 903.435 173.29 903.062 172.982C902.689 172.665 902.189 172.506 901.564 172.506H899.352V175.95H901.606ZM907.938 166.64V177H906.664V166.64H907.938ZM913.455 177.126C912.737 177.126 912.083 176.963 911.495 176.636C910.917 176.309 910.459 175.847 910.123 175.25C909.797 174.643 909.633 173.943 909.633 173.15C909.633 172.366 909.801 171.675 910.137 171.078C910.483 170.471 910.949 170.009 911.537 169.692C912.125 169.365 912.783 169.202 913.511 169.202C914.239 169.202 914.897 169.365 915.485 169.692C916.073 170.009 916.535 170.467 916.871 171.064C917.217 171.661 917.389 172.357 917.389 173.15C917.389 173.943 917.212 174.643 916.857 175.25C916.512 175.847 916.041 176.309 915.443 176.636C914.846 176.963 914.183 177.126 913.455 177.126ZM913.455 176.006C913.913 176.006 914.342 175.899 914.743 175.684C915.145 175.469 915.467 175.147 915.709 174.718C915.961 174.289 916.087 173.766 916.087 173.15C916.087 172.534 915.966 172.011 915.723 171.582C915.481 171.153 915.163 170.835 914.771 170.63C914.379 170.415 913.955 170.308 913.497 170.308C913.031 170.308 912.601 170.415 912.209 170.63C911.827 170.835 911.519 171.153 911.285 171.582C911.052 172.011 910.935 172.534 910.935 173.15C910.935 173.775 911.047 174.303 911.271 174.732C911.505 175.161 911.813 175.483 912.195 175.698C912.578 175.903 912.998 176.006 913.455 176.006ZM922.41 177.126C921.692 177.126 921.038 176.963 920.45 176.636C919.872 176.309 919.414 175.847 919.078 175.25C918.752 174.643 918.588 173.943 918.588 173.15C918.588 172.366 918.756 171.675 919.092 171.078C919.438 170.471 919.904 170.009 920.492 169.692C921.08 169.365 921.738 169.202 922.466 169.202C923.194 169.202 923.852 169.365 924.44 169.692C925.028 170.009 925.49 170.467 925.826 171.064C926.172 171.661 926.344 172.357 926.344 173.15C926.344 173.943 926.167 174.643 925.812 175.25C925.467 175.847 924.996 176.309 924.398 176.636C923.801 176.963 923.138 177.126 922.41 177.126ZM922.41 176.006C922.868 176.006 923.297 175.899 923.698 175.684C924.1 175.469 924.422 175.147 924.664 174.718C924.916 174.289 925.042 173.766 925.042 173.15C925.042 172.534 924.921 172.011 924.678 171.582C924.436 171.153 924.118 170.835 923.726 170.63C923.334 170.415 922.91 170.308 922.452 170.308C921.986 170.308 921.556 170.415 921.164 170.63C920.782 170.835 920.474 171.153 920.24 171.582C920.007 172.011 919.89 172.534 919.89 173.15C919.89 173.775 920.002 174.303 920.226 174.732C920.46 175.161 920.768 175.483 921.15 175.698C921.533 175.903 921.953 176.006 922.41 176.006ZM927.543 173.136C927.543 172.352 927.702 171.666 928.019 171.078C928.337 170.481 928.771 170.019 929.321 169.692C929.881 169.365 930.507 169.202 931.197 169.202C931.795 169.202 932.35 169.342 932.863 169.622C933.377 169.893 933.769 170.252 934.039 170.7V166.64H935.327V177H934.039V175.558C933.787 176.015 933.414 176.393 932.919 176.692C932.425 176.981 931.846 177.126 931.183 177.126C930.502 177.126 929.881 176.958 929.321 176.622C928.771 176.286 928.337 175.815 928.019 175.208C927.702 174.601 927.543 173.911 927.543 173.136ZM934.039 173.15C934.039 172.571 933.923 172.067 933.689 171.638C933.456 171.209 933.139 170.882 932.737 170.658C932.345 170.425 931.911 170.308 931.435 170.308C930.959 170.308 930.525 170.42 930.133 170.644C929.741 170.868 929.429 171.195 929.195 171.624C928.962 172.053 928.845 172.557 928.845 173.136C928.845 173.724 928.962 174.237 929.195 174.676C929.429 175.105 929.741 175.437 930.133 175.67C930.525 175.894 930.959 176.006 931.435 176.006C931.911 176.006 932.345 175.894 932.737 175.67C933.139 175.437 933.456 175.105 933.689 174.676C933.923 174.237 934.039 173.729 934.039 173.15ZM947.737 170.098C947.737 170.91 947.457 171.587 946.897 172.128C946.346 172.66 945.501 172.926 944.363 172.926H942.487V177H941.213V167.242H944.363C945.464 167.242 946.299 167.508 946.869 168.04C947.447 168.572 947.737 169.258 947.737 170.098ZM944.363 171.876C945.072 171.876 945.595 171.722 945.931 171.414C946.267 171.106 946.435 170.667 946.435 170.098C946.435 168.894 945.744 168.292 944.363 168.292H942.487V171.876H944.363ZM950.594 170.574C950.818 170.135 951.136 169.795 951.546 169.552C951.966 169.309 952.475 169.188 953.072 169.188V170.504H952.736C951.308 170.504 950.594 171.279 950.594 172.828V177H949.32V169.328H950.594V170.574ZM961.543 172.87C961.543 173.113 961.529 173.369 961.501 173.64H955.369C955.416 174.396 955.672 174.989 956.139 175.418C956.615 175.838 957.189 176.048 957.861 176.048C958.412 176.048 958.869 175.922 959.233 175.67C959.606 175.409 959.868 175.063 960.017 174.634H961.389C961.184 175.371 960.773 175.973 960.157 176.44C959.541 176.897 958.776 177.126 957.861 177.126C957.133 177.126 956.48 176.963 955.901 176.636C955.332 176.309 954.884 175.847 954.557 175.25C954.23 174.643 954.067 173.943 954.067 173.15C954.067 172.357 954.226 171.661 954.543 171.064C954.86 170.467 955.304 170.009 955.873 169.692C956.452 169.365 957.114 169.202 957.861 169.202C958.589 169.202 959.233 169.361 959.793 169.678C960.353 169.995 960.782 170.434 961.081 170.994C961.389 171.545 961.543 172.17 961.543 172.87ZM960.227 172.604C960.227 172.119 960.12 171.703 959.905 171.358C959.69 171.003 959.396 170.737 959.023 170.56C958.659 170.373 958.253 170.28 957.805 170.28C957.161 170.28 956.61 170.485 956.153 170.896C955.705 171.307 955.448 171.876 955.383 172.604H960.227ZM965.94 177.126C965.352 177.126 964.825 177.028 964.358 176.832C963.892 176.627 963.523 176.347 963.252 175.992C962.982 175.628 962.832 175.213 962.804 174.746H964.12C964.158 175.129 964.335 175.441 964.652 175.684C964.979 175.927 965.404 176.048 965.926 176.048C966.412 176.048 966.794 175.941 967.074 175.726C967.354 175.511 967.494 175.241 967.494 174.914C967.494 174.578 967.345 174.331 967.046 174.172C966.748 174.004 966.286 173.841 965.66 173.682C965.091 173.533 964.624 173.383 964.26 173.234C963.906 173.075 963.598 172.847 963.336 172.548C963.084 172.24 962.958 171.839 962.958 171.344C962.958 170.952 963.075 170.593 963.308 170.266C963.542 169.939 963.873 169.683 964.302 169.496C964.732 169.3 965.222 169.202 965.772 169.202C966.622 169.202 967.308 169.417 967.83 169.846C968.353 170.275 968.633 170.863 968.67 171.61H967.396C967.368 171.209 967.205 170.887 966.906 170.644C966.617 170.401 966.225 170.28 965.73 170.28C965.273 170.28 964.909 170.378 964.638 170.574C964.368 170.77 964.232 171.027 964.232 171.344C964.232 171.596 964.312 171.806 964.47 171.974C964.638 172.133 964.844 172.263 965.086 172.366C965.338 172.459 965.684 172.567 966.122 172.688C966.673 172.837 967.121 172.987 967.466 173.136C967.812 173.276 968.106 173.491 968.348 173.78C968.6 174.069 968.731 174.447 968.74 174.914C968.74 175.334 968.624 175.712 968.39 176.048C968.157 176.384 967.826 176.65 967.396 176.846C966.976 177.033 966.491 177.126 965.94 177.126ZM973.255 177.126C972.667 177.126 972.14 177.028 971.673 176.832C971.206 176.627 970.838 176.347 970.567 175.992C970.296 175.628 970.147 175.213 970.119 174.746H971.435C971.472 175.129 971.65 175.441 971.967 175.684C972.294 175.927 972.718 176.048 973.241 176.048C973.726 176.048 974.109 175.941 974.389 175.726C974.669 175.511 974.809 175.241 974.809 174.914C974.809 174.578 974.66 174.331 974.361 174.172C974.062 174.004 973.6 173.841 972.975 173.682C972.406 173.533 971.939 173.383 971.575 173.234C971.22 173.075 970.912 172.847 970.651 172.548C970.399 172.24 970.273 171.839 970.273 171.344C970.273 170.952 970.39 170.593 970.623 170.266C970.856 169.939 971.188 169.683 971.617 169.496C972.046 169.3 972.536 169.202 973.087 169.202C973.936 169.202 974.622 169.417 975.145 169.846C975.668 170.275 975.948 170.863 975.985 171.61H974.711C974.683 171.209 974.52 170.887 974.221 170.644C973.932 170.401 973.54 170.28 973.045 170.28C972.588 170.28 972.224 170.378 971.953 170.574C971.682 170.77 971.547 171.027 971.547 171.344C971.547 171.596 971.626 171.806 971.785 171.974C971.953 172.133 972.158 172.263 972.401 172.366C972.653 172.459 972.998 172.567 973.437 172.688C973.988 172.837 974.436 172.987 974.781 173.136C975.126 173.276 975.42 173.491 975.663 173.78C975.915 174.069 976.046 174.447 976.055 174.914C976.055 175.334 975.938 175.712 975.705 176.048C975.472 176.384 975.14 176.65 974.711 176.846C974.291 177.033 973.806 177.126 973.255 177.126ZM984.657 169.328V177H983.383V175.866C983.141 176.258 982.8 176.566 982.361 176.79C981.932 177.005 981.456 177.112 980.933 177.112C980.336 177.112 979.799 176.991 979.323 176.748C978.847 176.496 978.469 176.123 978.189 175.628C977.919 175.133 977.783 174.531 977.783 173.822V169.328H979.043V173.654C979.043 174.41 979.235 174.993 979.617 175.404C980 175.805 980.523 176.006 981.185 176.006C981.867 176.006 982.403 175.796 982.795 175.376C983.187 174.956 983.383 174.345 983.383 173.542V169.328H984.657ZM988.082 170.574C988.306 170.135 988.624 169.795 989.034 169.552C989.454 169.309 989.963 169.188 990.56 169.188V170.504H990.224C988.796 170.504 988.082 171.279 988.082 172.828V177H986.808V169.328H988.082V170.574ZM999.031 172.87C999.031 173.113 999.017 173.369 998.989 173.64H992.857C992.904 174.396 993.16 174.989 993.627 175.418C994.103 175.838 994.677 176.048 995.349 176.048C995.9 176.048 996.357 175.922 996.721 175.67C997.094 175.409 997.356 175.063 997.505 174.634H998.877C998.672 175.371 998.261 175.973 997.645 176.44C997.029 176.897 996.264 177.126 995.349 177.126C994.621 177.126 993.968 176.963 993.389 176.636C992.82 176.309 992.372 175.847 992.045 175.25C991.718 174.643 991.555 173.943 991.555 173.15C991.555 172.357 991.714 171.661 992.031 171.064C992.348 170.467 992.792 170.009 993.361 169.692C993.94 169.365 994.602 169.202 995.349 169.202C996.077 169.202 996.721 169.361 997.281 169.678C997.841 169.995 998.27 170.434 998.569 170.994C998.877 171.545 999.031 172.17 999.031 172.87ZM997.715 172.604C997.715 172.119 997.608 171.703 997.393 171.358C997.178 171.003 996.884 170.737 996.511 170.56C996.147 170.373 995.741 170.28 995.293 170.28C994.649 170.28 994.098 170.485 993.641 170.896C993.193 171.307 992.936 171.876 992.871 172.604H997.715Z" fill="#101010"/>
</svg>
