<svg width="76" height="76" viewBox="0 0 76 76" fill="none" xmlns="http://www.w3.org/2000/svg">
<circle cx="38" cy="38" r="38" fill="#648AFF"/>
<ellipse cx="38.0254" cy="37.9999" rx="26.7788" ry="27.2401" fill="#0038A5"/>
<path d="M33.4685 25.4287C33.7209 25.4377 33.9632 25.53 34.1576 25.6913C34.3519 25.8526 34.4874 26.0737 34.5428 26.3201L38.7851 45.1727L43.2011 31.9247C43.2749 31.7022 43.4154 31.5079 43.6034 31.368C43.7915 31.2281 44.018 31.1494 44.2522 31.1425C44.4865 31.1356 44.7172 31.201 44.9131 31.3296C45.109 31.4583 45.2606 31.6441 45.3474 31.8618L47.3451 36.8572H50.5714C50.8745 36.8572 51.1652 36.9777 51.3795 37.192C51.5938 37.4063 51.7142 37.697 51.7142 38.0001C51.7142 38.3032 51.5938 38.5939 51.3795 38.8082C51.1652 39.0226 50.8745 39.143 50.5714 39.143H46.5714C46.343 39.1428 46.1199 39.0743 45.9309 38.9461C45.7418 38.818 45.5955 38.6362 45.5108 38.4241L44.3828 35.607L39.6559 49.7898C39.5773 50.027 39.423 50.232 39.2168 50.3732C39.0106 50.5144 38.7638 50.5841 38.5142 50.5716C38.2646 50.5592 38.0259 50.4653 37.8348 50.3042C37.6437 50.1432 37.5106 49.924 37.4559 49.6801L33.2708 31.0744L31.0948 38.327C31.0244 38.5627 30.8799 38.7694 30.6826 38.9165C30.4854 39.0635 30.2459 39.1429 29.9999 39.143H25.4285C25.1254 39.143 24.8347 39.0226 24.6204 38.8082C24.4061 38.5939 24.2856 38.3032 24.2856 38.0001C24.2856 37.697 24.4061 37.4063 24.6204 37.192C24.8347 36.9777 25.1254 36.8572 25.4285 36.8572H29.1496L32.3336 26.2435C32.406 26.0013 32.5567 25.7899 32.7621 25.6425C32.9674 25.4951 33.2159 25.4199 33.4685 25.4287Z" fill="white"/>
</svg>
