<svg width="76" height="76" viewBox="0 0 76 76" fill="none" xmlns="http://www.w3.org/2000/svg">
<circle cx="38" cy="38" r="38" fill="#648AFF"/>
<ellipse cx="38.0254" cy="37.9999" rx="26.7788" ry="27.2401" fill="#0038A5"/>
<path d="M38.8934 49.6533L38.0001 50.4667L36.0667 48.7067C29.2001 42.48 24.6667 38.36 24.6667 33.3333C24.6667 29.2133 27.8934 26 32.0001 26C34.3201 26 36.5467 27.08 38.0001 28.7733C39.4534 27.08 41.6801 26 44.0001 26C48.1067 26 51.3334 29.2133 51.3334 33.3333C51.3334 35.24 50.6667 37.0133 49.4934 38.8133C48.6667 38.4133 47.7467 38.1467 46.7867 38.0533C48.0001 36.4 48.6667 34.8667 48.6667 33.3333C48.6667 30.6667 46.6667 28.6667 44.0001 28.6667C41.9467 28.6667 39.9467 30 39.2401 31.8133H36.7601C36.0534 30 34.0534 28.6667 32.0001 28.6667C29.3334 28.6667 27.3334 30.6667 27.3334 33.3333C27.3334 37.1867 31.5201 40.9867 37.8534 46.7333L38.0001 46.8667L38.0534 46.8133C38.1601 47.8267 38.4534 48.7867 38.8934 49.6533ZM44.6667 40.6667V44.6667H40.6667V47.3333H44.6667V51.3333H47.3334V47.3333H51.3334V44.6667H47.3334V40.6667H44.6667Z" fill="white"/>
</svg>
