<svg width="76" height="76" viewBox="0 0 76 76" fill="none" xmlns="http://www.w3.org/2000/svg">
<circle cx="38" cy="38" r="38" fill="#648AFF"/>
<ellipse cx="38.0254" cy="37.9999" rx="26.7788" ry="27.2401" fill="#0038A5"/>
<g clip-path="url(#clip0_68_1040)">
<path d="M38 29C39.933 29 41.5 27.433 41.5 25.5C41.5 23.567 39.933 22 38 22C36.067 22 34.5 23.567 34.5 25.5C34.5 27.433 36.067 29 38 29Z" fill="white"/>
<path d="M49.3125 29.9999H26.6875C26.2399 29.9999 25.8107 30.1777 25.4943 30.4942C25.1778 30.8106 25 31.2399 25 31.6874C25 32.135 25.1778 32.5642 25.4943 32.8807C25.8107 33.1971 26.2399 33.3749 26.6875 33.3749H33.055C33.4869 33.3749 33.9925 33.568 34.2788 34.3124C34.6131 35.1768 34.4494 36.8462 34.2431 38.1393L33.9731 39.6674C33.9736 39.6714 33.9732 39.6754 33.9719 39.6792C33.9706 39.683 33.9685 39.6865 33.9656 39.6893L31.8031 51.9899C31.7247 52.4364 31.8263 52.8958 32.0858 53.2676C32.3452 53.6394 32.7413 53.8932 33.1875 53.9737C33.4081 54.0127 33.6342 54.0075 33.8528 53.9584C34.0713 53.9093 34.2779 53.8173 34.4606 53.6877C34.6433 53.5581 34.7985 53.3934 34.917 53.2034C35.0356 53.0133 35.1152 52.8016 35.1512 52.5805L36.6456 44.0305C36.6456 44.0305 37.125 41.9999 38 41.9999C38.8894 41.9999 39.3587 44.0305 39.3587 44.0305L40.8531 52.588C40.8893 52.8111 40.9694 53.0247 41.089 53.2164C41.2085 53.4081 41.365 53.5741 41.5494 53.7048C41.7337 53.8354 41.9422 53.928 42.1627 53.9773C42.3832 54.0265 42.6113 54.0313 42.8337 53.9915C43.0561 53.9517 43.2684 53.868 43.4581 53.7453C43.6478 53.6227 43.8113 53.4634 43.9388 53.277C44.0664 53.0905 44.1556 52.8805 44.2012 52.6592C44.2468 52.4379 44.2479 52.2098 44.2044 51.988L42.0413 39.6874C42.0417 39.6835 42.0413 39.6795 42.0401 39.6758C42.039 39.672 42.037 39.6685 42.0344 39.6655L41.7638 38.1374C41.5575 36.8443 41.3937 35.1749 41.7281 34.3105C42.0131 33.568 42.535 33.373 42.9331 33.373H49.3125C49.7601 33.373 50.1893 33.1953 50.5057 32.8788C50.8222 32.5623 51 32.1331 51 31.6855C51 31.238 50.8222 30.8088 50.5057 30.4923C50.1893 30.1758 49.7601 29.998 49.3125 29.998V29.9999Z" fill="white"/>
</g>
<defs>
<clipPath id="clip0_68_1040">
<rect width="32" height="32" fill="white" transform="translate(22 22)"/>
</clipPath>
</defs>
</svg>
