<svg width="228" height="224" viewBox="0 0 228 224" fill="none" xmlns="http://www.w3.org/2000/svg">
<path d="M149.119 65.6151C148.626 65.6151 148.133 65.4919 147.702 65.2455C135.875 59.1471 125.649 56.5599 113.391 56.5599C101.194 56.5599 89.6129 59.4551 79.0793 65.2455C77.6009 66.0463 75.753 65.4919 74.8906 64.0135C74.5064 63.2931 74.4202 62.4506 74.6506 61.6673C74.881 60.8841 75.4095 60.2224 76.1225 59.8247C87.5801 53.6031 100.147 50.3999 113.391 50.3999C126.511 50.3999 137.969 53.2951 150.535 59.7631C152.075 60.5639 152.63 62.4119 151.829 63.8903C151.585 64.4038 151.202 64.8381 150.722 65.1433C150.243 65.4484 149.687 65.6119 149.119 65.6151ZM60.9689 97.9551C60.4011 97.9604 59.8429 97.8083 59.3563 97.5157C58.8697 97.2231 58.4736 96.8014 58.212 96.2973C57.9504 95.7933 57.8336 95.2267 57.8744 94.6603C57.9153 94.094 58.1122 93.55 58.4433 93.0887C64.5417 84.4647 72.3034 77.6887 81.5433 72.9455C100.886 62.9663 125.649 62.9047 145.053 72.8839C154.293 77.6271 162.055 84.3415 168.153 92.9039C168.389 93.2349 168.558 93.6095 168.649 94.006C168.739 94.4025 168.751 94.813 168.682 95.2139C168.613 95.6148 168.466 95.9982 168.248 96.3418C168.03 96.6854 167.747 96.9825 167.414 97.2159C165.997 98.2015 164.087 97.8935 163.102 96.4767C157.707 88.8406 150.542 82.6263 142.219 78.3663C124.54 69.3111 101.933 69.3111 84.3153 78.4279C75.9377 82.7399 68.9153 88.8999 63.3714 96.6615C62.8786 97.5239 61.9545 97.9551 60.9689 97.9551ZM99.4689 172.306C99.065 172.311 98.6645 172.232 98.2932 172.072C97.9219 171.913 97.588 171.678 97.3129 171.382C91.9537 166.023 89.0585 162.574 84.9313 155.12C80.6809 147.543 78.4634 138.303 78.4634 128.385C78.4634 110.09 94.1097 95.1831 113.329 95.1831C132.548 95.1831 148.195 110.09 148.195 128.385C148.195 130.11 146.839 131.465 145.115 131.465C143.39 131.465 142.035 130.11 142.035 128.385C142.035 113.478 129.16 101.343 113.329 101.343C97.4977 101.343 84.6233 113.478 84.6233 128.385C84.6233 137.256 86.5945 145.449 90.3521 152.102C94.2945 159.186 97.0049 162.204 101.748 167.009C102.919 168.241 102.919 170.15 101.748 171.382C101.071 171.998 100.27 172.306 99.4689 172.306ZM143.636 160.91C136.306 160.91 129.838 159.062 124.54 155.428C115.362 149.206 109.879 139.104 109.879 128.385C109.879 126.661 111.235 125.305 112.959 125.305C114.684 125.305 116.039 126.661 116.039 128.385C116.039 137.071 120.475 145.264 127.99 150.315C132.363 153.272 137.476 154.689 143.636 154.689C145.115 154.689 147.579 154.504 150.043 154.073C151.706 153.765 153.307 154.873 153.615 156.598C153.923 158.261 152.815 159.863 151.09 160.171C147.579 160.849 144.499 160.91 143.636 160.91ZM131.255 173.6C131.008 173.6 130.7 173.538 130.454 173.477C120.659 170.766 114.253 167.132 107.539 160.541C103.284 156.339 99.9099 151.332 97.6146 145.81C95.3193 140.289 94.1487 134.365 94.1713 128.385C94.1713 118.406 102.672 110.275 113.144 110.275C123.616 110.275 132.117 118.406 132.117 128.385C132.117 134.977 137.846 140.336 144.93 140.336C152.014 140.336 157.743 134.977 157.743 128.385C157.743 105.162 137.723 86.3127 113.083 86.3127C95.5881 86.3127 79.5721 96.0455 72.3649 111.137C69.9625 116.127 68.7306 121.979 68.7306 128.385C68.7306 133.19 69.1617 140.767 72.8577 150.623C73.4737 152.225 72.6729 154.011 71.0713 154.565C69.4697 155.181 67.6833 154.319 67.1289 152.779C64.1607 144.989 62.6369 136.722 62.6321 128.385C62.6321 120.993 64.0489 114.279 66.8209 108.427C75.0137 91.2407 93.1857 80.0911 113.083 80.0911C141.111 80.0911 163.903 101.713 163.903 128.324C163.903 138.303 155.402 146.434 144.93 146.434C134.458 146.434 125.957 138.303 125.957 128.324C125.957 121.733 120.228 116.374 113.144 116.374C106.06 116.374 100.331 121.733 100.331 128.324C100.331 138.857 104.397 148.714 111.851 156.105C117.703 161.896 123.308 165.099 131.994 167.502C133.657 167.933 134.581 169.658 134.15 171.259C133.842 172.676 132.548 173.6 131.255 173.6Z" fill="#D1E8FF"/>
<ellipse cx="113.93" cy="112" rx="113.93" ry="112" fill="#D1E8FF"/>
<circle cx="114.007" cy="112" r="80.2867" fill="#DEF0FF"/>
<g clip-path="url(#clip0_240_67)">
<path d="M113.629 89.151C105.199 89.151 98.2682 92.9401 92.9538 97.8173C87.9757 102.4 84.5362 107.84 82.7777 111.681C84.5362 115.521 87.9757 120.962 92.9409 125.544C98.2682 130.422 105.199 134.211 113.629 134.211C122.06 134.211 128.991 130.422 134.305 125.544C139.283 120.962 142.723 115.521 144.481 111.681C142.723 107.84 139.283 102.4 134.318 97.8173C128.991 92.9401 122.06 89.151 113.629 89.151ZM88.7256 93.3241C94.8158 87.7173 103.182 83.0065 113.629 83.0065C124.077 83.0065 132.443 87.7173 138.533 93.3241C144.585 98.8926 148.632 105.536 150.558 110.106C150.985 111.118 150.985 112.244 150.558 113.255C148.632 117.825 144.585 124.482 138.533 130.037C132.443 135.644 124.077 140.355 113.629 140.355C103.182 140.355 94.8158 135.644 88.7256 130.037C82.6742 124.482 78.627 117.825 76.7133 113.255C76.2866 112.244 76.2866 111.118 76.7133 110.106C78.627 105.536 82.6742 98.8798 88.7256 93.3241ZM113.629 121.922C119.345 121.922 123.974 117.339 123.974 111.681C123.974 106.023 119.345 101.44 113.629 101.44C113.539 101.44 113.461 101.44 113.371 101.44C113.539 102.093 113.629 102.784 113.629 103.488C113.629 108.007 109.918 111.681 105.354 111.681C104.643 111.681 103.945 111.591 103.285 111.425C103.285 111.514 103.285 111.591 103.285 111.681C103.285 117.339 107.914 121.922 113.629 121.922ZM113.629 95.2955C118.019 95.2955 122.229 97.0218 125.333 100.095C128.437 103.167 130.18 107.335 130.18 111.681C130.18 116.026 128.437 120.194 125.333 123.267C122.229 126.34 118.019 128.066 113.629 128.066C109.24 128.066 105.03 126.34 101.926 123.267C98.8224 120.194 97.0786 116.026 97.0786 111.681C97.0786 107.335 98.8224 103.167 101.926 100.095C105.03 97.0218 109.24 95.2955 113.629 95.2955Z" fill="#0038A5"/>
</g>
<defs>
<clipPath id="clip0_240_67">
<rect width="74.4787" height="65.5413" fill="white" transform="translate(76.3899 78.9102)"/>
</clipPath>
</defs>
</svg>
