<svg width="557" height="395" viewBox="0 0 557 395" fill="none" xmlns="http://www.w3.org/2000/svg">
<g clip-path="url(#clip0_128_28)">
<path opacity="0.1" d="M185.025 393.989C212.127 393.989 234.098 390.46 234.098 386.107C234.098 381.754 212.127 378.225 185.025 378.225C157.922 378.225 135.951 381.754 135.951 386.107C135.951 390.46 157.922 393.989 185.025 393.989Z" fill="#477AFA"/>
<path opacity="0.1" d="M451.78 394.21C485.6 394.21 513.016 390.681 513.016 386.328C513.016 381.975 485.6 378.446 451.78 378.446C417.96 378.446 390.544 381.975 390.544 386.328C390.544 390.681 417.96 394.21 451.78 394.21Z" fill="#477AFA"/>
<path opacity="0.1" d="M6.97138 170.327H58.0846V239.994H10.7133C10.5874 240.709 10.4666 241.43 10.3356 242.15H58.0846V298.335C57.999 298.309 57.9235 298.279 57.8429 298.249C56.4932 297.715 55.1535 297.151 53.8138 296.547L52.9577 296.159C51.6147 295.524 50.2717 294.853 48.9287 294.144C48.4603 293.898 47.9919 293.641 47.5286 293.379C40.0728 289.202 33.2996 283.91 27.4439 277.686C27.2726 277.52 27.1115 277.343 26.9402 277.182C26.1244 276.296 25.3236 275.399 24.548 274.483L23.6918 273.476C22.7752 272.352 21.8888 271.199 21.0276 270.031C20.9017 269.859 20.7809 269.688 20.6499 269.527C17.1474 264.671 14.2392 259.412 11.9875 253.864C11.917 253.698 11.8566 253.517 11.7911 253.361C11.0994 251.581 10.4867 249.785 9.95286 247.972C9.72119 247.211 9.49959 246.461 9.30821 245.67C9.2377 245.439 9.17727 245.212 9.12187 244.985C6.26126 233.82 5.92383 222.221 5.92383 210.703C5.92383 209.359 5.92383 208.009 5.92383 206.674C5.92383 202.016 5.97923 197.327 6.05981 192.643C6.05981 191.429 6.11017 190.221 6.13535 189.002C6.20586 185.91 6.30659 182.817 6.43753 179.725C6.46775 178.864 6.50804 178.008 6.55336 177.152C6.55336 176.658 6.57855 176.164 6.62891 175.671C6.74978 173.878 6.85051 172.1 6.97138 170.327Z" fill="#477AFA"/>
<path opacity="0.1" d="M58.0829 92.7585H30.0459C34.6035 85.625 39.5831 78.7702 44.9583 72.2306C49.1233 67.1138 53.52 62.1279 58.0829 57.3232V92.7585Z" fill="#477AFA"/>
<path opacity="0.1" d="M58.0829 94.9141V168.172H7.13086C7.13086 167.96 7.16611 167.744 7.18122 167.532C7.22655 166.953 7.27187 166.374 7.32224 165.8C7.37764 165.125 7.43807 164.445 7.50354 163.785C7.56901 163.125 7.63952 162.32 7.71507 161.589C7.79061 160.859 7.86112 160.119 7.94674 159.389C8.03235 158.658 8.1079 157.928 8.19855 157.203C8.2892 156.478 8.36979 155.742 8.46548 155.017C8.54102 154.413 8.6216 153.813 8.70218 153.209C8.81801 152.358 8.93888 151.502 9.06983 150.656C9.06983 150.53 9.10508 150.399 9.12523 150.278C10.0444 144.084 11.2969 137.944 12.8773 131.885C14.5315 125.53 16.6438 119.302 19.1978 113.251C21.9122 106.921 25.0903 100.801 28.7063 94.9392L58.0829 94.9141Z" fill="#477AFA"/>
<path opacity="0.1" d="M70.2861 170.322V239.994H179.458V170.322H70.2861ZM70.2861 242.144V301.975C70.9106 302.106 71.5301 302.232 72.1445 302.338C72.9805 302.499 73.8115 302.645 74.6627 302.771C74.8238 302.796 74.99 302.821 75.1663 302.837C75.4987 302.892 75.8412 302.937 76.1735 302.983C77.0146 303.098 77.8506 303.194 78.6917 303.27C79.0896 303.31 79.4925 303.345 79.8954 303.375L80.8674 303.451C81.3962 303.491 81.9199 303.521 82.4387 303.537C82.761 303.537 83.0833 303.567 83.4157 303.577C83.6675 303.577 83.9194 303.577 84.1812 303.577C84.4431 303.577 84.8158 303.577 85.1331 303.577C85.5662 303.577 85.9993 303.577 86.4274 303.577H87.0066C87.4397 303.577 87.8728 303.577 88.3009 303.537H88.3311C88.6283 303.537 88.9305 303.537 89.2326 303.496C89.3165 303.501 89.4006 303.501 89.4844 303.496C89.7363 303.496 89.9881 303.496 90.2298 303.461H90.4061L92.0932 303.33C92.6472 303.28 93.2063 303.214 93.7703 303.154L94.9186 303.018C99.5901 302.363 104.21 301.38 108.743 300.077C118.927 297.236 128.888 293.263 139.067 290.352C152.226 286.6 166.766 284.756 179.483 289.344V242.144H70.2861ZM179.458 92.758V0.00481829C167.505 -0.124676 155.585 1.2733 143.987 4.16479C116.343 11.1098 91.5393 26.1733 70.2861 45.4119V92.753H75.7656V94.9035H70.2861V168.171H179.458V94.9085H98.2627V92.758H179.458ZM319.683 61.4273C312.844 61.1856 306.045 59.02 299.895 55.6759C288.136 49.2798 278.743 39.4037 268.247 31.0686C246.44 13.7085 219.395 3.23308 191.65 0.634354V92.758H347.498L347.886 92.3501L319.683 61.4273ZM333.88 58.9092L348.934 75.4282V54.578C343.892 55.2025 339.475 56.6882 333.9 58.889L333.88 58.9092ZM348.934 316.832V242.144H316.858C316.772 241.827 316.686 241.505 316.586 241.182C316.681 241.505 316.762 241.827 316.853 242.144H191.671V296.158C192.859 297.04 194.033 297.966 195.196 298.908C196.45 299.915 197.689 300.978 198.933 302.021L200.187 303.058C200.786 303.562 201.391 304.065 202 304.539C203.209 305.519 204.429 306.486 205.661 307.44C206.271 307.943 206.895 308.397 207.515 308.87C217.349 316.389 227.723 323.174 238.553 329.171C240.981 330.514 243.43 331.825 245.901 333.105C247.548 333.946 249.205 334.782 250.867 335.592C253.365 336.811 255.883 337.986 258.422 339.118C281.823 349.623 306.569 356.831 331.951 360.537C337.589 361.37 343.248 362.025 348.929 362.501V316.827H349.432L348.934 316.832ZM191.671 94.9085V168.171H348.954V94.9085H191.671ZM191.671 170.322V239.994H348.954V170.322H191.671ZM361.162 54.4873V77.7449L380.375 56.663C374.009 55.6356 367.605 54.902 361.162 54.4622V54.4873ZM361.162 170.347V239.994H514.139V170.322L361.162 170.347ZM513.58 322.362L514.119 242.144H361.162V363.302C371.015 363.716 380.884 363.598 390.725 362.95H390.896C395.596 362.654 400.275 362.224 404.932 361.66H405.038C429.882 358.769 454.175 352.287 477.157 342.417M543.636 181.794C543.062 180.44 542.463 179.095 541.854 177.765C540.715 175.247 539.512 172.8 538.273 170.352H526.337V239.994H556.514C556.499 220.272 551.508 200.127 543.651 181.769L543.636 181.794ZM526.337 242.169V311.167C534.838 303.018 542.02 293.696 547.192 283.039C553.412 270.206 556.257 256.311 556.489 242.159L526.337 242.169ZM526.337 150.046V168.176H537.155C533.882 161.935 530.276 155.874 526.352 150.021L526.337 150.046ZM422.589 68.1558C421.794 67.8536 420.998 67.5464 420.197 67.2493C411.752 64.1304 403.121 61.5368 394.356 59.4833L364.954 91.7508L364.39 92.3501L364.768 92.7631H469.412C454.838 82.731 439.126 74.4625 422.604 68.1306L422.589 68.1558ZM472.479 94.9337H363.307L361.162 96.8979V168.171H379.967H379.997H514.159V133.648C502.023 118.97 488.015 105.946 472.494 94.9085L472.479 94.9337Z" fill="#477AFA"/>
<path opacity="0.1" d="M58.0829 131.865V168.172H7.13086C7.13086 167.96 7.16611 167.744 7.18122 167.532C7.22655 166.953 7.27187 166.374 7.32224 165.8C7.37764 165.125 7.43807 164.445 7.50354 163.785C7.56901 163.125 7.63952 162.32 7.71507 161.589C7.79061 160.859 7.86112 160.119 7.94674 159.389C8.03235 158.658 8.1079 157.928 8.19855 157.203C8.2892 156.478 8.36979 155.742 8.46548 155.017C8.54102 154.413 8.6216 153.813 8.70218 153.209C8.81801 152.358 8.93888 151.502 9.06983 150.656C9.06983 150.53 9.10508 150.399 9.12523 150.278C10.0444 144.084 11.2969 137.944 12.8773 131.885L58.0829 131.865Z" fill="#477AFA"/>
<path opacity="0.1" d="M6.97138 170.327H58.0846V239.994H10.7133C10.5874 240.709 10.4666 241.43 10.3356 242.15H58.0846V298.335C57.999 298.309 57.9235 298.279 57.8429 298.249C56.4932 297.715 55.1535 297.151 53.8138 296.547L52.9577 296.159C51.6147 295.524 50.2717 294.853 48.9287 294.144C48.4603 293.898 47.9919 293.641 47.5286 293.379C40.0728 289.202 33.2996 283.91 27.4439 277.686C27.2726 277.52 27.1115 277.343 26.9402 277.182C26.1244 276.296 25.3236 275.399 24.548 274.483L23.6918 273.476C22.7752 272.352 21.8888 271.199 21.0276 270.031C20.9017 269.859 20.7809 269.688 20.6499 269.527C17.1474 264.671 14.2392 259.412 11.9875 253.864C11.917 253.698 11.8566 253.517 11.7911 253.361C11.0994 251.581 10.4867 249.785 9.95286 247.972C9.72119 247.211 9.49959 246.461 9.30821 245.67C9.2377 245.439 9.17727 245.212 9.12187 244.985C6.26126 233.82 5.92383 222.221 5.92383 210.703C5.92383 209.359 5.92383 208.009 5.92383 206.674C5.92383 202.016 5.97923 197.327 6.05981 192.643C6.05981 191.429 6.11017 190.221 6.13535 189.002C6.20586 185.91 6.30659 182.817 6.43753 179.725C6.46775 178.864 6.50804 178.008 6.55336 177.152C6.55336 176.658 6.57855 176.164 6.62891 175.671C6.74978 173.878 6.85051 172.1 6.97138 170.327Z" fill="#477AFA"/>
<path opacity="0.1" d="M108.718 105.399V168.171H70.2861V105.399H75.7656V84.146H98.2577V105.399H108.718Z" fill="#477AFA"/>
<path opacity="0.1" d="M108.718 170.323H70.291V239.99H108.718V170.323Z" fill="#477AFA"/>
<path opacity="0.1" d="M70.2861 242.149H108.718V300.067C104.185 301.369 99.5649 302.35 94.8934 303.003L93.7451 303.144C93.1811 303.209 92.622 303.265 92.0681 303.32C91.5141 303.376 90.9399 303.416 90.3809 303.451H90.2046C89.9629 303.451 89.701 303.481 89.4643 303.486H89.2074C88.9053 303.486 88.6031 303.517 88.3009 303.527C87.8728 303.552 87.4447 303.557 87.0066 303.562C86.8202 303.562 86.644 303.562 86.4576 303.562C86.0245 303.562 85.5964 303.562 85.1633 303.562H84.2115C83.9546 303.562 83.7078 303.562 83.4409 303.562L82.4689 303.527C81.9653 303.527 81.4214 303.471 80.8976 303.436L79.9306 303.365L78.7269 303.255C77.8808 303.179 77.0398 303.083 76.2088 302.968L75.2015 302.827L74.6979 302.756C73.8569 302.625 73.0259 302.484 72.1798 302.323C71.5603 302.217 70.9459 302.086 70.3214 301.96L70.2861 242.149Z" fill="#477AFA"/>
<path opacity="0.1" d="M348.955 97.9854H317.267V168.166H348.955V97.9854Z" fill="#477AFA"/>
<path opacity="0.1" d="M348.958 170.323V239.995H191.67V209.943H275.448V227.671H317.265V170.323H348.958Z" fill="#477AFA"/>
<path opacity="0.1" d="M349.457 316.848H348.953V362.552C343.279 362.072 337.621 361.419 331.981 360.593C306.586 356.875 281.83 349.652 258.421 339.129C251.662 336.087 245.041 332.766 238.558 329.167C227.728 323.167 217.352 316.382 207.514 308.866C205.043 306.972 202.604 305.035 200.196 303.054C198.529 301.679 196.872 300.269 195.195 298.899C194.032 297.957 192.858 297.03 191.67 296.144V242.15H316.847C316.761 241.828 316.676 241.505 316.585 241.188C316.681 241.505 316.771 241.828 316.857 242.15H348.953V316.818C349.124 316.823 349.291 316.838 349.457 316.848Z" fill="#477AFA"/>
<path opacity="0.1" d="M431.599 92.7582H410.95V86.342H420.207V67.2292C421.009 67.5214 421.808 67.8219 422.604 68.1307V86.342H431.599V92.7582Z" fill="#477AFA"/>
<path opacity="0.1" d="M481.346 168.172H379.976C379.976 168.172 379.976 168.172 380.011 168.197L379.966 168.172H361.16V97.9912H366.489V149.865H390.839V119.144H410.954V94.9141H431.603V119.164H451.718V149.885H481.346V168.172Z" fill="#477AFA"/>
<path opacity="0.1" d="M361.16 170.323V239.995H481.346V170.323H361.16ZM513.971 322.006L514.137 266.858H481.346V242.18H361.16V363.303C371.014 363.717 380.882 363.599 390.723 362.951H390.894C395.595 362.655 400.274 362.225 404.931 361.661H405.036C429.881 358.77 454.174 352.288 477.156 342.418" fill="#477AFA"/>
<path opacity="0.1" d="M528.471 242.149H556.508C556.261 256.296 553.42 270.191 547.206 283.024C542.033 293.686 534.847 303.008 526.355 311.152V266.832H528.471V242.149Z" fill="#477AFA"/>
<path opacity="0.1" d="M556.524 239.994H528.472V181.77H543.651C551.508 200.127 556.499 220.272 556.524 239.994Z" fill="#477AFA"/>
<path opacity="0.1" d="M348.958 117.496H331.98V139.5H348.958V117.496Z" fill="#477AFA"/>
<path opacity="0.1" d="M348.958 163.105H331.98V168.172H348.958V163.105Z" fill="#477AFA"/>
<path opacity="0.1" d="M348.958 170.323H331.98V185.104H348.958V170.323Z" fill="#477AFA"/>
<path opacity="0.1" d="M348.958 208.714H331.98V230.717H348.958V208.714Z" fill="#477AFA"/>
<path opacity="0.1" d="M348.958 254.323H331.98V276.327H348.958V254.323Z" fill="#477AFA"/>
<path opacity="0.1" d="M348.953 316.817C349.124 316.817 349.29 316.817 349.456 316.848H348.953V321.959H331.98V299.931H348.953V316.817Z" fill="#477AFA"/>
<path opacity="0.1" d="M348.953 345.53V362.527C343.279 362.047 337.621 361.394 331.98 360.568V345.53H348.953Z" fill="#477AFA"/>
<path opacity="0.1" d="M264.429 238.377H191.67V239.994H264.429V238.377Z" fill="#477AFA"/>
<path opacity="0.1" d="M264.429 242.145H191.67V248.34H264.429V242.145Z" fill="#477AFA"/>
<path opacity="0.1" d="M264.429 268.646H191.67V278.607H264.429V268.646Z" fill="#477AFA"/>
<path opacity="0.1" d="M264.425 298.914V308.876H207.515C205.044 306.989 202.603 305.051 200.192 303.064C198.525 301.689 196.874 300.279 195.191 298.914H264.425Z" fill="#477AFA"/>
<path opacity="0.1" d="M264.427 329.177V339.128H258.419C251.667 336.083 245.047 332.761 238.561 329.162L264.427 329.177Z" fill="#477AFA"/>
<path opacity="0.1" d="M405.053 177.075H390.729V191.398H405.053V177.075Z" fill="#477AFA"/>
<path opacity="0.1" d="M94.9287 110.34H80.6055V124.663H94.9287V110.34Z" fill="#477AFA"/>
<path opacity="0.1" d="M94.9287 143.61H80.6055V157.934H94.9287V143.61Z" fill="#477AFA"/>
<path opacity="0.1" d="M94.9287 176.879H80.6055V191.202H94.9287V176.879Z" fill="#477AFA"/>
<path opacity="0.1" d="M94.9287 210.145H80.6055V224.468H94.9287V210.145Z" fill="#477AFA"/>
<path opacity="0.1" d="M94.9287 243.415H80.6055V257.738H94.9287V243.415Z" fill="#477AFA"/>
<path opacity="0.1" d="M94.9287 276.683H80.6055V291.007H94.9287V276.683Z" fill="#477AFA"/>
<path opacity="0.1" d="M459.733 177.075H445.41V191.398H459.733V177.075Z" fill="#477AFA"/>
<path opacity="0.1" d="M405.053 212.406H390.729V226.729H405.053V212.406Z" fill="#477AFA"/>
<path opacity="0.1" d="M459.733 212.406H445.41V226.729H459.733V212.406Z" fill="#477AFA"/>
<path opacity="0.1" d="M405.053 247.73H390.729V262.053H405.053V247.73Z" fill="#477AFA"/>
<path opacity="0.1" d="M459.733 247.73H445.41V262.053H459.733V247.73Z" fill="#477AFA"/>
<path opacity="0.1" d="M405.053 283.059H390.729V297.382H405.053V283.059Z" fill="#477AFA"/>
<path opacity="0.1" d="M459.733 283.059H445.41V297.382H459.733V283.059Z" fill="#477AFA"/>
<path opacity="0.1" d="M405.053 318.389H390.729V332.712H405.053V318.389Z" fill="#477AFA"/>
<path opacity="0.1" d="M459.733 318.389H445.41V332.712H459.733V318.389Z" fill="#477AFA"/>
<path opacity="0.1" d="M390.729 362.949V353.713H405.048V361.635L390.729 362.949Z" fill="#477AFA"/>
<path opacity="0.1" d="M9.06348 150.268V158.462H58.0816V150.268H9.06348ZM13.9487 157.948H9.94986V150.772H13.9789L13.9487 157.948ZM18.8288 157.948H14.7998V150.772H18.8288V157.948ZM23.6989 157.948H19.6699V150.772H23.6989V157.948ZM28.5791 157.948H24.5551V150.772H28.5841L28.5791 157.948ZM33.4542 157.948H29.4252V150.772H33.4542V157.948ZM38.3344 157.948H34.3053V150.772H38.3344V157.948ZM43.2145 157.948H39.1855V150.772H43.2145V157.948ZM48.0896 157.948H44.0606V150.772H48.0896V157.948ZM52.9648 157.948H48.9357V150.772H52.9648V157.948ZM57.8399 157.948H53.8109V150.772H57.8399V157.948Z" fill="#477AFA"/>
<path opacity="0.1" d="M9.06348 174.11V182.304H58.0816V174.11H9.06348ZM13.9487 181.785H9.94986V174.629H13.9789L13.9487 181.785ZM18.8288 181.785H14.7998V174.629H18.8288V181.785ZM23.6989 181.785H19.6699V174.629H23.6989V181.785ZM28.5791 181.785H24.5551V174.629H28.5841L28.5791 181.785ZM33.4542 181.785H29.4252V174.629H33.4542V181.785ZM38.3344 181.785H34.3053V174.629H38.3344V181.785ZM43.2145 181.785H39.1855V174.629H43.2145V181.785ZM48.0896 181.785H44.0606V174.629H48.0896V181.785ZM52.9648 181.785H48.9357V174.629H52.9648V181.785ZM57.8399 181.785H53.8109V174.629H57.8399V181.785Z" fill="#477AFA"/>
<path opacity="0.1" d="M9.06348 197.961V206.17H58.0816V197.961H9.06348ZM13.9487 205.636H9.94986V198.475H13.9789L13.9487 205.636ZM18.8288 205.636H14.7998V198.475H18.8288V205.636ZM23.6989 205.636H19.6699V198.475H23.6989V205.636ZM28.5791 205.636H24.5551V198.475H28.5841L28.5791 205.636ZM33.4542 205.636H29.4252V198.475H33.4542V205.636ZM38.3344 205.636H34.3053V198.475H38.3344V205.636ZM43.2145 205.636H39.1855V198.475H43.2145V205.636ZM48.0896 205.636H44.0606V198.475H48.0896V205.636ZM52.9648 205.636H48.9357V198.475H52.9648V205.636ZM57.8399 205.636H53.8109V198.475H57.8399V205.636Z" fill="#477AFA"/>
<path opacity="0.1" d="M9.06348 221.813V229.997H58.0816V221.813H9.06348ZM13.9487 229.488H9.94986V222.321H13.9789L13.9487 229.488ZM18.8288 229.488H14.7998V222.321H18.8288V229.488ZM23.6989 229.488H19.6699V222.321H23.6989V229.488ZM28.5791 229.488H24.5551V222.321H28.5841L28.5791 229.488ZM33.4542 229.488H29.4252V222.321H33.4542V229.488ZM38.3344 229.488H34.3053V222.321H38.3344V229.488ZM43.2145 229.488H39.1855V222.321H43.2145V229.488ZM48.0896 229.488H44.0606V222.321H48.0896V229.488ZM52.9648 229.488H48.9357V222.321H52.9648V229.488ZM57.8399 229.488H53.8109V222.321H57.8399V229.488Z" fill="#477AFA"/>
<path opacity="0.1" d="M9.27734 245.66C9.47376 246.43 9.69535 247.201 9.92702 247.961V246.173H13.956V253.335H11.8005C11.866 253.501 11.9315 253.682 11.9969 253.839H58.084V245.66H9.27734ZM18.8463 253.335H14.8173V246.173H18.8463V253.335ZM23.7164 253.335H19.6873V246.173H23.7164V253.335ZM28.5965 253.335H24.5574V246.173H28.5865L28.5965 253.335ZM33.4716 253.335H29.4426V246.173H33.4716V253.335ZM38.3518 253.335H34.3228V246.173H38.3518V253.335ZM43.232 253.335H39.2029V246.173H43.232V253.335ZM48.1071 253.335H44.0781V246.173H48.1071V253.335ZM52.9822 253.335H48.9532V246.173H52.9822V253.335ZM57.8573 253.335H53.8283V246.173H57.8573V253.335Z" fill="#477AFA"/>
<path opacity="0.1" d="M20.6572 269.512C20.7831 269.673 20.904 269.855 21.0349 270.016H23.6991V273.456C23.9862 273.798 24.2682 274.141 24.5603 274.463V269.996H28.5894V277.182H26.9576C27.1188 277.349 27.2749 277.525 27.4612 277.686H58.097V269.512H20.6572ZM33.4544 277.182H29.4254V270.026H33.4544V277.182ZM38.3346 277.182H34.3056V270.026H38.3346V277.182ZM43.2147 277.182H39.1857V270.026H43.2147V277.182ZM48.0899 277.182H44.0608V270.026H48.0899V277.182ZM52.965 277.182H48.936V270.026H52.965V277.182ZM57.8401 277.182H53.8111V270.026H57.8401V277.182Z" fill="#477AFA"/>
<path opacity="0.1" d="M47.5469 293.359C48.0052 293.621 48.4736 293.863 48.947 294.125V293.873H52.976V296.139L53.8322 296.537V293.873H57.8612V298.229C57.9384 298.268 58.0195 298.298 58.1029 298.32V293.359H47.5469Z" fill="#477AFA"/>
<path opacity="0.1" d="M316.586 241.183C316.682 241.505 316.762 241.828 316.853 242.145C316.772 241.828 316.687 241.505 316.586 241.183ZM75.7861 92.7437V94.8941H98.2832V92.7437H75.7861ZM316.586 241.183C316.682 241.505 316.762 241.828 316.853 242.145C316.772 241.828 316.687 241.505 316.586 241.183ZM316.586 241.183C316.682 241.505 316.762 241.828 316.853 242.145C316.772 241.828 316.687 241.505 316.586 241.183Z" fill="#477AFA"/>
<path d="M232.475 191.213C232.475 191.213 230.491 190.936 230.491 188.045C230.491 185.154 229.071 179.755 229.071 179.755C229.071 179.73 227.842 170.353 226.145 168.862C224.448 167.371 222.267 158.618 222.267 158.618C222.267 158.618 221.894 153.869 221.134 152.846C220.373 151.824 219.346 149.321 217.83 145.75C216.314 142.18 209.993 139.707 209.993 139.707C209.993 139.707 198.566 133.079 195.328 130.918C195.033 130.741 194.758 130.533 194.507 130.299C193.943 129.559 191.485 129.544 191.485 129.544C191.228 127.922 190.982 126.058 190.901 124.371C190.901 124.19 190.901 124.009 190.876 123.827C194.487 121.693 197.207 118.327 198.536 114.349C198.596 114.158 198.647 113.956 198.702 113.765C198.918 113.694 199.118 113.578 199.287 113.425C199.456 113.273 199.591 113.086 199.684 112.878C199.976 112.229 199.981 111.468 200.344 110.864C200.767 110.149 201.573 109.766 202.207 109.227C203.809 107.867 204.222 105.576 204.146 103.491C204.096 101.804 203.824 100.101 203.93 98.4243L203.96 98.0013C203.99 97.7495 204.025 97.4976 204.071 97.2559C204.318 96.0069 204.856 94.8284 205.159 93.5895C205.461 92.3506 205.491 90.9555 204.786 89.8878C203.754 88.3215 201.603 88.0093 199.714 87.8481C197.574 87.6668 195.66 87.9035 194.29 86.1257C193.649 85.1965 192.928 84.3253 192.135 83.522C191.853 83.2601 189.113 81.588 189.113 81.4772C186.439 80.2388 183.408 80.0063 180.577 80.8225C179.156 81.2355 177.817 81.9103 176.376 82.2478C173.269 82.9831 169.693 82.1873 167.054 83.9652C165.584 84.9724 164.702 86.5739 163.876 88.1352C163.205 89.4211 162.523 90.7054 161.831 91.988C160.718 94.0982 159.585 96.2436 159.117 98.5804C159.018 99.089 158.958 99.6041 158.936 100.122V100.147C158.936 100.333 158.936 100.519 158.936 100.706V100.942C158.936 101.119 158.936 101.29 158.966 101.446C158.996 101.602 158.991 101.653 159.006 101.758C159.021 101.864 159.046 102.101 159.077 102.262C159.107 102.423 159.167 102.705 159.228 102.927C159.253 103.022 159.288 103.113 159.318 103.204C159.369 103.375 159.429 103.541 159.495 103.707C159.53 103.793 159.565 103.884 159.605 103.969C159.681 104.146 159.772 104.317 159.862 104.473C159.903 104.543 159.933 104.609 159.973 104.674C160.114 104.909 160.268 105.134 160.436 105.349C161.514 106.694 163.101 107.55 164.274 108.809C164.274 108.859 164.274 108.91 164.274 108.955C164.274 109.096 164.274 109.232 164.274 109.373C164.336 112.181 165.084 114.931 166.451 117.385C167.819 119.838 169.765 121.92 172.121 123.45C172.121 123.641 172.146 123.837 172.156 124.029C172.254 125.524 172.236 127.024 172.1 128.516C171.895 128.275 171.639 128.082 171.349 127.953C171.06 127.824 170.745 127.762 170.428 127.771C170.212 127.76 169.995 127.779 169.784 127.826L169.738 127.791V127.836C168.63 128.108 167.266 129.261 165.961 132.54C165.961 132.54 161.993 137.012 158.971 136.826C155.949 136.64 148.299 141.48 148.299 141.48C148.299 141.48 140.835 146.324 139.234 151.26C138.339 154.059 137.265 156.797 136.021 159.459L126.794 178.471L125.092 193.555C125.092 193.555 126.034 200.263 125.847 201.285C125.661 202.308 129.72 211.529 129.72 211.529C129.72 211.529 143.132 235.094 148.611 236.303L149.004 236.026C149.239 236.148 149.487 236.241 149.744 236.303L150.873 235.507C150.94 236.394 150.912 237.285 150.787 238.166C150.031 240.493 151.069 255.677 152.388 258.654C153.708 261.63 153.24 300.656 153.24 300.656L153.053 304.101C153.053 304.101 153.053 304.212 153.099 304.403L153.053 305.219L153.189 305.29C153.33 306.382 153.284 307.491 153.053 308.568C152.58 310.079 152.388 314.35 152.388 314.35C152.388 314.35 148.616 338.464 150.404 343.309C152.192 348.154 153.713 353.462 153.713 353.462C153.713 353.462 155.602 359.505 153.804 360.538C152.006 361.57 146.894 363.303 147.946 365.821C148.903 368.148 152.535 374.382 153.073 375.294L153.028 375.772L152.288 383.795C152.408 384.855 152.695 385.888 153.139 386.857C153.95 388.605 155.526 390.418 158.523 390.222C159.026 390.186 159.61 390.126 160.175 390.05C165.659 389.315 172.413 386.867 172.413 386.867C172.062 386.645 171.741 386.379 171.456 386.077C171.186 385.816 170.973 385.502 170.828 385.156C170.683 384.81 170.611 384.437 170.615 384.062C170.695 382.602 167.961 375.642 167.281 373.929C167.175 373.682 167.12 373.541 167.12 373.541C167.12 373.541 173.355 367.024 172.317 361.248C172.317 361.248 165.417 357.219 167.689 355.008C169.96 352.797 174.019 346.446 174.019 346.446C174.019 346.446 174.206 322.7 174.019 319.155C173.825 316.694 173.942 314.218 174.367 311.786C174.442 311.419 174.533 311.061 174.629 310.709C177.77 311.178 180.941 311.418 184.117 311.429C185.275 311.429 186.454 311.429 187.642 311.358C187.642 311.694 187.658 312.057 187.688 312.446C187.95 318.329 188.438 328.643 188.836 332.476C189.4 337.97 192.518 352.777 192.518 352.777C192.518 352.777 186.57 356.594 193.555 366.002C193.555 366.002 193.555 369.412 193.092 369.905C192.597 371.519 192.198 373.16 191.898 374.821C191.606 376.593 191.485 378.386 191.959 379.318C193.092 381.544 199.891 381.363 199.891 381.363L200.057 381.333C201.34 381.2 202.638 381.323 203.873 381.696C205.108 382.069 206.258 382.683 207.254 383.503C209.837 385.578 219.643 384.667 224.951 384.007C227.031 383.745 228.421 383.503 228.421 383.503C228.489 383.268 228.513 383.022 228.492 382.778C228.436 381.474 227.414 378.613 220.484 376.06C220.484 376.06 213.967 371.678 214.058 367.86H213.922H213.166C213.715 367.83 214.068 367.86 214.068 367.86C214.068 367.86 211.514 358.543 212.557 357.788C213.599 357.032 210.477 346.708 210.477 346.708C210.477 346.708 208.689 329.383 208.593 328.169C208.597 327.128 208.755 326.093 209.062 325.097L208.593 315.599C208.593 315.599 208.503 312.441 208.593 311.414C208.578 310.522 208.506 309.632 208.377 308.75C208.331 308.397 208.286 308.029 208.236 307.667C210.678 307.047 212.265 306.473 212.265 306.473L211.983 273.41C214.058 269.381 214.441 260.542 214.43 254.272C214.43 250.243 214.249 247.262 214.249 247.262L217.085 242.633C217.085 242.633 217.739 237.093 216.702 235.88C216.243 235.331 216.45 234.762 216.828 234.293C217.024 234.138 217.231 233.996 217.447 233.87C217.447 233.87 217.417 233.825 217.382 233.759C217.58 233.594 217.79 233.444 218.011 233.311C218.011 233.311 217.004 231.75 217.905 231.09C218.752 231.664 219.507 232.097 220.081 232.45C220.041 232.818 220.001 233.029 220.001 233.029L220.242 232.525C220.796 232.838 221.134 233.029 221.134 233.029C221.134 233.029 225.576 224.18 225.48 222.876C225.384 221.572 228.502 216.077 228.502 216.077C228.502 216.077 228.88 213.191 230.582 211.982C232.284 210.774 231.901 202.016 231.901 202.016C231.901 202.016 232.375 197.453 233.508 195.589C234.641 193.726 232.475 191.213 232.475 191.213ZM147.483 187.33L147.569 189.44C147.065 188.629 146.702 188.045 146.702 188.045L147.483 187.33Z" fill="url(#paint0_linear_128_28)"/>
<path d="M221.375 229.207L220.287 233.84C220.287 233.84 211.575 229.393 210.003 223.742C208.432 218.092 212.632 215.946 212.632 215.946L220.751 219.386L221.375 229.207Z" fill="white"/>
<path opacity="0.1" d="M221.375 229.207L220.287 233.84C220.287 233.84 211.575 229.393 210.003 223.742C208.432 218.092 212.632 215.946 212.632 215.946L220.751 219.386L221.375 229.207Z" fill="black"/>
<path d="M172.477 386.898C172.477 386.898 164.419 389.859 158.879 390.232C155.937 390.428 154.391 388.625 153.596 386.888C153.161 385.922 152.881 384.894 152.765 383.841L153.485 375.858L153.868 371.608L165.637 368.551L167.304 373.647L167.461 374.035C168.13 375.737 170.815 382.662 170.734 384.108C170.731 384.478 170.802 384.845 170.944 385.187C171.086 385.528 171.296 385.838 171.56 386.097C171.83 386.402 172.138 386.671 172.477 386.898Z" fill="white"/>
<path d="M227.52 382.838C227.54 383.081 227.516 383.325 227.449 383.558C227.449 383.558 210.215 386.434 206.69 383.558C205.696 382.718 204.537 382.095 203.288 381.729C202.039 381.363 200.728 381.262 199.437 381.433C199.437 381.433 192.769 381.614 191.656 379.419C191.193 378.497 191.314 376.709 191.601 374.946C191.894 373.295 192.284 371.662 192.769 370.056L193.036 369.845L194.623 368.57L213.196 368.021H213.338C213.247 371.819 219.643 376.175 219.643 376.175C226.437 378.693 227.439 381.539 227.52 382.838Z" fill="white"/>
<path opacity="0.1" d="M227.519 382.839C227.537 383.081 227.511 383.325 227.443 383.559C227.443 383.559 210.214 386.435 206.689 383.559C205.696 382.719 204.538 382.097 203.29 381.731C202.042 381.365 200.731 381.264 199.442 381.434C199.442 381.434 192.769 381.615 191.661 379.419C191.197 378.492 191.313 376.709 191.6 374.947C194.169 375.204 198.223 375.843 199.814 377.369C202.222 379.691 206.301 382.008 208.804 382.189C210.763 382.315 222.483 382.688 227.519 382.839Z" fill="black"/>
<path opacity="0.1" d="M172.478 386.898C172.478 386.898 164.419 389.859 158.88 390.232C155.938 390.428 154.392 388.625 153.602 386.883C155.651 387.573 158.497 388.298 159.993 387.633C161.765 386.848 168.051 386.339 171.576 386.122C171.844 386.416 172.147 386.676 172.478 386.898Z" fill="black"/>
<path d="M184.434 148.253C177.786 145.669 169.235 137.133 171.37 133.144C171.844 132.138 172.126 131.051 172.201 129.941C172.338 128.434 172.359 126.919 172.261 125.409C172.112 122.935 171.814 120.473 171.37 118.035C171.37 118.035 192.124 118.504 190.916 121.561C190.563 122.457 190.508 124.013 190.604 125.756C190.699 127.499 190.951 129.468 191.213 131.135C191.576 133.421 191.938 135.164 191.938 135.164C191.938 135.164 190.669 136.942 189.924 137.037C189.178 137.133 193.973 151.935 184.434 148.253Z" fill="#CF6F80"/>
<path opacity="0.1" d="M167.446 374.035L167.29 374.206C161.086 366.702 153.582 376.055 153.582 376.055L153.471 375.858L153.853 371.608L165.623 368.551L167.29 373.647L167.446 374.035Z" fill="black"/>
<path opacity="0.1" d="M213.342 368.55C213.342 368.55 208.81 368.454 206.392 370.589C203.975 372.725 192.29 371.053 192.794 370.589C192.943 370.36 193.033 370.097 193.056 369.824L194.642 368.55L213.216 368.001C213.287 368.338 213.342 368.55 213.342 368.55Z" fill="black"/>
<path d="M175.166 309.62C174.829 310.455 174.572 311.32 174.401 312.204C173.981 314.624 173.864 317.087 174.053 319.536C174.24 323.062 174.053 346.687 174.053 346.687C174.053 346.687 170.069 352.987 167.848 355.208C165.627 357.429 172.381 361.418 172.381 361.418C173.388 367.16 167.284 373.646 167.284 373.646C161.08 366.142 153.576 375.5 153.576 375.5C153.576 375.5 149.496 368.449 148.479 365.931C147.462 363.413 152.463 361.67 154.22 360.648C155.978 359.625 154.135 353.597 154.135 353.597C154.135 353.597 152.649 348.314 150.886 343.494C149.124 338.674 152.83 314.681 152.83 314.681C152.83 314.681 153.022 310.421 153.48 308.935C153.711 307.863 153.757 306.759 153.616 305.672C153.586 305.304 153.55 304.997 153.525 304.79C153.5 304.584 153.48 304.488 153.48 304.488L153.55 304.367L156.069 299.673C156.069 299.673 176.375 306.664 175.166 309.62Z" fill="#477AFA"/>
<path d="M213.343 367.996C213.343 367.996 208.811 367.901 206.393 370.011C203.976 372.121 192.292 370.474 192.795 370.011C193.299 369.548 193.259 366.118 193.259 366.118C186.404 356.76 192.251 352.963 192.251 352.963C192.251 352.963 189.189 338.232 188.635 332.768C188.248 328.95 187.769 318.691 187.512 312.834C187.401 310.316 187.336 308.583 187.336 308.583L192.936 307.455L193.656 307.309L207.164 304.6C207.164 304.6 207.536 307.118 207.788 309.178C207.914 310.057 207.984 310.943 208 311.832C207.909 312.839 208 315.992 208 315.992L208.458 325.445C208.159 326.436 208.004 327.466 208 328.502C208.09 329.705 209.848 346.94 209.848 346.94C209.848 346.94 212.905 357.224 211.863 357.964C210.82 358.704 213.343 367.996 213.343 367.996Z" fill="#477AFA"/>
<path opacity="0.1" d="M190.915 121.561C190.562 122.457 190.507 124.013 190.603 125.756C187.823 127.43 184.627 128.286 181.382 128.225C178.138 128.165 174.976 127.19 172.261 125.414C172.111 122.939 171.813 120.475 171.369 118.035C171.369 118.035 192.124 118.494 190.915 121.561Z" fill="black"/>
<path d="M198.938 110.431C198.942 112.246 198.657 114.05 198.092 115.775C196.83 119.64 194.243 122.934 190.787 125.075C187.332 127.217 183.23 128.068 179.208 127.478C175.185 126.888 171.501 124.895 168.806 121.851C166.111 118.807 164.579 114.909 164.48 110.844C164.48 110.703 164.48 110.572 164.48 110.431C164.441 108.144 164.858 105.871 165.706 103.746C166.555 101.621 167.818 99.6866 169.422 98.055C171.026 96.4233 172.938 95.1274 175.048 94.2428C177.159 93.3582 179.424 92.9026 181.712 92.9026C184 92.9026 186.265 93.3582 188.375 94.2428C190.485 95.1274 192.398 96.4233 194.002 98.055C195.606 99.6866 196.869 101.621 197.717 103.746C198.566 105.871 198.982 108.144 198.943 110.431H198.938Z" fill="#CF6F80"/>
<path opacity="0.1" d="M184.434 148.253C177.786 145.669 169.235 137.133 171.37 133.144C171.844 132.138 172.126 131.051 172.201 129.941L181.302 137.42L186.932 142.038L191.213 131.14C191.576 133.426 191.938 135.169 191.938 135.169C191.938 135.169 190.669 136.947 189.924 137.042C189.178 137.138 193.973 151.935 184.434 148.253Z" fill="black"/>
<path d="M207.968 181.306L200.368 308.976L190.457 309.626L164.792 235.597L169.002 147.709L169.889 129.14L181.301 138.513L186.937 143.131L191.343 131.915L199.537 139.057L207.968 181.306Z" fill="#477AFA"/>
<path opacity="0.1" d="M175.167 309.621C174.829 310.456 174.573 311.321 174.401 312.205C167.189 311.092 160.185 308.903 153.621 305.713L153.485 305.643L153.531 304.832L153.556 304.409L156.074 299.715C156.074 299.715 176.375 306.665 175.167 309.621Z" fill="black"/>
<path opacity="0.1" d="M193.051 312.224C191.207 312.538 189.348 312.75 187.481 312.859C187.37 310.341 187.305 308.608 187.305 308.608L192.905 307.48L193.051 312.224Z" fill="black"/>
<path opacity="0.1" d="M207.756 309.203C204.175 310.135 198.645 311.182 193.695 310.528L193.624 307.335L207.131 304.625C207.131 304.625 207.504 307.118 207.756 309.203Z" fill="black"/>
<path opacity="0.1" d="M193.606 311.111C172.957 314.636 154.046 304.529 154.046 304.529L154.227 301.104C154.227 301.104 154.696 262.279 153.396 259.303C152.097 256.326 151.085 241.233 151.82 238.916C152.555 236.599 149.136 201.859 149.136 201.859L148.582 187.757L128.306 179.543L137.371 160.647C138.595 157.998 139.648 155.272 140.524 152.488C142.1 147.583 149.418 142.763 149.418 142.763C149.418 142.763 156.922 137.948 159.888 138.13C162.855 138.311 166.743 133.869 166.743 133.869C169.613 126.551 172.212 129.865 172.212 129.865C172.212 130.213 172.212 129.865 172.071 130.948C171.064 138.981 188.358 164.364 188.605 164.812L190.252 204.931L191.919 255.702L193.606 311.111Z" fill="black"/>
<path d="M193.051 311.112C172.402 314.637 153.486 304.529 153.486 304.529L153.672 301.105C153.672 301.105 154.141 262.28 152.836 259.303C151.532 256.327 150.525 241.233 151.265 238.917C152.005 236.6 148.581 201.86 148.581 201.86L148.021 187.758L127.735 179.514L136.801 160.617C138.022 157.967 139.075 155.242 139.953 152.459C141.525 147.553 148.847 142.734 148.847 142.734C148.847 142.734 156.352 137.919 159.313 138.1C162.274 138.282 166.167 133.84 166.167 133.84C169.043 126.522 172.211 129.836 172.211 129.836C172.211 130.183 171.909 130.339 172.07 130.918C174.286 138.71 187.803 164.334 188.05 164.782L189.717 204.901L191.384 255.672L193.051 311.112Z" fill="white"/>
<path opacity="0.1" d="M187.485 165.925C185.264 164.999 173.499 151.567 173.499 151.567V148.51C173.071 147.503 170.528 148.117 168.463 148.822L169.349 130.253L170.357 131.089C172.562 138.876 187.228 165.477 187.485 165.925Z" fill="black"/>
<path d="M188.045 164.812C185.819 163.886 174.054 150.454 174.054 150.454V147.397C173.626 146.39 171.082 147.004 169.018 147.709L169.909 129.14L170.916 129.976C173.127 137.763 187.798 164.369 188.045 164.812Z" fill="white"/>
<path opacity="0.1" d="M154.043 231.8C154.32 231.8 168.402 230.32 168.402 230.32C168.402 230.32 176.928 247.085 176.369 251.165C175.81 255.244 174.798 258.855 171.368 258.216C167.938 257.576 152.91 258.719 152.91 258.719L154.043 231.8Z" fill="black"/>
<path d="M153.485 230.686C153.762 230.686 167.843 229.206 167.843 229.206C167.843 229.206 176.365 245.977 175.811 250.051C175.257 254.125 174.234 257.741 170.81 257.102C167.385 256.462 152.352 257.605 152.352 257.605L153.485 230.686Z" fill="white"/>
<path d="M164.097 222.815C164.097 222.815 177.02 229.76 177.297 231.881C177.574 234.001 170.72 230.954 169.239 230.586C168.264 230.352 167.272 230.197 166.273 230.123L156.396 230.39L164.097 222.815Z" fill="#CF6F80"/>
<path opacity="0.1" d="M183.879 166.792C184.63 166.792 185.239 166.183 185.239 165.432C185.239 164.681 184.63 164.073 183.879 164.073C183.128 164.073 182.52 164.681 182.52 165.432C182.52 166.183 183.128 166.792 183.879 166.792Z" fill="black"/>
<path d="M183.879 166.238C184.63 166.238 185.239 165.629 185.239 164.878C185.239 164.127 184.63 163.518 183.879 163.518C183.128 163.518 182.52 164.127 182.52 164.878C182.52 165.629 183.128 166.238 183.879 166.238Z" fill="#3F3D56"/>
<path opacity="0.1" d="M186.381 225.656C187.132 225.656 187.741 225.047 187.741 224.296C187.741 223.545 187.132 222.936 186.381 222.936C185.63 222.936 185.021 223.545 185.021 224.296C185.021 225.047 185.63 225.656 186.381 225.656Z" fill="black"/>
<path d="M186.381 225.097C187.132 225.097 187.741 224.488 187.741 223.737C187.741 222.986 187.132 222.378 186.381 222.378C185.63 222.378 185.021 222.986 185.021 223.737C185.021 224.488 185.63 225.097 186.381 225.097Z" fill="#3F3D56"/>
<path opacity="0.1" d="M185.235 196.224C185.986 196.224 186.595 195.615 186.595 194.864C186.595 194.113 185.986 193.504 185.235 193.504C184.484 193.504 183.875 194.113 183.875 194.864C183.875 195.615 184.484 196.224 185.235 196.224Z" fill="black"/>
<path d="M185.235 195.67C185.986 195.67 186.595 195.061 186.595 194.31C186.595 193.559 185.986 192.95 185.235 192.95C184.484 192.95 183.875 193.559 183.875 194.31C183.875 195.061 184.484 195.67 185.235 195.67Z" fill="#3F3D56"/>
<path d="M216.582 229.841C216.582 229.841 217.508 231.231 216.582 231.88C215.655 232.53 216.672 234.101 216.672 234.101C216.672 234.101 214.361 235.456 215.378 236.675C216.395 237.894 215.751 243.398 215.751 243.398L212.971 248.001C212.971 248.001 213.137 250.968 213.147 254.977C213.147 261.232 212.779 270.025 210.745 274.034L211.027 306.926C211.027 306.926 201.292 310.481 193.143 309.399L191.934 256.618C191.934 256.618 193.697 226.688 194.347 220.946C194.727 217.966 194.882 214.961 194.81 211.957C194.81 211.957 194.533 202.972 193.601 198.802C193.601 198.802 192.594 180.737 192.493 175.736C192.448 173.343 192.574 166.363 192.715 159.725C192.871 152.468 193.047 145.624 193.047 145.624L191.209 131.079C191.209 131.079 193.047 130.893 193.601 131.633C193.849 131.865 194.119 132.072 194.407 132.252C197.58 134.398 208.791 140.995 208.791 140.995C208.791 140.995 214.995 143.463 216.481 146.999C217.967 150.534 218.999 153.042 219.719 154.049C220.44 155.057 220.832 159.791 220.832 159.791C220.832 159.791 222.968 168.504 224.635 169.979C226.302 171.455 227.521 180.843 227.521 180.843L212.789 192.426C212.789 192.426 211.495 211.695 211.218 212.44C210.941 213.186 216.582 229.841 216.582 229.841Z" fill="white"/>
<path d="M217.139 229.841C217.139 229.841 218.061 231.231 217.139 231.881C216.217 232.531 217.225 234.102 217.225 234.102C217.225 234.102 214.928 235.472 215.935 236.691C216.943 237.909 216.308 243.414 216.308 243.414L213.528 248.017C213.528 248.017 213.694 250.984 213.709 254.992C213.709 261.248 213.342 270.041 211.307 274.05L211.584 306.942C211.584 306.942 201.834 310.497 193.695 309.415L192.491 256.634C192.491 256.634 194.254 226.704 194.904 220.962C195.284 217.982 195.438 214.976 195.362 211.973C195.362 211.973 195.085 202.988 194.158 198.818C194.158 198.818 193.151 180.753 193.045 175.752C193 173.359 193.131 166.379 193.267 159.741C193.423 152.484 193.599 145.64 193.599 145.64L191.172 130.898C191.172 130.898 193.599 130.898 194.158 131.649C194.404 131.883 194.674 132.091 194.964 132.268C198.137 134.414 209.353 141.011 209.353 141.011C209.353 141.011 215.553 143.479 217.038 147.015C218.524 150.55 219.556 153.058 220.282 154.065C221.007 155.073 221.39 159.807 221.39 159.807C221.39 159.807 223.525 168.519 225.192 169.995C226.859 171.471 228.063 180.838 228.063 180.838L213.332 192.422C213.332 192.422 212.037 211.69 211.755 212.436C211.473 213.181 217.139 229.841 217.139 229.841Z" fill="white"/>
<path opacity="0.1" d="M199.496 149.915L200.826 153.792L193.826 160.843C193.982 153.591 194.158 146.742 194.158 146.742L191.73 132C191.73 132 194.158 132 194.717 132.751C194.962 132.985 195.232 133.191 195.523 133.365L201.476 150.539L199.496 149.915Z" fill="black"/>
<path d="M198.938 148.802L200.272 152.68L193.272 159.731C193.428 152.474 193.604 145.629 193.604 145.629L191.172 130.888C191.172 130.888 193.604 130.888 194.158 131.639C194.405 131.872 194.675 132.079 194.964 132.258L200.922 149.427L198.938 148.802Z" fill="white"/>
<path opacity="0.1" d="M198.938 110.431C198.942 112.246 198.657 114.05 198.092 115.775C197.997 115.79 197.9 115.785 197.806 115.762C197.713 115.739 197.625 115.697 197.548 115.639C197.417 111.106 195.186 106.851 192.442 103.229C191.671 102.136 190.737 101.168 189.672 100.359C188.595 99.55 187.255 99.1712 185.914 99.2961C184.404 99.5026 183.069 100.53 181.543 100.661C179.528 100.827 177.725 99.4321 175.726 99.3616C174.913 99.3693 174.111 99.5503 173.374 99.8925C172.637 100.235 171.981 100.73 171.45 101.346C170.4 102.588 169.62 104.036 169.159 105.597C168.367 107.963 167.936 110.435 167.88 112.929C167.854 114.339 167.718 116.107 166.409 116.621C166.508 115.584 166.39 114.538 166.063 113.548C165.736 112.559 165.207 111.649 164.51 110.875L164.48 110.844C164.48 110.703 164.48 110.572 164.48 110.431C164.441 108.144 164.858 105.871 165.706 103.746C166.555 101.621 167.818 99.6866 169.422 98.055C171.026 96.4233 172.938 95.1274 175.048 94.2428C177.159 93.3582 179.424 92.9026 181.712 92.9026C184 92.9026 186.265 93.3582 188.375 94.2428C190.485 95.1274 192.398 96.4233 194.002 98.055C195.606 99.6866 196.869 101.621 197.717 103.746C198.566 105.871 198.982 108.144 198.943 110.431H198.938Z" fill="black"/>
<path d="M188.845 83.069C186.228 81.838 183.251 81.6051 180.475 82.4143C179.08 82.8273 177.765 83.4971 176.35 83.8345C173.328 84.5648 169.803 83.7741 167.209 85.5418C165.769 86.5491 164.903 88.1405 164.097 89.6867L162.082 93.5243C160.984 95.6245 159.876 97.7598 159.418 100.071C158.96 102.383 159.237 104.972 160.702 106.83C161.77 108.185 163.346 109.036 164.505 110.31C165.199 111.085 165.725 111.995 166.051 112.983C166.377 113.971 166.495 115.016 166.398 116.052C167.713 115.548 167.839 113.775 167.869 112.365C167.925 109.87 168.356 107.398 169.148 105.032C169.608 103.471 170.388 102.024 171.44 100.782C171.971 100.166 172.627 99.6712 173.364 99.3291C174.101 98.987 174.903 98.8057 175.715 98.7973C177.73 98.8678 179.538 100.258 181.532 100.092C183.043 99.9657 184.383 98.9333 185.904 98.7318C187.245 98.605 188.585 98.984 189.661 99.7945C190.726 100.602 191.658 101.571 192.426 102.665C195.176 106.286 197.407 110.532 197.538 115.075C198.107 115.493 198.928 114.949 199.21 114.304C199.492 113.659 199.502 112.904 199.859 112.29C200.272 111.579 201.063 111.202 201.683 110.668C203.254 109.313 203.647 107.032 203.586 104.962C203.526 102.892 203.123 100.792 203.516 98.757C203.752 97.508 204.286 96.3396 204.578 95.1057C204.87 93.8718 204.906 92.4869 204.216 91.4242C203.208 89.863 201.088 89.5557 199.24 89.4097C197.14 89.2284 195.261 89.4601 193.922 87.6923C193.293 86.7698 192.585 85.9037 191.806 85.1037C191.539 84.8418 188.845 83.1798 188.845 83.069Z" fill="#512E4E"/>
<path opacity="0.1" d="M134.105 189.274L128.842 179.543L127.175 194.557C127.175 194.557 128.101 201.225 127.915 202.247C127.729 203.269 131.712 212.435 131.712 212.435C131.712 212.435 144.872 235.874 150.246 237.083L168.402 224.11L163.587 217.995C163.587 217.995 161.92 217.346 161.502 217.995C161.502 217.995 152.563 202.615 151.636 201.502C150.709 200.389 150.891 198.168 150.891 198.168C150.891 198.168 149.501 196.687 149.964 195.297C150.427 193.907 147.28 189.087 147.28 189.087L150.15 186.403L134.105 189.274Z" fill="black"/>
<path d="M129.12 178.436L127.73 179.544L126.062 194.557C126.062 194.557 126.989 201.225 126.803 202.247C126.616 203.269 130.605 212.436 130.605 212.436C130.605 212.436 143.76 235.874 149.134 237.083L167.295 224.11L162.475 217.996C162.475 217.996 160.808 217.346 160.39 217.996C160.39 217.996 151.45 202.615 150.524 201.502C149.597 200.389 149.783 198.168 149.783 198.168C149.783 198.168 148.393 196.687 148.857 195.297C149.32 193.907 146.167 189.087 146.167 189.087L149.038 186.403L129.12 178.436Z" fill="white"/>
<path opacity="0.1" d="M215.376 237.249C216.383 238.473 215.749 243.968 215.749 243.968L212.969 248.571C212.969 248.571 213.135 251.542 213.145 255.546L208.471 257.007C208.049 257.139 207.601 257.168 207.165 257.091C206.73 257.015 206.318 256.836 205.966 256.568C205.613 256.3 205.33 255.952 205.14 255.553C204.949 255.153 204.857 254.714 204.87 254.272L205.676 228.28L216.58 232.45C215.653 233.094 216.67 234.676 216.67 234.676C216.67 234.676 214.359 236.026 215.376 237.249Z" fill="black"/>
<path d="M215.935 236.69C216.942 237.914 216.307 243.414 216.307 243.414L213.527 248.017C213.527 248.017 213.694 250.983 213.709 254.992L208.949 256.478C208.536 256.607 208.097 256.634 207.671 256.559C207.244 256.484 206.842 256.308 206.497 256.046C206.152 255.784 205.875 255.443 205.688 255.052C205.502 254.661 205.411 254.232 205.424 253.799L206.235 227.726L217.144 231.896C216.212 232.541 217.229 234.117 217.229 234.117C217.229 234.117 214.928 235.472 215.935 236.69Z" fill="white"/>
<path d="M219.547 224.301C219.547 224.301 218.807 229.03 216.953 229.307C215.1 229.584 214.269 236.957 212.421 236.695C210.572 236.433 211.796 229.841 211.862 228.561C211.927 227.282 209.847 221.984 211.403 220.78C212.96 219.577 217.885 220.78 217.885 220.78L219.547 224.301Z" fill="#CF6F80"/>
<path opacity="0.1" d="M223.491 187.883L226.986 180.832C226.986 180.832 228.376 186.206 228.376 189.077C228.376 191.947 230.32 192.229 230.32 192.229C230.32 192.229 232.45 194.748 231.327 196.581C230.204 198.414 229.751 202.977 229.751 202.977C229.751 202.977 230.118 211.685 228.451 212.888C226.784 214.092 226.437 216.968 226.437 216.968C226.437 216.968 223.375 222.432 223.47 223.731C223.566 225.031 219.21 233.829 219.21 233.829C219.21 233.829 221.34 222.895 208.926 218.171C208.926 218.171 208.83 214.46 209.757 213.442C210.683 212.425 212.129 211.962 211.222 206.82C210.316 201.677 210.96 195.533 210.96 194.299C210.96 193.065 213.74 185.37 213.74 185.37L223.491 187.883Z" fill="black"/>
<path d="M225.001 179.826L228.053 180.833C228.053 180.833 229.448 186.207 229.448 189.078C229.448 191.949 231.392 192.231 231.392 192.231C231.392 192.231 233.523 194.749 232.4 196.582C231.276 198.415 230.828 202.978 230.828 202.978C230.828 202.978 231.196 211.686 229.529 212.889C227.862 214.093 227.489 216.969 227.489 216.969C227.489 216.969 224.432 222.433 224.528 223.732C224.624 225.032 220.262 233.83 220.262 233.83C220.262 233.83 222.397 222.896 209.978 218.172C209.978 218.172 209.887 214.461 210.814 213.443C211.741 212.426 213.186 211.963 212.28 206.821C211.373 201.679 212.018 195.534 212.018 194.3C212.018 193.067 214.798 185.371 214.798 185.371L225.001 179.826Z" fill="white"/>
<path opacity="0.1" d="M157.59 362.577C157.59 362.577 162.455 359.52 165.648 361.741C168.841 363.962 157.59 362.577 157.59 362.577Z" fill="black"/>
<path opacity="0.1" d="M195.393 353.124C195.393 353.124 199.699 352.57 203.315 356.463C206.931 360.356 195.393 353.124 195.393 353.124Z" fill="black"/>
<g opacity="0.1">
<path d="M201.692 109.565C201.073 110.099 200.277 110.481 199.864 111.191C199.511 111.801 199.501 112.551 199.219 113.206C198.937 113.861 198.116 114.395 197.547 113.982C197.416 109.449 195.18 105.193 192.435 101.567C191.668 100.473 190.735 99.5044 189.67 98.6965C188.593 97.8861 187.251 97.5071 185.908 97.6338C184.398 97.8403 183.068 98.8677 181.542 98.9936C179.527 99.1648 177.719 97.7698 175.72 97.6993C174.907 97.7074 174.106 97.8891 173.369 98.2322C172.633 98.5753 171.978 99.0718 171.449 99.6886C170.398 100.929 169.617 102.375 169.158 103.934C168.366 106.301 167.935 108.772 167.878 111.267C167.848 112.672 167.717 114.425 166.418 114.949C166.448 115.321 166.448 115.695 166.418 116.067C167.727 115.563 167.858 113.79 167.889 112.38C167.945 109.885 168.376 107.413 169.168 105.047C169.627 103.486 170.408 102.039 171.459 100.797C171.989 100.181 172.644 99.6864 173.381 99.3442C174.117 99.0021 174.918 98.8207 175.73 98.8123C177.745 98.8828 179.558 100.273 181.552 100.107C183.063 99.9807 184.403 98.9483 185.918 98.7468C187.261 98.6201 188.603 98.9991 189.681 99.8095C190.745 100.617 191.678 101.586 192.445 102.68C195.19 106.301 197.426 110.547 197.557 115.09C198.126 115.508 198.947 114.964 199.229 114.319C199.511 113.674 199.521 112.919 199.874 112.305C200.287 111.594 201.083 111.217 201.702 110.683C203.273 109.328 203.666 107.047 203.606 104.977C203.606 104.911 203.606 104.846 203.606 104.785C203.51 106.578 203.032 108.406 201.692 109.565Z" fill="black"/>
<path d="M164.515 109.208C163.356 107.933 161.775 107.082 160.712 105.733C159.817 104.538 159.306 103.099 159.247 101.608C159.088 103.472 159.609 105.33 160.712 106.841C161.775 108.195 163.356 109.046 164.515 110.321C165.627 111.567 166.294 113.147 166.413 114.813C166.49 113.799 166.362 112.78 166.036 111.817C165.709 110.853 165.192 109.966 164.515 109.208Z" fill="black"/>
<path d="M204.589 94.0035C204.292 95.2374 203.763 96.4109 203.521 97.6548C203.378 98.4861 203.326 99.3304 203.365 100.173C203.382 99.693 203.434 99.215 203.521 98.7427C203.763 97.4937 204.292 96.3253 204.589 95.0914C204.762 94.4108 204.818 93.7058 204.755 93.0063C204.724 93.3423 204.668 93.6756 204.589 94.0035Z" fill="black"/>
</g>
<path opacity="0.1" d="M66.847 383.054C93.9495 383.054 115.921 379.525 115.921 375.172C115.921 370.819 93.9495 367.291 66.847 367.291C39.7444 367.291 17.7734 370.819 17.7734 375.172C17.7734 379.525 39.7444 383.054 66.847 383.054Z" fill="#477AFA"/>
<path d="M68.4283 224.185H65.2705V295.282H68.4283V224.185Z" fill="#535461"/>
<path d="M88.2706 295.066L88.0741 298.269L87.7921 302.802L87.6763 304.685L87.3993 309.218L87.2784 311.101L86.9964 315.634L83.8135 367.039C83.6751 369.251 82.6992 371.327 81.0843 372.845C79.4694 374.362 77.3369 375.208 75.1208 375.208H58.5716C56.356 375.207 54.2241 374.362 52.6101 372.844C50.996 371.327 50.0211 369.251 49.884 367.039L46.7162 315.599L46.4342 311.066L46.3183 309.183L46.0363 304.65L45.9205 302.766L45.6384 298.234L45.437 295.031C45.402 294.414 45.4933 293.797 45.7054 293.217C45.9175 292.637 46.2458 292.107 46.6702 291.658C47.0946 291.21 47.6062 290.853 48.1736 290.609C48.741 290.365 49.3521 290.24 49.9696 290.241H83.8185C84.4336 290.247 85.0412 290.378 85.6036 290.627C86.166 290.876 86.6714 291.238 87.0886 291.69C87.5058 292.142 87.8259 292.675 88.0292 293.256C88.2325 293.836 88.3146 294.452 88.2706 295.066Z" fill="#3F3D56"/>
<path d="M88.075 298.269L87.793 302.787H45.9012L45.6191 298.269H88.075Z" fill="#9D9CB5"/>
<path d="M87.6767 304.669L87.3997 309.192H46.2986L46.0166 304.669H87.6767Z" fill="#9D9CB5"/>
<path d="M87.2785 311.082L87.0015 315.599H46.6961L46.4141 311.082H87.2785Z" fill="#9D9CB5"/>
<path d="M40.7979 250.832C59.1854 264.138 66.8607 284.948 66.8607 284.948C66.8607 284.948 44.7011 284.187 26.3086 270.881C7.91605 257.576 0.255859 236.771 0.255859 236.771C0.255859 236.771 22.4054 237.526 40.7979 250.832Z" fill="#477AFA"/>
<path d="M0.243164 236.771C0.243164 236.771 23.2489 249.538 30.6271 260.109C38.0052 270.68 66.8631 284.948 66.8631 284.948" stroke="#535461" stroke-width="1.00726" stroke-miterlimit="10"/>
<path d="M52.6696 224.029C62.6767 231.266 66.8618 242.593 66.8618 242.593C66.8618 242.593 54.7999 242.18 44.7878 234.943C34.7757 227.705 30.6006 216.374 30.6006 216.374C30.6006 216.374 42.6575 216.787 52.6696 224.029Z" fill="#477AFA"/>
<path d="M30.6006 216.374C30.6006 216.374 43.1208 223.324 47.1347 229.075C51.1486 234.827 66.8618 242.593 66.8618 242.593" stroke="#535461" stroke-width="1.00726" stroke-miterlimit="10"/>
<path d="M81.3923 242.019C69.8944 254.655 67.4619 271.169 67.4619 271.169C67.4619 271.169 83.6737 267.19 95.1615 254.549C106.649 241.908 109.092 225.399 109.092 225.399C109.092 225.399 92.8901 229.383 81.3923 242.019Z" fill="#477AFA"/>
<path d="M109.102 225.404C109.102 225.404 94.124 238.357 90.3166 247.281C86.5091 256.206 67.4619 271.169 67.4619 271.169" stroke="#535461" stroke-width="1.00726" stroke-miterlimit="10"/>
<path d="M503.463 237.572C503.463 237.572 495.148 196.204 498.331 191.057C498.331 191.057 498.447 186.272 498.256 180.173C498.256 179.942 498.256 179.71 498.256 179.473C498.816 179.847 499.399 180.183 500.003 180.48C502.936 181.987 506.303 182.422 509.522 181.709L507.004 178.904C506.399 178.234 505.77 177.509 505.639 176.623C505.508 175.736 505.87 174.946 506.183 174.155C508.575 168.111 508.701 160.512 504.093 155.898C500.2 152.02 499.253 147.014 495.027 143.474C491.94 140.88 490.243 137.078 488.641 133.401C487.287 130.294 485.922 127.161 485.146 123.868C484.542 121.294 484.3 118.63 483.469 116.117C482.638 113.604 481.082 111.161 478.649 110.038C477.783 109.64 476.821 109.413 476.03 108.885C474.993 108.185 474.368 107.046 473.618 106.049C469.806 101.013 457.039 103.979 450.995 106.024C449.352 106.539 447.831 107.382 446.523 108.502L446.578 108.411C446.624 108.336 446.679 108.26 446.729 108.185C446.068 108.72 445.497 109.357 445.037 110.073C444.156 111.468 443.788 113.095 443.053 114.606C442.166 116.394 437.236 121.385 439.356 123.394C439.505 123.529 439.675 123.638 439.86 123.716C440.656 124.048 441.532 124.135 442.378 123.968L442.287 124.185C441.563 125.958 441.192 127.855 441.194 129.77C441.194 138.045 448.019 144.753 456.444 144.753C458.028 144.755 459.603 144.512 461.113 144.033C461.148 144.224 461.178 144.416 461.214 144.607C461.214 144.683 461.239 144.758 461.249 144.834L460.982 145.206C460.969 145.183 460.953 145.161 460.937 145.141L453.03 156.19C451.821 157.042 444.861 162.078 444.468 165.855C444.055 169.99 443.642 174.83 443.642 174.83L443.587 175.867C443.241 176.156 442.837 176.366 442.402 176.484C441.968 176.601 441.512 176.623 441.069 176.547C438.601 176.144 438.601 185.612 438.601 185.612C438.601 185.612 436.959 187.123 435.831 185.814C434.703 184.504 431.721 188.941 431.721 188.941L413.037 189.747L412.609 189.772L411.601 186.655C411.493 186.326 411.259 186.053 410.951 185.896C410.642 185.738 410.284 185.709 409.954 185.814C409.876 185.84 409.801 185.872 409.728 185.91L409.657 185.95L409.526 186.04L409.461 186.101C409.425 186.134 409.391 186.169 409.36 186.207L409.3 186.277L409.269 186.307C409.153 186.468 409.076 186.654 409.045 186.85C409.013 187.046 409.028 187.246 409.088 187.436L409.954 190.11C406.348 190.835 402.662 192.88 405.669 198.51L390.429 195.695L395.359 199.835L420.813 205.088C420.475 205.692 420.697 206.568 421.749 207.802C426.282 213.126 434.542 214.571 437.865 214.944C438.743 216.907 439.84 218.766 441.134 220.484L440.847 225.787C440.847 225.787 432.431 266.208 430.89 268.258C431.668 267.376 432.38 266.439 433.021 265.453C430.578 273.757 427.163 285.124 426.267 286.827C424.827 289.546 423.492 300.55 425.134 301.256C425.637 301.472 427.078 301.366 429.133 301.21V302.122L429.042 336.666C429.042 336.666 429.455 357.853 428.322 359.873C427.189 361.892 426.886 366.128 426.886 366.128C426.886 366.128 422.354 374.483 418.763 377.842C418.738 377.868 418.711 377.892 418.682 377.913L418.571 377.127C418.571 377.127 414.255 382.576 404.707 382.269C404.707 382.269 398.96 386.006 407.482 386.208C416.003 386.409 426.886 385.905 426.886 385.905C426.886 385.905 434.486 374.322 440.852 375.833V384.611H442.801V375.692C443.705 375.097 444.479 374.324 445.075 373.421C445.671 372.518 446.078 371.504 446.271 370.439C446.438 369.341 446.316 368.219 445.916 367.183C445.517 366.147 444.855 365.233 443.995 364.531C443.608 364.182 443.298 363.757 443.084 363.282C442.87 362.807 442.756 362.292 442.751 361.772L442.68 361.832C442.68 361.656 442.635 361.474 442.615 361.288C442.056 356.755 441.356 347.403 443.828 340.483C447.218 330.995 448.245 317.78 445.777 309.913C444.981 307.398 444.327 304.841 443.818 302.253C443.758 301.925 443.703 301.613 443.652 301.321C445.339 301.549 447.01 301.886 448.653 302.328C454.369 303.905 466.874 304.197 477.551 304.111C477.577 304.403 477.607 304.71 477.642 305.018C477.832 307.153 478.23 309.265 478.831 311.323C480.17 315.352 480.785 333.115 480.785 333.115C480.785 333.115 482.512 347.72 481.57 353.663C481.067 356.967 480.563 360.286 480.276 363.62V363.685C480.276 363.685 477.446 371.743 475.376 376.12C475.325 376.231 475.27 376.341 475.22 376.447C474.668 376.498 474.125 376.618 473.603 376.805C473.603 376.805 470.828 382.345 468.063 383.261C465.298 384.178 466.215 387.195 472.475 386.087C478.735 384.979 488.188 384.072 488.188 384.072L488.596 378.421L490.52 376.014L490.016 381.65L492.066 381.247L491.794 374.392L494.942 370.454C494.942 370.454 498.744 367.07 493.093 360.412V360.558C493.033 360.462 492.978 360.361 492.912 360.266V360.235C491.975 358.785 491.23 356.081 492.595 351.281C495.063 342.608 496.498 334.737 496.498 334.737C496.498 334.737 502.008 313.65 495.385 303.673H495.677C494.998 302.269 494.519 300.777 494.252 299.241C494.218 299.06 494.188 298.873 494.161 298.682C499.061 298.4 503.871 297.514 507.794 295.6C507.779 295.58 505.417 245.539 503.463 237.572ZM441.25 202.67V202.771L440.243 202.821L441.25 202.67ZM437.795 203.149C437.629 203.185 437.474 203.26 437.342 203.365C436.909 203.978 436.637 204.69 436.551 205.435L434.98 205.083C434.98 205.083 433.877 204.846 432.29 204.579L431.54 203.824C433.605 203.652 435.75 203.401 437.795 203.149Z" fill="url(#paint1_linear_128_28)"/>
<path d="M489.783 374.462L489.184 381.599L491.193 381.196L490.891 373.455L489.783 374.462Z" fill="#1D2366"/>
<path d="M443.938 340.579C441.515 347.479 442.2 356.791 442.744 361.313C442.946 362.985 443.132 364.003 443.132 364.003C443.132 364.003 439.511 372.252 439.209 372.564C438.907 372.877 428.552 379.197 428.552 379.197L421.315 383.423C421.315 383.423 413.972 380.204 417.492 379.096C418.212 378.808 418.859 378.366 419.391 377.802C422.916 374.453 427.343 366.128 427.343 366.128C427.343 366.128 427.645 361.903 428.753 359.893C429.861 357.884 429.459 336.767 429.459 336.767L429.544 302.344V297.856L443.318 297.957C443.405 299.48 443.604 300.995 443.913 302.49C444.407 305.069 445.048 307.618 445.831 310.125C448.259 317.976 447.252 331.126 443.938 340.579Z" fill="#FFB0B1"/>
<path opacity="0.1" d="M443.132 364.003C443.132 364.003 439.511 372.252 439.209 372.564C438.907 372.876 428.552 379.197 428.552 379.197L421.315 383.422C421.315 383.422 413.972 380.204 417.492 379.096C418.212 378.808 418.859 378.366 419.391 377.802L419.703 380.003L422.116 379.902L442.764 361.323C442.946 362.985 443.132 364.003 443.132 364.003Z" fill="black"/>
<path d="M442.88 361.792L422.116 380.496L419.703 380.597L419.2 377.072C419.2 377.072 414.979 382.501 405.602 382.199C405.602 382.199 399.971 385.92 408.316 386.122C416.661 386.323 427.318 385.82 427.318 385.82C427.318 385.82 434.762 374.236 440.992 375.747V384.495H442.905V375.666C443.795 375.067 444.555 374.295 445.138 373.395C445.721 372.494 446.117 371.486 446.3 370.429C446.466 369.34 446.348 368.227 445.959 367.197C445.57 366.167 444.923 365.254 444.079 364.546C443.702 364.193 443.401 363.766 443.195 363.293C442.989 362.819 442.882 362.308 442.88 361.792Z" fill="#1D2366"/>
<path d="M491.696 351.336C490.357 356.12 491.087 358.815 492.004 360.26V360.29C493.179 362.075 493.997 364.071 494.411 366.168L494.491 366.621L485.043 380.395L479.916 382.41C479.916 382.41 471.672 379.594 473.178 378.789C473.556 378.592 474.145 377.545 474.82 376.099C476.834 371.743 479.614 363.705 479.614 363.705V363.64C479.906 360.321 480.37 357.012 480.883 353.718C481.805 347.79 480.113 333.241 480.113 333.241C480.113 333.241 479.508 315.548 478.199 311.524C477.608 309.478 477.215 307.38 477.026 305.259C476.754 302.741 476.693 300.666 476.693 300.666C476.693 300.666 482.122 293.111 492.074 301.27C492.87 301.921 493.57 302.68 494.154 303.526C501.029 313.307 495.494 334.852 495.494 334.852C495.494 334.852 494.109 342.689 491.696 351.336Z" fill="#FFB0B1"/>
<path opacity="0.1" d="M494.508 366.621L485.06 380.396L479.933 382.41C479.933 382.41 471.689 379.595 473.194 378.789C473.572 378.593 474.161 377.545 474.836 376.1C478.326 376.069 480.135 379.393 480.135 379.393L484.556 378.688C484.556 378.688 490.388 367.226 491.698 366.526C493.007 365.826 491.899 361.293 491.899 361.293V360.14C491.935 360.18 491.965 360.225 492.005 360.266V360.296C493.181 362.08 493.998 364.077 494.412 366.173L494.508 366.621Z" fill="black"/>
<path d="M480.437 379.69C480.437 379.69 477.918 375.067 473.094 376.774C473.094 376.774 470.379 382.314 467.665 383.211C464.95 384.107 465.857 387.129 471.991 386.026C478.125 384.923 487.372 384.012 487.372 384.012L487.774 378.376L494.009 370.434C494.009 370.434 497.726 367.064 492.196 360.432V361.585C492.196 361.585 493.304 366.118 491.995 366.818C490.685 367.518 484.874 378.985 484.874 378.985L480.437 379.69Z" fill="#1D2366"/>
<path opacity="0.1" d="M443.334 297.947C443.421 299.47 443.62 300.985 443.929 302.479C438.258 301.648 432.995 302.061 429.545 302.333V297.846L443.334 297.947Z" fill="black"/>
<path opacity="0.1" d="M494.715 304.78C494.715 304.78 486.656 305.173 477.047 305.254C476.775 302.736 476.715 300.661 476.715 300.661C476.715 300.661 482.144 293.106 492.096 301.265C492.891 301.916 493.592 302.675 494.176 303.521C494.332 303.951 494.512 304.371 494.715 304.78Z" fill="black"/>
<path d="M494.713 303.874C494.713 303.874 459.418 305.582 448.661 302.565C437.903 299.548 427.241 302.162 425.635 301.462C424.028 300.762 425.333 289.798 426.743 287.083C428.153 284.369 435.889 256.916 435.889 256.916L443.332 218.106L451.174 215.946L451.728 215.79L465.391 212.022L475.403 209.258C475.403 209.258 495.312 286.983 493.605 292.714C492.985 294.908 492.885 297.217 493.312 299.457C493.573 300.987 494.044 302.474 494.713 303.874Z" fill="#1D2366"/>
<path d="M417.387 191.565C417.387 191.565 410.336 199.119 415.674 203.33C421.013 207.54 424.523 203.733 424.523 203.733L417.387 191.565Z" fill="#C7DAF5"/>
<path opacity="0.1" d="M417.387 191.565C417.387 191.565 410.336 199.119 415.674 203.33C421.013 207.54 424.523 203.733 424.523 203.733L417.387 191.565Z" fill="black"/>
<path d="M474.351 141.897C474.351 141.897 473.525 142.683 472.281 143.841C470.509 145.498 467.885 147.92 465.558 149.95C462.335 152.755 459.676 154.815 460.627 153.057C461.579 151.3 461.398 148.238 460.925 145.372C460.889 145.181 460.859 144.989 460.824 144.803C460.432 142.698 459.912 140.619 459.268 138.578C459.268 138.578 464.475 131.849 467.356 129.195C468.429 128.188 469.179 127.775 469.224 128.475C469.275 129.417 469.98 131.497 470.856 133.703C470.881 133.773 470.906 133.839 470.937 133.909C471.521 135.42 472.181 136.971 472.76 138.311C473.646 140.366 474.351 141.897 474.351 141.897Z" fill="#FFB0B1"/>
<path opacity="0.1" d="M470.937 133.909C470.447 136.541 469.26 138.994 467.499 141.01C465.737 143.027 463.467 144.533 460.925 145.372C460.524 143.073 459.971 140.803 459.268 138.578C459.268 138.578 469.073 125.912 469.224 128.475C469.26 129.447 470.025 131.603 470.937 133.909Z" fill="black"/>
<path opacity="0.1" d="M459.949 148.757L461.218 146.969C461.218 146.969 462.059 152.096 465.151 149.835C468.243 147.573 468.394 166.852 468.394 166.852L465.076 216.475L441.093 215.039L441.773 191.062L444.487 178.975L451.201 161.403L455.194 155.596L459.949 148.757Z" fill="black"/>
<path d="M468.395 167.16L465.373 212.028L465.056 216.783L451.685 215.982L451.181 215.952L441.108 215.347L441.788 191.365L444.503 179.277L451.216 161.706L455.21 155.899L459.964 149.035L461.233 147.252C461.233 147.252 462.074 152.379 465.167 150.117L465.232 150.072C468.254 148.158 468.395 167.16 468.395 167.16Z" fill="#1D2366"/>
<path d="M444.84 175.076C444.84 175.076 443.636 177.594 441.219 177.186C438.801 176.778 438.806 186.251 438.806 186.251C438.806 186.251 437.2 187.762 436.092 186.453C434.984 185.143 432.063 189.57 432.063 189.57L413.761 190.376C413.761 190.376 421.904 194.098 420.308 205.359C420.308 205.359 447.957 203.647 448.864 201.033C449.77 198.419 444.84 175.076 444.84 175.076Z" fill="white"/>
<path opacity="0.03" d="M444.84 175.076C444.84 175.076 443.636 177.594 441.219 177.186C438.801 176.778 438.806 186.251 438.806 186.251C438.806 186.251 437.2 187.762 436.092 186.453C434.984 185.143 432.063 189.57 432.063 189.57L413.761 190.376C413.761 190.376 421.904 194.098 420.308 205.359C420.308 205.359 447.957 203.647 448.864 201.033C449.77 198.419 444.84 175.076 444.84 175.076Z" fill="black"/>
<path d="M391.652 196.294L396.477 200.414L436.193 208.759L431.268 203.733L391.652 196.294Z" fill="white"/>
<path d="M460.024 150.343C459.364 151.35 457.475 156.507 455.899 161.01C454.584 164.762 453.487 168.061 453.487 168.061C453.487 168.061 450.923 184.751 449.614 187.768C448.304 190.784 449.014 202.549 449.014 202.549L444.134 231.603C444.134 231.603 441.923 246.586 438.509 255.536C435.139 264.344 431.387 268.474 431.271 268.605C432.782 266.56 441.017 226.3 441.017 226.3L443.736 175.524C443.736 175.524 444.134 170.7 444.537 166.575C444.94 162.45 453.099 156.82 453.099 156.82L460.965 145.634C461.756 146.692 461.227 148.535 460.024 150.343Z" fill="white"/>
<path d="M439.512 215.598C439.512 215.598 427.929 215.094 422.318 208.356C416.708 201.617 435.287 205.666 435.287 205.666L440.117 206.774L439.512 215.598Z" fill="#FFB0B1"/>
<path opacity="0.1" d="M493.607 292.719C492.987 294.914 492.887 297.223 493.315 299.463C480.679 300.359 467.162 296.945 467.162 296.945C464.644 299.261 458.011 302.676 458.011 302.676L454.395 257.853C452.083 251.809 451.177 220.146 451.177 220.146C451.177 220.146 451.383 218.489 451.68 216.006C451.68 215.946 451.68 215.881 451.706 215.82C452.607 208.885 454.395 195.866 455.271 194.109C456.48 191.691 451.554 185.26 451.554 185.26L453.796 166.147L454.068 163.841C458.792 161.73 462.413 154.992 462.413 154.992L465.193 150.122C468.214 148.183 468.371 167.185 468.371 167.185L465.349 212.053L475.361 209.288C475.361 209.288 495.315 286.988 493.607 292.719Z" fill="black"/>
<path d="M506.574 295.816C492.8 302.655 467.764 296.32 467.764 296.32C465.246 298.636 458.614 302.051 458.614 302.051L454.992 257.228C452.686 251.185 451.779 219.521 451.779 219.521C451.779 219.521 454.69 195.896 455.899 193.484C456.252 192.779 456.08 191.731 455.662 190.603C453.607 185.234 452.851 179.454 453.456 173.737L454.423 165.522L454.69 163.221C459.419 161.106 463.04 154.367 463.04 154.367L465.559 149.955L470.192 141.827L472.388 137.979L472.76 138.316L475.606 140.895C475.606 140.895 476.815 141.902 478.628 143.413C482.571 146.737 489.385 152.589 492.901 156.17C495.993 159.323 496.97 171.586 497.252 180.818C497.438 186.896 497.327 191.661 497.327 191.661C494.21 196.793 502.364 237.995 502.364 237.995C504.262 245.957 506.574 295.816 506.574 295.816Z" fill="white"/>
<path opacity="0.03" d="M480.133 154.267C480.133 154.267 470.68 172.262 471.778 179.101C472.876 185.94 475.998 193.681 474.492 195.489C473.975 196.174 473.306 196.73 472.538 197.114C471.77 197.497 470.924 197.698 470.065 197.7C468.555 197.801 464.526 200.616 464.526 200.918C464.526 201.22 460.804 201.22 457.475 202.63C454.146 204.041 449.23 204.841 449.23 204.841C449.23 204.841 439.661 204.539 438.77 205.446C437.879 206.352 436.962 211.776 438.871 216.102C440.779 220.429 442.9 223.657 444.501 224.246C446.103 224.835 456.266 221.431 464.51 220.625C472.755 219.819 481.704 213.287 481.704 213.287C481.704 213.287 491.56 209.762 493.288 203.834C495.015 197.906 491.178 165.327 491.178 165.327C491.178 165.327 488.277 150.142 480.133 154.267Z" fill="black"/>
<path opacity="0.03" d="M478.924 152.756C478.924 152.756 469.471 170.756 470.579 177.59C471.687 184.424 474.799 192.17 473.288 193.983C472.773 194.669 472.105 195.225 471.338 195.609C470.57 195.993 469.725 196.193 468.867 196.194C467.356 196.295 463.327 199.11 463.327 199.412C463.327 199.714 459.605 199.714 456.276 201.12C452.947 202.525 448.032 203.33 448.032 203.33C448.032 203.33 438.463 203.028 437.576 203.935C436.69 204.841 435.763 210.27 437.677 214.592C439.591 218.913 441.706 222.146 443.307 222.735C444.909 223.324 455.072 219.92 463.317 219.119C471.561 218.318 480.511 211.776 480.511 211.776C480.511 211.776 490.361 208.251 492.069 202.328C493.776 196.406 489.959 163.816 489.959 163.816C489.959 163.816 487.068 148.636 478.924 152.756Z" fill="black"/>
<path d="M479.836 153.36C479.836 153.36 470.383 171.36 471.491 178.194C472.599 185.028 475.711 192.774 474.205 194.582C473.69 195.269 473.021 195.827 472.253 196.212C471.485 196.596 470.638 196.797 469.778 196.798C468.267 196.899 464.238 199.714 464.238 200.011C464.238 200.308 460.522 200.313 457.188 201.723C453.854 203.133 448.943 203.934 448.943 203.934C448.943 203.934 439.374 203.632 438.483 204.539C437.591 205.445 436.675 210.874 438.584 215.195C440.492 219.516 442.613 222.75 444.214 223.339C445.816 223.928 455.979 220.524 464.223 219.718C472.468 218.912 481.417 212.38 481.417 212.38C481.417 212.38 491.273 208.855 493.001 202.927C494.728 196.999 490.916 164.42 490.916 164.42C490.916 164.42 487.974 149.26 479.836 153.36Z" fill="white"/>
<path opacity="0.1" d="M479.63 201.638C479.63 201.638 472.076 200.127 474.705 202.645C477.334 205.164 477.319 207.37 480.537 207.269C483.755 207.168 479.63 201.638 479.63 201.638Z" fill="black"/>
<path opacity="0.1" d="M492.398 255.819C492.398 255.819 488.983 258.13 495.515 263.459C502.047 268.787 492.398 255.819 492.398 255.819Z" fill="black"/>
<path opacity="0.1" d="M485.881 274.82C485.881 275.122 484.672 285.9 489.195 288.594C493.717 291.289 485.881 274.82 485.881 274.82Z" fill="black"/>
<path d="M414.073 190.351C410.427 190.477 402.55 191.59 406.634 199.21C410.245 205.954 416.314 201.446 419.729 198.027C418.896 194.838 416.871 192.091 414.073 190.351Z" fill="#FFB0B1"/>
<path opacity="0.1" d="M478.627 143.72C474.759 146.364 471.516 148.595 470.881 149.058C469.149 150.342 465.845 157.882 463.715 161.729C462.018 164.827 456.503 165.622 454.423 165.819L454.69 163.517C459.419 161.402 463.04 154.663 463.04 154.663L472.387 138.275L475.605 141.201C475.605 141.201 476.814 142.209 478.627 143.72Z" fill="black"/>
<path d="M478.627 143.419C474.759 146.063 471.516 148.294 470.881 148.762C469.149 150.041 465.845 157.581 463.715 161.428C462.018 164.526 456.503 165.321 454.423 165.518L454.69 163.216C459.419 161.101 463.04 154.362 463.04 154.362L472.387 137.974L475.605 140.89C475.605 140.89 476.814 141.888 478.627 143.419Z" fill="#DCE7FF"/>
<path d="M471.185 130.586C471.187 133.609 470.27 136.562 468.556 139.052C466.531 141.996 463.518 144.117 460.064 145.03C456.609 145.943 452.942 145.588 449.727 144.028C446.512 142.468 443.963 139.808 442.542 136.529C441.121 133.25 440.922 129.571 441.982 126.159C443.041 122.746 445.289 119.827 448.317 117.93C451.345 116.033 454.953 115.284 458.486 115.82C462.019 116.355 465.243 118.14 467.573 120.849C469.903 123.558 471.184 127.013 471.185 130.586Z" fill="#FFB0B1"/>
<path opacity="0.1" d="M497.252 180.823C495.207 179.565 493.541 177.776 492.432 175.646C491.591 173.984 491.032 172.065 489.597 170.886C488.302 169.829 486.575 169.572 484.963 169.098C479.665 167.532 475.223 162.697 475.057 157.178C474.976 154.579 475.787 151.985 475.42 149.412C475.21 147.955 474.631 146.577 473.737 145.408C473.294 144.849 472.807 144.325 472.282 143.841C471.577 143.177 470.837 142.532 470.192 141.827C469.786 141.39 469.431 140.909 469.134 140.392C468.895 139.968 468.701 139.521 468.555 139.057C467.548 135.975 468.464 132.318 467.356 129.201L467.296 129.03C466.878 127.922 466.027 126.814 464.843 126.728C463.66 126.643 462.648 127.625 461.519 128.063C459.157 128.979 456.609 127.418 454.64 125.827C452.671 124.235 450.45 122.417 447.947 122.77C446.29 123.006 444.98 124.134 443.454 124.719C443.11 124.852 442.754 124.955 442.392 125.026C443.683 121.805 446.056 119.135 449.102 117.474C452.148 115.812 455.678 115.264 459.085 115.922C462.492 116.581 465.563 118.405 467.771 121.082C469.979 123.759 471.186 127.121 471.184 130.591C471.186 131.639 471.076 132.684 470.857 133.708C470.882 133.779 470.907 133.844 470.937 133.915C471.521 135.426 472.181 136.977 472.76 138.317L475.606 140.895C475.606 140.895 476.815 141.903 478.628 143.413C482.571 146.737 489.385 152.59 492.9 156.17C495.993 159.333 496.96 171.591 497.252 180.823Z" fill="black"/>
<path d="M443.277 115.517C443.997 114.051 444.355 112.41 445.216 111.02C446.48 109.005 448.686 107.716 450.953 106.935C456.87 104.895 469.375 101.934 473.112 106.935C473.847 107.942 474.457 109.06 475.474 109.755C476.25 110.284 477.187 110.511 478.038 110.909C480.42 112.027 481.941 114.464 482.752 116.952C483.562 119.44 483.804 122.109 484.398 124.673C485.159 127.962 486.494 131.079 487.823 134.176C489.389 137.833 491.051 141.625 494.073 144.209C498.198 147.734 499.109 152.725 502.937 156.593C507.47 161.186 507.324 168.766 504.987 174.784C504.68 175.575 504.332 176.401 504.453 177.242C504.574 178.083 505.198 178.848 505.788 179.518L508.265 182.313C502.403 183.728 495.77 180.666 493.041 175.293C492.2 173.631 491.641 171.717 490.2 170.533C488.911 169.476 487.179 169.224 485.572 168.75C480.274 167.179 475.832 162.339 475.666 156.82C475.585 154.226 476.396 151.632 476.028 149.064C475.824 147.597 475.242 146.209 474.341 145.035C472.956 143.227 470.866 142.013 469.738 139.998C467.829 136.629 469.28 132.253 467.905 128.636C467.482 127.528 466.636 126.421 465.452 126.335C464.268 126.249 463.256 127.231 462.123 127.67C459.766 128.586 457.218 127.03 455.248 125.433C453.279 123.837 451.058 122.024 448.55 122.381C446.893 122.613 445.589 123.741 444.063 124.33C442.935 124.764 440.648 125.151 439.661 124.199C437.576 122.281 442.406 117.31 443.277 115.517Z" fill="#591D4B"/>
<path opacity="0.1" d="M494.442 173.631C493.596 171.969 493.042 170.055 491.602 168.876C490.312 167.819 488.58 167.562 486.968 167.089C481.675 165.522 477.233 160.682 477.062 155.163C476.981 152.569 477.792 149.97 477.429 147.402C477.218 145.945 476.638 144.566 475.742 143.398C474.352 141.59 472.262 140.376 471.139 138.362C469.23 134.997 470.681 130.621 469.301 127C468.883 125.897 468.032 124.789 466.853 124.698C465.675 124.608 464.652 125.6 463.524 126.038C461.167 126.954 458.614 125.393 456.65 123.802C454.686 122.21 452.454 120.392 449.951 120.745C448.295 120.981 446.985 122.11 445.464 122.694C444.336 123.127 442.044 123.52 441.057 122.568C438.982 120.553 443.812 115.593 444.678 113.81C445.399 112.339 445.756 110.702 446.622 109.312C446.668 109.237 446.718 109.161 446.769 109.086C446.121 109.622 445.561 110.258 445.112 110.969C444.25 112.359 443.893 113.991 443.173 115.467C442.301 117.249 437.472 122.225 439.552 124.225C440.559 125.182 442.825 124.789 443.953 124.356C445.464 123.766 446.784 122.638 448.441 122.407C450.959 122.049 453.175 123.867 455.139 125.459C457.103 127.05 459.671 128.611 462.018 127.695C463.147 127.257 464.134 126.269 465.342 126.36C466.551 126.451 467.357 127.554 467.795 128.662C469.17 132.278 467.719 136.654 469.628 140.024C470.756 142.003 472.846 143.242 474.231 145.06C475.133 146.234 475.714 147.623 475.919 149.089C476.286 151.657 475.475 154.251 475.556 156.845C475.722 162.385 480.164 167.204 485.462 168.776C487.059 169.249 488.801 169.501 490.091 170.559C491.536 171.742 492.105 173.656 492.931 175.318C495.661 180.692 502.294 183.754 508.156 182.338L506.987 181.019C501.906 181.094 496.764 178.204 494.442 173.631Z" fill="black"/>
<path opacity="0.1" d="M459.721 150.645C459.061 151.653 457.173 156.81 455.597 161.312C454.121 160.738 452.781 157.077 452.781 157.077L460.648 145.886C461.454 146.994 460.925 148.832 459.721 150.645Z" fill="black"/>
<path d="M460.025 150.343C459.365 151.35 457.477 156.508 455.9 161.01C454.425 160.441 453.085 156.774 453.085 156.774L460.952 145.589C461.757 146.692 461.229 148.535 460.025 150.343Z" fill="#DCE7FF"/>
<path d="M414.285 201.794L409.924 188.039C409.872 187.878 409.853 187.709 409.867 187.54C409.881 187.372 409.928 187.208 410.006 187.057C410.083 186.907 410.19 186.774 410.319 186.665C410.449 186.556 410.598 186.474 410.76 186.423C411.084 186.322 411.436 186.353 411.738 186.509C412.039 186.666 412.267 186.935 412.371 187.259L416.733 200.998L416.3 203.874L414.285 201.794Z" fill="#BE8B87"/>
<path opacity="0.1" d="M410.336 186.831C410.662 186.728 411.014 186.758 411.317 186.915C411.62 187.072 411.849 187.342 411.953 187.667L416.314 201.406L415.987 203.561L416.304 203.894L416.737 201.018L412.351 187.279C412.247 186.955 412.019 186.686 411.717 186.529C411.415 186.373 411.064 186.342 410.739 186.443C410.466 186.532 410.23 186.709 410.069 186.947C410.155 186.901 410.244 186.862 410.336 186.831Z" fill="white"/>
<path d="M414.284 201.794L416.732 201.018L416.374 203.375L416.299 203.894L415.584 203.148L414.284 201.794Z" fill="#EFC8C4"/>
<path d="M415.584 203.149C415.627 203.095 415.68 203.051 415.74 203.018C415.776 202.996 415.817 202.984 415.858 202.984C415.9 202.984 415.941 202.996 415.977 203.018C416.011 203.06 416.04 203.105 416.062 203.154C416.096 203.21 416.141 203.257 416.195 203.293C416.249 203.329 416.311 203.352 416.375 203.361L416.299 203.864L415.584 203.149Z" fill="#727A9C"/>
<path d="M409.897 192.925C409.897 192.925 418.645 192.874 416.586 196.596C414.526 200.318 411.308 200.766 411.308 200.766L409.897 192.925Z" fill="#FFB0B1"/>
<path d="M355.492 25.8965H355.115C340.086 25.8965 326.796 33.8488 319.15 45.5833C311.505 33.8488 298.215 25.8965 283.186 25.8965H282.809C271.53 26.004 260.75 30.5581 252.811 38.5691C244.871 46.5802 240.414 57.4009 240.408 68.6797C240.408 82.6856 246.542 102.559 258.504 118.912C281.293 150.071 319.15 177.332 319.15 177.332C319.15 177.332 357.008 150.076 379.792 118.912C391.759 102.559 397.888 82.6856 397.888 68.6797C397.882 57.4018 393.425 46.5818 385.487 38.5709C377.549 30.56 366.77 26.0053 355.492 25.8965ZM350.088 121.309C348.377 121.302 346.707 120.778 345.299 119.806C343.89 118.833 342.809 117.458 342.197 115.86H333.212C332.62 115.856 332.044 115.668 331.565 115.321C331.086 114.974 330.726 114.486 330.538 113.926L327.778 105.611L319.045 136.126C318.875 136.713 318.519 137.229 318.03 137.597C317.541 137.965 316.947 138.164 316.335 138.165H316.159C315.521 138.134 314.913 137.886 314.436 137.46C313.959 137.035 313.643 136.459 313.54 135.828L304.54 81.6985L297.963 113.729C297.812 114.338 297.462 114.878 296.968 115.264C296.474 115.65 295.865 115.86 295.238 115.86H282.582C282.203 115.876 281.824 115.815 281.469 115.681C281.113 115.547 280.789 115.342 280.515 115.079C280.241 114.816 280.023 114.501 279.874 114.152C279.725 113.802 279.648 113.427 279.648 113.047C279.648 112.667 279.725 112.291 279.874 111.942C280.023 111.593 280.241 111.277 280.515 111.014C280.789 110.752 281.113 110.547 281.469 110.413C281.824 110.279 282.203 110.218 282.582 110.234H293.022L302.339 67.1688C302.492 66.5321 302.862 65.9683 303.384 65.5738C303.907 65.1792 304.55 64.9785 305.205 65.0059C305.859 65.0332 306.483 65.287 306.971 65.7238C307.459 66.1606 307.78 66.7532 307.879 67.4005L317.07 122.618L324.897 95.3166C325.06 94.7416 325.404 94.2347 325.879 93.8717C326.354 93.5086 326.933 93.3088 327.531 93.3021H327.586C328.178 93.3023 328.755 93.4893 329.234 93.8366C329.713 94.1839 330.071 94.6736 330.255 95.236L335.246 110.249H342.086C342.572 108.772 343.457 107.458 344.643 106.451C345.829 105.445 347.27 104.786 348.807 104.548C350.344 104.309 351.917 104.499 353.352 105.098C354.788 105.696 356.03 106.68 356.942 107.94C357.853 109.2 358.399 110.687 358.519 112.238C358.639 113.789 358.328 115.342 357.621 116.727C356.913 118.112 355.837 119.275 354.51 120.087C353.184 120.899 351.659 121.329 350.103 121.329L350.088 121.309Z" fill="#477AFA"/>
</g>
<defs>
<linearGradient id="paint0_linear_128_28" x1="179.458" y1="390.247" x2="179.458" y2="80.3441" gradientUnits="userSpaceOnUse">
<stop stop-color="#808080" stop-opacity="0.25"/>
<stop offset="0.54" stop-color="#808080" stop-opacity="0.12"/>
<stop offset="1" stop-color="#808080" stop-opacity="0.1"/>
</linearGradient>
<linearGradient id="paint1_linear_128_28" x1="449.958" y1="386.328" x2="449.958" y2="103.289" gradientUnits="userSpaceOnUse">
<stop stop-color="#808080" stop-opacity="0.25"/>
<stop offset="0.54" stop-color="#808080" stop-opacity="0.12"/>
<stop offset="1" stop-color="#808080" stop-opacity="0.1"/>
</linearGradient>
<clipPath id="clip0_128_28">
<rect width="556.529" height="394.21" fill="white"/>
</clipPath>
</defs>
</svg>
