<svg width="228" height="224" viewBox="0 0 228 224" fill="none" xmlns="http://www.w3.org/2000/svg">
<path d="M149.119 65.6151C148.626 65.6151 148.133 65.4919 147.702 65.2455C135.875 59.1471 125.649 56.5599 113.391 56.5599C101.194 56.5599 89.6129 59.4551 79.0793 65.2455C77.6009 66.0463 75.753 65.4919 74.8906 64.0135C74.5064 63.2931 74.4202 62.4506 74.6506 61.6673C74.881 60.8841 75.4095 60.2224 76.1225 59.8247C87.5801 53.6031 100.147 50.3999 113.391 50.3999C126.511 50.3999 137.969 53.2951 150.535 59.7631C152.075 60.5639 152.63 62.4119 151.829 63.8903C151.585 64.4038 151.202 64.8381 150.722 65.1433C150.243 65.4484 149.687 65.6119 149.119 65.6151ZM60.9689 97.9551C60.4011 97.9604 59.8429 97.8083 59.3563 97.5157C58.8697 97.2231 58.4736 96.8014 58.212 96.2973C57.9504 95.7933 57.8336 95.2267 57.8744 94.6603C57.9153 94.094 58.1122 93.55 58.4433 93.0887C64.5417 84.4647 72.3034 77.6887 81.5433 72.9455C100.886 62.9663 125.649 62.9047 145.053 72.8839C154.293 77.6271 162.055 84.3415 168.153 92.9039C168.389 93.2349 168.558 93.6095 168.649 94.006C168.739 94.4025 168.751 94.813 168.682 95.2139C168.613 95.6148 168.466 95.9982 168.248 96.3418C168.03 96.6854 167.747 96.9825 167.414 97.2159C165.997 98.2015 164.087 97.8935 163.102 96.4767C157.707 88.8406 150.542 82.6263 142.219 78.3663C124.54 69.3111 101.933 69.3111 84.3153 78.4279C75.9377 82.7399 68.9153 88.8999 63.3714 96.6615C62.8786 97.5239 61.9545 97.9551 60.9689 97.9551ZM99.4689 172.306C99.065 172.311 98.6645 172.232 98.2932 172.072C97.9219 171.913 97.588 171.678 97.3129 171.382C91.9537 166.023 89.0585 162.574 84.9313 155.12C80.6809 147.543 78.4634 138.303 78.4634 128.385C78.4634 110.09 94.1097 95.1831 113.329 95.1831C132.548 95.1831 148.195 110.09 148.195 128.385C148.195 130.11 146.839 131.465 145.115 131.465C143.39 131.465 142.035 130.11 142.035 128.385C142.035 113.478 129.16 101.343 113.329 101.343C97.4977 101.343 84.6233 113.478 84.6233 128.385C84.6233 137.256 86.5945 145.449 90.3521 152.102C94.2945 159.186 97.0049 162.204 101.748 167.009C102.919 168.241 102.919 170.15 101.748 171.382C101.071 171.998 100.27 172.306 99.4689 172.306ZM143.636 160.91C136.306 160.91 129.838 159.062 124.54 155.428C115.362 149.206 109.879 139.104 109.879 128.385C109.879 126.661 111.235 125.305 112.959 125.305C114.684 125.305 116.039 126.661 116.039 128.385C116.039 137.071 120.475 145.264 127.99 150.315C132.363 153.272 137.476 154.689 143.636 154.689C145.115 154.689 147.579 154.504 150.043 154.073C151.706 153.765 153.307 154.873 153.615 156.598C153.923 158.261 152.815 159.863 151.09 160.171C147.579 160.849 144.499 160.91 143.636 160.91ZM131.255 173.6C131.008 173.6 130.7 173.538 130.454 173.477C120.659 170.766 114.253 167.132 107.539 160.541C103.284 156.339 99.9099 151.332 97.6146 145.81C95.3193 140.289 94.1487 134.365 94.1713 128.385C94.1713 118.406 102.672 110.275 113.144 110.275C123.616 110.275 132.117 118.406 132.117 128.385C132.117 134.977 137.846 140.336 144.93 140.336C152.014 140.336 157.743 134.977 157.743 128.385C157.743 105.162 137.723 86.3127 113.083 86.3127C95.5881 86.3127 79.5721 96.0455 72.3649 111.137C69.9625 116.127 68.7306 121.979 68.7306 128.385C68.7306 133.19 69.1617 140.767 72.8577 150.623C73.4737 152.225 72.6729 154.011 71.0713 154.565C69.4697 155.181 67.6833 154.319 67.1289 152.779C64.1607 144.989 62.6369 136.722 62.6321 128.385C62.6321 120.993 64.0489 114.279 66.8209 108.427C75.0137 91.2407 93.1857 80.0911 113.083 80.0911C141.111 80.0911 163.903 101.713 163.903 128.324C163.903 138.303 155.402 146.434 144.93 146.434C134.458 146.434 125.957 138.303 125.957 128.324C125.957 121.733 120.228 116.374 113.144 116.374C106.06 116.374 100.331 121.733 100.331 128.324C100.331 138.857 104.397 148.714 111.851 156.105C117.703 161.896 123.308 165.099 131.994 167.502C133.657 167.933 134.581 169.658 134.15 171.259C133.842 172.676 132.548 173.6 131.255 173.6Z" fill="#D1E8FF"/>
<ellipse cx="113.93" cy="112" rx="113.93" ry="112" fill="#D1E8FF"/>
<circle cx="114.007" cy="112" r="80.2867" fill="#DEF0FF"/>
<path d="M137.706 133.839C140.953 133.378 143.924 131.741 146.048 129.231C148.258 126.62 149.384 123.262 149.193 119.847C149.003 116.433 147.511 113.221 145.024 110.871C142.537 108.521 139.244 107.212 135.821 107.212C132.398 107.212 129.105 108.521 126.618 110.871C124.131 113.221 122.639 116.433 122.448 119.847C122.258 123.262 123.384 126.62 125.594 129.231C127.7 131.719 130.638 133.35 133.853 133.827C133.438 136.701 132.029 139.346 129.861 141.297C127.578 143.352 124.615 144.491 121.542 144.495H112.932C109.633 144.495 106.47 143.186 104.137 140.856C101.805 138.526 100.494 135.365 100.494 132.07V116.693C111.718 115.703 120.585 106.063 120.585 94.4994V80.4608C120.585 79.1933 120.081 77.9778 119.184 77.0817C118.287 76.1856 117.07 75.6823 115.802 75.6823H110.062C109.555 75.6823 109.068 75.8835 108.71 76.2419C108.351 76.6003 108.149 77.0866 108.149 77.5936C108.149 78.1007 108.351 78.5869 108.71 78.9453C109.068 79.3037 109.555 79.505 110.062 79.505H115.802C116.056 79.505 116.3 79.6058 116.479 79.7851L116.817 79.4471L116.479 79.7851C116.659 79.9644 116.759 80.2075 116.759 80.4608V94.4994C116.759 104.552 108.711 112.827 98.823 112.956H98.8229C96.4155 112.988 94.0257 112.542 91.7923 111.643C89.559 110.745 87.5265 109.412 85.8129 107.723C84.0994 106.034 82.7388 104.021 81.8103 101.802C80.8818 99.583 80.4038 97.2019 80.404 94.7969V94.7968V80.4608C80.404 80.2075 80.5047 79.9644 80.6842 79.7851C80.8637 79.6058 81.1072 79.505 81.3613 79.505H87.1014C87.6085 79.505 88.095 79.3037 88.4538 78.9453C88.8126 78.5869 89.0142 78.1007 89.0142 77.5936C89.0142 77.0866 88.8126 76.6003 88.4538 76.2419C88.095 75.8835 87.6085 75.6823 87.1014 75.6823H81.3613C80.0929 75.6823 78.8764 76.1856 77.9794 77.0817C77.0824 77.9778 76.5784 79.1933 76.5784 80.4608L76.5784 94.7968L76.5784 94.797C76.5799 100.372 78.702 105.739 82.515 109.81C86.2259 113.772 91.2686 116.219 96.6689 116.689V132.07V132.071C96.6738 136.379 98.3888 140.508 101.438 143.554C104.486 146.6 108.62 148.313 112.931 148.318H112.932H121.542H121.543C125.611 148.312 129.531 146.785 132.529 144.037C135.436 141.373 137.273 137.748 137.706 133.839ZM138.676 122.46C139.044 121.91 139.24 121.263 139.24 120.602C139.24 119.714 138.888 118.863 138.26 118.236C137.632 117.609 136.78 117.257 135.893 117.257C135.231 117.257 134.583 117.453 134.033 117.82C133.482 118.188 133.053 118.71 132.8 119.321C132.546 119.933 132.48 120.605 132.609 121.254C132.738 121.903 133.057 122.499 133.525 122.967C133.994 123.435 134.59 123.753 135.24 123.882C135.889 124.011 136.562 123.945 137.174 123.692C137.785 123.439 138.308 123.01 138.676 122.46ZM143.848 115.292C144.899 116.864 145.46 118.711 145.46 120.602C145.46 123.136 144.452 125.567 142.658 127.36C140.864 129.152 138.43 130.159 135.893 130.159C134 130.159 132.15 129.598 130.577 128.548C129.004 127.498 127.777 126.005 127.053 124.259C126.329 122.513 126.14 120.591 126.509 118.737C126.878 116.883 127.789 115.18 129.127 113.844C130.465 112.507 132.17 111.597 134.026 111.228C135.882 110.859 137.806 111.048 139.554 111.772C141.302 112.495 142.797 113.72 143.848 115.292Z" fill="#0038A5" stroke="#0038A5" stroke-width="0.955537"/>
</svg>
