<svg width="228" height="224" viewBox="0 0 228 224" fill="none" xmlns="http://www.w3.org/2000/svg">
<path d="M149.119 65.6151C148.626 65.6151 148.133 65.4919 147.702 65.2455C135.875 59.1471 125.649 56.5599 113.391 56.5599C101.194 56.5599 89.6129 59.4551 79.0793 65.2455C77.6009 66.0463 75.753 65.4919 74.8906 64.0135C74.5064 63.2931 74.4202 62.4506 74.6506 61.6673C74.881 60.8841 75.4095 60.2224 76.1225 59.8247C87.5801 53.6031 100.147 50.3999 113.391 50.3999C126.511 50.3999 137.969 53.2951 150.535 59.7631C152.075 60.5639 152.63 62.4119 151.829 63.8903C151.585 64.4038 151.202 64.8381 150.722 65.1433C150.243 65.4484 149.687 65.6119 149.119 65.6151ZM60.9689 97.9551C60.4011 97.9604 59.8429 97.8083 59.3563 97.5157C58.8697 97.2231 58.4736 96.8014 58.212 96.2973C57.9504 95.7933 57.8336 95.2267 57.8744 94.6603C57.9153 94.094 58.1122 93.55 58.4433 93.0887C64.5417 84.4647 72.3034 77.6887 81.5433 72.9455C100.886 62.9663 125.649 62.9047 145.053 72.8839C154.293 77.6271 162.055 84.3415 168.153 92.9039C168.389 93.2349 168.558 93.6095 168.649 94.006C168.739 94.4025 168.751 94.813 168.682 95.2139C168.613 95.6148 168.466 95.9982 168.248 96.3418C168.03 96.6854 167.747 96.9825 167.414 97.2159C165.997 98.2015 164.087 97.8935 163.102 96.4767C157.707 88.8406 150.542 82.6263 142.219 78.3663C124.54 69.3111 101.933 69.3111 84.3153 78.4279C75.9377 82.7399 68.9153 88.8999 63.3714 96.6615C62.8786 97.5239 61.9545 97.9551 60.9689 97.9551ZM99.4689 172.306C99.065 172.311 98.6645 172.232 98.2932 172.072C97.9219 171.913 97.588 171.678 97.3129 171.382C91.9537 166.023 89.0585 162.574 84.9313 155.12C80.6809 147.543 78.4634 138.303 78.4634 128.385C78.4634 110.09 94.1097 95.1831 113.329 95.1831C132.548 95.1831 148.195 110.09 148.195 128.385C148.195 130.11 146.839 131.465 145.115 131.465C143.39 131.465 142.035 130.11 142.035 128.385C142.035 113.478 129.16 101.343 113.329 101.343C97.4977 101.343 84.6233 113.478 84.6233 128.385C84.6233 137.256 86.5945 145.449 90.3521 152.102C94.2945 159.186 97.0049 162.204 101.748 167.009C102.919 168.241 102.919 170.15 101.748 171.382C101.071 171.998 100.27 172.306 99.4689 172.306ZM143.636 160.91C136.306 160.91 129.838 159.062 124.54 155.428C115.362 149.206 109.879 139.104 109.879 128.385C109.879 126.661 111.235 125.305 112.959 125.305C114.684 125.305 116.039 126.661 116.039 128.385C116.039 137.071 120.475 145.264 127.99 150.315C132.363 153.272 137.476 154.689 143.636 154.689C145.115 154.689 147.579 154.504 150.043 154.073C151.706 153.765 153.307 154.873 153.615 156.598C153.923 158.261 152.815 159.863 151.09 160.171C147.579 160.849 144.499 160.91 143.636 160.91ZM131.255 173.6C131.008 173.6 130.7 173.538 130.454 173.477C120.659 170.766 114.253 167.132 107.539 160.541C103.284 156.339 99.9099 151.332 97.6146 145.81C95.3193 140.289 94.1487 134.365 94.1713 128.385C94.1713 118.406 102.672 110.275 113.144 110.275C123.616 110.275 132.117 118.406 132.117 128.385C132.117 134.977 137.846 140.336 144.93 140.336C152.014 140.336 157.743 134.977 157.743 128.385C157.743 105.162 137.723 86.3127 113.083 86.3127C95.5881 86.3127 79.5721 96.0455 72.3649 111.137C69.9625 116.127 68.7306 121.979 68.7306 128.385C68.7306 133.19 69.1617 140.767 72.8577 150.623C73.4737 152.225 72.6729 154.011 71.0713 154.565C69.4697 155.181 67.6833 154.319 67.1289 152.779C64.1607 144.989 62.6369 136.722 62.6321 128.385C62.6321 120.993 64.0489 114.279 66.8209 108.427C75.0137 91.2407 93.1857 80.0911 113.083 80.0911C141.111 80.0911 163.903 101.713 163.903 128.324C163.903 138.303 155.402 146.434 144.93 146.434C134.458 146.434 125.957 138.303 125.957 128.324C125.957 121.733 120.228 116.374 113.144 116.374C106.06 116.374 100.331 121.733 100.331 128.324C100.331 138.857 104.397 148.714 111.851 156.105C117.703 161.896 123.308 165.099 131.994 167.502C133.657 167.933 134.581 169.658 134.15 171.259C133.842 172.676 132.548 173.6 131.255 173.6Z" fill="#D1E8FF"/>
<ellipse cx="113.93" cy="112" rx="113.93" ry="112" fill="#D1E8FF"/>
<circle cx="114.007" cy="112" r="80.2867" fill="#DEF0FF"/>
<path d="M123.12 79.2383C117.515 79.268 112.12 81.3771 107.981 85.1571C103.842 88.9371 101.253 94.1188 100.717 99.6983C96.4497 100.101 92.3854 101.709 88.9985 104.335C85.6115 106.961 83.0419 110.497 81.5896 114.529C80.1374 118.562 79.8626 122.924 80.7973 127.107C81.7319 131.289 83.8375 135.12 86.8681 138.15C89.8986 141.181 93.7289 143.286 97.9116 144.221C102.094 145.156 106.457 144.881 110.489 143.429C114.521 141.976 118.057 139.407 120.683 136.02C123.309 132.633 124.918 128.569 125.32 124.302C131.101 123.749 136.447 120.99 140.247 116.599C144.047 112.207 146.009 106.521 145.726 100.72C145.443 94.9197 142.936 89.4513 138.726 85.4509C134.516 81.4505 128.927 79.2256 123.12 79.2383ZM102.843 141.095C99.2616 141.088 95.7554 140.066 92.7312 138.147C89.7071 136.228 87.289 133.49 85.7575 130.253C84.226 127.015 83.6438 123.409 84.0785 119.854C84.5131 116.299 85.9468 112.94 88.2133 110.167L114.87 136.787C111.483 139.576 107.231 141.099 102.843 141.095ZM117.473 134.202L90.8166 107.545C94.4503 104.556 99.0664 103.027 103.766 103.256C108.465 103.484 112.911 105.453 116.238 108.78C119.565 112.107 121.534 116.553 121.763 121.253C121.991 125.952 120.462 130.568 117.473 134.202ZM125.357 120.598C125.002 115.156 122.678 110.029 118.818 106.175C114.958 102.322 109.826 100.007 104.383 99.6617C104.788 96.1301 106.181 92.7842 108.401 90.0078C110.62 87.2315 113.578 85.1371 116.934 83.9649C120.29 82.7927 123.908 82.5903 127.374 83.3807C130.84 84.1712 134.012 85.9225 136.528 88.4339C139.044 90.9453 140.801 94.115 141.597 97.5793C142.394 101.044 142.198 104.662 141.031 108.02C139.865 111.378 137.776 114.339 135.003 116.564C132.231 118.789 128.887 120.187 125.357 120.598Z" fill="#0038A5"/>
</svg>
