<svg width="1154" height="80" viewBox="0 0 1154 80" fill="none" xmlns="http://www.w3.org/2000/svg">
<rect x="75" y="38" width="1038" height="4" fill="#5981FC"/>
<circle cx="224" cy="38" r="38" fill="#D1E8FF"/>
<ellipse cx="224.025" cy="37.9999" rx="26.7788" ry="27.2401" fill="#5981FC"/>
<path fill-rule="evenodd" clip-rule="evenodd" d="M219.5 50H223.25V53H224.75V50H228.5V48.5H231.5C233.157 48.5 234.5 47.1569 234.5 45.5001V27.5857C234.5 25.9289 233.157 24.5857 231.5 24.5857H227L226.151 23.7125C224.973 22.5008 223.027 22.5008 221.849 23.7125L221 24.5857H216.5C214.843 24.5857 213.5 25.9289 213.5 27.5857V45.5C213.5 47.1569 214.843 48.5 216.5 48.5H219.5V50ZM225.924 25.6314C226.207 25.9219 226.595 26.0857 227 26.0857H231.5C232.328 26.0857 233 26.7573 233 27.5857V40.654C232.792 40.4925 232.56 40.3327 232.306 40.1849C230.938 39.3885 228.958 38.974 226.619 40.354C224.693 41.4903 222.882 41.7977 220.911 41.8396C220.033 41.8583 219.136 41.8243 218.173 41.7879C218.042 41.7828 217.909 41.7778 217.775 41.7729C216.899 41.7406 215.976 41.7123 215 41.7282V27.5857C215 26.7573 215.672 26.0857 216.5 26.0857H221C221.405 26.0857 221.793 25.9219 222.076 25.6314L222.924 24.7581C223.514 24.1522 224.486 24.1522 225.076 24.7581L225.924 25.6314ZM215 43.2284V45.5C215 46.3284 215.672 47 216.5 47H231.5C232.328 47 233 46.3284 233 45.5001V42.747C232.934 42.6639 232.844 42.5555 232.729 42.4331C232.455 42.1383 232.056 41.7746 231.552 41.4813C230.581 40.9166 229.186 40.5811 227.381 41.6459C225.163 42.9544 223.075 43.2939 220.943 43.3392C220.017 43.359 219.072 43.323 218.115 43.2867C217.984 43.2817 217.852 43.2768 217.72 43.2719C216.84 43.2394 215.941 43.2123 215 43.2284Z" fill="white"/>
<path d="M421.737 22.2619C421.573 22.2619 421.408 22.2201 421.264 22.1365C417.32 20.0674 413.909 19.1896 409.82 19.1896C405.752 19.1896 401.889 20.1719 398.376 22.1365C397.883 22.4082 397.267 22.2201 396.979 21.7185C396.851 21.4741 396.822 21.1883 396.899 20.9225C396.976 20.6567 397.152 20.4323 397.39 20.2973C401.211 18.1864 405.403 17.0996 409.82 17.0996C414.197 17.0996 418.018 18.0819 422.209 20.2764C422.723 20.5481 422.908 21.1751 422.641 21.6767C422.56 21.8509 422.432 21.9983 422.272 22.1018C422.112 22.2053 421.926 22.2608 421.737 22.2619ZM392.336 33.2344C392.146 33.2362 391.96 33.1846 391.798 33.0853C391.635 32.986 391.503 32.843 391.416 32.672C391.329 32.501 391.29 32.3087 391.303 32.1165C391.317 31.9244 391.383 31.7398 391.493 31.5833C393.527 28.6573 396.116 26.3583 399.198 24.749C405.649 21.3632 413.909 21.3423 420.381 24.7281C423.463 26.3374 426.052 28.6155 428.086 31.5206C428.164 31.6329 428.221 31.76 428.251 31.8945C428.281 32.0291 428.285 32.1684 428.262 32.3044C428.239 32.4404 428.19 32.5705 428.117 32.687C428.045 32.8036 427.95 32.9044 427.839 32.9836C427.367 33.318 426.73 33.2135 426.401 32.7328C424.602 30.142 422.212 28.0336 419.436 26.5882C413.539 23.5159 405.999 23.5159 400.123 26.6091C397.328 28.0721 394.986 30.1621 393.137 32.7955C392.973 33.0881 392.664 33.2344 392.336 33.2344ZM405.177 58.4607C405.042 58.4624 404.909 58.4353 404.785 58.3814C404.661 58.3274 404.549 58.2476 404.458 58.1472C402.67 56.3289 401.705 55.1585 400.328 52.6296C398.91 50.0589 398.171 46.9239 398.171 43.559C398.171 37.3517 403.389 32.2939 409.8 32.2939C416.21 32.2939 421.429 37.3517 421.429 43.559C421.429 44.1442 420.977 44.604 420.401 44.604C419.826 44.604 419.374 44.1442 419.374 43.559C419.374 38.5012 415.08 34.3839 409.8 34.3839C404.519 34.3839 400.225 38.5012 400.225 43.559C400.225 46.5686 400.883 49.3483 402.136 51.6055C403.451 54.009 404.355 55.0331 405.937 56.6633C406.327 57.0813 406.327 57.7292 405.937 58.1472C405.711 58.3562 405.444 58.4607 405.177 58.4607ZM419.908 54.5942C417.463 54.5942 415.306 53.9672 413.539 52.7341C410.478 50.6232 408.649 47.1956 408.649 43.559C408.649 42.9738 409.101 42.514 409.676 42.514C410.252 42.514 410.704 42.9738 410.704 43.559C410.704 46.5059 412.183 49.2856 414.69 50.9994C416.148 52.0026 417.854 52.4833 419.908 52.4833C420.401 52.4833 421.223 52.4206 422.045 52.2743C422.6 52.1698 423.134 52.546 423.237 53.1312C423.34 53.6955 422.97 54.2389 422.394 54.3434C421.223 54.5733 420.196 54.5942 419.908 54.5942ZM415.779 58.8996C415.696 58.8996 415.594 58.8787 415.511 58.8578C412.245 57.9382 410.108 56.7051 407.868 54.4688C406.449 53.0434 405.324 51.3443 404.558 49.4709C403.793 47.5976 403.402 45.5877 403.41 43.559C403.41 40.1732 406.245 37.4144 409.738 37.4144C413.231 37.4144 416.066 40.1732 416.066 43.559C416.066 45.7953 417.977 47.6136 420.34 47.6136C422.703 47.6136 424.613 45.7953 424.613 43.559C424.613 35.6797 417.936 29.2843 409.718 29.2843C403.882 29.2843 398.54 32.5865 396.137 37.707C395.335 39.3999 394.924 41.3854 394.924 43.559C394.924 45.1892 395.068 47.7599 396.301 51.1039C396.506 51.6473 396.239 52.2534 395.705 52.4415C395.171 52.6505 394.575 52.3579 394.39 51.8354C393.4 49.1922 392.892 46.3876 392.89 43.559C392.89 41.051 393.363 38.7729 394.287 36.7874C397.02 30.9563 403.081 27.1734 409.718 27.1734C419.066 27.1734 426.668 34.5093 426.668 43.5381C426.668 46.9239 423.833 49.6827 420.34 49.6827C416.847 49.6827 414.012 46.9239 414.012 43.5381C414.012 41.3018 412.101 39.4835 409.738 39.4835C407.375 39.4835 405.464 41.3018 405.464 43.5381C405.464 47.112 406.821 50.456 409.307 52.964C411.258 54.9286 413.128 56.0154 416.025 56.8305C416.58 56.9768 416.888 57.562 416.744 58.1054C416.642 58.5861 416.21 58.8996 415.779 58.8996Z" fill="#D1E8FF"/>
<circle cx="410" cy="38" r="38" fill="#D1E8FF"/>
<ellipse cx="410.026" cy="37.9999" rx="26.7788" ry="27.2401" fill="#DEF0FF"/>
<path d="M606.737 26.2619C606.573 26.2619 606.408 26.2201 606.264 26.1365C602.32 24.0674 598.909 23.1896 594.82 23.1896C590.752 23.1896 586.889 24.1719 583.376 26.1365C582.883 26.4082 582.267 26.2201 581.979 25.7185C581.851 25.4741 581.822 25.1883 581.899 24.9225C581.976 24.6567 582.152 24.4323 582.39 24.2973C586.211 22.1864 590.403 21.0996 594.82 21.0996C599.197 21.0996 603.018 22.0819 607.209 24.2764C607.723 24.5481 607.908 25.1751 607.641 25.6767C607.56 25.8509 607.432 25.9983 607.272 26.1018C607.112 26.2053 606.926 26.2608 606.737 26.2619ZM577.336 37.2344C577.146 37.2362 576.96 37.1846 576.798 37.0853C576.635 36.986 576.503 36.843 576.416 36.672C576.329 36.501 576.29 36.3087 576.303 36.1165C576.317 35.9244 576.383 35.7398 576.493 35.5833C578.527 32.6573 581.116 30.3583 584.198 28.749C590.649 25.3632 598.909 25.3423 605.381 28.7281C608.463 30.3374 611.052 32.6155 613.086 35.5206C613.164 35.6329 613.221 35.76 613.251 35.8945C613.281 36.0291 613.285 36.1684 613.262 36.3044C613.239 36.4404 613.19 36.5705 613.117 36.687C613.045 36.8036 612.95 36.9044 612.839 36.9836C612.367 37.318 611.73 37.2135 611.401 36.7328C609.602 34.142 607.212 32.0336 604.436 30.5882C598.539 27.5159 590.999 27.5159 585.123 30.6091C582.328 32.0721 579.986 34.1621 578.137 36.7955C577.973 37.0881 577.664 37.2344 577.336 37.2344ZM590.177 62.4607C590.042 62.4624 589.909 62.4353 589.785 62.3814C589.661 62.3274 589.549 62.2476 589.458 62.1472C587.67 60.3289 586.705 59.1585 585.328 56.6296C583.91 54.0589 583.171 50.9239 583.171 47.559C583.171 41.3517 588.389 36.2939 594.8 36.2939C601.21 36.2939 606.429 41.3517 606.429 47.559C606.429 48.1442 605.977 48.604 605.401 48.604C604.826 48.604 604.374 48.1442 604.374 47.559C604.374 42.5012 600.08 38.3839 594.8 38.3839C589.519 38.3839 585.225 42.5012 585.225 47.559C585.225 50.5686 585.883 53.3483 587.136 55.6055C588.451 58.009 589.355 59.0331 590.937 60.6633C591.327 61.0813 591.327 61.7292 590.937 62.1472C590.711 62.3562 590.444 62.4607 590.177 62.4607ZM604.908 58.5942C602.463 58.5942 600.306 57.9672 598.539 56.7341C595.478 54.6232 593.649 51.1956 593.649 47.559C593.649 46.9738 594.101 46.514 594.676 46.514C595.252 46.514 595.704 46.9738 595.704 47.559C595.704 50.5059 597.183 53.2856 599.69 54.9994C601.148 56.0026 602.854 56.4833 604.908 56.4833C605.401 56.4833 606.223 56.4206 607.045 56.2743C607.6 56.1698 608.134 56.546 608.237 57.1312C608.34 57.6955 607.97 58.2389 607.394 58.3434C606.223 58.5733 605.196 58.5942 604.908 58.5942ZM600.779 62.8996C600.696 62.8996 600.594 62.8787 600.511 62.8578C597.245 61.9382 595.108 60.7051 592.868 58.4688C591.449 57.0434 590.324 55.3443 589.558 53.4709C588.793 51.5976 588.402 49.5877 588.41 47.559C588.41 44.1732 591.245 41.4144 594.738 41.4144C598.231 41.4144 601.066 44.1732 601.066 47.559C601.066 49.7953 602.977 51.6136 605.34 51.6136C607.703 51.6136 609.613 49.7953 609.613 47.559C609.613 39.6797 602.936 33.2843 594.718 33.2843C588.882 33.2843 583.54 36.5865 581.137 41.707C580.335 43.3999 579.924 45.3854 579.924 47.559C579.924 49.1892 580.068 51.7599 581.301 55.1039C581.506 55.6473 581.239 56.2534 580.705 56.4415C580.171 56.6505 579.575 56.3579 579.39 55.8354C578.4 53.1922 577.892 50.3876 577.89 47.559C577.89 45.051 578.363 42.7729 579.287 40.7874C582.02 34.9563 588.081 31.1734 594.718 31.1734C604.066 31.1734 611.668 38.5093 611.668 47.5381C611.668 50.9239 608.833 53.6827 605.34 53.6827C601.847 53.6827 599.012 50.9239 599.012 47.5381C599.012 45.3018 597.101 43.4835 594.738 43.4835C592.375 43.4835 590.464 45.3018 590.464 47.5381C590.464 51.112 591.821 54.456 594.307 56.964C596.258 58.9286 598.128 60.0154 601.025 60.8305C601.58 60.9768 601.888 61.562 601.744 62.1054C601.642 62.5861 601.21 62.8996 600.779 62.8996Z" fill="#D1E8FF"/>
<circle cx="595" cy="42" r="38" fill="#D1E8FF"/>
<ellipse cx="595.026" cy="41.9999" rx="26.7788" ry="27.2401" fill="#DEF0FF"/>
<path fill-rule="evenodd" clip-rule="evenodd" d="M583.452 46.6705C583.136 46.9863 582.885 47.3611 582.715 47.7737C582.544 48.1863 582.456 48.6286 582.456 49.0752C582.456 49.5218 582.544 49.964 582.715 50.3766C582.885 50.7892 583.136 51.1641 583.452 51.4798L585.856 53.8836C586.171 54.1995 586.546 54.4501 586.959 54.621C587.371 54.792 587.814 54.8799 588.26 54.8799C588.707 54.8799 589.149 54.792 589.562 54.621C589.974 54.4501 590.349 54.1995 590.665 53.8836L602.514 42.0329C602.839 41.708 603.095 41.3206 603.266 40.894C603.438 40.4674 603.521 40.0105 603.51 39.5509L603.456 37.159C603.436 36.277 603.074 35.4373 602.447 34.8171C601.819 34.197 600.975 33.845 600.093 33.8355L597.756 33.8117C597.303 33.8069 596.855 33.8923 596.436 34.0631C596.017 34.2339 595.636 34.4865 595.316 34.8062L583.452 46.6705ZM601.314 40.8293L589.463 52.6817C589.305 52.8398 589.118 52.9652 588.911 53.0507C588.705 53.1363 588.484 53.1803 588.26 53.1803C588.037 53.1803 587.816 53.1363 587.609 53.0507C587.403 52.9652 587.215 52.8398 587.058 52.6817L584.654 50.2762C584.335 49.9574 584.156 49.5251 584.156 49.0743C584.156 48.6235 584.335 48.1912 584.654 47.8724L596.518 36.0098C596.678 35.85 596.869 35.7238 597.078 35.6385C597.288 35.5533 597.512 35.5108 597.739 35.5134L600.074 35.5372C600.516 35.5415 600.939 35.7174 601.253 36.0277C601.567 36.3381 601.748 36.7584 601.757 37.1998L601.81 39.5917C601.816 39.8214 601.774 40.0498 601.689 40.2631C601.604 40.4763 601.476 40.6701 601.314 40.8327V40.8293Z" fill="black"/>
<path d="M594.184 47.5818C594.269 47.6594 594.336 47.7532 594.384 47.8576C594.431 47.962 594.456 48.0749 594.459 48.1895C594.461 48.304 594.44 48.4179 594.398 48.5242C594.355 48.6306 594.291 48.7272 594.21 48.8083C594.129 48.8894 594.033 48.9532 593.927 48.9961C593.82 49.0389 593.707 49.0598 593.592 49.0575C593.477 49.0552 593.364 49.0298 593.26 48.9827C593.156 48.9357 593.062 48.868 592.984 48.7837L590.578 46.3782C590.419 46.2186 590.33 46.0022 590.33 45.7767C590.33 45.5511 590.42 45.3349 590.579 45.1755C590.739 45.0161 590.955 44.9267 591.181 44.9268C591.406 44.927 591.623 45.0167 591.782 45.1763L594.184 47.5818ZM584.059 57.1987C584.214 57.359 584.299 57.5738 584.298 57.7966C584.296 58.0195 584.206 58.2327 584.049 58.3903C583.891 58.5479 583.678 58.6373 583.455 58.6392C583.232 58.6411 583.017 58.5555 582.857 58.4006L578.558 54.1013C578.398 53.9417 578.309 53.7253 578.309 53.4998C578.309 53.2742 578.399 53.058 578.559 52.8986C578.718 52.7392 578.935 52.6498 579.16 52.6499C579.386 52.6501 579.602 52.7398 579.761 52.8994L584.059 57.1987ZM590.502 56.9981C590.581 57.0772 590.643 57.171 590.686 57.2742C590.729 57.3774 590.751 57.488 590.751 57.5997C590.751 57.7114 590.728 57.8219 590.686 57.9251C590.643 58.0283 590.58 58.122 590.501 58.2009C590.422 58.2798 590.328 58.3424 590.225 58.385C590.122 58.4277 590.011 58.4496 589.9 58.4496C589.788 58.4495 589.677 58.4274 589.574 58.3846C589.471 58.3418 589.377 58.2791 589.298 58.2L579.098 48C578.939 47.8404 578.85 47.624 578.85 47.3985C578.85 47.1729 578.94 46.9567 579.099 46.7973C579.259 46.6379 579.475 46.5485 579.701 46.5486C579.926 46.5488 580.143 46.6385 580.302 46.7981L590.502 56.9981ZM597.792 43.9744C597.946 44.1347 598.032 44.3495 598.03 44.5723C598.028 44.7952 597.939 45.0084 597.781 45.166C597.624 45.3236 597.41 45.413 597.188 45.4149C596.965 45.4168 596.75 45.3312 596.59 45.1763L594.186 42.7725C594.031 42.6122 593.945 42.3975 593.947 42.1746C593.949 41.9518 594.039 41.7386 594.196 41.581C594.354 41.4234 594.567 41.334 594.79 41.3321C595.013 41.3301 595.227 41.4158 595.388 41.5706L597.792 43.9744Z" fill="black"/>
<path d="M581.4 56.6768L580.198 55.4749L584.375 51.298L585.577 52.4999L581.4 56.6768ZM606.652 29.3017C606.73 29.2205 606.824 29.1558 606.928 29.1112C607.032 29.0667 607.143 29.0432 607.256 29.0423C607.369 29.0413 607.481 29.0628 607.585 29.1055C607.69 29.1483 607.785 29.2114 607.864 29.2912C607.944 29.371 608.007 29.4659 608.05 29.5704C608.093 29.6748 608.114 29.7868 608.113 29.8996C608.112 30.0125 608.089 30.124 608.044 30.2277C608 30.3314 607.935 30.4252 607.854 30.5036L602.754 35.6036C602.675 35.6848 602.582 35.7496 602.478 35.7941C602.374 35.8387 602.263 35.8621 602.15 35.8631C602.037 35.8641 601.925 35.8426 601.821 35.7998C601.716 35.7571 601.621 35.694 601.541 35.6142C601.462 35.5344 601.398 35.4395 601.356 35.335C601.313 35.2305 601.292 35.1186 601.292 35.0057C601.293 34.8929 601.317 34.7813 601.361 34.6776C601.406 34.5739 601.471 34.4801 601.552 34.4017L606.652 29.3017Z" fill="black"/>
<path d="M791.737 22.2619C791.573 22.2619 791.408 22.2201 791.264 22.1365C787.32 20.0674 783.909 19.1896 779.82 19.1896C775.752 19.1896 771.889 20.1719 768.376 22.1365C767.883 22.4082 767.267 22.2201 766.979 21.7185C766.851 21.4741 766.822 21.1883 766.899 20.9225C766.976 20.6567 767.152 20.4323 767.39 20.2973C771.211 18.1864 775.403 17.0996 779.82 17.0996C784.197 17.0996 788.018 18.0819 792.209 20.2764C792.723 20.5481 792.908 21.1751 792.641 21.6767C792.56 21.8509 792.432 21.9983 792.272 22.1018C792.112 22.2053 791.926 22.2608 791.737 22.2619ZM762.336 33.2344C762.146 33.2362 761.96 33.1846 761.798 33.0853C761.635 32.986 761.503 32.843 761.416 32.672C761.329 32.501 761.29 32.3087 761.303 32.1165C761.317 31.9244 761.383 31.7398 761.493 31.5833C763.527 28.6573 766.116 26.3583 769.198 24.749C775.649 21.3632 783.909 21.3423 790.381 24.7281C793.463 26.3374 796.052 28.6155 798.086 31.5206C798.164 31.6329 798.221 31.76 798.251 31.8945C798.281 32.0291 798.285 32.1684 798.262 32.3044C798.239 32.4404 798.19 32.5705 798.117 32.687C798.045 32.8036 797.95 32.9044 797.839 32.9836C797.367 33.318 796.73 33.2135 796.401 32.7328C794.602 30.142 792.212 28.0336 789.436 26.5882C783.539 23.5159 775.999 23.5159 770.123 26.6091C767.328 28.0721 764.986 30.1621 763.137 32.7955C762.973 33.0881 762.664 33.2344 762.336 33.2344ZM775.177 58.4607C775.042 58.4624 774.909 58.4353 774.785 58.3814C774.661 58.3274 774.549 58.2476 774.458 58.1472C772.67 56.3289 771.705 55.1585 770.328 52.6296C768.91 50.0589 768.171 46.9239 768.171 43.559C768.171 37.3517 773.389 32.2939 779.8 32.2939C786.21 32.2939 791.429 37.3517 791.429 43.559C791.429 44.1442 790.977 44.604 790.401 44.604C789.826 44.604 789.374 44.1442 789.374 43.559C789.374 38.5012 785.08 34.3839 779.8 34.3839C774.519 34.3839 770.225 38.5012 770.225 43.559C770.225 46.5686 770.883 49.3483 772.136 51.6055C773.451 54.009 774.355 55.0331 775.937 56.6633C776.327 57.0813 776.327 57.7292 775.937 58.1472C775.711 58.3562 775.444 58.4607 775.177 58.4607ZM789.908 54.5942C787.463 54.5942 785.306 53.9672 783.539 52.7341C780.478 50.6232 778.649 47.1956 778.649 43.559C778.649 42.9738 779.101 42.514 779.676 42.514C780.252 42.514 780.704 42.9738 780.704 43.559C780.704 46.5059 782.183 49.2856 784.69 50.9994C786.148 52.0026 787.854 52.4833 789.908 52.4833C790.401 52.4833 791.223 52.4206 792.045 52.2743C792.6 52.1698 793.134 52.546 793.237 53.1312C793.34 53.6955 792.97 54.2389 792.394 54.3434C791.223 54.5733 790.196 54.5942 789.908 54.5942ZM785.779 58.8996C785.696 58.8996 785.594 58.8787 785.511 58.8578C782.245 57.9382 780.108 56.7051 777.868 54.4688C776.449 53.0434 775.324 51.3443 774.558 49.4709C773.793 47.5976 773.402 45.5877 773.41 43.559C773.41 40.1732 776.245 37.4144 779.738 37.4144C783.231 37.4144 786.066 40.1732 786.066 43.559C786.066 45.7953 787.977 47.6136 790.34 47.6136C792.703 47.6136 794.613 45.7953 794.613 43.559C794.613 35.6797 787.936 29.2843 779.718 29.2843C773.882 29.2843 768.54 32.5865 766.137 37.707C765.335 39.3999 764.924 41.3854 764.924 43.559C764.924 45.1892 765.068 47.7599 766.301 51.1039C766.506 51.6473 766.239 52.2534 765.705 52.4415C765.171 52.6505 764.575 52.3579 764.39 51.8354C763.4 49.1922 762.892 46.3876 762.89 43.559C762.89 41.051 763.363 38.7729 764.287 36.7874C767.02 30.9563 773.081 27.1734 779.718 27.1734C789.066 27.1734 796.668 34.5093 796.668 43.5381C796.668 46.9239 793.833 49.6827 790.34 49.6827C786.847 49.6827 784.012 46.9239 784.012 43.5381C784.012 41.3018 782.101 39.4835 779.738 39.4835C777.375 39.4835 775.464 41.3018 775.464 43.5381C775.464 47.112 776.821 50.456 779.307 52.964C781.258 54.9286 783.128 56.0154 786.025 56.8305C786.58 56.9768 786.888 57.562 786.744 58.1054C786.642 58.5861 786.21 58.8996 785.779 58.8996Z" fill="#D1E8FF"/>
<circle cx="780" cy="38" r="38" fill="#D1E8FF"/>
<ellipse cx="780.026" cy="37.9999" rx="26.7788" ry="27.2401" fill="#DEF0FF"/>
<path fill-rule="evenodd" clip-rule="evenodd" d="M780 31C781.243 31 782.25 29.9927 782.25 28.75C782.25 27.5074 781.243 26.5 780 26.5C778.757 26.5 777.75 27.5074 777.75 28.75C777.75 29.9927 778.757 31 780 31ZM780 32.5C782.071 32.5 783.75 30.8211 783.75 28.75C783.75 26.6789 782.071 25 780 25C777.929 25 776.25 26.6789 776.25 28.75C776.25 30.8211 777.929 32.5 780 32.5Z" fill="black"/>
<path fill-rule="evenodd" clip-rule="evenodd" d="M775.031 35.7358C775.738 35.8705 776.25 36.4891 776.25 37.2094V52.75C776.25 53.1643 776.586 53.5 777 53.5H777.065C777.453 53.5 777.777 53.2042 777.812 52.8179L778.5 45.25C778.502 44.4232 779.173 43.7539 780 43.7539C780.827 43.7539 781.498 44.4231 781.5 45.25L782.188 52.8179C782.223 53.2042 782.547 53.5 782.935 53.5H783C783.414 53.5 783.75 53.1643 783.75 52.75V37.2377C783.75 36.5173 784.262 35.8987 784.97 35.7641C786.287 35.5137 787.679 35.1661 789.21 34.7201C789.608 34.6042 789.836 34.1879 789.72 33.7902C789.604 33.3925 789.188 33.1642 788.79 33.28C785.315 34.293 782.648 34.7617 780.003 34.7499C777.356 34.738 774.686 34.2445 771.201 33.2774C770.801 33.1666 770.388 33.4004 770.277 33.7996C770.167 34.1987 770.4 34.612 770.8 34.7227C772.324 35.1459 773.714 35.4853 775.031 35.7358ZM779.233 53.3519C778.968 54.3099 778.091 55 777.065 55H777C775.757 55 774.75 53.9927 774.75 52.75V37.2094C773.381 36.9488 771.949 36.5984 770.398 36.1681C769.201 35.8359 768.5 34.5959 768.832 33.3985C769.164 32.2011 770.404 31.4998 771.602 31.832C775.029 32.7829 777.553 33.2389 780.01 33.2499C782.459 33.2608 784.974 32.83 788.371 31.84C789.564 31.4923 790.813 32.1775 791.16 33.3705C791.508 34.5635 790.823 35.8125 789.63 36.1602C788.066 36.6157 786.626 36.9761 785.25 37.2377V52.75C785.25 53.9927 784.243 55 783 55H782.935C781.909 55 781.032 54.3099 780.767 53.3519C780.742 53.2639 780.723 53.1736 780.709 53.0813C780.703 53.0392 780.698 52.9966 780.694 52.9537L780.006 45.3859C780.002 45.3418 780 45.2978 780 45.2539C780 45.2978 779.998 45.3418 779.994 45.3859L779.306 52.9537C779.302 52.9966 779.297 53.0392 779.291 53.0813C779.277 53.1736 779.258 53.2639 779.233 53.3519Z" fill="black"/>
<path d="M959.737 22.2619C959.573 22.2619 959.408 22.2201 959.264 22.1365C955.32 20.0674 951.909 19.1896 947.82 19.1896C943.752 19.1896 939.889 20.1719 936.376 22.1365C935.883 22.4082 935.267 22.2201 934.979 21.7185C934.851 21.4741 934.822 21.1883 934.899 20.9225C934.976 20.6567 935.152 20.4323 935.39 20.2973C939.211 18.1864 943.403 17.0996 947.82 17.0996C952.197 17.0996 956.018 18.0819 960.209 20.2764C960.723 20.5481 960.908 21.1751 960.641 21.6767C960.56 21.8509 960.432 21.9983 960.272 22.1018C960.112 22.2053 959.926 22.2608 959.737 22.2619ZM930.336 33.2344C930.146 33.2362 929.96 33.1846 929.798 33.0853C929.635 32.986 929.503 32.843 929.416 32.672C929.329 32.501 929.29 32.3087 929.303 32.1165C929.317 31.9244 929.383 31.7398 929.493 31.5833C931.527 28.6573 934.116 26.3583 937.198 24.749C943.649 21.3632 951.909 21.3423 958.381 24.7281C961.463 26.3374 964.052 28.6155 966.086 31.5206C966.164 31.6329 966.221 31.76 966.251 31.8945C966.281 32.0291 966.285 32.1684 966.262 32.3044C966.239 32.4404 966.19 32.5705 966.117 32.687C966.045 32.8036 965.95 32.9044 965.839 32.9836C965.367 33.318 964.73 33.2135 964.401 32.7328C962.602 30.142 960.212 28.0336 957.436 26.5882C951.539 23.5159 943.999 23.5159 938.123 26.6091C935.328 28.0721 932.986 30.1621 931.137 32.7955C930.973 33.0881 930.664 33.2344 930.336 33.2344ZM943.177 58.4607C943.042 58.4624 942.909 58.4353 942.785 58.3814C942.661 58.3274 942.549 58.2476 942.458 58.1472C940.67 56.3289 939.705 55.1585 938.328 52.6296C936.91 50.0589 936.171 46.9239 936.171 43.559C936.171 37.3517 941.389 32.2939 947.8 32.2939C954.21 32.2939 959.429 37.3517 959.429 43.559C959.429 44.1442 958.977 44.604 958.401 44.604C957.826 44.604 957.374 44.1442 957.374 43.559C957.374 38.5012 953.08 34.3839 947.8 34.3839C942.519 34.3839 938.225 38.5012 938.225 43.559C938.225 46.5686 938.883 49.3483 940.136 51.6055C941.451 54.009 942.355 55.0331 943.937 56.6633C944.327 57.0813 944.327 57.7292 943.937 58.1472C943.711 58.3562 943.444 58.4607 943.177 58.4607ZM957.908 54.5942C955.463 54.5942 953.306 53.9672 951.539 52.7341C948.478 50.6232 946.649 47.1956 946.649 43.559C946.649 42.9738 947.101 42.514 947.676 42.514C948.252 42.514 948.704 42.9738 948.704 43.559C948.704 46.5059 950.183 49.2856 952.69 50.9994C954.148 52.0026 955.854 52.4833 957.908 52.4833C958.401 52.4833 959.223 52.4206 960.045 52.2743C960.6 52.1698 961.134 52.546 961.237 53.1312C961.34 53.6955 960.97 54.2389 960.394 54.3434C959.223 54.5733 958.196 54.5942 957.908 54.5942ZM953.779 58.8996C953.696 58.8996 953.594 58.8787 953.511 58.8578C950.245 57.9382 948.108 56.7051 945.868 54.4688C944.449 53.0434 943.324 51.3443 942.558 49.4709C941.793 47.5976 941.402 45.5877 941.41 43.559C941.41 40.1732 944.245 37.4144 947.738 37.4144C951.231 37.4144 954.066 40.1732 954.066 43.559C954.066 45.7953 955.977 47.6136 958.34 47.6136C960.703 47.6136 962.613 45.7953 962.613 43.559C962.613 35.6797 955.936 29.2843 947.718 29.2843C941.882 29.2843 936.54 32.5865 934.137 37.707C933.335 39.3999 932.924 41.3854 932.924 43.559C932.924 45.1892 933.068 47.7599 934.301 51.1039C934.506 51.6473 934.239 52.2534 933.705 52.4415C933.171 52.6505 932.575 52.3579 932.39 51.8354C931.4 49.1922 930.892 46.3876 930.89 43.559C930.89 41.051 931.363 38.7729 932.287 36.7874C935.02 30.9563 941.081 27.1734 947.718 27.1734C957.066 27.1734 964.668 34.5093 964.668 43.5381C964.668 46.9239 961.833 49.6827 958.34 49.6827C954.847 49.6827 952.012 46.9239 952.012 43.5381C952.012 41.3018 950.101 39.4835 947.738 39.4835C945.375 39.4835 943.464 41.3018 943.464 43.5381C943.464 47.112 944.821 50.456 947.307 52.964C949.258 54.9286 951.128 56.0154 954.025 56.8305C954.58 56.9768 954.888 57.562 954.744 58.1054C954.642 58.5861 954.21 58.8996 953.779 58.8996Z" fill="#D1E8FF"/>
<circle cx="948" cy="38" r="38" fill="#D1E8FF"/>
<ellipse cx="948.026" cy="37.9999" rx="26.7788" ry="27.2401" fill="#DEF0FF"/>
<path d="M947.614 32.0302C948.472 31.5808 948.75 31.0906 948.75 30.75C948.75 30.4526 948.545 30.0434 947.898 29.6334L948.702 28.3667C949.555 28.9077 950.25 29.7179 950.25 30.75C950.25 31.9283 949.352 32.8131 948.31 33.359C947.233 33.9234 945.796 34.2501 944.25 34.2501C942.704 34.2501 941.267 33.9234 940.19 33.359C939.148 32.8131 938.25 31.9283 938.25 30.75C938.25 29.7179 938.945 28.9077 939.798 28.3667L940.602 29.6334C939.955 30.0434 939.75 30.4526 939.75 30.75C939.75 31.0906 940.028 31.5808 940.886 32.0302C941.708 32.4611 942.896 32.7501 944.25 32.7501C945.604 32.7501 946.792 32.4611 947.614 32.0302Z" fill="black"/>
<path fill-rule="evenodd" clip-rule="evenodd" d="M947.246 38.4072C951.165 37.4832 954 34.7961 954 31.625C954 27.69 949.635 24.5 944.25 24.5C938.865 24.5 934.5 27.69 934.5 31.625C934.5 33.8568 935.904 35.8491 938.102 37.1555C934.747 39.1517 933.219 42.7931 934.689 45.3394C936.175 47.9134 940.162 48.3937 943.594 46.4123C946.919 44.4925 948.503 40.9659 947.246 38.4072ZM950.259 35.452C951.742 34.3686 952.5 32.9976 952.5 31.625C952.5 30.2524 951.742 28.8813 950.259 27.798C948.778 26.7154 946.658 26 944.25 26C941.842 26 939.722 26.7154 938.241 27.798C936.758 28.8813 936 30.2524 936 31.625C936 32.9976 936.758 34.3686 938.241 35.452C939.722 36.5346 941.842 37.25 944.25 37.25C946.658 37.25 948.778 36.5346 950.259 35.452ZM938.962 38.3903C939.241 38.2294 939.522 38.0887 939.803 37.9675C940.617 38.2729 941.497 38.497 942.424 38.6253L942.318 39.5597C942.802 39.6148 943.053 39.8005 943.161 39.9878C943.284 40.2002 943.312 40.5805 943.017 41.1221C942.729 41.6504 942.183 42.218 941.425 42.6558C940.666 43.0937 939.902 43.2829 939.3 43.2679C938.684 43.2525 938.369 43.0379 938.246 42.8254C938.138 42.6381 938.102 42.3281 938.297 41.8812L936.921 41.2831C936.607 42.005 936.525 42.8448 936.947 43.5754C937.43 44.4117 938.358 44.7448 939.263 44.7674C940.183 44.7903 941.217 44.5077 942.175 43.9548C943.132 43.402 943.894 42.6476 944.334 41.8395C944.767 41.0445 944.943 40.074 944.46 39.2378C944.352 39.0504 944.221 38.8881 944.073 38.7489C944.132 38.7496 944.191 38.75 944.25 38.75C944.729 38.75 945.201 38.7247 945.662 38.6758C945.718 38.7528 945.77 38.8322 945.818 38.9141C946.272 39.7006 946.318 40.7551 945.82 41.9212C945.322 43.0877 944.306 44.2692 942.844 45.1133C941.381 45.9574 939.85 46.2466 938.591 46.0949C937.332 45.9433 936.442 45.3759 935.988 44.5894C935.534 43.8031 935.487 42.7484 935.985 41.5824C936.484 40.4158 937.5 39.2344 938.962 38.3903Z" fill="black"/>
<path d="M957.448 45.7767C957.377 46.0397 957.105 46.3476 956.481 46.5316C955.871 46.7113 955.042 46.7266 954.154 46.4885C953.265 46.2505 952.555 45.8227 952.117 45.3623C951.669 44.891 951.587 44.4881 951.657 44.2252C951.719 43.9934 951.932 43.7319 952.412 43.5429L951.862 42.1472C951.103 42.4462 950.433 42.9991 950.208 43.8369C949.951 44.7956 950.383 45.7159 951.03 46.3962C951.688 47.0875 952.655 47.6398 953.765 47.9374C954.876 48.235 955.99 48.2401 956.905 47.9703C957.805 47.7047 958.64 47.1237 958.896 46.165C959.121 45.3272 958.816 44.5129 958.309 43.8746L957.135 44.8084C957.456 45.2119 957.51 45.5449 957.448 45.7767Z" fill="black"/>
<path fill-rule="evenodd" clip-rule="evenodd" d="M961.684 47.3428C960.88 50.3415 956.988 51.9039 952.989 50.8326C948.991 49.7613 946.401 46.4619 947.205 43.4632C948.008 40.4645 951.901 38.9021 955.899 39.9734C959.897 41.0447 962.487 44.3441 961.684 47.3428ZM960.235 46.9546C959.983 47.8956 959.22 48.7227 957.976 49.2219C956.732 49.7213 955.094 49.8435 953.378 49.3837C951.662 48.9239 950.304 47.9992 949.476 46.9445C948.649 45.8902 948.402 44.7925 948.654 43.8514C948.906 42.9104 949.669 42.0833 950.913 41.5841C952.157 41.0847 953.795 40.9625 955.511 41.4223C957.227 41.8821 958.584 42.8068 959.412 43.8616C960.24 44.9158 960.487 46.0135 960.235 46.9546Z" fill="black"/>
<path fill-rule="evenodd" clip-rule="evenodd" d="M956.876 38.5733C958.673 39.0545 960.421 38.3526 960.782 37.0054C961.143 35.6582 959.98 34.1759 958.184 33.6947C956.387 33.2134 954.639 33.9153 954.278 35.2625C953.917 36.6097 955.08 38.0919 956.876 38.5733ZM958.809 37.0829C959.186 36.9315 959.303 36.7325 959.333 36.6172C959.364 36.5019 959.363 36.2713 959.112 35.9515C958.861 35.6313 958.41 35.3084 957.795 35.1436C957.18 34.9788 956.629 35.0333 956.251 35.1849C955.874 35.3363 955.757 35.5354 955.726 35.6507C955.696 35.766 955.697 35.9966 955.948 36.3164C956.199 36.6366 956.65 36.9596 957.265 37.1243C957.879 37.2891 958.431 37.2346 958.809 37.0829Z" fill="black"/>
<path d="M1127.74 22.2619C1127.57 22.2619 1127.41 22.2201 1127.26 22.1365C1123.32 20.0674 1119.91 19.1896 1115.82 19.1896C1111.75 19.1896 1107.89 20.1719 1104.38 22.1365C1103.88 22.4082 1103.27 22.2201 1102.98 21.7185C1102.85 21.4741 1102.82 21.1883 1102.9 20.9225C1102.98 20.6567 1103.15 20.4323 1103.39 20.2973C1107.21 18.1864 1111.4 17.0996 1115.82 17.0996C1120.2 17.0996 1124.02 18.0819 1128.21 20.2764C1128.72 20.5481 1128.91 21.1751 1128.64 21.6767C1128.56 21.8509 1128.43 21.9983 1128.27 22.1018C1128.11 22.2053 1127.93 22.2608 1127.74 22.2619ZM1098.34 33.2344C1098.15 33.2362 1097.96 33.1846 1097.8 33.0853C1097.64 32.986 1097.5 32.843 1097.42 32.672C1097.33 32.501 1097.29 32.3087 1097.3 32.1165C1097.32 31.9244 1097.38 31.7398 1097.49 31.5833C1099.53 28.6573 1102.12 26.3583 1105.2 24.749C1111.65 21.3632 1119.91 21.3423 1126.38 24.7281C1129.46 26.3374 1132.05 28.6155 1134.09 31.5206C1134.16 31.6329 1134.22 31.76 1134.25 31.8945C1134.28 32.0291 1134.29 32.1684 1134.26 32.3044C1134.24 32.4404 1134.19 32.5705 1134.12 32.687C1134.04 32.8036 1133.95 32.9044 1133.84 32.9836C1133.37 33.318 1132.73 33.2135 1132.4 32.7328C1130.6 30.142 1128.21 28.0336 1125.44 26.5882C1119.54 23.5159 1112 23.5159 1106.12 26.6091C1103.33 28.0721 1100.99 30.1621 1099.14 32.7955C1098.97 33.0881 1098.66 33.2344 1098.34 33.2344ZM1111.18 58.4607C1111.04 58.4624 1110.91 58.4353 1110.78 58.3814C1110.66 58.3274 1110.55 58.2476 1110.46 58.1472C1108.67 56.3289 1107.7 55.1585 1106.33 52.6296C1104.91 50.0589 1104.17 46.9239 1104.17 43.559C1104.17 37.3517 1109.39 32.2939 1115.8 32.2939C1122.21 32.2939 1127.43 37.3517 1127.43 43.559C1127.43 44.1442 1126.98 44.604 1126.4 44.604C1125.83 44.604 1125.37 44.1442 1125.37 43.559C1125.37 38.5012 1121.08 34.3839 1115.8 34.3839C1110.52 34.3839 1106.23 38.5012 1106.23 43.559C1106.23 46.5686 1106.88 49.3483 1108.14 51.6055C1109.45 54.009 1110.36 55.0331 1111.94 56.6633C1112.33 57.0813 1112.33 57.7292 1111.94 58.1472C1111.71 58.3562 1111.44 58.4607 1111.18 58.4607ZM1125.91 54.5942C1123.46 54.5942 1121.31 53.9672 1119.54 52.7341C1116.48 50.6232 1114.65 47.1956 1114.65 43.559C1114.65 42.9738 1115.1 42.514 1115.68 42.514C1116.25 42.514 1116.7 42.9738 1116.7 43.559C1116.7 46.5059 1118.18 49.2856 1120.69 50.9994C1122.15 52.0026 1123.85 52.4833 1125.91 52.4833C1126.4 52.4833 1127.22 52.4206 1128.05 52.2743C1128.6 52.1698 1129.13 52.546 1129.24 53.1312C1129.34 53.6955 1128.97 54.2389 1128.39 54.3434C1127.22 54.5733 1126.2 54.5942 1125.91 54.5942ZM1121.78 58.8996C1121.7 58.8996 1121.59 58.8787 1121.51 58.8578C1118.24 57.9382 1116.11 56.7051 1113.87 54.4688C1112.45 53.0434 1111.32 51.3443 1110.56 49.4709C1109.79 47.5976 1109.4 45.5877 1109.41 43.559C1109.41 40.1732 1112.25 37.4144 1115.74 37.4144C1119.23 37.4144 1122.07 40.1732 1122.07 43.559C1122.07 45.7953 1123.98 47.6136 1126.34 47.6136C1128.7 47.6136 1130.61 45.7953 1130.61 43.559C1130.61 35.6797 1123.94 29.2843 1115.72 29.2843C1109.88 29.2843 1104.54 32.5865 1102.14 37.707C1101.34 39.3999 1100.92 41.3854 1100.92 43.559C1100.92 45.1892 1101.07 47.7599 1102.3 51.1039C1102.51 51.6473 1102.24 52.2534 1101.71 52.4415C1101.17 52.6505 1100.58 52.3579 1100.39 51.8354C1099.4 49.1922 1098.89 46.3876 1098.89 43.559C1098.89 41.051 1099.36 38.7729 1100.29 36.7874C1103.02 30.9563 1109.08 27.1734 1115.72 27.1734C1125.07 27.1734 1132.67 34.5093 1132.67 43.5381C1132.67 46.9239 1129.83 49.6827 1126.34 49.6827C1122.85 49.6827 1120.01 46.9239 1120.01 43.5381C1120.01 41.3018 1118.1 39.4835 1115.74 39.4835C1113.38 39.4835 1111.46 41.3018 1111.46 43.5381C1111.46 47.112 1112.82 50.456 1115.31 52.964C1117.26 54.9286 1119.13 56.0154 1122.03 56.8305C1122.58 56.9768 1122.89 57.562 1122.74 58.1054C1122.64 58.5861 1122.21 58.8996 1121.78 58.8996Z" fill="#D1E8FF"/>
<circle cx="1116" cy="38" r="38" fill="#D1E8FF"/>
<ellipse cx="1116.03" cy="37.9999" rx="26.7788" ry="27.2401" fill="#DEF0FF"/>
<path d="M49.7369 22.2619C49.5726 22.2619 49.4082 22.2201 49.2644 22.1365C45.3195 20.0674 41.9089 19.1896 37.8202 19.1896C33.7521 19.1896 29.8895 20.1719 26.3761 22.1365C25.883 22.4082 25.2666 22.2201 24.979 21.7185C24.8508 21.4741 24.8221 21.1883 24.8989 20.9225C24.9758 20.6567 25.1521 20.4323 25.3899 20.2973C29.2115 18.1864 33.4029 17.0996 37.8202 17.0996C42.1965 17.0996 46.0181 18.0819 50.2095 20.2764C50.7231 20.5481 50.9081 21.1751 50.641 21.6767C50.5597 21.8509 50.4318 21.9983 50.2718 22.1018C50.1119 22.2053 49.9265 22.2608 49.7369 22.2619ZM20.3356 33.2344C20.1462 33.2362 19.96 33.1846 19.7977 33.0853C19.6354 32.986 19.5033 32.843 19.416 32.672C19.3288 32.501 19.2898 32.3087 19.3034 32.1165C19.3171 31.9244 19.3827 31.7398 19.4932 31.5833C21.5273 28.6573 24.1161 26.3583 27.198 24.749C33.6494 21.3632 41.9089 21.3423 48.3809 24.7281C51.4628 26.3374 54.0516 28.6155 56.0857 31.5206C56.1645 31.6329 56.2207 31.76 56.2509 31.8945C56.2812 32.0291 56.285 32.1684 56.2621 32.3044C56.2392 32.4404 56.19 32.5705 56.1174 32.687C56.0448 32.8036 55.9502 32.9044 55.8391 32.9836C55.3665 33.318 54.7296 33.2135 54.4009 32.7328C52.6016 30.142 50.2116 28.0336 47.4358 26.5882C41.5391 23.5159 33.9987 23.5159 28.1225 26.6091C25.3283 28.0721 22.986 30.1621 21.1369 32.7955C20.9725 33.0881 20.6643 33.2344 20.3356 33.2344ZM33.1768 58.4607C33.0421 58.4624 32.9085 58.4353 32.7847 58.3814C32.6608 58.3274 32.5495 58.2476 32.4577 58.1472C30.6702 56.3289 29.7046 55.1585 28.328 52.6296C26.9103 50.0589 26.1707 46.9239 26.1707 43.559C26.1707 37.3517 31.3893 32.2939 37.7997 32.2939C44.2101 32.2939 49.4287 37.3517 49.4287 43.559C49.4287 44.1442 48.9767 44.604 48.4014 44.604C47.8262 44.604 47.3741 44.1442 47.3741 43.559C47.3741 38.5012 43.08 34.3839 37.7997 34.3839C32.5194 34.3839 28.2253 38.5012 28.2253 43.559C28.2253 46.5686 28.8827 49.3483 30.136 51.6055C31.451 54.009 32.355 55.0331 33.937 56.6633C34.3274 57.0813 34.3274 57.7292 33.937 58.1472C33.711 58.3562 33.4439 58.4607 33.1768 58.4607ZM47.9083 54.5942C45.4634 54.5942 43.306 53.9672 41.5391 52.7341C38.4777 50.6232 36.6491 47.1956 36.6491 43.559C36.6491 42.9738 37.1011 42.514 37.6764 42.514C38.2517 42.514 38.7037 42.9738 38.7037 43.559C38.7037 46.5059 40.183 49.2856 42.6896 50.9994C44.1484 52.0026 45.8537 52.4833 47.9083 52.4833C48.4014 52.4833 49.2233 52.4206 50.0451 52.2743C50.5999 52.1698 51.1341 52.546 51.2368 53.1312C51.3395 53.6955 50.9697 54.2389 50.3944 54.3434C49.2233 54.5733 48.196 54.5942 47.9083 54.5942ZM43.7786 58.8996C43.6964 58.8996 43.5937 58.8787 43.5115 58.8578C40.2447 57.9382 38.1079 56.7051 35.8684 54.4688C34.4492 53.0434 33.3239 51.3443 32.5583 49.4709C31.7928 47.5976 31.4023 45.5877 31.4099 43.559C31.4099 40.1732 34.2452 37.4144 37.7381 37.4144C41.2309 37.4144 44.0662 40.1732 44.0662 43.559C44.0662 45.7953 45.977 47.6136 48.3398 47.6136C50.7026 47.6136 52.6134 45.7953 52.6134 43.559C52.6134 35.6797 45.9359 29.2843 37.7175 29.2843C31.8824 29.2843 26.5405 32.5865 24.1366 37.707C23.3353 39.3999 22.9244 41.3854 22.9244 43.559C22.9244 45.1892 23.0682 47.7599 24.301 51.1039C24.5064 51.6473 24.2393 52.2534 23.7051 52.4415C23.1709 52.6505 22.5751 52.3579 22.3902 51.8354C21.4002 49.1922 20.8919 46.3876 20.8903 43.559C20.8903 41.051 21.3629 38.7729 22.2875 36.7874C25.0201 30.9563 31.0812 27.1734 37.7175 27.1734C47.066 27.1734 54.668 34.5093 54.668 43.5381C54.668 46.9239 51.8326 49.6827 48.3398 49.6827C44.847 49.6827 42.0116 46.9239 42.0116 43.5381C42.0116 41.3018 40.1009 39.4835 37.7381 39.4835C35.3753 39.4835 33.4645 41.3018 33.4645 43.5381C33.4645 47.112 34.8205 50.456 37.3066 52.964C39.2585 54.9286 41.1282 56.0154 44.0251 56.8305C44.5799 56.9768 44.8881 57.562 44.7442 58.1054C44.6415 58.5861 44.2101 58.8996 43.7786 58.8996Z" fill="#D1E8FF"/>
<circle cx="38" cy="38" r="38" fill="#D1E8FF"/>
<ellipse cx="38.0258" cy="37.9999" rx="26.7788" ry="27.2401" fill="#DEF0FF"/>
<path d="M40.7273 32.5964C43.3103 32.5964 45.4042 30.4482 45.4042 27.7982C45.4042 25.1482 43.3103 23 40.7273 23C38.1444 23 36.0505 25.1482 36.0505 27.7982C36.0505 30.4482 38.1444 32.5964 40.7273 32.5964Z" stroke="black" stroke-width="1.2" stroke-miterlimit="10" stroke-linecap="round" stroke-linejoin="round"/>
<path d="M47.3993 47.5632L43.9239 50.1604L42.3792 51.3049L41.2851 52.1192C39.5474 53.4178 37.1661 53.2638 35.6 51.7671L29.7647 46.1765C27.5121 44.0195 27.4049 40.3879 29.5073 38.0988C30.6014 36.9103 32.0602 36.316 33.5405 36.316C34.463 36.316 35.3855 36.5581 36.2007 37.0204C37.445 35.9199 39.0111 35.2375 40.7059 35.2375C44.7391 35.2375 48 38.9132 48 43.4693V47.0789L43.9024 50.1383L42.3578 51.2829C42.036 51.503 41.6927 51.613 41.328 51.613C40.9204 51.613 40.4914 51.4589 40.1696 51.1728C39.3972 50.4905 39.3543 49.28 40.0837 48.5316L43.8595 44.6578C43.881 44.6358 43.881 44.5918 43.8595 44.5698L37.445 37.9888C37.0588 37.5926 36.6512 37.2845 36.2007 37.0204" stroke="black" stroke-width="1.2" stroke-miterlimit="10" stroke-linecap="round" stroke-linejoin="round"/>
<path d="M33.4547 42.0828C35.0068 42.0828 36.265 40.7919 36.265 39.1995C36.265 37.6071 35.0068 36.3162 33.4547 36.3162C31.9025 36.3162 30.6443 37.6071 30.6443 39.1995C30.6443 40.7919 31.9025 42.0828 33.4547 42.0828Z" stroke="black" stroke-width="1.2" stroke-miterlimit="10" stroke-linecap="round" stroke-linejoin="round"/>
<path d="M409.625 39.875L410.75 36.125L411.875 39.875L410.75 41.375L409.625 39.875Z" fill="black"/>
<path fill-rule="evenodd" clip-rule="evenodd" d="M421.631 34.1396C422.712 33.8151 423.5 32.812 423.5 31.625V27.125C423.5 25.6753 422.325 24.5 420.875 24.5C419.425 24.5 418.25 25.6753 418.25 27.125V31.625C418.25 32.8161 419.043 33.822 420.13 34.1429C420.137 34.9865 420.148 35.7924 420.158 36.5622V36.563C420.194 39.3012 420.225 41.5834 420.025 43.4807C419.743 46.1665 419.02 47.8051 417.413 48.7523C415.254 50.025 411.985 50.4657 409.234 50.1194C407.864 49.9469 406.693 49.5872 405.888 49.0951C405.562 48.8962 405.314 48.6882 405.134 48.4737C406.501 48.3967 407.837 48.1492 408.923 47.7072C410.256 47.1648 411.464 46.2081 411.499 44.697C414.044 44.3334 416 42.1451 416 39.5C416 36.8551 414.044 34.6671 411.5 34.3032V29.8416H411.498C411.499 29.8111 411.5 29.7806 411.5 29.75C411.5 27.679 408.142 26 404 26C399.858 26 396.5 27.679 396.5 29.75C396.5 29.7806 396.501 29.8111 396.502 29.8416H396.5V44.6297C396.5 46.1185 397.749 47.0701 399.072 47.6187C400.303 48.1289 401.859 48.4133 403.423 48.4831C403.713 49.2805 404.345 49.9099 405.105 50.3749C406.155 51.0162 407.554 51.4197 409.047 51.6076C412.021 51.9822 415.65 51.5328 418.175 50.0445C420.399 48.7338 421.217 46.4904 421.517 43.6376C421.726 41.6476 421.694 39.226 421.657 36.4353C421.647 35.6956 421.637 34.93 421.631 34.1396ZM420.875 26C421.496 26 422 26.5037 422 27.125V31.625C422 32.2463 421.496 32.75 420.875 32.75C420.254 32.75 419.75 32.2463 419.75 31.625V27.125C419.75 26.5037 420.254 26 420.875 26ZM410 29.75C410 29.9113 409.83 30.4612 408.632 31.06C407.524 31.6141 405.889 32 404 32C402.111 32 400.476 31.6141 399.368 31.06C398.17 30.4612 398 29.9113 398 29.75C398 29.5887 398.17 29.0388 399.368 28.44C400.476 27.8859 402.111 27.5 404 27.5C405.889 27.5 407.524 27.8859 408.632 28.44C409.83 29.0388 410 29.5887 410 29.75ZM410 32.0004C408.632 32.911 406.453 33.5 404 33.5C403.77 33.5 403.543 33.4948 403.318 33.4847V46.976C403.547 46.9887 403.777 46.9965 404.009 46.9991C405.634 47.0176 407.214 46.7833 408.358 46.3179C409.493 45.8558 409.965 45.2803 409.998 44.6965C407.455 44.3318 405.5 42.1442 405.5 39.5C405.5 36.8551 407.456 34.6671 410 34.3032V32.0004ZM414.5 39.5C414.5 41.5711 412.821 43.25 410.75 43.25C408.679 43.25 407 41.5711 407 39.5C407 37.429 408.679 35.75 410.75 35.75C412.821 35.75 414.5 37.429 414.5 39.5Z" fill="black"/>
<path d="M1103 40.301L1106.64 38.9263C1108.77 38.1185 1111.15 38.2036 1113.22 39.1814L1119.05 41.9166C1119.75 42.2425 1120.05 43.0787 1119.73 43.7731C1119.43 44.425 1118.69 44.7509 1118 44.5242L1112.8 42.9228" stroke="black" stroke-width="1.2" stroke-miterlimit="10" stroke-linecap="round" stroke-linejoin="round"/>
<path d="M1103 47.6281L1105.21 46.1117C1106.62 45.148 1108.4 44.9496 1109.97 45.559L1115.69 47.7556C1116.86 48.2091 1118.19 48.0249 1119.18 47.2596L1128.08 40.4713C1128.79 39.9328 1128.92 38.9266 1128.38 38.218C1127.86 37.5519 1126.92 37.396 1126.22 37.8495L1119.42 42.1861" stroke="black" stroke-width="1.2" stroke-miterlimit="10" stroke-linecap="round" stroke-linejoin="round"/>
<path d="M1116.76 35.3835H1112.6C1110.55 35.3835 1108.87 33.7254 1108.89 31.6847C1108.89 29.6439 1110.56 28 1112.62 28H1116.78L1116.76 35.3835Z" stroke="black" stroke-width="1.2" stroke-miterlimit="10" stroke-linecap="round" stroke-linejoin="round"/>
<path d="M1120.91 35.3979H1116.76L1116.78 28.0144H1120.92C1122.98 28.0144 1124.64 29.6725 1124.64 31.7132C1124.64 32.7336 1124.22 33.6548 1123.55 34.3209C1122.86 34.9869 1121.93 35.3979 1120.91 35.3979Z" stroke="black" stroke-width="1.2" stroke-miterlimit="10" stroke-linecap="round" stroke-linejoin="round"/>
<path d="M1115.82 29.7005C1116.01 29.7005 1116.16 29.5482 1116.16 29.3604C1116.16 29.1725 1116.01 29.0203 1115.82 29.0203C1115.63 29.0203 1115.48 29.1725 1115.48 29.3604C1115.48 29.5482 1115.63 29.7005 1115.82 29.7005Z" fill="black"/>
<path d="M1115.82 32.0106C1116.01 32.0106 1116.16 31.8583 1116.16 31.6705C1116.16 31.4826 1116.01 31.3303 1115.82 31.3303C1115.63 31.3303 1115.48 31.4826 1115.48 31.6705C1115.48 31.8583 1115.63 32.0106 1115.82 32.0106Z" fill="black"/>
<path d="M1115.8 34.3348C1115.99 34.3348 1116.15 34.1825 1116.15 33.9947C1116.15 33.8068 1115.99 33.6545 1115.8 33.6545C1115.61 33.6545 1115.46 33.8068 1115.46 33.9947C1115.46 34.1825 1115.61 34.3348 1115.8 34.3348Z" fill="black"/>
<path d="M1113.63 29.7005C1113.82 29.7005 1113.97 29.5482 1113.97 29.3604C1113.97 29.1725 1113.82 29.0203 1113.63 29.0203C1113.44 29.0203 1113.29 29.1725 1113.29 29.3604C1113.29 29.5482 1113.44 29.7005 1113.63 29.7005Z" fill="black"/>
<path d="M1113.63 32.0106C1113.82 32.0106 1113.97 31.8583 1113.97 31.6705C1113.97 31.4826 1113.82 31.3303 1113.63 31.3303C1113.44 31.3303 1113.29 31.4826 1113.29 31.6705C1113.29 31.8583 1113.44 32.0106 1113.63 32.0106Z" fill="black"/>
<path d="M1113.63 34.3348C1113.82 34.3348 1113.97 34.1825 1113.97 33.9947C1113.97 33.8068 1113.82 33.6545 1113.63 33.6545C1113.44 33.6545 1113.29 33.8068 1113.29 33.9947C1113.29 34.1825 1113.44 34.3348 1113.63 34.3348Z" fill="black"/>
<path d="M1111.45 29.7005C1111.63 29.7005 1111.79 29.5482 1111.79 29.3604C1111.79 29.1725 1111.63 29.0203 1111.45 29.0203C1111.26 29.0203 1111.1 29.1725 1111.1 29.3604C1111.1 29.5482 1111.26 29.7005 1111.45 29.7005Z" fill="black"/>
<path d="M1111.45 32.0106C1111.63 32.0106 1111.79 31.8583 1111.79 31.6705C1111.79 31.4826 1111.63 31.3303 1111.45 31.3303C1111.26 31.3303 1111.1 31.4826 1111.1 31.6705C1111.1 31.8583 1111.26 32.0106 1111.45 32.0106Z" fill="black"/>
<path d="M1111.45 34.3206C1111.63 34.3206 1111.79 34.1683 1111.79 33.9805C1111.79 33.7926 1111.63 33.6404 1111.45 33.6404C1111.26 33.6404 1111.1 33.7926 1111.1 33.9805C1111.1 34.1683 1111.26 34.3206 1111.45 34.3206Z" fill="black"/>
<path d="M1114.72 30.8343C1114.91 30.8343 1115.06 30.682 1115.06 30.4942C1115.06 30.3063 1114.91 30.1541 1114.72 30.1541C1114.53 30.1541 1114.37 30.3063 1114.37 30.4942C1114.37 30.682 1114.53 30.8343 1114.72 30.8343Z" fill="black"/>
<path d="M1114.72 33.1444C1114.91 33.1444 1115.06 32.9921 1115.06 32.8042C1115.06 32.6164 1114.91 32.4641 1114.72 32.4641C1114.53 32.4641 1114.37 32.6164 1114.37 32.8042C1114.37 32.9921 1114.53 33.1444 1114.72 33.1444Z" fill="black"/>
<path d="M1112.53 30.8343C1112.72 30.8343 1112.87 30.682 1112.87 30.4942C1112.87 30.3063 1112.72 30.1541 1112.53 30.1541C1112.34 30.1541 1112.19 30.3063 1112.19 30.4942C1112.19 30.682 1112.34 30.8343 1112.53 30.8343Z" fill="black"/>
<path d="M1112.53 33.1444C1112.72 33.1444 1112.87 32.9921 1112.87 32.8042C1112.87 32.6164 1112.72 32.4641 1112.53 32.4641C1112.34 32.4641 1112.19 32.6164 1112.19 32.8042C1112.19 32.9921 1112.34 33.1444 1112.53 33.1444Z" fill="black"/>
<path d="M1110.32 30.8343C1110.51 30.8343 1110.66 30.682 1110.66 30.4942C1110.66 30.3063 1110.51 30.1541 1110.32 30.1541C1110.13 30.1541 1109.97 30.3063 1109.97 30.4942C1109.97 30.682 1110.13 30.8343 1110.32 30.8343Z" fill="black"/>
<path d="M1110.3 33.1444C1110.49 33.1444 1110.64 32.9921 1110.64 32.8042C1110.64 32.6164 1110.49 32.4641 1110.3 32.4641C1110.11 32.4641 1109.96 32.6164 1109.96 32.8042C1109.96 32.9921 1110.11 33.1444 1110.3 33.1444Z" fill="black"/>
</svg>
