<svg version="1.1" xmlns="http://www.w3.org/2000/svg" width="238px" height="230px">
<path d="M0 0 C23.09735957 18.08980194 39.84273602 43.77764876 44.11328125 73.10351562 C45.90428203 89.50149475 45.45689118 106.20182955 40.42675781 121.97363281 C40.21245117 122.658125 39.99814453 123.34261719 39.77734375 124.04785156 C30.97804047 151.35515081 11.82133096 175.11762181 -13.54199219 188.71972656 C-41.71968515 203.07286219 -75.1930759 207.19562674 -105.57177734 197.32421875 C-135.59635815 187.03905943 -159.52771887 166.36922965 -173.75292969 137.97363281 C-180.96349604 122.7113948 -183.97176334 107.23623937 -183.94824219 90.41113281 C-183.94769836 89.75233124 -183.94715454 89.09352966 -183.94659424 88.4147644 C-183.90512371 77.4587487 -183.02190601 67.38304797 -179.57324219 56.97363281 C-179.36425293 56.33506348 -179.15526367 55.69649414 -178.93994141 55.03857422 C-173.51527988 39.05715566 -164.97663289 25.31200137 -153.57324219 12.97363281 C-152.868125 12.17570312 -152.16300781 11.37777344 -151.43652344 10.55566406 C-113.28793945 -30.4994787 -43.73889225 -33.03112725 0 0 Z " fill="#a1ec8a" transform="translate(188.5732421875,23.0263671875)" data-originalfillcolor="#D5E9FC"></path>
<path d="M0 0 C2.53786081 0.37257957 3.70952365 0.66378566 5.4140625 2.63671875 C6.01347656 3.65185547 6.01347656 3.65185547 6.625 4.6875 C7.23214844 5.68330078 7.23214844 5.68330078 7.8515625 6.69921875 C11.91979479 14.84952086 12.47957689 24.16558599 10.2421875 32.98828125 C8.4124851 37.73542251 6.01253524 41.91155931 3 46 C1.68 45.67 0.36 45.34 -1 45 C0.00528369 42.98492462 1.01422008 40.97204278 2.03515625 38.96484375 C2.37417969 38.29582031 2.71320313 37.62679687 3.0625 36.9375 C3.40410156 36.26589844 3.74570313 35.59429687 4.09765625 34.90234375 C7.37011345 28.00326732 6.98151047 19.20389792 4.75 12 C3.40004528 8.45636887 1.40904984 5.9252748 -1 3 C-0.67 2.01 -0.34 1.02 0 0 Z " fill="#0c5d04" transform="translate(142,90)" data-originalfillcolor="#0E43AA"></path>
<path d="M0 0 C1.32 0.33 2.64 0.66 4 1 C2.99025308 3.09027049 1.94724687 5.08392543 0.7109375 7.05078125 C-3.65964648 14.45010325 -4.28686156 21.55223532 -3 30 C-1.68272934 33.38997897 -0.17615175 36.39269047 1.6875 39.51171875 C3 42 3 42 3 46 C1.234375 45.87890625 1.234375 45.87890625 -1 45 C-7.88359702 35.69595118 -9.5322023 26.25625783 -8 15 C-7.07538158 11.6685859 -5.83524891 8.92027783 -4 6 C-3.6184375 5.38253906 -3.236875 4.76507813 -2.84375 4.12890625 C-1.936297 2.725595 -0.97462795 1.35751751 0 0 Z " fill="#0c5d04" transform="translate(93,90)" data-originalfillcolor="#0E43AA"></path>
<path d="M0 0 C0.99 0.33 1.98 0.66 3 1 C2.50104589 3.59456139 1.83146611 5.27639559 0.4375 7.5625 C-1.83082332 12.98675141 -2.20763295 18.81101255 -0.09765625 24.3828125 C0.59918248 25.72689289 1.3364212 27.05135696 2.125 28.34375 C3 30 3 30 3 33 C1.68 33 0.36 33 -1 33 C-6.35591061 25.76952068 -7.31352341 18.84846387 -6 10 C-4.58202743 6.30116053 -2.82802153 2.82802153 0 0 Z " fill="#0c5d04" transform="translate(101,96)" data-originalfillcolor="#1045AB"></path>
<path d="M0 0 C1.32 0 2.64 0 4 0 C8.67453344 6.31062014 9.76172541 11.79797251 9.5078125 19.6015625 C8.78004078 24.47203478 6.90770141 28.07460309 4 32 C2.68 32 1.36 32 0 32 C0.53299379 29.33503105 1.31081914 27.39079449 2.5625 24.9375 C4.66245003 20.10345662 4.72247697 15.17141409 4 10 C2.9101681 7.39572638 1.57833459 5.36750189 0 3 C0 2.01 0 1.02 0 0 Z " fill="#0c5d04" transform="translate(134,97)" data-originalfillcolor="#0D43AA"></path>
<path d="M0 0 C0.99 0 1.98 0 3 0 C6.42044553 3.80049503 6.49498427 7.73444334 6.37109375 12.6171875 C5.85523255 15.92955944 4.41155493 17.73916725 2 20 C1.01 19.67 0.02 19.34 -1 19 C-0.67 18.34 -0.34 17.68 0 17 C1.61278002 12.16165994 1.61278002 7.83834006 0 3 C-0.33 2.34 -0.66 1.68 -1 1 C-0.67 0.67 -0.34 0.34 0 0 Z " fill="#0c5d04" transform="translate(127,103)" data-originalfillcolor="#0F44AB"></path>
<path d="M0 0 C0.99 0.33 1.98 0.66 3 1 C2.67 1.680625 2.34 2.36125 2 3.0625 C0.06096953 8.75840201 0.84833189 13.48635046 3 19 C1.68 19.33 0.36 19.66 -1 20 C-4.04551552 15.05103728 -4.994841 10.69677371 -4 5 C-2 1.9375 -2 1.9375 0 0 Z " fill="#0c5d04" transform="translate(109,103)" data-originalfillcolor="#0F45AB"></path>
</svg>