<svg width="255" height="250" viewBox="0 0 255 250" fill="none" xmlns="http://www.w3.org/2000/svg">
<path d="M166.427 73.2312C165.877 73.2312 165.327 73.0937 164.846 72.8187C151.646 66.0125 140.234 63.125 126.552 63.125C112.94 63.125 100.015 66.3562 88.2586 72.8187C86.6086 73.7125 84.5461 73.0938 83.5836 71.4438C83.1548 70.6397 83.0587 69.6995 83.3158 68.8253C83.5729 67.9511 84.1628 67.2126 84.9586 66.7688C97.7461 59.825 111.771 56.25 126.552 56.25C141.196 56.25 153.984 59.4813 168.009 66.7C169.727 67.5938 170.346 69.6562 169.452 71.3063C169.181 71.8794 168.752 72.3641 168.217 72.7046C167.682 73.0452 167.062 73.2277 166.427 73.2312ZM68.0461 109.325C67.4124 109.331 66.7894 109.161 66.2463 108.835C65.7031 108.508 65.2611 108.037 64.9692 107.475C64.6772 106.912 64.5468 106.28 64.5924 105.648C64.638 105.016 64.8577 104.409 65.2274 103.894C72.0336 94.2688 80.6961 86.7062 91.0086 81.4125C112.596 70.275 140.234 70.2063 161.89 81.3438C172.202 86.6375 180.865 94.1312 187.671 103.687C187.935 104.057 188.123 104.475 188.224 104.918C188.326 105.36 188.338 105.818 188.262 106.266C188.185 106.713 188.02 107.141 187.777 107.524C187.534 107.908 187.218 108.239 186.846 108.5C185.265 109.6 183.134 109.256 182.034 107.675C176.013 99.1526 168.016 92.217 158.727 87.4625C138.996 77.3562 113.765 77.3563 94.1023 87.5313C84.7523 92.3438 76.9149 99.2188 70.7274 107.881C70.1774 108.844 69.1461 109.325 68.0461 109.325ZM111.015 192.306C110.564 192.312 110.117 192.223 109.703 192.045C109.288 191.868 108.916 191.605 108.609 191.275C102.627 185.294 99.3961 181.444 94.7898 173.125C90.0461 164.669 87.5711 154.356 87.5711 143.287C87.5711 122.869 105.034 106.231 126.484 106.231C147.934 106.231 165.396 122.869 165.396 143.287C165.396 145.213 163.884 146.725 161.959 146.725C160.034 146.725 158.521 145.213 158.521 143.287C158.521 126.65 144.152 113.106 126.484 113.106C108.815 113.106 94.4461 126.65 94.4461 143.287C94.4461 153.188 96.6461 162.331 100.84 169.756C105.24 177.662 108.265 181.031 113.559 186.394C114.865 187.769 114.865 189.9 113.559 191.275C112.802 191.962 111.909 192.306 111.015 192.306ZM160.309 179.588C152.127 179.588 144.909 177.525 138.996 173.469C128.752 166.525 122.634 155.25 122.634 143.287C122.634 141.362 124.146 139.85 126.071 139.85C127.996 139.85 129.509 141.362 129.509 143.287C129.509 152.981 134.459 162.125 142.846 167.762C147.727 171.062 153.434 172.644 160.309 172.644C161.959 172.644 164.709 172.438 167.459 171.956C169.315 171.613 171.102 172.85 171.446 174.775C171.79 176.631 170.552 178.419 168.627 178.762C164.709 179.519 161.271 179.588 160.309 179.588ZM146.49 193.75C146.215 193.75 145.871 193.681 145.596 193.613C134.665 190.587 127.515 186.531 120.021 179.175C115.272 174.486 111.507 168.897 108.945 162.735C106.384 156.572 105.077 149.961 105.102 143.287C105.102 132.15 114.59 123.075 126.277 123.075C137.965 123.075 147.452 132.15 147.452 143.287C147.452 150.644 153.846 156.625 161.752 156.625C169.659 156.625 176.052 150.644 176.052 143.287C176.052 117.369 153.709 96.3312 126.209 96.3312C106.684 96.3312 88.8086 107.194 80.7649 124.037C78.0836 129.606 76.7086 136.137 76.7086 143.287C76.7086 148.65 77.1899 157.106 81.3148 168.106C82.0023 169.894 81.1086 171.887 79.3211 172.506C77.5336 173.194 75.5399 172.231 74.9211 170.513C71.6083 161.818 69.9076 152.592 69.9024 143.287C69.9024 135.037 71.4836 127.544 74.5774 121.012C83.7211 101.831 104.002 89.3875 126.209 89.3875C157.49 89.3875 182.927 113.519 182.927 143.219C182.927 154.356 173.44 163.431 161.752 163.431C150.065 163.431 140.577 154.356 140.577 143.219C140.577 135.862 134.184 129.881 126.277 129.881C118.371 129.881 111.977 135.862 111.977 143.219C111.977 154.975 116.515 165.975 124.834 174.225C131.365 180.688 137.621 184.262 147.315 186.944C149.171 187.425 150.202 189.35 149.721 191.138C149.377 192.719 147.934 193.75 146.49 193.75Z" fill="#D1E8FF"/>
<ellipse cx="127.154" cy="125" rx="127.154" ry="125" fill="#D1E8FF"/>
<circle cx="127.24" cy="125" r="89.6057" fill="#DEF0FF"/>
<path d="M158.734 83.4615C158.298 83.4615 157.862 83.3525 157.481 83.1345C147.017 77.739 137.97 75.45 127.124 75.45C116.333 75.45 106.087 78.0115 96.7679 83.1345C95.4599 83.843 93.8249 83.3525 93.0619 82.0445C92.722 81.4071 92.6458 80.6618 92.8496 79.9688C93.0534 79.2757 93.521 78.6904 94.1519 78.3385C104.289 72.834 115.407 70 127.124 70C138.733 70 148.87 72.5615 159.988 78.284C161.35 78.9925 161.841 80.6275 161.132 81.9355C160.917 82.3898 160.578 82.7741 160.153 83.044C159.729 83.314 159.237 83.4587 158.734 83.4615ZM80.7449 112.074C80.2425 112.079 79.7487 111.944 79.3181 111.685C78.8876 111.426 78.5371 111.053 78.3057 110.607C78.0743 110.161 77.9709 109.66 78.007 109.159C78.0432 108.658 78.2174 108.177 78.5104 107.769C83.9059 100.139 90.7729 94.1435 98.9479 89.947C116.061 81.118 137.97 81.0635 155.137 89.8925C163.312 94.089 170.179 100.029 175.575 107.605C175.784 107.898 175.933 108.229 176.013 108.58C176.094 108.931 176.104 109.294 176.043 109.649C175.982 110.003 175.852 110.343 175.659 110.647C175.466 110.951 175.216 111.213 174.921 111.42C173.667 112.292 171.978 112.019 171.106 110.766C166.333 104.01 159.994 98.512 152.63 94.743C136.989 86.7315 116.987 86.7315 101.4 94.7975C93.9884 98.6125 87.7754 104.062 82.8704 110.93C82.4344 111.693 81.6169 112.074 80.7449 112.074ZM114.807 177.855C114.45 177.86 114.096 177.789 113.767 177.649C113.439 177.508 113.143 177.3 112.9 177.038C108.158 172.296 105.597 169.244 101.945 162.65C98.1849 155.946 96.2229 147.771 96.2229 138.997C96.2229 122.811 110.066 109.622 127.07 109.622C144.074 109.622 157.917 122.811 157.917 138.997C157.917 140.523 156.718 141.722 155.192 141.722C153.666 141.722 152.467 140.523 152.467 138.997C152.467 125.808 141.076 115.071 127.07 115.071C113.063 115.071 101.673 125.808 101.673 138.997C101.673 146.845 103.417 154.093 106.741 159.979C110.229 166.247 112.627 168.918 116.824 173.169C117.859 174.258 117.859 175.948 116.824 177.038C116.224 177.583 115.516 177.855 114.807 177.855ZM153.884 167.773C147.398 167.773 141.676 166.138 136.989 162.922C128.868 157.418 124.018 148.48 124.018 138.997C124.018 137.471 125.217 136.272 126.743 136.272C128.269 136.272 129.468 137.471 129.468 138.997C129.468 146.681 133.392 153.93 140.041 158.399C143.91 161.015 148.434 162.269 153.884 162.269C155.192 162.269 157.372 162.105 159.552 161.723C161.023 161.451 162.44 162.432 162.713 163.958C162.985 165.429 162.004 166.846 160.478 167.119C157.372 167.718 154.647 167.773 153.884 167.773ZM142.929 179C142.711 179 142.439 178.945 142.221 178.891C133.555 176.493 127.887 173.277 121.947 167.446C118.182 163.729 115.197 159.298 113.167 154.413C111.136 149.528 110.1 144.287 110.12 138.997C110.12 130.168 117.641 122.974 126.906 122.974C136.171 122.974 143.692 130.168 143.692 138.997C143.692 144.828 148.761 149.57 155.028 149.57C161.296 149.57 166.364 144.828 166.364 138.997C166.364 118.451 148.652 101.774 126.852 101.774C111.374 101.774 97.2039 110.384 90.8274 123.737C88.7019 128.151 87.6119 133.329 87.6119 138.997C87.6119 143.248 87.9934 149.951 91.2634 158.672C91.8084 160.089 91.0999 161.669 89.6829 162.159C88.2659 162.704 86.6854 161.941 86.1949 160.579C83.5688 153.686 82.2206 146.373 82.2164 138.997C82.2164 132.457 83.4699 126.516 85.9224 121.339C93.1709 106.133 109.248 96.269 126.852 96.269C151.649 96.269 171.814 115.398 171.814 138.942C171.814 147.771 164.293 154.965 155.028 154.965C145.763 154.965 138.242 147.771 138.242 138.942C138.242 133.111 133.174 128.369 126.906 128.369C120.639 128.369 115.57 133.111 115.57 138.942C115.57 148.262 119.167 156.982 125.762 163.522C130.939 168.645 135.899 171.479 143.583 173.604C145.055 173.986 145.872 175.512 145.491 176.929C145.218 178.183 144.074 179 142.929 179Z" fill="#0038A5"/>
</svg>
