<svg width="693" height="547" viewBox="0 0 693 547" fill="none" xmlns="http://www.w3.org/2000/svg">
<path d="M380.744 428.867C536.302 428.867 662.407 350.691 662.407 254.256C662.407 157.821 536.302 79.645 380.744 79.645C225.185 79.645 99.0803 157.821 99.0803 254.256C99.0803 350.691 225.185 428.867 380.744 428.867Z" fill="#5981FC"/>
<g opacity="0.8">
<path d="M380.743 428.867C536.302 428.867 662.406 350.691 662.406 254.256C662.406 157.821 536.302 79.645 380.743 79.645C225.185 79.645 99.0798 157.821 99.0798 254.256C99.0798 350.691 225.185 428.867 380.743 428.867Z" fill="white"/>
</g>
<path d="M380.743 429.275C305.437 429.275 234.629 411.088 181.367 378.07C128.049 345.011 98.6799 301.042 98.6799 254.264C98.6799 207.485 128.049 163.508 181.367 130.458C234.629 97.439 305.437 79.2527 380.743 79.2527C456.05 79.2527 526.858 97.439 580.12 130.458C633.438 163.516 662.807 207.485 662.807 254.264C662.807 301.042 633.438 345.019 580.12 378.07C526.858 411.088 456.05 429.275 380.743 429.275ZM380.743 80.0531C305.581 80.0531 234.925 98.1914 181.791 131.138C128.713 164.045 99.4804 207.773 99.4804 254.264C99.4804 300.754 128.713 344.491 181.791 377.389C234.925 410.328 305.581 428.474 380.743 428.474C455.906 428.474 526.562 410.336 579.696 377.389C632.774 344.483 662.007 300.754 662.007 254.264C662.007 207.773 632.774 164.037 579.696 131.138C526.562 98.1994 455.906 80.0531 380.743 80.0531Z" fill="#002346"/>
<path d="M601.95 212.944C616.167 198.727 616.167 175.677 601.95 161.46C587.734 147.243 564.683 147.243 550.467 161.46C536.25 175.677 536.25 198.727 550.467 212.944C564.683 227.161 587.734 227.161 601.95 212.944Z" fill="#E6E7E8"/>
<path d="M576.279 224.022C573.373 224.022 570.444 223.678 567.554 222.974C557.997 220.661 549.92 214.769 544.797 206.372C539.674 197.976 538.129 188.098 540.443 178.541C542.756 168.983 548.655 160.907 557.044 155.784C574.366 145.21 597.059 150.709 607.633 168.031C612.756 176.42 614.3 186.305 611.987 195.863C609.674 205.42 603.775 213.496 595.386 218.619C589.535 222.189 582.963 224.022 576.279 224.022ZM576.151 151.205C569.763 151.205 563.296 152.902 557.46 156.464C549.248 161.475 543.484 169.384 541.219 178.725C538.954 188.066 540.467 197.744 545.478 205.948C550.488 214.161 558.397 219.924 567.738 222.189C577.087 224.455 586.757 222.942 594.962 217.931C603.166 212.92 608.937 205.02 611.203 195.67C613.468 186.321 611.955 176.652 606.944 168.447C600.165 157.337 588.294 151.205 576.151 151.205Z" fill="#002346"/>
<path d="M600.346 211.342C613.665 198.022 613.665 176.426 600.346 163.107C587.026 149.787 565.43 149.787 552.111 163.107C538.791 176.426 538.791 198.022 552.111 211.342C565.43 224.661 587.026 224.661 600.346 211.342Z" fill="white"/>
<path d="M576.223 221.718C567.386 221.718 558.549 218.356 551.825 211.624C545.101 204.892 541.715 196.439 541.715 187.226C541.715 178.013 545.301 169.344 551.825 162.828C558.34 156.313 567.009 152.719 576.223 152.719C585.436 152.719 594.105 156.305 600.62 162.828C607.136 169.344 610.73 178.013 610.73 187.226C610.73 196.439 607.144 205.108 600.62 211.624C594.097 218.14 585.06 221.718 576.223 221.718ZM576.223 153.519C567.217 153.519 558.757 157.025 552.385 163.389C546.022 169.752 542.516 178.221 542.516 187.226C542.516 196.231 546.022 204.692 552.385 211.064C565.529 224.207 586.909 224.207 600.052 211.064C606.416 204.7 609.922 196.231 609.922 187.226C609.922 178.221 606.416 169.76 600.052 163.389C593.688 157.025 585.22 153.519 576.215 153.519H576.223Z" fill="#002346"/>
<path d="M576.205 163.652C575.981 163.652 575.805 163.476 575.805 163.252V155.624C575.805 155.4 575.981 155.224 576.205 155.224C576.429 155.224 576.605 155.4 576.605 155.624V163.252C576.605 163.476 576.429 163.652 576.205 163.652Z" fill="#002346"/>
<path d="M589.638 165.03C589.574 165.03 589.51 165.014 589.454 164.982C589.262 164.878 589.182 164.637 589.286 164.445L591.575 160.075C591.679 159.883 591.919 159.803 592.119 159.907C592.311 160.011 592.391 160.251 592.287 160.443L589.998 164.813C589.926 164.95 589.79 165.03 589.646 165.03H589.638Z" fill="#002346"/>
<path d="M599.091 174.539C598.955 174.539 598.827 174.475 598.747 174.347C598.635 174.154 598.691 173.914 598.883 173.794L603.093 171.225C603.285 171.113 603.525 171.169 603.646 171.361C603.766 171.553 603.702 171.793 603.509 171.913L599.299 174.483C599.235 174.523 599.163 174.539 599.091 174.539Z" fill="#002346"/>
<path d="M80.3158 206.445C80.3158 206.445 95.5244 201.994 103.281 212.048C103.281 212.048 89.2168 208.294 83.8298 213.217C83.8298 213.217 83.8298 231.491 95.0761 241.337C95.0761 241.337 112.886 241.801 119.89 248.597C119.89 248.597 103.217 242.521 99.0784 250.998L108.26 265.406C108.26 265.406 115.72 260.003 120.611 260.772L112.006 269.841C112.006 269.841 125.838 282.184 138.469 274.643C138.469 274.643 156.751 262.06 140.526 233.42C138.349 234.052 136.403 235.301 134.923 237.022C134.923 237.022 135.267 229.986 142.815 222.094L132.521 201.714C132.521 201.714 123.94 203.059 119.482 210.607C119.482 210.607 116.912 201.002 127.206 193.277C127.206 193.277 118.97 173.898 105.762 166.35C105.762 166.35 88.0962 155.2 83.4615 149.028C83.4615 149.028 77.9784 169.264 75.7452 172.698C75.7452 172.698 82.6051 174.243 85.8629 178.701C85.8629 178.701 79.003 177.845 75.7452 178.869C75.8332 178.909 70.9345 186.121 80.3158 206.445Z" fill="#7CD295"/>
<path d="M129.656 277.453C120.082 277.453 111.846 270.233 111.741 270.137C111.661 270.065 111.613 269.961 111.605 269.857C111.605 269.753 111.637 269.641 111.717 269.569L119.754 261.1C119.706 261.1 119.658 261.1 119.61 261.1C114.959 261.1 108.572 265.686 108.5 265.734C108.412 265.798 108.3 265.822 108.187 265.806C108.075 265.782 107.987 265.718 107.923 265.63L98.7421 251.222C98.6701 251.102 98.6621 250.958 98.7181 250.83C102.136 243.834 113.39 246.243 118.025 247.588C110.421 242.209 95.2281 241.745 95.06 241.745C94.964 241.745 94.8759 241.705 94.8039 241.649C83.5495 231.795 83.4214 213.409 83.4214 213.225C83.4214 213.113 83.4695 213.009 83.5495 212.929C88.1681 208.71 98.6381 210.591 102.192 211.384C94.4917 202.859 80.5638 206.797 80.4197 206.837C80.2276 206.893 80.0275 206.805 79.9475 206.621C71.7749 188.915 74.3523 180.862 75.3289 178.821H75.3449C75.3689 178.669 75.4729 178.541 75.625 178.501C78.2185 177.685 82.9172 178.013 84.9423 178.213C81.6364 174.491 75.7211 173.114 75.657 173.098C75.529 173.066 75.4249 172.978 75.3769 172.858C75.3289 172.738 75.3369 172.602 75.4089 172.49C77.5861 169.144 83.0212 149.132 83.0773 148.932C83.1173 148.788 83.2373 148.676 83.3894 148.644C83.5415 148.62 83.6936 148.676 83.7816 148.796C88.3202 154.84 105.802 165.91 105.978 166.022C119.138 173.538 127.494 192.933 127.574 193.133C127.646 193.301 127.59 193.502 127.446 193.614C119.41 199.649 119.402 206.917 119.706 209.527C124.333 202.683 132.377 201.346 132.465 201.338C132.641 201.314 132.809 201.402 132.881 201.554L143.175 221.934C143.255 222.086 143.223 222.27 143.111 222.39C137.572 228.177 135.963 233.54 135.507 235.861C136.892 234.557 138.573 233.596 140.422 233.06C140.598 233.012 140.79 233.084 140.878 233.244C157.095 261.868 138.885 274.868 138.701 274.996C135.691 276.789 132.609 277.477 129.656 277.477V277.453ZM112.59 269.809C114.711 271.546 127.07 280.983 138.268 274.299C138.429 274.187 155.91 261.668 140.342 233.9C138.357 234.533 136.596 235.701 135.235 237.286C135.123 237.414 134.939 237.454 134.787 237.398C134.626 237.334 134.53 237.174 134.538 237.006C134.554 236.718 134.971 229.85 142.343 222.03L132.313 202.17C130.808 202.483 123.692 204.292 119.842 210.815C119.762 210.951 119.61 211.031 119.442 211.007C119.282 210.983 119.154 210.871 119.106 210.711C119.082 210.615 116.624 200.914 126.726 193.149C125.645 190.732 117.649 173.594 105.578 166.694C104.866 166.246 88.8885 156.128 83.6536 149.893C82.661 153.503 78.4987 168.431 76.3695 172.442C78.0664 172.906 83.3814 174.611 86.199 178.469C86.2951 178.597 86.3031 178.773 86.223 178.909C86.143 179.045 85.9909 179.117 85.8308 179.101C85.7668 179.101 79.2591 178.301 76.0573 179.205C75.1047 181.231 72.7594 188.931 80.5558 205.981C82.8611 205.404 96.4288 202.499 103.617 211.816C103.721 211.952 103.729 212.136 103.633 212.28C103.537 212.424 103.361 212.488 103.201 212.448C103.065 212.408 89.5209 208.87 84.2539 213.409C84.2939 215.306 84.9663 231.835 95.2521 240.952C97.0932 241.016 113.414 241.745 120.186 248.325C120.322 248.453 120.346 248.661 120.25 248.821C120.146 248.981 119.946 249.045 119.778 248.981C119.618 248.917 103.665 243.218 99.5666 250.982L108.404 264.846C109.956 263.773 116.256 259.691 120.707 260.387C120.851 260.411 120.979 260.515 121.027 260.651C121.075 260.796 121.043 260.948 120.939 261.052L112.622 269.817L112.59 269.809Z" fill="#002346"/>
<path d="M331.009 390.557L318.474 381.512L310.566 368.24C310.566 368.24 315.753 367.976 316.017 367.976C316.281 367.976 328.024 371.578 328.232 372.283C328.44 372.987 331.594 386.699 331.009 390.557Z" fill="#F2F9FF"/>
<path d="M331.314 391.27L318.138 381.72L309.894 367.88L310.558 367.848C311.086 367.824 315.761 367.584 316.025 367.584C316.137 367.584 328.312 371.114 328.624 372.179C328.824 372.851 332.01 386.659 331.41 390.629L331.314 391.278V391.27ZM318.787 381.24L330.681 389.829C330.865 385.45 328.176 373.636 327.872 372.475C326.911 371.707 316.593 368.489 315.969 368.377C315.849 368.377 313.279 368.505 311.254 368.609L318.779 381.24H318.787Z" fill="#002346"/>
<path d="M229.13 384.553H264.742V392.558H236.95C232.628 392.558 229.122 389.052 229.122 384.73V384.553H229.13Z" fill="#5981FC"/>
<path d="M265.142 392.958H236.95C232.411 392.958 228.721 389.268 228.721 384.73V384.153H265.142V392.958ZM229.522 384.954C229.642 388.948 232.924 392.158 236.95 392.158H264.341V384.954H229.522Z" fill="#002346"/>
<path d="M282.503 376.813C301.29 368.056 312.416 371.346 312.416 371.346L314.818 371.514C316.907 374.42 322.518 379.071 322.518 379.071C325.416 381.392 327.889 384.21 329.818 387.379C330.971 389.212 331.651 391.294 331.795 393.455L332.291 400.851V426.577C324.991 425.777 312.392 423.84 312.392 423.84L309.471 401.067C309.367 400.275 308.926 399.57 308.262 399.13L302.275 395.192C302.275 397.425 300.562 401.884 300.562 401.884L294.558 420.918C285.977 420.238 273.97 416.116 273.97 416.116L276.556 397.937C267.119 395.536 251.278 386.003 251.374 385.987C262.124 384.37 272.594 381.28 282.503 376.813Z" fill="#F2B3C1"/>
<path d="M332.693 427.018L332.252 426.97C325.024 426.177 312.465 424.248 312.337 424.232L312.041 424.184L309.079 401.115C308.991 400.443 308.615 399.834 308.047 399.458L302.628 395.896C302.364 398.265 300.995 401.86 300.931 402.028L294.839 421.335L294.527 421.311C285.994 420.63 273.963 416.532 273.843 416.484L273.539 416.38L276.125 398.225C271.242 396.913 264.83 393.823 260.26 391.438C257.538 390.013 255.241 388.716 253.792 387.884C251.914 386.8 250.977 386.16 250.982 385.963L250.998 385.634L251.319 385.586C262.029 383.969 272.467 380.896 282.344 376.445C300.659 367.912 311.609 370.698 312.489 370.946L315.035 371.122L315.139 371.274C317.172 374.108 322.711 378.71 322.767 378.758C325.705 381.112 328.194 383.945 330.155 387.163C331.34 389.036 332.036 391.205 332.188 393.415L332.685 400.811V427.002L332.693 427.018ZM312.753 423.496C314.65 423.784 325.272 425.393 331.908 426.137V400.851L331.412 393.479C331.276 391.39 330.612 389.356 329.491 387.587C327.57 384.442 325.144 381.68 322.279 379.375C322.047 379.183 316.78 374.804 314.618 371.891L312.313 371.722C312.201 371.69 301.083 368.593 282.68 377.166C273.059 381.504 262.909 384.546 252.487 386.211C255.921 388.276 268.632 395.512 276.669 397.553L277.013 397.641L274.428 415.843C276.333 416.476 286.651 419.822 294.303 420.494L300.21 401.755C300.234 401.691 301.907 397.313 301.907 395.184V394.455L308.503 398.794C309.263 399.298 309.768 400.107 309.888 401.011L312.769 423.488L312.753 423.496Z" fill="#002346"/>
<path d="M322.374 293.686C322.374 293.686 319.372 339.408 323.975 358.371C323.975 358.371 311.728 339.712 308.03 301.338C308.006 301.338 309.335 297.024 322.374 293.686Z" fill="#F2B3C1"/>
<path d="M324.895 360.484L323.647 358.579C323.527 358.395 311.304 339.4 307.638 301.37C307.558 300.73 309.903 296.464 322.278 293.302L322.806 293.166L322.774 293.71C322.742 294.166 319.829 339.592 324.367 358.275L324.903 360.484H324.895ZM308.43 301.378C311.384 331.924 319.869 350.078 323.062 356.001C319.5 337.215 321.646 299.201 321.942 294.198C310.487 297.224 308.614 300.914 308.422 301.378H308.43Z" fill="#002346"/>
<path d="M311.808 266.935C311.808 266.935 326.432 276.476 322.358 293.678C322.358 293.678 309.655 296.88 308.006 301.33C308.006 301.33 305.332 278.509 311.808 266.935Z" fill="#5981FC"/>
<path d="M307.807 303.035L307.615 301.379C307.502 300.442 304.997 278.293 311.465 266.743L311.673 266.367L312.033 266.599C312.185 266.695 326.841 276.492 322.751 293.766L322.695 293.998L322.463 294.054C322.335 294.086 309.944 297.256 308.391 301.459L307.815 303.019L307.807 303.035ZM311.945 267.527C306.71 277.413 307.855 295.231 308.287 300.058C311.145 296.36 320.374 293.79 322.031 293.358C325.465 278.277 314.13 269.128 311.953 267.527H311.945Z" fill="#002346"/>
<path d="M261.053 252.47H259.612L252.616 289.852L251.135 296.743C251.135 296.743 278.519 323.775 279.111 323.775C279.703 323.775 308.576 306.813 308.576 306.813C308.576 306.813 304.766 278.981 311.81 266.935C311.81 266.935 302.676 261.62 296.841 259.883L276.301 251.566L261.053 252.47Z" fill="#5981FC"/>
<path d="M279.111 324.175C278.903 324.175 278.359 324.175 250.855 297.032L250.695 296.88L252.224 289.772L259.276 252.078H261.037L276.366 251.166L276.446 251.198L296.985 259.514C302.765 261.235 311.914 266.542 312.002 266.59L312.346 266.791L312.146 267.135C305.254 278.925 308.928 306.477 308.96 306.757L308.992 307.021L308.76 307.157C295.544 314.922 279.671 324.175 279.095 324.175H279.111ZM251.576 296.607C261.949 306.845 277.43 321.99 279.159 323.327C280.992 322.47 297.201 313.025 308.152 306.597C307.759 303.579 304.782 278.765 311.273 267.079C309.56 266.102 301.82 261.78 296.737 260.259L276.246 251.966L261.061 252.863H259.956L253.024 289.916L251.592 296.607H251.576Z" fill="#002346"/>
<path d="M322.638 235.862C319.916 233.653 315.362 229.874 315.194 227.753L314.89 230.955C316.378 233.5 320.445 237.807 322.398 239.64C323.631 240.769 324.471 242.257 324.799 243.89C325.4 247.028 323.711 248.157 323.711 248.157C323.711 248.109 323.711 248.053 323.711 248.005C323.599 246.268 322.798 244.651 321.485 243.506C318.396 240.753 315.602 236.526 314.281 234.365C313.649 237.038 312.72 239.632 311.52 242.097C305.997 251.823 298.576 252.991 298.576 252.991C297.56 254.264 296.959 255.809 296.847 257.434C296.847 257.434 320.061 263.325 323.35 251.19C325.456 249.525 326.696 246.996 326.72 244.307C326.72 241.017 325.223 237.903 322.638 235.862Z" fill="#002346"/>
<path d="M308.645 259.291C302.706 259.291 297.215 257.938 296.759 257.818L296.438 257.738L296.462 257.402C296.583 255.689 297.207 254.08 298.28 252.735L298.376 252.615L298.528 252.591C298.6 252.583 305.836 251.318 311.183 241.897C312.351 239.48 313.272 236.91 313.904 234.269L314.128 233.324L314.633 234.149C315.721 235.934 318.595 240.376 321.765 243.202C322.949 244.234 323.75 245.667 324.03 247.212C324.382 246.636 324.734 245.611 324.422 243.962C324.11 242.401 323.318 241.009 322.141 239.928C320.244 238.151 316.082 233.748 314.561 231.147L314.497 231.035L314.817 227.705H315.617C315.777 229.746 320.956 233.957 322.909 235.542C325.607 237.671 327.144 240.865 327.144 244.298C327.12 247.076 325.871 249.661 323.726 251.414C321.925 257.73 315.033 259.291 308.661 259.291H308.645ZM297.287 257.122C300.113 257.77 320.036 261.924 322.973 251.086L323.006 250.958L323.11 250.878C325.135 249.277 326.303 246.884 326.327 244.306C326.327 241.121 324.895 238.159 322.397 236.182C319.459 233.789 316.674 231.371 315.449 229.434L315.313 230.875C316.842 233.42 320.852 237.639 322.685 239.36C323.982 240.544 324.855 242.089 325.207 243.826C325.847 247.188 324.022 248.453 323.95 248.501L323.27 248.957L323.326 248.141C323.326 248.141 323.326 248.077 323.326 248.045C323.222 246.428 322.461 244.883 321.237 243.818C318.443 241.329 315.938 237.735 314.457 235.389C313.824 237.759 312.968 240.08 311.895 242.289C306.708 251.422 299.96 253.143 298.816 253.376C297.975 254.472 297.447 255.769 297.295 257.146L297.287 257.122Z" fill="#002346"/>
<path d="M336.845 427.057C336.845 427.057 345.162 371.282 395.054 382.48C400.93 383.801 406.205 388.627 410.063 393.254C413.353 397.216 417.267 402.211 419.404 405.837L434.365 426.033C434.365 426.033 366.83 431.676 336.845 427.057Z" fill="#F2F9FF"/>
<path d="M369.785 429.259C357.314 429.259 345.451 428.786 336.79 427.45L336.398 427.385L336.454 426.993C336.494 426.729 340.632 400.266 359.267 387.491C369.08 380.759 381.151 378.942 395.143 382.088C401.386 383.489 406.87 388.796 410.368 392.998C413.401 396.656 417.492 401.819 419.749 405.637L435.118 426.377L434.405 426.433C433.925 426.473 400.058 429.267 369.785 429.267V429.259ZM337.31 426.721C365.438 430.915 426.313 426.273 433.613 425.689L419.084 406.069C416.835 402.259 412.777 397.136 409.759 393.502C406.333 389.396 400.994 384.217 394.967 382.864C381.199 379.775 369.344 381.552 359.723 388.147C342.609 399.874 337.903 423.383 337.31 426.721Z" fill="#002346"/>
<path d="M455.874 331.707C455.874 331.707 455.874 331.707 455.874 331.715L452.056 336.23C440.681 351.287 423.512 343.786 423.455 343.762L351.167 326.553C351.167 326.553 351.143 326.537 351.151 326.521C361.564 309.167 353.48 297.552 352.92 296.784C352.912 296.768 352.92 296.752 352.944 296.76L361.036 298.561L425.208 312.865C426.625 313.185 428.114 312.777 429.163 311.768L464.839 277.741C464.839 277.741 464.871 277.741 464.871 277.749L466.928 285.257L467.889 288.763C467.889 288.763 467.889 288.771 467.889 288.779C455.754 311.016 455.882 331.459 455.89 331.707H455.874Z" fill="#5981FC"/>
<path d="M433.517 346.068C428.002 346.068 423.783 344.339 423.327 344.147L350.862 326.897L350.702 326.497L350.814 326.313C361.14 309.103 352.951 297.512 352.599 297.024L352.439 296.8L352.735 296.32L353.031 296.368L425.304 312.481C426.593 312.777 427.938 312.401 428.898 311.488L464.743 277.301L465.207 277.429L465.279 277.669L468.329 288.819L468.257 288.971C456.274 310.928 456.29 330.875 456.298 331.716V331.884L456.178 332.004L452.376 336.494C446.588 344.155 439.344 346.068 433.533 346.068H433.517ZM423.495 343.362L423.615 343.394C423.783 343.466 440.649 350.662 451.735 335.99L455.481 331.563C455.481 329.53 455.858 310.063 467.456 288.723L464.647 278.469L429.435 312.056C428.282 313.161 426.673 313.609 425.112 313.257L353.744 297.352C355.497 300.322 360.572 311.208 351.743 326.289L423.487 343.37L423.495 343.362Z" fill="#002346"/>
<path d="M467.881 288.771C467.881 288.771 453.144 315.466 456.322 337.975L458.059 360.796L404.541 386.867C404.541 386.867 415.979 400.13 419.405 405.854C419.405 405.854 403.852 416.828 399.738 423.464C399.738 423.464 490.533 416.139 505.166 467.368C505.166 467.368 531.701 422.543 549.079 411.113C549.079 411.113 560.061 404.709 557.315 372.691L552.28 308.294C552.28 308.294 551.136 286.466 531.701 272.058L519.694 263.069L467.881 288.771Z" fill="#5981FC"/>
<path d="M505.037 468.377L504.781 467.481C497.281 441.218 469.169 430.756 446.908 426.601C422.711 422.087 400.002 423.848 399.77 423.864L398.977 423.928L399.394 423.256C403.236 417.06 416.603 407.359 418.869 405.75C415.282 399.962 404.348 387.267 404.236 387.131L403.9 386.739L457.642 360.556L455.93 338.007C452.776 315.651 467.392 288.852 467.536 288.579L467.6 288.467L467.712 288.411L519.75 262.597L531.957 271.73C551.319 286.082 552.688 308.046 552.696 308.263L557.731 372.651C560.469 404.549 549.751 411.185 549.294 411.449C532.213 422.687 505.79 467.112 505.526 467.561L505.053 468.361L505.037 468.377ZM411.304 422.719C420.269 422.719 433.421 423.28 447.044 425.817C478.846 431.748 498.962 445.764 505.293 466.384C508.936 460.349 532.877 421.294 548.862 410.776C548.99 410.704 559.604 404.029 556.923 372.723L551.888 308.327C551.872 308.102 550.519 286.506 531.468 272.378L519.654 263.533L468.176 289.068C467.16 290.949 453.704 316.515 456.722 337.911L458.483 361.028L458.235 361.148L405.181 386.995C407.102 389.244 416.675 400.515 419.749 405.646L419.941 405.966L419.637 406.182C419.485 406.286 405.117 416.468 400.522 423.007C402.115 422.911 405.973 422.711 411.304 422.711V422.719Z" fill="#002346"/>
<path d="M476.293 258.666C479.191 263.013 480.912 268.031 481.288 273.242C481.288 273.242 497.833 261.812 504.005 258.666C504.005 258.666 498.89 244.786 501.011 238.959L476.293 258.666Z" fill="#F2B3C1"/>
<path d="M480.952 273.955L480.904 273.267C480.535 268.136 478.83 263.157 475.973 258.882L475.773 258.578L476.053 258.354L501.867 237.774L501.387 239.087C499.338 244.714 504.333 258.386 504.381 258.522L504.501 258.85L504.189 259.01C498.113 262.108 481.68 273.443 481.52 273.563L480.952 273.955ZM476.829 258.746C479.519 262.877 481.168 267.623 481.632 272.53C484.522 270.545 497.849 261.444 503.524 258.474C502.796 256.433 499.194 245.859 500.323 240.016L476.821 258.754L476.829 258.746Z" fill="#002346"/>
<path d="M463.037 326.544C463.037 326.544 501.651 273.234 519.733 263.045C517.508 261.075 515.659 258.714 514.266 256.089C514.266 256.089 511.368 247.572 502.259 253.047C502.491 253.935 502.772 254.896 503.06 255.84C503.348 256.785 503.684 257.762 504.012 258.658C501.075 260.259 498.065 262.036 494.951 263.925C490.036 266.895 484.353 270.537 481.295 273.234C481.295 273.234 473.027 277.957 469.881 299.081C469.745 300.001 469.585 300.906 469.369 301.81C468.128 307.069 463.677 325.816 463.037 326.544Z" fill="#F2F9FF"/>
<path d="M463.342 326.809L462.717 326.312C462.717 326.312 462.725 326.296 462.733 326.288C463.19 325.528 465.583 316.131 468.985 301.723C469.177 300.914 469.337 300.058 469.489 299.025C472.555 278.445 480.375 273.323 481.064 272.914C483.609 270.673 488.22 267.535 494.751 263.589C498.297 261.436 501.019 259.851 503.524 258.482C503.204 257.586 502.916 256.737 502.684 255.969C502.356 254.88 502.092 253.968 501.875 253.159L501.803 252.871L502.06 252.719C505.117 250.878 507.839 250.382 510.152 251.222C513.41 252.415 514.603 255.833 514.651 255.977C515.995 258.514 517.804 260.819 520.006 262.765L520.43 263.133L519.942 263.405C502.14 273.435 463.758 326.256 463.374 326.793C463.374 326.793 463.358 326.817 463.35 326.825L463.342 326.809ZM502.724 253.239C502.916 253.96 503.156 254.776 503.444 255.721C503.7 256.569 504.021 257.514 504.389 258.522L504.509 258.842L504.205 259.01C501.627 260.419 498.834 262.036 495.16 264.269C488.644 268.208 484.065 271.321 481.56 273.539L481.496 273.587C481.416 273.635 473.347 278.517 470.282 299.145C470.121 300.202 469.961 301.082 469.761 301.907C467.112 313.153 465.255 320.637 464.214 324.271C471.442 314.482 502.98 272.514 519.061 262.973C516.98 261.044 515.243 258.794 513.914 256.273C513.882 256.185 512.762 253.007 509.864 251.95C507.855 251.214 505.453 251.646 502.724 253.231V253.239Z" fill="#002346"/>
<path d="M470.257 296.744C470.257 296.744 475.524 276.853 480.767 281.536C484.088 285.402 486.45 289.996 487.65 294.951L486.138 296.776C486.138 296.776 481.007 286.658 476.356 290.477L470.257 296.744Z" fill="#F2F9FF"/>
<path d="M469.481 298.121L469.874 296.648C470.034 296.048 473.828 281.904 478.374 280.543C479.303 280.263 480.2 280.503 481.04 281.247C484.426 285.178 486.835 289.876 488.044 294.863L488.092 295.055L486.059 297.504L485.787 296.96C485.755 296.896 482.625 290.797 479.215 290.084C478.278 289.884 477.43 290.116 476.613 290.789L469.481 298.121ZM478.591 289.22C478.847 289.22 479.111 289.252 479.375 289.308C482.561 289.972 485.33 294.495 486.211 296.072L487.219 294.863C486.019 290.068 483.689 285.554 480.472 281.808C479.887 281.287 479.263 281.111 478.607 281.311C475.557 282.224 472.459 290.693 471.074 295.343L476.069 290.204C476.87 289.548 477.71 289.22 478.591 289.22Z" fill="#002346"/>
<path d="M463.495 275.388C463.495 275.388 471.668 272.658 473.901 283.808C475.566 279.79 478.095 276.18 481.305 273.234C481.105 269.56 480.177 265.958 478.56 262.652C478.56 262.652 465.888 268.616 463.495 275.388Z" fill="#F2F9FF"/>
<path d="M473.773 285.177L473.517 283.889C472.772 280.182 471.299 277.661 469.122 276.396C466.473 274.851 463.655 275.756 463.623 275.764L462.847 276.02L463.119 275.252C465.536 268.4 477.863 262.532 478.392 262.284L478.752 262.116L478.928 262.468C480.577 265.846 481.513 269.456 481.713 273.202V273.395L481.585 273.523C478.44 276.404 475.918 280.014 474.277 283.953L473.773 285.169V285.177ZM465.648 274.691C466.753 274.691 468.146 274.907 469.514 275.7C471.652 276.941 473.165 279.238 474.029 282.536C475.678 278.982 478.039 275.732 480.905 273.066C480.697 269.624 479.848 266.303 478.383 263.189C476.406 264.173 466.785 269.192 464.167 274.819C464.552 274.747 465.064 274.691 465.648 274.691Z" fill="#002346"/>
<path d="M463.55 275.332C463.334 275.38 463.462 275.532 463.43 275.748C463.262 276.933 463.061 280.991 466.72 286.842L470.858 293.71C471.642 290.348 472.651 287.034 473.884 283.809C473.884 283.809 472.635 273.363 463.55 275.332Z" fill="#F2F9FF"/>
<path d="M471.027 294.767L466.376 287.05C462.63 281.055 462.87 276.845 463.03 275.692C463.03 275.668 463.03 275.636 463.03 275.596C462.974 275.116 463.278 274.98 463.462 274.94C466.064 274.371 468.305 274.739 470.114 276.036C473.62 278.534 474.252 283.552 474.276 283.761V283.857L474.252 283.953C473.028 287.154 472.019 290.46 471.243 293.798L471.019 294.759L471.027 294.767ZM463.838 275.684C463.838 275.684 463.838 275.764 463.83 275.812C463.678 276.893 463.454 280.863 467.064 286.634L470.698 292.67C471.443 289.652 472.371 286.666 473.476 283.769C473.372 283.08 472.619 278.798 469.65 276.693C468.081 275.572 466.12 275.236 463.838 275.692V275.684Z" fill="#002346"/>
<path d="M468.617 289.988C468.617 289.988 463.774 310.591 463.038 326.032C463.038 326.12 463.158 326.144 463.182 326.064C464.422 322.55 465.631 318.748 466.712 314.649C468.265 308.758 469.441 302.779 470.234 296.743L470.834 293.71L468.617 289.988Z" fill="#F2F9FF"/>
<path d="M463.119 326.521C463.119 326.521 463.055 326.521 463.023 326.513C462.79 326.465 462.622 326.265 462.638 326.024C463.375 310.72 468.177 290.108 468.225 289.9L468.45 288.931L471.251 293.638L470.619 296.824C469.826 302.827 468.642 308.871 467.089 314.754C466.088 318.556 464.896 322.406 463.551 326.2C463.479 326.393 463.303 326.513 463.103 326.513L463.119 326.521ZM468.786 291.061C467.881 295.079 464.503 310.76 463.575 323.711C464.599 320.661 465.52 317.596 466.32 314.562C467.865 308.711 469.042 302.699 469.834 296.704L470.411 293.798L468.786 291.069V291.061Z" fill="#002346"/>
<path d="M352.782 296.896C352.069 298.241 346.738 308.726 348.107 318.596C348.107 318.596 348.515 326.881 351.101 326.553C351.101 326.553 361.531 311.408 352.95 296.896C352.91 296.832 352.822 296.824 352.782 296.896Z" fill="#5981FC"/>
<path d="M350.949 326.961C350.573 326.961 350.229 326.825 349.909 326.561C348.076 325.024 347.739 319.269 347.707 318.62C346.323 308.623 351.798 297.905 352.43 296.712C352.51 296.56 352.67 296.456 352.854 296.456C353.03 296.44 353.207 296.544 353.295 296.704C361.907 311.264 351.534 326.633 351.43 326.785L351.326 326.929L351.149 326.953C351.085 326.961 351.013 326.969 350.949 326.969V326.961ZM352.878 297.584C351.646 300.05 347.259 309.599 348.5 318.54C348.588 320.245 349.092 324.832 350.421 325.944C350.573 326.072 350.725 326.145 350.877 326.161C351.95 324.496 360.275 310.752 352.878 297.584Z" fill="#002346"/>
<path d="M298.601 253.015C297.128 254.984 296.496 257.45 296.84 259.883C296.84 259.883 299.553 275.468 292.91 275.604C292.91 275.604 286.274 276.557 281.391 265.038L276.3 251.566C276.3 251.566 281.279 249.565 281.903 245.163C281.879 245.171 288.651 254.504 298.601 253.015Z" fill="#F2B3C1"/>
<path d="M292.478 276.028C290.869 276.028 285.298 275.252 281.039 265.198L275.804 251.35L276.165 251.206C276.213 251.19 280.943 249.229 281.528 245.115L281.92 245.171L282.256 244.963C282.32 245.051 288.908 254.072 298.561 252.631L299.506 252.487L298.93 253.255C297.513 255.152 296.912 257.49 297.241 259.827C297.313 260.259 299.09 270.681 295.904 274.547C295.135 275.484 294.135 275.972 292.934 275.996C292.902 275.996 292.742 276.02 292.486 276.02L292.478 276.028ZM276.805 251.782L281.768 264.91C286.45 275.956 292.798 275.236 292.862 275.228C293.887 275.204 294.663 274.828 295.287 274.059C298.241 270.473 296.472 260.067 296.456 259.963C296.136 257.69 296.608 255.441 297.793 253.519C289.844 254.24 283.969 248.237 282.128 246.043C281.215 249.437 277.902 251.262 276.805 251.782Z" fill="#002346"/>
<path d="M230.763 273.947C230.299 273.747 230.226 273.13 230.611 272.802C234.477 269.552 238.031 265.942 241.217 262.02C241.217 262.02 255.625 245.651 262.197 255.024C262.197 255.024 267.568 262.901 262.004 278.341C261.62 279.414 261.308 280.511 261.044 281.615C260.468 284.017 258.715 288.603 253.648 288.571C251.471 288.555 249.413 287.611 247.836 286.114C244.763 283.192 237.687 276.925 230.771 273.939L230.763 273.947Z" fill="#5981FC"/>
<path d="M253.695 288.979H253.647C251.454 288.963 249.293 288.051 247.556 286.41C244.778 283.776 237.566 277.309 230.602 274.315C230.258 274.171 230.026 273.859 229.97 273.491C229.914 273.114 230.058 272.738 230.346 272.498C234.188 269.272 237.734 265.67 240.896 261.772C241.28 261.332 250.157 251.35 257.297 251.742C259.419 251.862 261.18 252.887 262.516 254.8C262.74 255.136 267.943 263.029 262.372 278.477C262.02 279.462 261.708 280.527 261.42 281.711C260.899 283.896 259.098 288.979 253.687 288.979H253.695ZM230.922 273.579C237.998 276.628 245.299 283.16 248.108 285.825C249.693 287.33 251.662 288.163 253.647 288.179H253.695C258.37 288.179 260.059 284.016 260.651 281.527C260.939 280.31 261.26 279.222 261.628 278.205C267.047 263.173 261.916 255.328 261.86 255.256C260.675 253.559 259.122 252.647 257.257 252.543C250.526 252.158 241.601 262.188 241.512 262.292C238.327 266.214 234.741 269.856 230.866 273.114C230.786 273.178 230.746 273.282 230.762 273.378C230.762 273.434 230.802 273.531 230.914 273.579H230.922Z" fill="#002346"/>
<path d="M229.241 275.676C229.169 278.165 230.49 282.223 238.846 284.641L240.391 276.34C240.391 276.34 237.438 272.698 231.546 273.226C230.274 273.338 229.281 274.395 229.241 275.676Z" fill="#5981FC"/>
<path d="M239.159 285.153L238.735 285.033C229.97 282.496 228.777 278.077 228.841 275.668C228.881 274.187 230.026 272.97 231.507 272.834C237.542 272.29 240.568 275.94 240.696 276.092L240.816 276.236L239.159 285.153ZM229.642 275.692C229.586 277.829 230.674 281.735 238.535 284.136L239.959 276.468C239.367 275.836 236.542 273.194 231.579 273.635C230.506 273.731 229.666 274.619 229.642 275.692Z" fill="#002346"/>
<path d="M190.245 366.887C193.895 362.885 202.307 354.304 212.465 347.917C212.465 347.917 225.649 332.972 231.492 323.303C237.335 313.633 251.135 296.744 251.135 296.744C251.135 296.744 273.94 292.902 266.848 252.127L272.939 251.766C272.939 251.766 275.789 281.639 289.285 283.929C289.285 283.929 299.234 286.33 300.259 274.323V261.132L302.772 262.236C304.021 269.208 304.525 276.292 304.261 283.368C303.925 295.887 305.862 305.405 308.575 306.821C308.575 306.821 313.074 342.714 325.049 360.036C325.049 360.036 338.224 376.845 331.02 390.565C331.02 390.565 326.217 371.186 311.809 371.354C311.809 371.354 298.77 368.272 276.637 379.246C276.637 379.246 221.734 401.795 190.349 371.242C189.132 370.057 189.092 368.128 190.245 366.887Z" fill="#F2F9FF"/>
<path d="M330.891 391.685L330.635 390.661C330.587 390.469 325.776 371.754 311.992 371.754C311.936 371.754 311.872 371.754 311.816 371.754H311.768L311.72 371.746C311.592 371.714 298.537 368.841 276.82 379.607C276.66 379.671 262.812 385.298 245.307 387.099C229.121 388.764 206.397 387.419 190.075 371.53C188.715 370.209 188.667 368 189.955 366.615C193.173 363.085 201.778 354.176 212.208 347.605C212.992 346.708 225.551 332.364 231.155 323.095C236.942 313.513 250.694 296.656 250.83 296.488L250.926 296.376L251.078 296.352C251.142 296.344 257.345 295.215 262.14 288.419C267.791 280.407 269.248 268.224 266.463 252.199L266.383 251.758L273.306 251.35L273.346 251.734C273.378 252.03 276.324 281.327 289.364 283.536C289.428 283.552 293.206 284.417 296.191 282.264C298.313 280.727 299.553 278.045 299.873 274.291V260.523L303.139 261.956L303.179 262.164C304.436 269.152 304.94 276.292 304.676 283.384C304.316 296.8 306.517 305.293 308.774 306.469L308.959 306.565L308.983 306.773C309.031 307.134 313.609 342.77 325.392 359.811C325.512 359.964 338.631 376.965 331.387 390.757L330.899 391.685H330.891ZM312 370.954C324.487 370.954 329.874 385.458 331.123 389.46C337.095 376.301 324.872 360.444 324.744 360.284C313.297 343.722 308.598 309.967 308.214 307.07C305.325 305.205 303.54 295.559 303.868 283.36C304.124 276.388 303.636 269.384 302.419 262.516L300.666 261.748V274.323C300.322 278.357 298.969 281.239 296.648 282.912C293.358 285.281 289.372 284.353 289.203 284.313C276.268 282.119 272.986 255.849 272.594 252.183L267.335 252.495C270.057 268.536 268.528 280.783 262.788 288.899C258.154 295.439 252.399 296.896 251.374 297.112C250.165 298.601 237.366 314.386 231.851 323.511C226.056 333.1 212.912 348.029 212.784 348.181L212.696 348.253C202.33 354.769 193.757 363.646 190.556 367.152C189.555 368.224 189.595 369.929 190.644 370.946C221.485 400.971 275.956 379.094 276.5 378.87C297.792 368.312 310.936 370.754 311.864 370.946H312.008L312 370.954Z" fill="#002346"/>
<path d="M298.178 305.413C301.502 305.413 304.197 299.482 304.197 292.165C304.197 284.849 301.502 278.918 298.178 278.918C294.853 278.918 292.158 284.849 292.158 292.165C292.158 299.482 294.853 305.413 298.178 305.413Z" fill="#5981FC"/>
<path d="M298.178 305.805C294.576 305.805 291.759 299.81 291.759 292.157C291.759 284.505 294.576 278.51 298.178 278.51C301.78 278.51 304.598 284.505 304.598 292.157C304.598 299.81 301.78 305.805 298.178 305.805ZM298.178 279.31C295.129 279.31 292.559 285.193 292.559 292.157C292.559 299.121 295.129 305.005 298.178 305.005C301.228 305.005 303.798 299.121 303.798 292.157C303.798 285.193 301.228 279.31 298.178 279.31Z" fill="#002346"/>
<path d="M303.484 297.576C306.414 297.576 308.791 295.2 308.791 292.269C308.791 289.338 306.414 286.962 303.484 286.962C300.553 286.962 298.177 289.338 298.177 292.269C298.177 295.2 300.553 297.576 303.484 297.576Z" fill="#F2F9FF"/>
<path d="M303.491 297.985C303.491 297.985 303.435 297.985 303.411 297.985C300.266 297.944 297.744 295.343 297.784 292.197C297.808 290.676 298.417 289.252 299.513 288.187C300.61 287.122 302.067 286.57 303.571 286.57C306.717 286.61 309.247 289.212 309.199 292.357C309.159 295.479 306.605 297.985 303.491 297.985ZM303.491 287.371C302.211 287.371 300.994 287.867 300.073 288.763C299.137 289.676 298.609 290.901 298.593 292.213C298.553 294.919 300.73 297.152 303.427 297.184C303.451 297.184 303.475 297.184 303.491 297.184C306.165 297.184 308.358 295.031 308.398 292.341C308.438 289.636 306.261 287.403 303.555 287.371C303.531 287.371 303.507 287.371 303.483 287.371H303.491Z" fill="#002346"/>
<path d="M166.567 265.27C172.314 261.059 176.901 255.464 179.894 248.997C182.416 222.342 177.237 197.231 177.237 197.231L176.957 193.165L157.033 186.986L141.176 219.004C132.62 241.176 145.387 248.188 145.387 248.188C138.095 245.659 137.254 238.367 137.254 238.367C132.764 254.08 142.857 263.477 142.857 263.477C149.309 270.777 147.204 272.602 147.204 272.602C144.803 267.799 135.837 267.551 135.837 267.551C135.837 267.551 134.869 290.676 155.513 300.106C157.85 301.186 160.507 301.322 162.941 300.506C169.697 298.168 181.863 289.548 179.614 257.73C179.614 257.73 179.398 257.986 179.014 258.402C175.812 261.812 171.658 264.157 167.087 265.142L166.567 265.27Z" fill="#7CD295"/>
<path d="M159.731 301.426C158.234 301.426 156.745 301.106 155.352 300.458C134.701 291.029 135.437 267.759 135.445 267.527C135.453 267.311 135.629 267.143 135.845 267.143H135.853C136.214 267.151 144.194 267.423 147.132 271.682C147.212 270.705 146.692 268.408 142.561 263.733C142.489 263.669 132.363 254.016 136.87 238.247C136.926 238.063 137.102 237.95 137.286 237.958C137.478 237.975 137.63 238.119 137.654 238.311C137.654 238.367 138.295 243.29 142.585 246.307C139.303 242.721 134.789 234.445 140.808 218.852L156.681 186.802C156.769 186.625 156.969 186.537 157.162 186.593L177.085 192.773C177.245 192.821 177.357 192.965 177.365 193.125L177.645 197.191C177.693 197.392 182.8 222.614 180.303 249.021C180.303 249.069 180.287 249.109 180.271 249.149C177.525 255.08 173.427 260.323 168.344 264.405C172.33 263.293 175.892 261.14 178.742 258.106C179.11 257.706 179.326 257.45 179.326 257.45C179.43 257.329 179.598 257.273 179.758 257.329C179.91 257.377 180.022 257.522 180.03 257.682C182.272 289.38 170.377 298.345 163.085 300.866C161.988 301.234 160.86 301.418 159.739 301.418L159.731 301.426ZM136.238 267.967C136.238 271.081 137.022 291.213 155.681 299.737C157.93 300.778 160.467 300.914 162.813 300.122C169.809 297.704 181.183 289.099 179.278 258.698C176.012 262.164 171.826 264.526 167.175 265.526L166.663 265.654C166.479 265.702 166.287 265.606 166.207 265.438C166.127 265.262 166.183 265.062 166.335 264.95C171.994 260.811 176.548 255.256 179.51 248.893C181.984 222.63 176.901 197.568 176.853 197.312L176.581 193.469L157.242 187.474L141.537 219.188C133.22 240.752 145.459 247.772 145.579 247.844C145.763 247.94 145.835 248.164 145.755 248.356C145.667 248.548 145.451 248.637 145.259 248.573C139.968 246.739 137.959 242.425 137.238 240.048C133.932 254.416 143.042 263.101 143.138 263.189C147.268 267.855 148.02 270.409 147.932 271.73C147.876 272.514 147.54 272.85 147.476 272.906C147.38 272.986 147.26 273.018 147.132 272.994C147.012 272.97 146.908 272.89 146.852 272.778C144.867 268.816 137.991 268.088 136.238 267.967Z" fill="#002346"/>
<path d="M179.373 211.928C159.274 200.969 139.054 228.033 138.55 228.737C138.686 226.744 139.118 224.791 139.831 222.926C140.351 221.365 141.015 219.636 141.768 217.803C146.955 205.188 156.616 187.746 157.024 187.01L176.94 193.189L177.22 197.255C177.22 197.255 178.412 202.987 179.373 211.928Z" fill="white"/>
<path d="M138.054 230.122L138.15 228.713C138.287 226.68 138.727 224.687 139.455 222.782C139.935 221.341 140.568 219.66 141.392 217.651C146.427 205.412 155.632 188.691 156.665 186.826L156.825 186.538L157.137 186.626L177.317 192.885L177.613 197.224C177.613 197.224 178.813 203.019 179.766 211.88L179.846 212.64L179.174 212.272C159.33 201.442 139.063 228.681 138.871 228.962L138.046 230.106L138.054 230.122ZM157.217 187.49C155.632 190.372 146.955 206.237 142.137 217.955C141.32 219.949 140.688 221.613 140.208 223.054C139.671 224.463 139.295 225.92 139.087 227.401C143.169 222.358 161.035 202.226 178.885 211.232C177.957 202.835 176.828 197.4 176.82 197.344L176.548 193.494L157.209 187.49H157.217Z" fill="#002346"/>
<path d="M64.9251 266.735C69.6237 271.273 73.1858 276.844 75.331 283.008C75.331 283.008 78.837 294.166 93.5093 299.113C93.5093 299.113 102.314 301.667 102.602 306.317C102.602 306.317 96.1988 302.803 90.0033 305.036C90.0033 305.036 108.822 331.836 124.423 317.163C124.423 317.163 133.452 309.367 124.423 290.844L119.956 295.951C119.956 295.951 119.156 290.348 121.557 286.218L107.357 263.933H99.0484L105.404 257.53C105.404 257.53 101.146 249.397 99.0484 247.484C99.0484 247.484 84.192 243.722 76.2195 249.669L74.5145 243.994L63.028 241.256L52.1819 248.46L64.9251 266.735Z" fill="#7CD295"/>
<path d="M114.137 321.958C113.625 321.958 113.113 321.934 112.601 321.878C100.61 320.653 90.1239 305.901 89.6836 305.269C89.6116 305.165 89.5956 305.036 89.6276 304.916C89.6676 304.796 89.7557 304.7 89.8757 304.66C95.0226 302.803 100.218 304.756 102.083 305.613C100.994 301.739 93.4858 299.521 93.4057 299.497C78.6934 294.535 74.9953 283.24 74.9553 283.128C72.8421 277.061 69.2801 271.489 64.6535 267.023C64.6375 267.007 64.6214 266.983 64.6054 266.967L51.8622 248.693C51.7982 248.605 51.7742 248.492 51.7982 248.388C51.8142 248.284 51.8782 248.188 51.9663 248.132L62.8124 240.928C62.9085 240.864 63.0205 240.848 63.1246 240.872L74.6111 243.61C74.7472 243.642 74.8592 243.746 74.8993 243.882L76.4441 249.021C84.5607 243.49 98.5446 246.948 99.145 247.1C99.209 247.116 99.265 247.148 99.3131 247.196C101.434 249.133 105.581 257.017 105.757 257.353C105.837 257.506 105.813 257.698 105.685 257.818L100.009 263.541H107.358C107.494 263.541 107.622 263.613 107.694 263.725L121.894 286.01C121.974 286.138 121.974 286.298 121.902 286.426C120.165 289.42 120.165 293.262 120.269 294.991L124.119 290.588C124.207 290.484 124.343 290.436 124.471 290.452C124.607 290.468 124.719 290.556 124.775 290.676C133.837 309.263 124.775 317.395 124.679 317.475C121.51 320.453 117.964 321.966 114.129 321.966L114.137 321.958ZM90.6522 305.245C92.5092 307.734 102.187 320.013 112.681 321.086C116.867 321.518 120.733 320.101 124.151 316.875C124.247 316.787 132.668 309.175 124.327 291.565L120.261 296.215C120.157 296.336 119.997 296.384 119.845 296.336C119.693 296.287 119.581 296.159 119.565 296.007C119.533 295.775 118.796 290.404 121.093 286.234L107.142 264.333H99.0489C98.8888 264.333 98.7447 264.237 98.6807 264.085C98.6167 263.933 98.6487 263.765 98.7688 263.653L104.916 257.458C104.18 256.081 100.69 249.613 98.8568 247.852C97.5601 247.548 83.8563 244.482 76.4601 249.989C76.3561 250.069 76.22 250.093 76.0919 250.045C75.9719 250.005 75.8678 249.909 75.8358 249.781L74.1949 244.33L63.1006 241.689L52.7427 248.573L65.2298 266.479C69.9365 271.033 73.5545 276.7 75.7077 282.88C75.7477 283 79.3418 293.918 93.6379 298.737C93.9901 298.841 102.699 301.418 103.003 306.293C103.011 306.437 102.939 306.581 102.819 306.653C102.699 306.733 102.539 306.733 102.411 306.669C102.347 306.637 96.4394 303.46 90.6522 305.245Z" fill="#002346"/>
<path d="M74.5445 281.031C74.5445 281.031 71.4627 245.931 101.76 251.134C98.9423 246.379 94.4437 242.849 89.1447 241.256C80.3398 238.703 75.425 241.256 75.425 241.256L58.8396 245.259L64.923 266.735C69.1254 270.745 72.4073 275.628 74.5445 281.031Z" fill="white"/>
<path d="M75.1853 283.736L74.1767 281.175C72.0795 275.86 68.7817 270.969 64.6513 267.023L64.5713 266.951L58.3438 244.97L75.2893 240.88C75.8416 240.608 80.7484 238.407 89.2572 240.88C94.6683 242.513 99.2309 246.083 102.104 250.942L102.545 251.686L101.688 251.542C93.5877 250.149 87.1761 251.566 82.6375 255.744C73.5684 264.085 74.9211 280.847 74.9371 281.015L75.1773 283.752L75.1853 283.736ZM65.2837 266.519C68.9417 270.033 71.9514 274.275 74.0726 278.894C74.0326 273.979 74.745 261.916 82.1012 255.144C86.6638 250.942 93.0114 249.413 100.96 250.606C98.1743 246.299 93.9639 243.129 89.0331 241.649C80.5163 239.175 75.6575 241.592 75.6095 241.624L75.5215 241.657L59.3443 245.563L65.2837 266.535V266.519Z" fill="#002346"/>
<path d="M503.606 223.996C505.491 212.398 497.616 201.468 486.018 199.583C474.42 197.698 463.49 205.573 461.605 217.171L458.681 235.161C456.797 246.76 464.671 257.69 476.269 259.574C487.868 261.459 498.798 253.585 500.683 241.987L503.606 223.996Z" fill="#F2B3C1"/>
<path d="M479.679 260.267C478.526 260.267 477.365 260.171 476.189 259.987C464.398 258.065 456.361 246.915 458.275 235.125L461.196 217.13C463.117 205.34 474.268 197.303 486.058 199.216C491.773 200.145 496.784 203.242 500.162 207.941C503.548 212.64 504.901 218.371 503.964 224.086L501.043 242.08C499.314 252.702 490.101 260.275 479.663 260.275L479.679 260.267ZM476.317 259.21C487.675 261.059 498.433 253.311 500.274 241.952L503.196 223.958C505.045 212.592 497.297 201.842 485.938 200.001C474.58 198.144 463.822 205.9 461.981 217.258L459.059 235.253C457.21 246.619 464.958 257.361 476.317 259.21Z" fill="#002346"/>
<path d="M480.552 192.053C481.432 191.98 482.297 191.764 483.065 191.332C484.394 190.58 485.795 189.067 484.482 186.185C484.482 186.185 478.175 170.496 492.751 166.894C492.751 166.894 498.826 164.397 506.807 169.216C509.977 171.129 512.594 173.826 514.643 176.908C519.206 183.752 525.898 197.656 507.847 200.857C507.847 200.857 529.836 234.14 500.643 245.467C500.595 244.826 500.499 244.138 500.475 243.466C500.451 241.961 500.523 240.456 500.707 238.959C501.108 237.646 501.508 236.221 501.828 234.709C502.452 232.355 502.813 229.938 502.909 227.505C502.909 227.505 484.01 225.343 470.298 206.156C470.298 206.156 453.225 223.895 457.643 238.151C457.763 238.535 457.251 238.791 457.003 238.479C454.801 235.637 454.073 231.875 455.138 228.361C455.138 228.361 448.43 221.301 454.657 208.486C454.657 208.486 460.573 194.486 478.079 192.253L480.56 192.061L480.552 192.053Z" fill="#002346"/>
<path d="M500.283 246.027L500.243 245.491C500.227 245.251 500.203 245.003 500.179 244.754C500.139 244.33 500.091 243.898 500.075 243.474C500.051 241.945 500.123 240.408 500.307 238.903C500.627 237.823 501.083 236.286 501.435 234.621C502.02 232.395 502.38 230.122 502.492 227.841C499.778 227.409 482.833 224.071 470.258 206.781C467.92 209.342 454.065 225.247 458.019 238.031C458.131 238.383 457.971 238.751 457.643 238.927C457.306 239.103 456.914 239.015 456.682 238.719C454.425 235.805 453.688 231.987 454.689 228.449C453.704 227.249 448.557 220.1 454.297 208.302C454.345 208.182 460.492 194.086 478.03 191.844L480.528 191.652C481.416 191.58 482.208 191.356 482.873 190.98C484.65 189.979 485.066 188.419 484.122 186.353C483.985 186.025 481.056 178.573 484.082 172.658C485.65 169.592 488.532 167.527 492.654 166.51C492.854 166.422 498.954 164.005 507.014 168.88C510.08 170.729 512.762 173.362 514.979 176.692C518.277 181.647 521.711 188.699 519.357 194.198C517.861 197.688 514.211 200.025 508.495 201.138C510.312 204.099 519.149 219.452 515.147 232.011C513.154 238.263 508.327 242.913 500.787 245.835L500.283 246.027ZM470.346 205.524L470.626 205.916C484.082 224.743 502.772 227.08 502.956 227.096L503.324 227.136L503.308 227.505C503.212 229.962 502.844 232.419 502.212 234.797C501.86 236.478 501.403 238.039 501.091 239.063C500.923 240.464 500.851 241.961 500.875 243.45C500.891 243.85 500.931 244.266 500.971 244.674C500.971 244.746 500.987 244.818 500.995 244.891C508.015 242.049 512.514 237.638 514.387 231.771C518.701 218.243 507.623 201.242 507.511 201.074L507.175 200.569L507.775 200.465C513.538 199.441 517.188 197.232 518.621 193.886C520.95 188.443 516.916 181.054 514.315 177.132C512.161 173.898 509.568 171.353 506.606 169.56C498.906 164.909 492.967 167.239 492.911 167.271C488.972 168.247 486.259 170.176 484.802 173.026C481.936 178.621 484.834 185.969 484.858 186.041C486.355 189.323 484.506 190.988 483.273 191.684C482.505 192.117 481.608 192.373 480.6 192.453L478.118 192.645C461.077 194.822 455.097 208.494 455.033 208.638C449.006 221.045 455.369 228.017 455.433 228.081L455.593 228.249L455.529 228.473C454.513 231.819 455.185 235.469 457.33 238.231C452.84 223.943 469.321 206.605 470.026 205.876L470.362 205.532L470.346 205.524Z" fill="#002346"/>
<path d="M507.393 236.286C509.716 232.682 509.785 228.591 507.548 227.15C505.311 225.708 501.615 227.461 499.292 231.066C496.969 234.67 496.899 238.761 499.136 240.203C501.373 241.644 505.07 239.891 507.393 236.286Z" fill="#F2B3C1"/>
<path d="M500.947 241.121C500.035 241.121 499.218 240.832 498.57 240.28C496.393 238.415 496.745 233.941 499.362 230.315C500.995 228.041 503.189 226.544 505.214 226.304C506.358 226.168 507.375 226.448 508.151 227.113C510.329 228.978 509.976 233.452 507.359 237.078C505.726 239.344 503.533 240.848 501.508 241.089C501.316 241.113 501.131 241.121 500.947 241.121ZM505.766 227.057C505.614 227.057 505.462 227.065 505.31 227.089C503.501 227.305 501.516 228.69 500.003 230.779C497.617 234.085 497.209 238.079 499.082 239.68C499.691 240.2 500.491 240.408 501.412 240.304C503.221 240.088 505.206 238.703 506.719 236.614C509.104 233.308 509.512 229.314 507.639 227.713C507.135 227.281 506.494 227.065 505.766 227.065V227.057Z" fill="#002346"/>
<path d="M401.187 366.416C401.187 366.416 404.677 389.1 416.588 393.327C416.588 393.327 419.886 372.243 401.187 366.416Z" fill="#5981FC"/>
<path d="M416.915 393.871L416.459 393.711C404.46 389.453 400.938 367.416 400.794 366.488L400.698 365.855L401.314 366.047C420.125 371.907 417.027 393.191 416.987 393.399L416.915 393.879V393.871ZM401.699 367.008C402.371 370.666 406.173 388.692 416.259 392.774C416.587 389.629 417.62 372.411 401.699 367.008Z" fill="#002346"/>
<path d="M416.285 385.898L410.754 386.739C396.121 388.876 389.886 399.178 389.886 399.178C386.364 405.413 383.786 403.652 383.786 403.652C379.592 401.347 390.19 388.74 390.19 388.74C384.907 390.773 379.32 398.089 379.32 398.089C374.277 406.094 372.036 404.189 372.036 404.189C368.106 400.667 381.793 387.251 381.793 387.251C375.15 390.237 369.186 396.6 369.186 396.6C364.984 401.883 362.55 401.075 362.55 401.075C357.396 397.953 374.069 385.354 374.069 385.354C367.153 386.707 360.781 394.031 360.781 394.031C355.771 399.986 352.929 398.497 352.929 398.497C348.455 392.262 370.275 379.871 370.275 379.871C380.16 372.082 406.295 369.097 406.295 369.097C406.295 369.097 413.411 373.195 416.285 385.898Z" fill="#F2B3C1"/>
<path d="M372.755 404.781C372.147 404.781 371.819 404.525 371.779 404.493C371.235 404.005 370.946 403.348 370.93 402.532C370.842 398.69 376.846 391.862 379.855 388.676C374.236 391.83 369.53 396.816 369.474 396.872C365.167 402.284 362.534 401.491 362.43 401.451L362.35 401.411C361.613 400.963 361.213 400.322 361.173 399.506C360.981 395.776 368.865 389.004 372.299 386.242C366.336 388.316 361.141 394.223 361.085 394.287C355.93 400.41 352.88 398.914 352.752 398.842L352.672 398.802L352.616 398.73C351.984 397.849 351.792 396.816 352.048 395.656C353.505 389.02 369.41 379.919 370.09 379.535C379.903 371.802 405.19 368.833 406.262 368.713L406.39 368.697L406.503 368.761C406.799 368.929 413.803 373.091 416.676 385.818L416.772 386.234L410.825 387.139C396.561 389.22 390.293 399.29 390.237 399.394C388.644 402.211 387.02 403.828 385.403 404.205C384.29 404.461 383.61 404.005 383.578 403.989C382.993 403.668 382.617 403.132 382.481 402.412C381.881 399.178 386.603 392.678 388.821 389.853C384.194 392.446 379.703 398.281 379.647 398.345C376.526 403.3 374.38 404.581 373.132 404.773C373.004 404.789 372.884 404.805 372.771 404.805L372.755 404.781ZM372.299 403.892C372.299 403.892 372.547 404.053 373.06 403.956C373.948 403.788 375.893 402.78 378.983 397.873C379.231 397.545 384.722 390.413 390.045 388.364L391.47 387.811L390.485 388.98C390.405 389.076 382.537 398.489 383.233 402.236C383.321 402.724 383.562 403.068 383.97 403.292C384.018 403.324 384.466 403.596 385.242 403.404C386.195 403.164 387.708 402.203 389.541 398.97C389.613 398.858 396.049 388.476 410.697 386.339L415.804 385.562C413.146 374.348 407.079 370.057 406.198 369.489C404.149 369.737 379.831 372.819 370.514 380.167C370.306 380.295 354.185 389.508 352.808 395.808C352.608 396.712 352.736 397.489 353.184 398.169C353.641 398.313 356.218 398.834 360.476 393.775C360.741 393.471 367.024 386.331 373.988 384.962L375.661 384.634L374.3 385.658C370.802 388.3 361.773 395.928 361.949 399.458C361.973 399.986 362.221 400.394 362.694 400.699C362.974 400.755 365.199 400.963 368.865 396.344C368.945 396.256 374.981 389.861 381.616 386.883L383.626 385.978L382.049 387.523C381.945 387.627 371.595 397.825 371.699 402.5C371.715 403.1 371.899 403.548 372.275 403.884L372.299 403.892Z" fill="#002346"/>
<path d="M362.397 384.977C362.397 384.977 360.796 377.197 375.821 376.605C375.821 376.605 373.243 378.046 370.218 379.871L362.397 384.977Z" fill="#F2B3C1"/>
<path d="M362.133 385.626L362.013 385.058C361.997 384.97 361.572 382.8 363.293 380.607C365.383 377.942 369.593 376.461 375.804 376.213L377.445 376.149L376.013 376.949C376.013 376.949 373.403 378.406 370.417 380.207L362.125 385.626H362.133ZM374.155 377.101C369.161 377.517 365.639 378.886 363.918 381.087C362.941 382.336 362.757 383.569 362.749 384.281L370.009 379.543C371.626 378.566 373.115 377.702 374.155 377.101Z" fill="#002346"/>
<path d="M401.188 366.415C401.188 366.415 416.397 370.321 416.589 393.326L487.653 370.914C487.653 370.914 499.372 365.983 503.478 359.819L534.904 317.163C534.904 317.163 551.337 296.624 534.904 286.146C534.904 286.146 523.401 277.845 508.201 296.784L477.599 337.911C477.599 337.911 473.741 345.115 463.039 347.973L401.188 366.415Z" fill="#5981FC"/>
<path d="M416.196 393.879V393.334C416.004 370.898 401.244 366.847 401.091 366.807L399.691 366.447L462.926 347.589C473.348 344.803 477.215 337.791 477.247 337.719L507.88 296.544C523.153 277.517 535.023 285.738 535.135 285.818C539.242 288.435 541.691 291.925 542.395 296.175C544.06 306.221 535.576 316.955 535.215 317.411L503.798 360.052C499.683 366.231 488.285 371.074 487.804 371.274L416.188 393.863L416.196 393.879ZM402.468 366.463C406.054 367.96 416.628 373.971 416.98 392.79L487.532 370.538C487.612 370.505 499.155 365.599 503.141 359.603L534.575 316.931C534.671 316.811 543.204 306.005 541.595 296.312C540.931 292.293 538.601 288.987 534.679 286.49C534.551 286.394 523.265 278.646 508.504 297.04L477.911 338.159C477.783 338.407 473.877 345.499 463.135 348.365L402.46 366.455L402.468 366.463Z" fill="#002346"/>
<path d="M296.159 199.449H295.582C284.911 199.449 276.26 208.1 276.26 218.772V233.756C276.26 244.428 284.911 253.079 295.582 253.079H296.159C306.831 253.079 315.482 244.428 315.482 233.756V218.772C315.482 208.1 306.831 199.449 296.159 199.449Z" fill="#F2B3C1"/>
<path d="M296.158 253.471H295.582C284.712 253.471 275.867 244.626 275.867 233.756V218.772C275.867 207.902 284.712 199.057 295.582 199.057H296.158C307.029 199.057 315.874 207.902 315.874 218.772V233.756C315.874 244.626 307.029 253.471 296.158 253.471ZM295.582 199.841C285.144 199.841 276.651 208.334 276.651 218.772V233.756C276.651 244.194 285.144 252.687 295.582 252.687H296.158C306.596 252.687 315.089 244.194 315.089 233.756V218.772C315.089 208.334 306.596 199.841 296.158 199.841H295.582Z" fill="#002346"/>
<path d="M257.193 220.813L252.774 232.484C252.774 232.484 248.236 239.688 255.248 246.892L261.019 252.455L276.268 251.55C276.268 251.55 280.846 250.686 281.062 246.684C278.661 244.282 277.436 238.639 276.556 235.013L279.757 226.208C279.757 226.208 281.607 228.569 281.855 228.785C282.103 229.002 280.646 222.222 285.361 221.453C292.004 218.892 297.439 213.913 300.553 207.509C300.689 207.197 301.066 207.053 301.378 207.189C301.41 207.205 301.442 207.221 301.474 207.245C302.042 207.653 302.73 207.87 303.427 207.854C304.027 207.83 304.523 208.302 304.547 208.894C304.547 208.95 304.547 208.998 304.547 209.054C304.027 213.377 303.587 225.864 315.698 227.377C319.46 227.889 323.238 226.584 325.88 223.855L326 223.727C326.112 223.598 326.104 223.406 325.984 223.294C325.904 223.222 325.792 223.198 325.687 223.23C323.462 223.935 318.595 224.543 317.987 216.731C317.987 216.731 318.259 190.748 309.406 199.121C309.406 199.121 298.784 182.992 276.308 197.456C276.308 197.456 262.388 206.869 257.201 220.813H257.193Z" fill="#002346"/>
<path d="M260.875 252.863L254.975 247.18C247.819 239.824 252.398 232.348 252.438 232.267L256.816 220.669C261.987 206.765 275.931 197.216 276.075 197.12C296.671 183.864 307.629 196.159 309.454 198.52C311.015 197.16 312.44 196.743 313.68 197.28C318.507 199.385 318.387 216.018 318.379 216.723C318.603 219.58 319.444 221.541 320.877 222.502C322.469 223.575 324.495 223.166 325.559 222.83C325.799 222.758 326.064 222.814 326.24 222.982C326.528 223.246 326.544 223.695 326.288 223.975L326.168 224.111C323.446 226.92 319.508 228.281 315.642 227.753C303.066 226.184 303.667 212.993 304.147 208.982C304.147 208.95 304.147 208.918 304.147 208.886C304.131 208.51 303.811 208.198 303.443 208.23C302.658 208.254 301.874 208.006 301.241 207.549C301.105 207.485 300.969 207.541 300.921 207.654C297.743 214.185 292.268 219.204 285.505 221.806L285.424 221.83C282.287 222.342 282.119 225.736 282.271 228.241C282.303 228.778 282.319 228.994 282.047 229.13L281.806 229.25L281.59 229.074C281.39 228.906 280.494 227.777 279.885 227.008L276.972 235.021L277.124 235.637C277.988 239.255 279.181 244.21 281.342 246.379L281.47 246.508V246.684C281.23 250.95 276.387 251.919 276.339 251.927L260.867 252.847L260.875 252.863ZM293.893 191.781C289.235 191.781 283.463 193.317 276.523 197.784C276.395 197.872 262.66 207.285 257.577 220.949L253.158 232.62C252.942 232.972 248.844 239.728 255.544 246.604L261.179 252.039L276.251 251.142C276.371 251.118 280.342 250.31 280.654 246.82C278.413 244.442 277.22 239.48 276.347 235.837L276.139 234.981L279.629 225.384L280.077 225.952C280.55 226.552 281.046 227.185 281.438 227.665C281.366 225.664 281.534 221.685 285.256 221.053C291.812 218.516 297.119 213.641 300.193 207.325C300.417 206.821 301.025 206.589 301.538 206.813C301.594 206.837 301.65 206.869 301.698 206.901C302.202 207.269 302.81 207.453 303.419 207.445C304.243 207.381 304.916 208.054 304.948 208.87C304.948 208.942 304.948 209.014 304.94 209.086C304.347 213.985 304.219 225.528 315.746 226.968C319.308 227.457 322.918 226.232 325.455 223.703C324.198 224.047 322.141 224.319 320.436 223.166C318.795 222.062 317.835 219.9 317.595 216.747C317.643 212.04 316.978 199.577 313.376 198.008C312.368 197.568 311.127 198.04 309.694 199.401L309.35 199.729L309.086 199.329C308.798 198.889 303.923 191.773 293.909 191.773L293.893 191.781Z" fill="#002346"/>
<path d="M278.025 234.823C280.587 233.72 281.497 230.114 280.058 226.768C278.618 223.422 275.374 221.603 272.811 222.705C270.249 223.808 269.339 227.414 270.778 230.76C272.218 234.106 275.462 235.925 278.025 234.823Z" fill="#F2B3C1"/>
<path d="M276.445 235.541C275.573 235.541 274.668 235.293 273.796 234.805C272.355 233.996 271.154 232.612 270.426 230.915C269.698 229.218 269.514 227.401 269.922 225.792C270.338 224.151 271.315 222.926 272.667 222.342C275.421 221.157 278.911 223.07 280.432 226.608C281.16 228.305 281.344 230.122 280.936 231.731C280.52 233.372 279.543 234.597 278.19 235.181C277.638 235.421 277.046 235.541 276.445 235.541ZM274.404 222.774C273.916 222.774 273.428 222.87 272.971 223.062C271.851 223.543 271.034 224.583 270.682 225.984C270.322 227.425 270.482 229.058 271.146 230.603C271.811 232.139 272.883 233.388 274.18 234.117C275.437 234.821 276.75 234.949 277.878 234.461C278.999 233.98 279.815 232.94 280.168 231.539C280.528 230.098 280.368 228.465 279.703 226.92C278.615 224.391 276.445 222.774 274.404 222.774Z" fill="#002346"/>
<path d="M240.383 276.341C240.383 276.341 235.772 303.964 228.528 323.783L221.852 341.089C220.628 344.379 217.826 346.828 214.4 347.605C214.168 347.653 213.936 347.693 213.688 347.725C212.175 347.925 210.686 348.237 209.221 348.661C204.715 350.062 196.686 353.28 197.679 358.211C197.679 358.211 190.587 363.87 194.589 365.471C194.589 365.471 192.139 367.872 193.364 368.785C193.364 368.785 194.589 370.73 197.679 367.64C197.679 367.64 197.454 371.186 201.457 368.673L206.82 364.126C207.22 363.79 207.66 363.51 208.132 363.286C210.03 362.405 215.112 360.228 217.738 360.884C218.33 361.036 218.682 361.629 218.538 362.221C218.202 363.198 217.554 364.038 216.697 364.622C216.697 364.622 211.022 367.44 213.007 369.881C213.183 370.106 213.456 370.242 213.744 370.234C215.593 370.234 223.277 369.337 226.887 356.562C226.887 356.562 229.633 349.87 231.866 346.957C231.866 346.957 247.075 322.943 251.117 296.704L252.822 288.652C252.822 288.652 246.826 286.25 241.663 277.917L240.383 276.341Z" fill="#F2B3C1"/>
<path d="M213.729 370.634C213.337 370.634 212.953 370.45 212.705 370.13C212.264 369.585 212.112 368.977 212.248 368.329C212.713 366.191 216.371 364.358 216.531 364.278C217.267 363.774 217.867 362.99 218.172 362.101C218.252 361.757 218.028 361.373 217.643 361.277C215.098 360.644 209.847 362.934 208.302 363.654C207.862 363.862 207.454 364.126 207.077 364.438L201.714 368.985C200.153 369.97 198.985 370.21 198.2 369.745C197.696 369.449 197.472 368.929 197.368 368.481C196.263 369.441 195.255 369.881 194.374 369.777C193.63 369.697 193.213 369.241 193.077 369.073C192.805 368.849 192.653 368.553 192.629 368.2C192.565 367.296 193.414 366.183 193.934 365.599C193.39 365.263 193.069 364.807 192.989 364.238C192.661 362.013 196.287 358.851 197.248 358.067C196.487 353.016 204.316 349.79 209.102 348.301C210.591 347.869 212.112 347.549 213.633 347.349C213.873 347.317 214.097 347.277 214.313 347.237C217.611 346.492 220.293 344.147 221.477 340.969L228.153 323.663C235.301 304.108 239.944 276.573 239.984 276.301L240.128 275.436L241.961 277.693C247.012 285.842 252.903 288.283 252.959 288.307L253.263 288.427L251.494 296.8C247.492 322.799 232.34 346.94 232.188 347.181C229.994 350.046 227.265 356.658 227.241 356.722C223.479 370.034 215.274 370.626 213.713 370.642L213.729 370.634ZM216.643 360.38C217.075 360.38 217.475 360.42 217.843 360.508C218.644 360.708 219.132 361.525 218.932 362.317C218.556 363.406 217.851 364.326 216.931 364.951C215.922 365.455 213.345 367.024 213.025 368.489C212.937 368.897 213.033 369.273 213.329 369.633C213.433 369.769 213.585 369.841 213.753 369.841C215.258 369.841 222.926 369.193 226.528 356.458C226.656 356.138 229.33 349.646 231.571 346.716C231.699 346.508 246.764 322.495 250.742 296.64L252.383 288.876C251.078 288.267 245.915 285.498 241.345 278.118L240.64 277.253C239.792 282.072 235.373 306.229 228.914 323.911L222.238 341.225C220.965 344.651 218.068 347.173 214.506 347.981C214.257 348.029 214.017 348.077 213.753 348.109C212.272 348.301 210.783 348.613 209.343 349.038C205.645 350.19 197.12 353.384 198.072 358.131L198.12 358.363L197.936 358.515C196.695 359.508 193.534 362.437 193.782 364.11C193.846 364.542 194.158 364.871 194.742 365.103L195.303 365.327L194.87 365.751C194.286 366.327 193.382 367.48 193.422 368.136C193.43 368.281 193.486 368.385 193.606 368.473L193.702 368.577C193.702 368.577 193.95 368.937 194.486 368.993C195.023 369.041 195.967 368.809 197.408 367.368L198.136 366.64L198.08 367.672C198.064 367.96 198.128 368.785 198.609 369.065C199.105 369.361 200.041 369.105 201.25 368.345L206.565 363.83C206.989 363.47 207.462 363.174 207.966 362.934C209.751 362.101 213.817 360.372 216.635 360.372L216.643 360.38Z" fill="#002346"/>
<path d="M140.574 220.597C140.574 220.597 154.078 199.745 169.23 200.169C169.23 200.169 160.954 193.294 159.129 189.507C159.129 189.507 170.335 196.519 177.227 197.224C177.227 197.224 190.971 193.574 195.637 184.873C195.637 184.873 185.816 184.072 182.726 181.231H193.812C193.812 181.231 200.408 181.791 202.929 173.794C202.929 173.794 209.525 155.384 211.206 153.175C211.206 153.175 182.87 150.926 184.695 163.837C184.695 163.837 182.166 163.413 183.006 157.097C182.974 157.073 142.271 179.262 140.574 220.597Z" fill="#7CD295"/>
<path d="M140.575 221.005C140.535 221.005 140.495 221.005 140.455 220.989C140.287 220.933 140.167 220.773 140.175 220.589C141.872 179.35 182.423 156.937 182.831 156.745C182.967 156.681 183.127 156.697 183.248 156.785C183.36 156.873 183.424 157.017 183.4 157.153C182.895 160.963 183.64 162.484 184.216 163.076C184.12 161.043 184.768 159.274 186.145 157.809C192.221 151.35 210.455 152.718 211.231 152.783C211.375 152.791 211.504 152.887 211.568 153.015C211.632 153.143 211.608 153.303 211.52 153.423C209.895 155.56 203.363 173.754 203.299 173.939C200.713 182.135 193.838 181.647 193.774 181.639H183.952C187.618 183.8 195.575 184.472 195.663 184.48C195.799 184.488 195.919 184.569 195.983 184.689C196.047 184.809 196.047 184.953 195.983 185.073C191.284 193.83 177.893 197.472 177.324 197.624C177.276 197.64 177.228 197.64 177.18 197.632C171.649 197.064 163.556 192.605 160.315 190.7C163.004 194.462 169.408 199.809 169.48 199.873C169.608 199.985 169.656 200.161 169.6 200.321C169.536 200.482 169.392 200.57 169.216 200.578C154.487 200.145 141.04 220.621 140.904 220.821C140.832 220.941 140.703 221.005 140.567 221.005H140.575ZM182.519 157.841C177.348 160.859 143.401 182.191 141.048 219.204C144.121 214.85 155.336 200.249 168.143 199.785C165.982 197.92 160.283 192.837 158.762 189.691C158.682 189.531 158.722 189.339 158.858 189.219C158.994 189.099 159.186 189.083 159.338 189.179C159.45 189.251 170.464 196.103 177.188 196.831C178.221 196.543 190.364 192.989 194.982 185.225C192.741 184.993 185.185 184.048 182.455 181.535C182.335 181.423 182.295 181.247 182.351 181.095C182.407 180.942 182.559 180.838 182.727 180.838H193.814C194.102 180.862 200.161 181.263 202.546 173.682C202.803 172.962 208.406 157.345 210.511 153.543C207.149 153.359 191.916 152.855 186.73 158.37C185.337 159.851 184.784 161.676 185.089 163.797C185.105 163.925 185.065 164.053 184.969 164.141C184.872 164.229 184.752 164.269 184.624 164.245C184.512 164.229 181.951 163.725 182.511 157.841H182.519Z" fill="#002346"/>
<path d="M37.4921 310.152C37.4921 310.152 58.3919 298.345 59.3444 283.993C59.3444 283.993 52.1404 279.366 52.1404 275.068C52.1404 275.068 56.767 280.415 59.3444 281.408C59.3444 281.408 64.1472 264.542 71.9436 255.609C71.9436 255.609 63.939 249.069 63.4908 246.003C63.4908 246.003 70.6949 250.694 76.25 249.63C76.25 249.63 83.4541 243.93 99.0789 247.444C99.0789 247.444 88.0487 231.331 69.0699 233.564C69.0699 233.564 53.9254 235.478 42.9192 242.498C42.9192 242.498 48.9786 242.385 50.5715 243.954C50.5715 243.954 28.2469 244.251 30.32 266.583L32.073 278.862L36.3795 278.702L32.8735 282.848C32.8735 282.848 37.332 302.499 37.4921 310.152Z" fill="#7CD295"/>
<path d="M37.4925 310.56C37.4205 310.56 37.3564 310.544 37.2924 310.504C37.1723 310.432 37.0923 310.304 37.0923 310.168C36.9322 302.643 32.5297 283.136 32.4817 282.944C32.4576 282.824 32.4817 282.696 32.5697 282.6L35.4914 279.15L32.0894 279.278C31.8733 279.302 31.7052 279.134 31.6812 278.934L29.9282 266.655C29.3039 259.915 30.8007 254.488 34.3867 250.51C39.1814 245.179 46.2735 243.946 49.2271 243.658C47.4021 243.002 44.2403 242.898 42.9356 242.914C42.7595 242.922 42.5994 242.801 42.5434 242.625C42.4953 242.457 42.5594 242.265 42.7114 242.169C53.6696 235.181 68.8782 233.196 69.0303 233.18C88.0331 230.947 99.3115 247.068 99.4155 247.228C99.5116 247.364 99.5116 247.54 99.4155 247.676C99.3195 247.812 99.1594 247.876 98.9993 247.844C83.7747 244.418 76.5786 249.902 76.5066 249.95C76.4585 249.99 76.3945 250.014 76.3305 250.03C71.8319 250.894 66.4129 248.165 64.2356 246.924C65.5724 249.533 70.271 253.728 72.2001 255.305C72.2802 255.369 72.3362 255.473 72.3442 255.577C72.3522 255.681 72.3202 255.793 72.2482 255.873C64.6038 264.638 59.7771 281.351 59.7291 281.519C59.6971 281.631 59.625 281.72 59.521 281.768C59.4169 281.816 59.3048 281.824 59.2008 281.784C57.2477 281.031 54.254 277.981 52.7571 276.356C53.9258 280.007 59.4969 283.625 59.561 283.665C59.681 283.745 59.7531 283.881 59.7451 284.025C58.7925 298.425 38.5491 310.024 37.6926 310.504C37.6286 310.536 37.5645 310.552 37.4925 310.552V310.56ZM33.3061 282.96C33.7544 284.969 37.5005 301.891 37.8687 309.471C41.1986 307.454 57.896 296.752 58.9286 284.201C57.7199 283.392 51.7406 279.174 51.7406 275.068C51.7406 274.9 51.8446 274.748 52.0047 274.692C52.1648 274.636 52.3409 274.676 52.4449 274.804C52.485 274.852 56.5753 279.558 59.0967 280.855C59.9132 278.157 64.4678 263.805 71.3837 255.657C69.8628 254.384 63.5232 248.925 63.107 246.059C63.083 245.907 63.155 245.747 63.2911 245.667C63.4272 245.587 63.5953 245.587 63.7233 245.667C63.7954 245.715 70.7753 250.206 76.0983 249.253C76.9548 248.621 83.9027 243.922 98.1268 246.828C95.5253 243.57 85.1274 232.083 69.1344 233.964C68.9903 233.981 55.0144 235.814 44.3284 242.113C46.2815 242.177 49.6434 242.465 50.8681 243.674C50.9801 243.786 51.0201 243.962 50.9561 244.106C50.8921 244.258 50.748 244.354 50.5879 244.354C50.4918 244.354 40.7904 244.562 34.9791 251.03C31.5531 254.84 30.1283 260.059 30.7287 266.543L32.4256 278.446L36.3719 278.302C36.548 278.318 36.676 278.382 36.7481 278.526C36.8201 278.67 36.7961 278.838 36.692 278.958L33.3141 282.952L33.3061 282.96Z" fill="#002346"/>
<path d="M576.725 157.962L577.846 189.556L574.604 189.516L575.845 157.946L576.725 157.962Z" fill="#5981FC"/>
<path d="M578.262 189.964L574.188 189.9L575.46 157.537L577.109 157.569L578.262 189.964ZM575.02 189.115L577.43 189.147L576.341 158.354H576.229L575.02 189.115Z" fill="#002346"/>
<path d="M596.402 176.235L575.15 189.803L573.597 186.961L595.986 175.459L596.402 176.235Z" fill="#F2F9FF"/>
<path d="M575.006 190.364L573.053 186.794L596.154 174.923L596.93 176.372L575.006 190.364ZM574.149 187.13L575.302 189.227L595.882 176.1L595.826 175.995L574.149 187.13Z" fill="#002346"/>
<path d="M577.334 187.25C577.334 187.866 576.838 188.363 576.221 188.363C575.605 188.363 575.109 187.866 575.109 187.25C575.109 186.634 575.605 186.137 576.221 186.137C576.838 186.137 577.334 186.634 577.334 187.25Z" fill="white"/>
<path d="M576.222 188.763C575.39 188.763 574.709 188.082 574.709 187.25C574.709 186.417 575.39 185.737 576.222 185.737C577.055 185.737 577.735 186.417 577.735 187.25C577.735 188.082 577.055 188.763 576.222 188.763ZM576.222 186.538C575.83 186.538 575.51 186.858 575.51 187.25C575.51 187.642 575.83 187.962 576.222 187.962C576.614 187.962 576.935 187.642 576.935 187.25C576.935 186.858 576.614 186.538 576.222 186.538Z" fill="#002346"/>
<path d="M345.323 177.044H355.945L361.949 163.556L366.231 181.398L372.283 144.425L377.63 173.682L381.872 161.467L388.532 181.462L390.013 177.044H416.548C416.74 176.788 416.94 176.54 417.132 176.283C429.883 159.474 429.195 133.291 411.025 127.456C390.989 120.924 380.935 151.469 380.935 151.469C380.935 151.469 371.026 121.052 350.862 127.344C332.62 133.059 331.98 159.474 344.739 176.283C344.931 176.54 345.131 176.788 345.323 177.044Z" fill="#5981FC"/>
<path d="M366.312 183.424L361.846 164.797L356.218 177.444H345.14L344.78 176.972C344.668 176.82 344.548 176.676 344.436 176.524C336.575 166.174 333.622 151.926 337.088 141.072C339.369 133.932 344.1 129.049 350.759 126.96C368.89 121.301 378.935 144.938 380.952 150.293C382.986 144.938 393.143 121.197 411.161 127.08C417.837 129.225 422.568 134.148 424.825 141.32C428.227 152.094 425.265 166.246 417.461 176.532C417.349 176.676 417.237 176.82 417.125 176.964L416.757 177.444H390.31L388.541 182.727L381.873 162.716L377.518 175.251L372.316 146.771L366.32 183.424H366.312ZM381.889 160.227L388.541 180.198L389.733 176.644H416.356L416.492 176.468C416.605 176.324 416.709 176.188 416.821 176.044C424.473 165.95 427.387 152.094 424.057 141.552C421.88 134.644 417.333 129.898 410.905 127.84C391.478 121.517 381.417 151.294 381.321 151.598L380.936 152.758L380.56 151.598C380.464 151.294 370.539 121.621 350.983 127.728C344.58 129.737 340.033 134.436 337.832 141.32C334.446 151.934 337.352 165.886 345.06 176.044C345.172 176.196 345.284 176.34 345.396 176.484L345.524 176.652H355.69L362.07 162.324L366.16 179.381L372.267 142.088L377.759 172.121L381.889 160.227Z" fill="#002346"/>
<path d="M391.87 179.613L388.532 189.611L381.824 169.487L376.87 183.815L372.427 159.554L366.712 194.453L361.205 171.561L357.627 179.629H347.349C356.594 191.076 368.001 200.625 380.936 207.701C393.879 200.617 405.286 191.068 414.531 179.613H391.87Z" fill="#5981FC"/>
<path d="M380.937 208.165L380.745 208.061C367.729 200.937 356.387 191.46 347.038 179.893L346.509 179.245H357.363L361.318 170.336L366.641 192.453L372.412 157.233L376.999 182.271L381.841 168.271L388.541 188.37L391.591 179.237H415.38L414.852 179.885C405.503 191.46 394.16 200.945 381.137 208.069L380.945 208.173L380.937 208.165ZM348.19 180.038C357.323 191.172 368.33 200.329 380.937 207.253C393.544 200.321 404.558 191.164 413.691 180.022H392.159L388.533 190.884L381.817 170.736L376.75 185.393L372.452 161.899L366.793 196.479L361.102 172.809L357.9 180.038H348.206H348.19Z" fill="#002346"/>
<path d="M458.067 301.41C456.386 301.41 454.713 300.954 453.2 300.042C450.487 298.417 448.814 295.671 448.606 292.517C447.645 277.877 462.525 253.247 463.158 252.207C463.27 252.014 463.518 251.958 463.71 252.071C463.902 252.183 463.958 252.431 463.846 252.623C463.694 252.879 448.47 278.085 449.406 292.469C449.598 295.359 451.127 297.872 453.616 299.361C456.106 300.85 459.06 301.018 461.709 299.81C470.618 295.759 488.124 283.656 505.27 248.156C505.302 248.1 507.695 243.466 506.358 239.455C505.718 237.534 504.317 236.037 502.188 235.029C501.988 234.933 501.908 234.693 501.996 234.493C502.092 234.292 502.332 234.204 502.532 234.3C504.869 235.413 506.414 237.062 507.119 239.207C508.559 243.546 506.094 248.316 505.982 248.516C488.732 284.241 471.042 296.448 462.037 300.538C460.756 301.122 459.412 301.41 458.075 301.41H458.067Z" fill="#002346"/>
<path d="M503.1 237.502C504.492 237.502 505.621 236.373 505.621 234.981C505.621 233.588 504.492 232.459 503.1 232.459C501.707 232.459 500.578 233.588 500.578 234.981C500.578 236.373 501.707 237.502 503.1 237.502Z" fill="#5981FC"/>
<path d="M503.1 237.894C501.491 237.894 500.179 236.582 500.179 234.973C500.179 233.364 501.491 232.051 503.1 232.051C504.709 232.051 506.022 233.364 506.022 234.973C506.022 236.582 504.709 237.894 503.1 237.894ZM503.1 232.851C501.932 232.851 500.979 233.804 500.979 234.973C500.979 236.141 501.932 237.094 503.1 237.094C504.269 237.094 505.222 236.141 505.222 234.973C505.222 233.804 504.269 232.851 503.1 232.851Z" fill="#002346"/>
<path d="M389.004 357.995C382.216 357.995 375.396 356.586 368.984 353.664C336.286 338.792 310.863 298.905 310.615 298.505C310.495 298.321 310.551 298.073 310.743 297.953C310.928 297.833 311.176 297.889 311.296 298.081C311.544 298.481 336.846 338.167 369.321 352.944C387.931 361.413 410.096 356.994 424.456 341.946C433.909 332.044 443.314 318.236 453.208 299.714C453.312 299.514 453.552 299.442 453.752 299.546C453.944 299.65 454.024 299.89 453.92 300.09C443.987 318.668 434.541 332.54 425.04 342.498C415.387 352.608 402.267 357.995 389.012 357.995H389.004Z" fill="#002346"/>
<path d="M319.708 287.787C319.708 287.787 314.377 292.109 316.779 295.887C316.779 295.887 319.893 311.4 326.568 307.59L333.932 296.055L328.954 286.97L319.708 287.787Z" fill="#F2B3C1"/>
<path d="M324.512 308.583C323.967 308.583 323.431 308.463 322.903 308.222C318.652 306.285 316.619 297.016 316.411 296.032C313.946 292.021 319.237 287.659 319.461 287.475L319.557 287.403L329.178 286.554L334.389 296.072L326.849 307.886L326.761 307.934C325.992 308.375 325.24 308.591 324.504 308.591L324.512 308.583ZM319.877 288.163C319.213 288.739 315.098 292.494 317.123 295.671L317.18 295.807C317.196 295.903 319.205 305.677 323.239 307.51C324.223 307.958 325.224 307.886 326.305 307.294L333.493 296.04L328.746 287.387L319.885 288.171L319.877 288.163Z" fill="#002346"/>
<path d="M353.778 298.248L349.055 297.336C346.71 296.88 344.508 295.863 342.651 294.358C341.579 293.494 340.57 292.557 339.626 291.557C335.191 287.162 329.82 283.824 323.913 281.783C323.913 281.783 315.908 278.893 310.257 280.895C310.257 280.895 295.849 284.449 299.595 287.818C299.595 287.818 300.524 289.499 307.824 287.442C307.824 287.442 314.548 285.105 320.895 288.307C322.264 289.011 323.473 290.012 324.417 291.228L328.772 296.744C328.772 296.744 305.558 290.516 305.206 296.744C305.206 296.744 305.054 299.393 311.29 300.314C313.131 300.57 314.94 301.042 316.669 301.738C319.07 302.675 321.343 303.916 323.441 305.42C325.065 306.725 326.842 307.83 328.724 308.718C333.126 310.743 337.809 312.096 342.619 312.721C343.588 312.833 344.548 313.025 345.477 313.313C348.054 314.113 353.097 315.93 354.914 318.268C357.22 311.712 356.811 304.5 353.778 298.248Z" fill="#F2B3C1"/>
<path d="M355.05 319.085L354.609 318.516C352.808 316.195 347.541 314.37 345.364 313.698C344.46 313.417 343.523 313.225 342.579 313.121C337.72 312.489 333.005 311.128 328.563 309.087C326.649 308.182 324.848 307.054 323.2 305.741C321.15 304.268 318.901 303.044 316.532 302.115C314.835 301.435 313.058 300.962 311.241 300.714C304.717 299.754 304.813 296.856 304.821 296.728C304.869 295.919 305.245 295.255 305.942 294.751C309.856 291.917 323.648 295.063 327.746 296.08L324.112 291.477C323.2 290.308 322.031 289.34 320.718 288.659C314.595 285.57 308.023 287.795 307.959 287.819C301.115 289.748 299.602 288.499 299.298 288.083C298.546 287.387 298.522 286.714 298.634 286.266C299.386 283.264 309.064 280.799 310.168 280.527C315.851 278.518 323.72 281.311 324.048 281.423C329.963 283.464 335.454 286.874 339.905 291.285C340.842 292.277 341.85 293.214 342.899 294.062C344.7 295.519 346.853 296.52 349.126 296.96L354.041 297.913L354.129 298.089C357.187 304.396 357.603 311.8 355.282 318.412L355.042 319.093L355.05 319.085ZM311.441 294.367C309.256 294.367 307.423 294.647 306.398 295.391C305.894 295.751 305.638 296.208 305.606 296.776C305.606 296.792 305.63 299.089 311.353 299.938C313.226 300.194 315.067 300.682 316.82 301.387C319.253 302.339 321.559 303.588 323.672 305.117C325.289 306.405 327.042 307.502 328.891 308.383C333.261 310.392 337.896 311.728 342.667 312.353C343.651 312.465 344.636 312.665 345.588 312.961C348.174 313.762 352.624 315.378 354.753 317.524C356.747 311.336 356.298 304.5 353.505 298.625L348.974 297.753C346.573 297.288 344.299 296.232 342.394 294.695C341.314 293.822 340.281 292.87 339.329 291.861C334.966 287.547 329.587 284.193 323.776 282.192C323.696 282.16 315.827 279.366 310.376 281.303C307.471 282.024 299.922 284.329 299.378 286.482C299.346 286.618 299.242 287.018 299.842 287.563L299.922 287.667C299.922 287.667 301.043 288.98 307.703 287.098C307.959 287.01 314.635 284.753 321.062 287.987C322.479 288.715 323.744 289.764 324.72 291.021L329.811 297.464L328.667 297.16C328.531 297.128 318.253 294.399 311.433 294.399L311.441 294.367Z" fill="#002346"/>
<path d="M197.688 358.619C197.576 358.619 197.464 358.571 197.384 358.475C197.24 358.307 197.264 358.051 197.432 357.915C197.6 357.771 201.682 354.369 206.501 352.76C206.709 352.688 206.933 352.808 207.005 353.016C207.077 353.224 206.965 353.448 206.749 353.52C202.074 355.081 197.976 358.491 197.936 358.523C197.864 358.587 197.768 358.619 197.68 358.619H197.688Z" fill="#002346"/>
<path d="M195.015 365.943C194.943 365.943 194.871 365.927 194.807 365.887C194.615 365.775 194.558 365.527 194.671 365.335C194.775 365.166 197.256 361.172 207.654 356.369C207.854 356.281 208.094 356.369 208.182 356.562C208.278 356.762 208.182 357.002 207.99 357.09C197.816 361.789 195.383 365.695 195.359 365.735C195.287 365.863 195.151 365.927 195.015 365.927V365.943Z" fill="#002346"/>
<path d="M197.679 367.648C197.679 367.648 203.723 361.661 210.174 359.203L197.679 367.648Z" fill="#F2B3C1"/>
<path d="M197.959 367.92L197.406 367.36C197.471 367.296 203.586 361.292 210.038 358.827L210.318 359.563C204.018 361.965 198.023 367.864 197.959 367.92Z" fill="#002346"/>
<path d="M302.275 395.592C302.171 395.592 302.059 395.552 301.987 395.464L287.579 380.143C287.427 379.983 287.435 379.727 287.595 379.575C287.755 379.422 288.011 379.43 288.163 379.591L302.571 394.911C302.724 395.071 302.716 395.327 302.555 395.48C302.475 395.552 302.379 395.592 302.283 395.592H302.275Z" fill="#002346"/>
<path d="M234.588 403.948C234.588 403.948 234.532 403.948 234.5 403.94C234.284 403.892 234.148 403.684 234.196 403.468L236.565 392.486C236.613 392.27 236.821 392.134 237.038 392.182C237.254 392.23 237.39 392.438 237.342 392.654L234.972 403.636C234.932 403.82 234.764 403.948 234.58 403.948H234.588Z" fill="#002346"/>
<path d="M249.894 409.319C249.702 409.319 249.526 409.175 249.501 408.975L247.052 392.614C247.02 392.398 247.172 392.19 247.388 392.158C247.612 392.126 247.813 392.278 247.845 392.494L250.294 408.855C250.326 409.071 250.174 409.279 249.958 409.311C249.934 409.311 249.918 409.311 249.902 409.311L249.894 409.319Z" fill="#002346"/>
<path d="M607.855 187.602H602.684C602.46 187.602 602.284 187.426 602.284 187.202C602.284 186.978 602.46 186.802 602.684 186.802H607.855C608.079 186.802 608.256 186.978 608.256 187.202C608.256 187.426 608.079 187.602 607.855 187.602Z" fill="#002346"/>
<path d="M603.589 203.467C603.525 203.467 603.453 203.451 603.389 203.411L598.914 200.818C598.722 200.705 598.658 200.465 598.77 200.273C598.882 200.081 599.122 200.017 599.314 200.129L603.789 202.723C603.981 202.835 604.045 203.075 603.933 203.267C603.861 203.395 603.725 203.467 603.589 203.467Z" fill="#002346"/>
<path d="M592.047 215.042C591.911 215.042 591.775 214.97 591.703 214.842L589.093 210.375C588.981 210.183 589.045 209.943 589.238 209.831C589.43 209.719 589.678 209.783 589.782 209.975L592.391 214.441C592.503 214.633 592.439 214.874 592.247 214.986C592.183 215.026 592.111 215.042 592.047 215.042Z" fill="#002346"/>
<path d="M576.222 219.284C575.998 219.284 575.822 219.108 575.822 218.884V213.713C575.822 213.489 575.998 213.313 576.222 213.313C576.446 213.313 576.622 213.489 576.622 213.713V218.884C576.622 219.108 576.446 219.284 576.222 219.284Z" fill="#002346"/>
<path d="M560.381 215.026C560.309 215.026 560.245 215.01 560.181 214.97C559.989 214.858 559.925 214.609 560.037 214.425L562.654 209.967C562.766 209.775 563.014 209.711 563.198 209.823C563.39 209.935 563.455 210.183 563.342 210.367L560.725 214.826C560.653 214.954 560.517 215.026 560.381 215.026Z" fill="#002346"/>
<path d="M548.854 203.507C548.718 203.507 548.582 203.435 548.51 203.307C548.398 203.115 548.462 202.875 548.654 202.763L553.12 200.153C553.312 200.041 553.553 200.105 553.665 200.297C553.777 200.489 553.713 200.729 553.521 200.841L549.054 203.451C548.99 203.491 548.918 203.507 548.854 203.507Z" fill="#002346"/>
<path d="M549.775 187.658H544.604C544.38 187.658 544.204 187.482 544.204 187.258C544.204 187.034 544.38 186.858 544.604 186.858H549.775C549.999 186.858 550.175 187.034 550.175 187.258C550.175 187.482 549.999 187.658 549.775 187.658Z" fill="#002346"/>
<path d="M553.296 174.379C553.232 174.379 553.16 174.363 553.096 174.323L548.622 171.737C548.429 171.625 548.365 171.385 548.478 171.193C548.59 171.001 548.83 170.937 549.022 171.049L553.496 173.634C553.688 173.746 553.752 173.986 553.64 174.179C553.568 174.307 553.432 174.379 553.296 174.379Z" fill="#002346"/>
<path d="M563.03 164.709C562.894 164.709 562.758 164.637 562.686 164.509L560.1 160.035C559.988 159.842 560.052 159.602 560.244 159.49C560.436 159.378 560.676 159.442 560.788 159.634L563.374 164.109C563.486 164.301 563.422 164.541 563.23 164.653C563.166 164.693 563.094 164.709 563.03 164.709Z" fill="#002346"/>
<path d="M142.439 208.11C142.439 208.11 142.359 208.11 142.319 208.094C142.111 208.03 141.991 207.806 142.055 207.597C142.143 207.317 151.324 179.157 211.046 152.822C211.246 152.734 211.486 152.822 211.574 153.023C211.662 153.223 211.574 153.463 211.366 153.551C152.029 179.718 142.896 207.549 142.816 207.83C142.759 207.998 142.607 208.11 142.431 208.11H142.439Z" fill="#002346"/>
<path d="M153.831 358.123C153.831 358.123 153.775 358.123 153.743 358.115C153.526 358.067 153.39 357.851 153.438 357.634C159.394 330.955 158.633 280.463 158.625 279.959C154.687 221.397 160.811 201.85 160.867 201.666C160.939 201.458 161.163 201.346 161.371 201.41C161.579 201.482 161.699 201.706 161.627 201.914C161.563 202.106 155.496 221.549 159.418 279.926C159.426 280.455 160.194 331.043 154.215 357.811C154.175 357.995 154.007 358.123 153.823 358.123H153.831Z" fill="#002346"/>
<path d="M144.954 350.222C144.738 350.222 144.562 350.046 144.554 349.83C143.297 293.606 127.288 243.41 114.072 211.207C99.7523 176.308 85.5443 154.423 85.4002 154.199C85.2801 154.015 85.3281 153.767 85.5202 153.647C85.7043 153.527 85.9525 153.583 86.0726 153.767C86.2166 153.983 100.457 175.916 114.801 210.887C128.04 243.162 144.097 293.462 145.354 349.814C145.354 350.038 145.186 350.214 144.962 350.222H144.954Z" fill="#002346"/>
<path d="M134.757 339.768C134.597 339.768 134.453 339.672 134.389 339.52C108.894 277.373 63.7326 246.636 63.2763 246.34C63.0922 246.22 63.0442 245.971 63.1642 245.787C63.2843 245.603 63.5325 245.555 63.7166 245.675C64.1728 245.979 109.526 276.837 135.125 339.224C135.205 339.424 135.109 339.664 134.909 339.744C134.861 339.768 134.805 339.776 134.757 339.776V339.768Z" fill="#002346"/>
<path d="M37.5018 310.56C37.3897 310.56 37.2696 310.512 37.1896 310.416C37.0455 310.248 37.0695 309.992 37.2376 309.855C37.3177 309.791 43.4731 304.22 40.8396 279.798C40.8236 279.558 39.5589 257.242 52.9425 244.298C60.4187 237.062 71.0007 234.061 84.4003 235.365C84.6164 235.389 84.7845 235.581 84.7605 235.806C84.7365 236.022 84.5364 236.182 84.3202 236.166C71.1688 234.885 60.8029 237.815 53.5028 244.875C40.3914 257.554 41.6241 279.51 41.6401 279.734C44.3376 304.717 38.022 310.248 37.7579 310.472C37.6859 310.536 37.5898 310.56 37.5018 310.56Z" fill="#002346"/>
</svg>
