<svg width="228" height="224" viewBox="0 0 228 224" fill="none" xmlns="http://www.w3.org/2000/svg">
<ellipse cx="113.93" cy="112" rx="113.93" ry="112" fill="#D1E8FF"/>
<circle cx="114.007" cy="112" r="80.2867" fill="#DEF0FF"/>
<path fill-rule="evenodd" clip-rule="evenodd" d="M100.523 85.0976L100.624 84.6576C100.816 83.84 101.132 82.6373 101.783 81.453C102.446 80.2466 103.475 79.0238 105.088 78.219C106.696 77.4178 108.711 77.119 111.202 77.449C113.952 77.8156 119.476 78.725 124.356 81.2073C129.264 83.7043 133.862 87.9998 133.862 95.1535C133.862 98.8495 132.432 102.815 131.046 105.4C130.381 106.643 129.591 107.831 128.799 108.471C128.617 108.617 128.359 108.801 128.038 108.929C127.158 111.821 125.406 114.371 123.022 116.23C120.638 118.089 117.737 119.166 114.718 119.314C111.698 119.462 108.707 118.674 106.152 117.057C103.598 115.441 101.605 113.074 100.446 110.282L100.402 110.289L99.7512 109.499L99.7494 109.496L99.7457 109.492L99.7366 109.479L99.7054 109.442C99.5485 109.247 99.3975 109.047 99.2526 108.843C98.8567 108.294 98.4836 107.729 98.1342 107.149C97.2726 105.723 96.2331 103.691 95.5676 101.321C94.9039 98.9503 94.5996 96.171 95.2962 93.3036C95.9746 90.5133 97.5751 87.767 100.474 85.314L100.523 85.0976ZM103.603 108.267C104.398 110.554 105.925 112.515 107.947 113.846C109.969 115.177 112.374 115.804 114.789 115.63C117.203 115.456 119.493 114.49 121.304 112.883C123.114 111.276 124.345 109.117 124.804 106.74L125.011 106.81C125.004 106.706 125 106.602 125 106.498C125 103.464 124.578 101.346 124.186 100.026C124.109 99.7695 124.024 99.5152 123.931 99.2638L123.856 99.2675H123.783C122.412 99.2971 121.041 99.1927 119.691 98.9558C116.543 98.4241 112.28 97.0968 107.261 94.0223C107.151 94.268 107.041 94.5448 106.931 94.8528C106.571 95.8703 106.276 97.0785 106.021 98.3545C105.796 99.4783 105.611 100.609 105.435 101.669L105.367 102.087C105.178 103.224 104.989 104.34 104.769 105.149C104.384 106.553 103.992 107.55 103.603 108.265V108.267ZM101.036 104.852C100.208 103.43 99.5581 101.913 99.1004 100.333C98.5522 98.3783 98.3506 96.2626 98.8602 94.1708C99.3552 92.1358 100.552 89.9963 103.015 87.9686C103.458 87.668 103.66 87.2646 103.715 87.1565V87.1546C103.811 86.9564 103.889 86.7496 103.946 86.5368C104.005 86.3278 104.069 86.0418 104.129 85.7851L104.193 85.4973C104.368 84.7585 104.593 83.9536 104.996 83.2185C105.389 82.5071 105.926 81.8985 106.725 81.5006C107.528 81.0991 108.771 80.8241 110.718 81.0845C113.382 81.4383 118.393 82.2871 122.694 84.4761C126.965 86.6486 130.196 89.9376 130.196 95.1535C130.196 97.5551 129.389 100.287 128.417 102.441C128.234 101.037 127.97 99.889 127.699 98.9796C127.509 98.3297 127.274 97.6944 126.993 97.0785C126.887 96.8502 126.771 96.6269 126.644 96.4093L126.613 96.3598L126.602 96.3415L126.597 96.3323L126.593 96.3268L125.915 95.2745L124.701 95.5183L124.675 95.5238L124.498 95.5476C124.225 95.578 123.951 95.5964 123.676 95.6026C122.546 95.6245 121.416 95.5361 120.303 95.3386C117.346 94.84 113.001 93.4815 107.723 89.967L106.439 89.1108L105.378 90.2291C104.503 91.1495 103.909 92.4053 103.475 93.6281C103.031 94.884 102.696 96.2865 102.426 97.6321C102.203 98.7773 102 99.9264 101.817 101.079L101.748 101.489C101.552 102.683 101.392 103.594 101.231 104.184C101.171 104.408 101.106 104.631 101.036 104.852Z" fill="#0038A5"/>
<path fill-rule="evenodd" clip-rule="evenodd" d="M102.842 120.901C102.454 120.127 101.975 119.172 101.167 119.357C91.2593 121.612 81 128.122 81 135.045V145H147V135.045C147 129.593 140.635 124.395 133.09 121.332L133.081 121.313C133.073 121.297 133.064 121.28 133.056 121.264L132.995 121.293C130.991 120.486 128.905 119.826 126.833 119.357C125.911 119.146 124.958 120.415 124.542 121.209H103C102.949 121.113 102.897 121.007 102.842 120.901ZM127.572 123.321C128.373 123.543 129.171 123.792 129.957 124.067C129.979 124.694 129.932 125.435 129.829 126.19C129.724 126.972 129.558 127.744 129.33 128.5H126.833C126.493 128.5 126.159 128.595 125.87 128.774C125.58 128.953 125.346 129.209 125.194 129.514L123.361 133.18C123.234 133.435 123.167 133.715 123.167 134V137.667C123.167 138.153 123.36 138.619 123.704 138.963C124.047 139.307 124.514 139.5 125 139.5H128.667V135.833H126.833V134.433L127.966 132.167H133.034L134.167 134.433V135.833H132.333V139.5H136C136.486 139.5 136.953 139.307 137.296 138.963C137.64 138.619 137.833 138.153 137.833 137.667V134C137.833 133.715 137.766 133.435 137.639 133.18L135.806 129.514C135.654 129.209 135.42 128.953 135.13 128.774C134.841 128.595 134.507 128.5 134.167 128.5H133.129C133.356 127.53 133.508 126.544 133.584 125.55C135.371 126.395 137.032 127.365 138.471 128.414C141.995 130.984 143.333 133.389 143.333 135.045V141.333H84.6667V135.045C84.6667 133.389 86.005 130.984 89.5287 128.414C91.2997 127.121 93.4135 125.952 95.6795 124.984C95.7424 126.445 95.9769 127.893 96.378 129.299L96.3927 129.351C95.2966 130.044 94.4809 131.102 94.0895 132.339C93.6981 133.575 93.7563 134.91 94.2538 136.108C94.7512 137.306 95.6559 138.289 96.8081 138.885C97.9603 139.48 99.2858 139.649 100.551 139.362C101.815 139.075 102.938 138.35 103.72 137.316C104.502 136.281 104.894 135.004 104.825 133.708C104.757 132.413 104.233 131.184 103.346 130.238C102.459 129.291 101.267 128.689 99.9787 128.537C99.7444 127.77 99.5727 126.985 99.4653 126.19C99.3633 125.479 99.3209 124.761 99.3388 124.043C99.3441 123.906 99.3533 123.769 99.3663 123.632C99.5863 123.565 99.8063 123.499 100.026 123.436L100.787 124.877H126.755L127.572 123.323V123.321ZM99.3333 135.863C100.32 135.863 101.167 135.056 101.167 134.002C101.167 132.949 100.32 132.141 99.3333 132.141C98.347 132.141 97.5 132.948 97.5 134.002C97.5 135.054 98.347 135.863 99.3333 135.863Z" fill="#0038A5"/>
</svg>
