<svg width="301" height="112" viewBox="0 0 301 112" fill="none" xmlns="http://www.w3.org/2000/svg">
<rect x="87" y="38" width="187" height="4" fill="#5981FC"/>
<circle cx="236" cy="38" r="38" fill="#D1E8FF"/>
<ellipse cx="236.025" cy="37.9999" rx="26.7788" ry="27.2401" fill="#DEF0FF"/>
<path d="M61.7369 22.2619C61.5726 22.2619 61.4082 22.2201 61.2644 22.1365C57.3195 20.0674 53.9089 19.1896 49.8202 19.1896C45.7521 19.1896 41.8895 20.1719 38.3761 22.1365C37.883 22.4082 37.2666 22.2201 36.979 21.7185C36.8508 21.4741 36.8221 21.1883 36.8989 20.9225C36.9758 20.6567 37.1521 20.4323 37.3899 20.2973C41.2115 18.1864 45.4029 17.0996 49.8202 17.0996C54.1965 17.0996 58.0181 18.0819 62.2095 20.2764C62.7231 20.5481 62.9081 21.1751 62.641 21.6767C62.5597 21.8509 62.4318 21.9983 62.2718 22.1018C62.1119 22.2053 61.9265 22.2608 61.7369 22.2619ZM32.3356 33.2344C32.1462 33.2362 31.96 33.1846 31.7977 33.0853C31.6354 32.986 31.5033 32.843 31.416 32.672C31.3288 32.501 31.2898 32.3087 31.3034 32.1165C31.3171 31.9244 31.3827 31.7398 31.4932 31.5833C33.5273 28.6573 36.1161 26.3583 39.198 24.749C45.6494 21.3632 53.9089 21.3423 60.3809 24.7281C63.4628 26.3374 66.0516 28.6155 68.0857 31.5206C68.1645 31.6329 68.2207 31.76 68.2509 31.8945C68.2812 32.0291 68.285 32.1684 68.2621 32.3044C68.2392 32.4404 68.19 32.5705 68.1174 32.687C68.0448 32.8036 67.9502 32.9044 67.8391 32.9836C67.3665 33.318 66.7296 33.2135 66.4009 32.7328C64.6016 30.142 62.2116 28.0336 59.4358 26.5882C53.5391 23.5159 45.9987 23.5159 40.1225 26.6091C37.3283 28.0721 34.986 30.1621 33.1369 32.7955C32.9725 33.0881 32.6643 33.2344 32.3356 33.2344ZM45.1768 58.4607C45.0421 58.4624 44.9085 58.4353 44.7847 58.3814C44.6608 58.3274 44.5495 58.2476 44.4577 58.1472C42.6702 56.3289 41.7046 55.1585 40.328 52.6296C38.9103 50.0589 38.1707 46.9239 38.1707 43.559C38.1707 37.3517 43.3893 32.2939 49.7997 32.2939C56.2101 32.2939 61.4287 37.3517 61.4287 43.559C61.4287 44.1442 60.9767 44.604 60.4014 44.604C59.8262 44.604 59.3741 44.1442 59.3741 43.559C59.3741 38.5012 55.08 34.3839 49.7997 34.3839C44.5194 34.3839 40.2253 38.5012 40.2253 43.559C40.2253 46.5686 40.8827 49.3483 42.136 51.6055C43.451 54.009 44.355 55.0331 45.937 56.6633C46.3274 57.0813 46.3274 57.7292 45.937 58.1472C45.711 58.3562 45.4439 58.4607 45.1768 58.4607ZM59.9083 54.5942C57.4634 54.5942 55.306 53.9672 53.5391 52.7341C50.4777 50.6232 48.6491 47.1956 48.6491 43.559C48.6491 42.9738 49.1011 42.514 49.6764 42.514C50.2517 42.514 50.7037 42.9738 50.7037 43.559C50.7037 46.5059 52.183 49.2856 54.6896 50.9994C56.1484 52.0026 57.8537 52.4833 59.9083 52.4833C60.4014 52.4833 61.2233 52.4206 62.0451 52.2743C62.5999 52.1698 63.1341 52.546 63.2368 53.1312C63.3395 53.6955 62.9697 54.2389 62.3944 54.3434C61.2233 54.5733 60.196 54.5942 59.9083 54.5942ZM55.7786 58.8996C55.6964 58.8996 55.5937 58.8787 55.5115 58.8578C52.2447 57.9382 50.1079 56.7051 47.8684 54.4688C46.4492 53.0434 45.3239 51.3443 44.5583 49.4709C43.7928 47.5976 43.4023 45.5877 43.4099 43.559C43.4099 40.1732 46.2452 37.4144 49.7381 37.4144C53.2309 37.4144 56.0662 40.1732 56.0662 43.559C56.0662 45.7953 57.977 47.6136 60.3398 47.6136C62.7026 47.6136 64.6134 45.7953 64.6134 43.559C64.6134 35.6797 57.9359 29.2843 49.7175 29.2843C43.8824 29.2843 38.5405 32.5865 36.1366 37.707C35.3353 39.3999 34.9244 41.3854 34.9244 43.559C34.9244 45.1892 35.0682 47.7599 36.301 51.1039C36.5064 51.6473 36.2393 52.2534 35.7051 52.4415C35.1709 52.6505 34.5751 52.3579 34.3902 51.8354C33.4002 49.1922 32.8919 46.3876 32.8903 43.559C32.8903 41.051 33.3629 38.7729 34.2875 36.7874C37.0201 30.9563 43.0812 27.1734 49.7175 27.1734C59.066 27.1734 66.668 34.5093 66.668 43.5381C66.668 46.9239 63.8326 49.6827 60.3398 49.6827C56.847 49.6827 54.0116 46.9239 54.0116 43.5381C54.0116 41.3018 52.1009 39.4835 49.7381 39.4835C47.3753 39.4835 45.4645 41.3018 45.4645 43.5381C45.4645 47.112 46.8205 50.456 49.3066 52.964C51.2585 54.9286 53.1282 56.0154 56.0251 56.8305C56.5799 56.9768 56.8881 57.562 56.7442 58.1054C56.6415 58.5861 56.2101 58.8996 55.7786 58.8996Z" fill="#D1E8FF"/>
<circle cx="50" cy="38" r="38" fill="#D1E8FF"/>
<ellipse cx="50.0258" cy="37.9999" rx="26.7788" ry="27.2401" fill="#5981FC"/>
<path d="M9.68 98.08C9.37067 97.4293 8.92267 96.928 8.336 96.576C7.74933 96.2133 7.06667 96.032 6.288 96.032C5.50933 96.032 4.80533 96.2133 4.176 96.576C3.55733 96.928 3.06667 97.44 2.704 98.112C2.352 98.7733 2.176 99.5413 2.176 100.416C2.176 101.291 2.352 102.059 2.704 102.72C3.06667 103.381 3.55733 103.893 4.176 104.256C4.80533 104.608 5.50933 104.784 6.288 104.784C7.376 104.784 8.272 104.459 8.976 103.808C9.68 103.157 10.0907 102.277 10.208 101.168H5.76V99.984H11.76V101.104C11.6747 102.021 11.3867 102.864 10.896 103.632C10.4053 104.389 9.76 104.992 8.96 105.44C8.16 105.877 7.26933 106.096 6.288 106.096C5.25333 106.096 4.30933 105.856 3.456 105.376C2.60267 104.885 1.92533 104.208 1.424 103.344C0.933333 102.48 0.688 101.504 0.688 100.416C0.688 99.328 0.933333 98.352 1.424 97.488C1.92533 96.6133 2.60267 95.936 3.456 95.456C4.30933 94.9653 5.25333 94.72 6.288 94.72C7.472 94.72 8.51733 95.0133 9.424 95.6C10.3413 96.1867 11.008 97.0133 11.424 98.08H9.68ZM15.1411 94.16V106H13.6851V94.16H15.1411ZM25.3986 97.232V106H23.9426V104.704C23.6653 105.152 23.276 105.504 22.7746 105.76C22.284 106.005 21.74 106.128 21.1426 106.128C20.46 106.128 19.8466 105.989 19.3026 105.712C18.7586 105.424 18.3266 104.997 18.0066 104.432C17.6973 103.867 17.5426 103.179 17.5426 102.368V97.232H18.9826V102.176C18.9826 103.04 19.2013 103.707 19.6386 104.176C20.076 104.635 20.6733 104.864 21.4306 104.864C22.2093 104.864 22.8226 104.624 23.2706 104.144C23.7186 103.664 23.9426 102.965 23.9426 102.048V97.232H25.3986ZM27.313 101.6C27.313 100.693 27.4943 99.904 27.857 99.232C28.2197 98.5493 28.721 98.0213 29.361 97.648C30.0117 97.2747 30.753 97.088 31.585 97.088C32.6623 97.088 33.5477 97.3493 34.241 97.872C34.945 98.3947 35.409 99.12 35.633 100.048H34.065C33.9157 99.5147 33.6223 99.0933 33.185 98.784C32.7583 98.4747 32.225 98.32 31.585 98.32C30.753 98.32 30.081 98.608 29.569 99.184C29.057 99.7493 28.801 100.555 28.801 101.6C28.801 102.656 29.057 103.472 29.569 104.048C30.081 104.624 30.753 104.912 31.585 104.912C32.225 104.912 32.7583 104.763 33.185 104.464C33.6117 104.165 33.905 103.739 34.065 103.184H35.633C35.3983 104.08 34.929 104.8 34.225 105.344C33.521 105.877 32.641 106.144 31.585 106.144C30.753 106.144 30.0117 105.957 29.361 105.584C28.721 105.211 28.2197 104.683 27.857 104C27.4943 103.317 27.313 102.517 27.313 101.6ZM41.3998 106.144C40.5784 106.144 39.8318 105.957 39.1598 105.584C38.4984 105.211 37.9758 104.683 37.5918 104C37.2184 103.307 37.0318 102.507 37.0318 101.6C37.0318 100.704 37.2238 99.9147 37.6078 99.232C38.0024 98.5387 38.5358 98.0107 39.2078 97.648C39.8798 97.2747 40.6318 97.088 41.4638 97.088C42.2958 97.088 43.0478 97.2747 43.7198 97.648C44.3918 98.0107 44.9198 98.5333 45.3038 99.216C45.6984 99.8987 45.8958 100.693 45.8958 101.6C45.8958 102.507 45.6931 103.307 45.2878 104C44.8931 104.683 44.3544 105.211 43.6718 105.584C42.9891 105.957 42.2318 106.144 41.3998 106.144ZM41.3998 104.864C41.9224 104.864 42.4131 104.741 42.8718 104.496C43.3304 104.251 43.6984 103.883 43.9758 103.392C44.2638 102.901 44.4078 102.304 44.4078 101.6C44.4078 100.896 44.2691 100.299 43.9918 99.808C43.7144 99.3173 43.3518 98.9547 42.9038 98.72C42.4558 98.4747 41.9704 98.352 41.4478 98.352C40.9144 98.352 40.4238 98.4747 39.9758 98.72C39.5384 98.9547 39.1864 99.3173 38.9198 99.808C38.6531 100.299 38.5198 100.896 38.5198 101.6C38.5198 102.315 38.6478 102.917 38.9038 103.408C39.1704 103.899 39.5224 104.267 39.9598 104.512C40.3971 104.747 40.8771 104.864 41.3998 104.864ZM50.9141 106.144C50.2421 106.144 49.6395 106.032 49.1061 105.808C48.5728 105.573 48.1515 105.253 47.8421 104.848C47.5328 104.432 47.3621 103.957 47.3301 103.424H48.8341C48.8768 103.861 49.0795 104.219 49.4421 104.496C49.8155 104.773 50.3008 104.912 50.8981 104.912C51.4528 104.912 51.8901 104.789 52.2101 104.544C52.5301 104.299 52.6901 103.989 52.6901 103.616C52.6901 103.232 52.5195 102.949 52.1781 102.768C51.8368 102.576 51.3088 102.389 50.5941 102.208C49.9435 102.037 49.4101 101.867 48.9941 101.696C48.5888 101.515 48.2368 101.253 47.9381 100.912C47.6501 100.56 47.5061 100.101 47.5061 99.536C47.5061 99.088 47.6395 98.6773 47.9061 98.304C48.1728 97.9307 48.5515 97.6373 49.0421 97.424C49.5328 97.2 50.0928 97.088 50.7221 97.088C51.6928 97.088 52.4768 97.3333 53.0741 97.824C53.6715 98.3147 53.9915 98.9867 54.0341 99.84H52.5781C52.5461 99.3813 52.3595 99.0133 52.0181 98.736C51.6875 98.4587 51.2395 98.32 50.6741 98.32C50.1515 98.32 49.7355 98.432 49.4261 98.656C49.1168 98.88 48.9621 99.1733 48.9621 99.536C48.9621 99.824 49.0528 100.064 49.2341 100.256C49.4261 100.437 49.6608 100.587 49.9381 100.704C50.2261 100.811 50.6208 100.933 51.1221 101.072C51.7515 101.243 52.2635 101.413 52.6581 101.584C53.0528 101.744 53.3888 101.989 53.6661 102.32C53.9541 102.651 54.1035 103.083 54.1141 103.616C54.1141 104.096 53.9808 104.528 53.7141 104.912C53.4475 105.296 53.0688 105.6 52.5781 105.824C52.0981 106.037 51.5435 106.144 50.9141 106.144ZM64.1695 101.28C64.1695 101.557 64.1535 101.851 64.1215 102.16H57.1135C57.1668 103.024 57.4602 103.701 57.9935 104.192C58.5375 104.672 59.1935 104.912 59.9615 104.912C60.5908 104.912 61.1135 104.768 61.5295 104.48C61.9562 104.181 62.2548 103.787 62.4255 103.296H63.9935C63.7588 104.139 63.2895 104.827 62.5855 105.36C61.8815 105.883 61.0068 106.144 59.9615 106.144C59.1295 106.144 58.3828 105.957 57.7215 105.584C57.0708 105.211 56.5588 104.683 56.1855 104C55.8122 103.307 55.6255 102.507 55.6255 101.6C55.6255 100.693 55.8068 99.8987 56.1695 99.216C56.5322 98.5333 57.0388 98.0107 57.6895 97.648C58.3508 97.2747 59.1082 97.088 59.9615 97.088C60.7935 97.088 61.5295 97.2693 62.1695 97.632C62.8095 97.9947 63.3002 98.496 63.6415 99.136C63.9935 99.7653 64.1695 100.48 64.1695 101.28ZM62.6655 100.976C62.6655 100.421 62.5428 99.9467 62.2975 99.552C62.0522 99.1467 61.7162 98.8427 61.2895 98.64C60.8735 98.4267 60.4095 98.32 59.8975 98.32C59.1615 98.32 58.5322 98.5547 58.0095 99.024C57.4975 99.4933 57.2042 100.144 57.1295 100.976H62.6655ZM72.133 98.432V103.6C72.133 104.027 72.2237 104.331 72.405 104.512C72.5863 104.683 72.901 104.768 73.349 104.768H74.421V106H73.109C72.2983 106 71.6903 105.813 71.285 105.44C70.8797 105.067 70.677 104.453 70.677 103.6V98.432H69.541V97.232H70.677V95.024H72.133V97.232H74.421V98.432H72.133ZM84.1851 101.28C84.1851 101.557 84.1691 101.851 84.1371 102.16H77.1291C77.1825 103.024 77.4758 103.701 78.0091 104.192C78.5531 104.672 79.2091 104.912 79.9771 104.912C80.6065 104.912 81.1291 104.768 81.5451 104.48C81.9718 104.181 82.2705 103.787 82.4411 103.296H84.0091C83.7745 104.139 83.3051 104.827 82.6011 105.36C81.8971 105.883 81.0225 106.144 79.9771 106.144C79.1451 106.144 78.3985 105.957 77.7371 105.584C77.0865 105.211 76.5745 104.683 76.2011 104C75.8278 103.307 75.6411 102.507 75.6411 101.6C75.6411 100.693 75.8225 99.8987 76.1851 99.216C76.5478 98.5333 77.0545 98.0107 77.7051 97.648C78.3665 97.2747 79.1238 97.088 79.9771 97.088C80.8091 97.088 81.5451 97.2693 82.1851 97.632C82.8251 97.9947 83.3158 98.496 83.6571 99.136C84.0091 99.7653 84.1851 100.48 84.1851 101.28ZM82.6811 100.976C82.6811 100.421 82.5585 99.9467 82.3131 99.552C82.0678 99.1467 81.7318 98.8427 81.3051 98.64C80.8891 98.4267 80.4251 98.32 79.9131 98.32C79.1771 98.32 78.5478 98.5547 78.0251 99.024C77.5131 99.4933 77.2198 100.144 77.1451 100.976H82.6811ZM89.211 106.144C88.539 106.144 87.9363 106.032 87.403 105.808C86.8697 105.573 86.4483 105.253 86.139 104.848C85.8297 104.432 85.659 103.957 85.627 103.424H87.131C87.1737 103.861 87.3763 104.219 87.739 104.496C88.1123 104.773 88.5977 104.912 89.195 104.912C89.7497 104.912 90.187 104.789 90.507 104.544C90.827 104.299 90.987 103.989 90.987 103.616C90.987 103.232 90.8163 102.949 90.475 102.768C90.1337 102.576 89.6057 102.389 88.891 102.208C88.2403 102.037 87.707 101.867 87.291 101.696C86.8857 101.515 86.5337 101.253 86.235 100.912C85.947 100.56 85.803 100.101 85.803 99.536C85.803 99.088 85.9363 98.6773 86.203 98.304C86.4697 97.9307 86.8483 97.6373 87.339 97.424C87.8297 97.2 88.3897 97.088 89.019 97.088C89.9897 97.088 90.7737 97.3333 91.371 97.824C91.9683 98.3147 92.2883 98.9867 92.331 99.84H90.875C90.843 99.3813 90.6563 99.0133 90.315 98.736C89.9843 98.4587 89.5363 98.32 88.971 98.32C88.4483 98.32 88.0323 98.432 87.723 98.656C87.4137 98.88 87.259 99.1733 87.259 99.536C87.259 99.824 87.3497 100.064 87.531 100.256C87.723 100.437 87.9577 100.587 88.235 100.704C88.523 100.811 88.9177 100.933 89.419 101.072C90.0483 101.243 90.5603 101.413 90.955 101.584C91.3497 101.744 91.6857 101.989 91.963 102.32C92.251 102.651 92.4003 103.083 92.411 103.616C92.411 104.096 92.2777 104.528 92.011 104.912C91.7443 105.296 91.3657 105.6 90.875 105.824C90.395 106.037 89.8403 106.144 89.211 106.144ZM96.2424 98.432V103.6C96.2424 104.027 96.333 104.331 96.5144 104.512C96.6957 104.683 97.0104 104.768 97.4584 104.768H98.5304V106H97.2184C96.4077 106 95.7997 105.813 95.3944 105.44C94.989 105.067 94.7864 104.453 94.7864 103.6V98.432H93.6504V97.232H94.7864V95.024H96.2424V97.232H98.5304V98.432H96.2424Z" fill="#101010"/>
<path d="M176.816 100.256C177.221 100.32 177.589 100.485 177.92 100.752C178.261 101.019 178.528 101.349 178.72 101.744C178.923 102.139 179.024 102.56 179.024 103.008C179.024 103.573 178.88 104.085 178.592 104.544C178.304 104.992 177.883 105.349 177.328 105.616C176.784 105.872 176.139 106 175.392 106H171.232V94.848H175.232C175.989 94.848 176.635 94.976 177.168 95.232C177.701 95.4773 178.101 95.8133 178.368 96.24C178.635 96.6667 178.768 97.1467 178.768 97.68C178.768 98.3413 178.587 98.8907 178.224 99.328C177.872 99.7547 177.403 100.064 176.816 100.256ZM172.688 99.664H175.136C175.819 99.664 176.347 99.504 176.72 99.184C177.093 98.864 177.28 98.4213 177.28 97.856C177.28 97.2907 177.093 96.848 176.72 96.528C176.347 96.208 175.808 96.048 175.104 96.048H172.688V99.664ZM175.264 104.8C175.989 104.8 176.555 104.629 176.96 104.288C177.365 103.947 177.568 103.472 177.568 102.864C177.568 102.245 177.355 101.76 176.928 101.408C176.501 101.045 175.931 100.864 175.216 100.864H172.688V104.8H175.264ZM182.501 94.16V106H181.045V94.16H182.501ZM188.806 106.144C187.985 106.144 187.238 105.957 186.566 105.584C185.905 105.211 185.382 104.683 184.998 104C184.625 103.307 184.438 102.507 184.438 101.6C184.438 100.704 184.63 99.9147 185.014 99.232C185.409 98.5387 185.942 98.0107 186.614 97.648C187.286 97.2747 188.038 97.088 188.87 97.088C189.702 97.088 190.454 97.2747 191.126 97.648C191.798 98.0107 192.326 98.5333 192.71 99.216C193.105 99.8987 193.302 100.693 193.302 101.6C193.302 102.507 193.099 103.307 192.694 104C192.299 104.683 191.761 105.211 191.078 105.584C190.395 105.957 189.638 106.144 188.806 106.144ZM188.806 104.864C189.329 104.864 189.819 104.741 190.278 104.496C190.737 104.251 191.105 103.883 191.382 103.392C191.67 102.901 191.814 102.304 191.814 101.6C191.814 100.896 191.675 100.299 191.398 99.808C191.121 99.3173 190.758 98.9547 190.31 98.72C189.862 98.4747 189.377 98.352 188.854 98.352C188.321 98.352 187.83 98.4747 187.382 98.72C186.945 98.9547 186.593 99.3173 186.326 99.808C186.059 100.299 185.926 100.896 185.926 101.6C185.926 102.315 186.054 102.917 186.31 103.408C186.577 103.899 186.929 104.267 187.366 104.512C187.803 104.747 188.283 104.864 188.806 104.864ZM199.04 106.144C198.219 106.144 197.472 105.957 196.8 105.584C196.139 105.211 195.616 104.683 195.232 104C194.859 103.307 194.672 102.507 194.672 101.6C194.672 100.704 194.864 99.9147 195.248 99.232C195.643 98.5387 196.176 98.0107 196.848 97.648C197.52 97.2747 198.272 97.088 199.104 97.088C199.936 97.088 200.688 97.2747 201.36 97.648C202.032 98.0107 202.56 98.5333 202.944 99.216C203.339 99.8987 203.536 100.693 203.536 101.6C203.536 102.507 203.334 103.307 202.928 104C202.534 104.683 201.995 105.211 201.312 105.584C200.63 105.957 199.872 106.144 199.04 106.144ZM199.04 104.864C199.563 104.864 200.054 104.741 200.512 104.496C200.971 104.251 201.339 103.883 201.616 103.392C201.904 102.901 202.048 102.304 202.048 101.6C202.048 100.896 201.91 100.299 201.632 99.808C201.355 99.3173 200.992 98.9547 200.544 98.72C200.096 98.4747 199.611 98.352 199.088 98.352C198.555 98.352 198.064 98.4747 197.616 98.72C197.179 98.9547 196.827 99.3173 196.56 99.808C196.294 100.299 196.16 100.896 196.16 101.6C196.16 102.315 196.288 102.917 196.544 103.408C196.811 103.899 197.163 104.267 197.6 104.512C198.038 104.747 198.518 104.864 199.04 104.864ZM204.907 101.584C204.907 100.688 205.088 99.904 205.451 99.232C205.813 98.5493 206.309 98.0213 206.939 97.648C207.579 97.2747 208.293 97.088 209.083 97.088C209.765 97.088 210.4 97.248 210.987 97.568C211.573 97.8773 212.021 98.288 212.331 98.8V94.16H213.803V106H212.331V104.352C212.043 104.875 211.616 105.307 211.051 105.648C210.485 105.979 209.824 106.144 209.067 106.144C208.288 106.144 207.579 105.952 206.939 105.568C206.309 105.184 205.813 104.645 205.451 103.952C205.088 103.259 204.907 102.469 204.907 101.584ZM212.331 101.6C212.331 100.939 212.197 100.363 211.931 99.872C211.664 99.3813 211.301 99.008 210.843 98.752C210.395 98.4853 209.899 98.352 209.355 98.352C208.811 98.352 208.315 98.48 207.867 98.736C207.419 98.992 207.061 99.3653 206.795 99.856C206.528 100.347 206.395 100.923 206.395 101.584C206.395 102.256 206.528 102.843 206.795 103.344C207.061 103.835 207.419 104.213 207.867 104.48C208.315 104.736 208.811 104.864 209.355 104.864C209.899 104.864 210.395 104.736 210.843 104.48C211.301 104.213 211.664 103.835 211.931 103.344C212.197 102.843 212.331 102.261 212.331 101.6ZM224.065 106.112C223.329 106.112 222.668 105.984 222.081 105.728C221.505 105.461 221.052 105.099 220.721 104.64C220.39 104.171 220.22 103.632 220.209 103.024H221.761C221.814 103.547 222.028 103.989 222.401 104.352C222.785 104.704 223.34 104.88 224.065 104.88C224.758 104.88 225.302 104.709 225.697 104.368C226.102 104.016 226.305 103.568 226.305 103.024C226.305 102.597 226.188 102.251 225.953 101.984C225.718 101.717 225.425 101.515 225.073 101.376C224.721 101.237 224.246 101.088 223.649 100.928C222.913 100.736 222.321 100.544 221.873 100.352C221.436 100.16 221.057 99.8613 220.737 99.456C220.428 99.04 220.273 98.4853 220.273 97.792C220.273 97.184 220.428 96.6453 220.737 96.176C221.046 95.7067 221.478 95.344 222.033 95.088C222.598 94.832 223.244 94.704 223.969 94.704C225.014 94.704 225.868 94.9653 226.529 95.488C227.201 96.0107 227.58 96.704 227.665 97.568H226.065C226.012 97.1413 225.788 96.768 225.393 96.448C224.998 96.1173 224.476 95.952 223.825 95.952C223.217 95.952 222.721 96.112 222.337 96.432C221.953 96.7413 221.761 97.1787 221.761 97.744C221.761 98.1493 221.873 98.48 222.097 98.736C222.332 98.992 222.614 99.1893 222.945 99.328C223.286 99.456 223.761 99.6053 224.369 99.776C225.105 99.9787 225.697 100.181 226.145 100.384C226.593 100.576 226.977 100.88 227.297 101.296C227.617 101.701 227.777 102.256 227.777 102.96C227.777 103.504 227.633 104.016 227.345 104.496C227.057 104.976 226.63 105.365 226.065 105.664C225.5 105.963 224.833 106.112 224.065 106.112ZM237.696 97.232V106H236.24V104.704C235.962 105.152 235.573 105.504 235.072 105.76C234.581 106.005 234.037 106.128 233.44 106.128C232.757 106.128 232.144 105.989 231.6 105.712C231.056 105.424 230.624 104.997 230.304 104.432C229.994 103.867 229.84 103.179 229.84 102.368V97.232H231.28V102.176C231.28 103.04 231.498 103.707 231.936 104.176C232.373 104.635 232.97 104.864 233.728 104.864C234.506 104.864 235.12 104.624 235.568 104.144C236.016 103.664 236.24 102.965 236.24 102.048V97.232H237.696ZM243.77 97.088C244.527 97.088 245.189 97.2533 245.754 97.584C246.33 97.9147 246.757 98.3307 247.034 98.832V97.232H248.506V106.192C248.506 106.992 248.335 107.701 247.994 108.32C247.653 108.949 247.162 109.44 246.522 109.792C245.893 110.144 245.157 110.32 244.314 110.32C243.162 110.32 242.202 110.048 241.434 109.504C240.666 108.96 240.213 108.219 240.074 107.28H241.514C241.674 107.813 242.005 108.24 242.506 108.56C243.007 108.891 243.61 109.056 244.314 109.056C245.114 109.056 245.765 108.805 246.266 108.304C246.778 107.803 247.034 107.099 247.034 106.192V104.352C246.746 104.864 246.319 105.291 245.754 105.632C245.189 105.973 244.527 106.144 243.77 106.144C242.991 106.144 242.282 105.952 241.642 105.568C241.013 105.184 240.517 104.645 240.154 103.952C239.791 103.259 239.61 102.469 239.61 101.584C239.61 100.688 239.791 99.904 240.154 99.232C240.517 98.5493 241.013 98.0213 241.642 97.648C242.282 97.2747 242.991 97.088 243.77 97.088ZM247.034 101.6C247.034 100.939 246.901 100.363 246.634 99.872C246.367 99.3813 246.005 99.008 245.546 98.752C245.098 98.4853 244.602 98.352 244.058 98.352C243.514 98.352 243.018 98.48 242.57 98.736C242.122 98.992 241.765 99.3653 241.498 99.856C241.231 100.347 241.098 100.923 241.098 101.584C241.098 102.256 241.231 102.843 241.498 103.344C241.765 103.835 242.122 104.213 242.57 104.48C243.018 104.736 243.514 104.864 244.058 104.864C244.602 104.864 245.098 104.736 245.546 104.48C246.005 104.213 246.367 103.835 246.634 103.344C246.901 102.843 247.034 102.261 247.034 101.6ZM250.422 101.584C250.422 100.688 250.604 99.904 250.966 99.232C251.329 98.5493 251.825 98.0213 252.454 97.648C253.094 97.2747 253.804 97.088 254.582 97.088C255.35 97.088 256.017 97.2533 256.582 97.584C257.148 97.9147 257.569 98.3307 257.846 98.832V97.232H259.318V106H257.846V104.368C257.558 104.88 257.126 105.307 256.55 105.648C255.985 105.979 255.324 106.144 254.566 106.144C253.788 106.144 253.084 105.952 252.454 105.568C251.825 105.184 251.329 104.645 250.966 103.952C250.604 103.259 250.422 102.469 250.422 101.584ZM257.846 101.6C257.846 100.939 257.713 100.363 257.446 99.872C257.18 99.3813 256.817 99.008 256.358 98.752C255.91 98.4853 255.414 98.352 254.87 98.352C254.326 98.352 253.83 98.48 253.382 98.736C252.934 98.992 252.577 99.3653 252.31 99.856C252.044 100.347 251.91 100.923 251.91 101.584C251.91 102.256 252.044 102.843 252.31 103.344C252.577 103.835 252.934 104.213 253.382 104.48C253.83 104.736 254.326 104.864 254.87 104.864C255.414 104.864 255.91 104.736 256.358 104.48C256.817 104.213 257.18 103.835 257.446 103.344C257.713 102.843 257.846 102.261 257.846 101.6ZM263.235 98.656C263.491 98.1547 263.854 97.7653 264.323 97.488C264.803 97.2107 265.384 97.072 266.067 97.072V98.576H265.683C264.051 98.576 263.235 99.4613 263.235 101.232V106H261.779V97.232H263.235V98.656ZM273.789 98.432V103.6C273.789 104.027 273.88 104.331 274.061 104.512C274.243 104.683 274.557 104.768 275.005 104.768H276.077V106H274.765C273.955 106 273.347 105.813 272.941 105.44C272.536 105.067 272.333 104.453 272.333 103.6V98.432H271.197V97.232H272.333V95.024H273.789V97.232H276.077V98.432H273.789ZM285.841 101.28C285.841 101.557 285.825 101.851 285.793 102.16H278.785C278.839 103.024 279.132 103.701 279.665 104.192C280.209 104.672 280.865 104.912 281.633 104.912C282.263 104.912 282.785 104.768 283.201 104.48C283.628 104.181 283.927 103.787 284.097 103.296H285.665C285.431 104.139 284.961 104.827 284.257 105.36C283.553 105.883 282.679 106.144 281.633 106.144C280.801 106.144 280.055 105.957 279.393 105.584C278.743 105.211 278.231 104.683 277.857 104C277.484 103.307 277.297 102.507 277.297 101.6C277.297 100.693 277.479 99.8987 277.841 99.216C278.204 98.5333 278.711 98.0107 279.361 97.648C280.023 97.2747 280.78 97.088 281.633 97.088C282.465 97.088 283.201 97.2693 283.841 97.632C284.481 97.9947 284.972 98.496 285.313 99.136C285.665 99.7653 285.841 100.48 285.841 101.28ZM284.337 100.976C284.337 100.421 284.215 99.9467 283.969 99.552C283.724 99.1467 283.388 98.8427 282.961 98.64C282.545 98.4267 282.081 98.32 281.569 98.32C280.833 98.32 280.204 98.5547 279.681 99.024C279.169 99.4933 278.876 100.144 278.801 100.976H284.337ZM290.867 106.144C290.195 106.144 289.593 106.032 289.059 105.808C288.526 105.573 288.105 105.253 287.795 104.848C287.486 104.432 287.315 103.957 287.283 103.424H288.787C288.83 103.861 289.033 104.219 289.395 104.496C289.769 104.773 290.254 104.912 290.851 104.912C291.406 104.912 291.843 104.789 292.163 104.544C292.483 104.299 292.643 103.989 292.643 103.616C292.643 103.232 292.473 102.949 292.131 102.768C291.79 102.576 291.262 102.389 290.547 102.208C289.897 102.037 289.363 101.867 288.947 101.696C288.542 101.515 288.19 101.253 287.891 100.912C287.603 100.56 287.459 100.101 287.459 99.536C287.459 99.088 287.593 98.6773 287.859 98.304C288.126 97.9307 288.505 97.6373 288.995 97.424C289.486 97.2 290.046 97.088 290.675 97.088C291.646 97.088 292.43 97.3333 293.027 97.824C293.625 98.3147 293.945 98.9867 293.987 99.84H292.531C292.499 99.3813 292.313 99.0133 291.971 98.736C291.641 98.4587 291.193 98.32 290.627 98.32C290.105 98.32 289.689 98.432 289.379 98.656C289.07 98.88 288.915 99.1733 288.915 99.536C288.915 99.824 289.006 100.064 289.187 100.256C289.379 100.437 289.614 100.587 289.891 100.704C290.179 100.811 290.574 100.933 291.075 101.072C291.705 101.243 292.217 101.413 292.611 101.584C293.006 101.744 293.342 101.989 293.619 102.32C293.907 102.651 294.057 103.083 294.067 103.616C294.067 104.096 293.934 104.528 293.667 104.912C293.401 105.296 293.022 105.6 292.531 105.824C292.051 106.037 291.497 106.144 290.867 106.144ZM297.899 98.432V103.6C297.899 104.027 297.989 104.331 298.171 104.512C298.352 104.683 298.667 104.768 299.115 104.768H300.187V106H298.875C298.064 106 297.456 105.813 297.051 105.44C296.645 105.067 296.443 104.453 296.443 103.6V98.432H295.307V97.232H296.443V95.024H297.899V97.232H300.187V98.432H297.899Z" fill="#101010"/>
<path fill-rule="evenodd" clip-rule="evenodd" d="M38.4519 42.6705C38.136 42.9863 37.8855 43.3611 37.7145 43.7737C37.5436 44.1863 37.4556 44.6286 37.4556 45.0752C37.4556 45.5218 37.5436 45.964 37.7145 46.3766C37.8855 46.7892 38.136 47.1641 38.4519 47.4798L40.8557 49.8836C41.1714 50.1995 41.5463 50.4501 41.9589 50.621C42.3715 50.792 42.8137 50.8799 43.2603 50.8799C43.707 50.8799 44.1492 50.792 44.5618 50.621C44.9744 50.4501 45.3493 50.1995 45.665 49.8836L57.514 38.0329C57.8392 37.708 58.0952 37.3206 58.2664 36.894C58.4376 36.4674 58.5205 36.0105 58.5102 35.5509L58.4558 33.159C58.436 32.277 58.0742 31.4373 57.4467 30.8171C56.8193 30.197 55.9753 29.845 55.0932 29.8355L52.7557 29.8117C52.3034 29.8069 51.8546 29.8923 51.4357 30.0631C51.0168 30.2339 50.6362 30.4865 50.3162 30.8062L38.4519 42.6705ZM56.3138 36.8293L44.4631 48.6817C44.3052 48.8398 44.1177 48.9652 43.9113 49.0507C43.705 49.1363 43.4837 49.1803 43.2603 49.1803C43.0369 49.1803 42.8157 49.1363 42.6093 49.0507C42.403 48.9652 42.2155 48.8398 42.0576 48.6817L39.6538 46.2762C39.3351 45.9574 39.1561 45.5251 39.1561 45.0743C39.1561 44.6235 39.3351 44.1912 39.6538 43.8724L51.5181 32.0098C51.6783 31.85 51.8687 31.7238 52.0783 31.6385C52.2879 31.5533 52.5124 31.5108 52.7387 31.5134L55.0745 31.5372C55.516 31.5415 55.9385 31.7174 56.2526 32.0277C56.5667 32.3381 56.7478 32.7584 56.7575 33.1998L56.8102 35.5917C56.8156 35.8214 56.7744 36.0498 56.6891 36.2631C56.6038 36.4763 56.4761 36.6701 56.3138 36.8327V36.8293Z" fill="white"/>
<path d="M49.1842 43.5818C49.2685 43.6594 49.3363 43.7532 49.3835 43.8576C49.4307 43.962 49.4563 44.0749 49.4588 44.1895C49.4612 44.304 49.4405 44.4179 49.3978 44.5242C49.3551 44.6306 49.2914 44.7272 49.2104 44.8083C49.1295 44.8894 49.0329 44.9532 48.9267 44.9961C48.8204 45.0389 48.7065 45.0598 48.592 45.0575C48.4774 45.0552 48.3645 45.0298 48.26 44.9827C48.1555 44.9357 48.0616 44.868 47.984 44.7837L45.5785 42.3782C45.4191 42.2186 45.3296 42.0022 45.3298 41.7767C45.3299 41.5511 45.4197 41.3349 45.5793 41.1755C45.7389 41.0161 45.9553 40.9267 46.1809 40.9268C46.4064 40.927 46.6227 41.0167 46.7821 41.1763L49.1842 43.5818ZM39.059 53.1987C39.2138 53.359 39.2995 53.5738 39.2975 53.7966C39.2956 54.0195 39.2062 54.2327 39.0486 54.3903C38.891 54.5479 38.6778 54.6373 38.4549 54.6392C38.2321 54.6411 38.0174 54.5555 37.8571 54.4006L33.5578 50.1013C33.3984 49.9417 33.3089 49.7253 33.3091 49.4998C33.3092 49.2742 33.399 49.058 33.5586 48.8986C33.7182 48.7392 33.9346 48.6498 34.1602 48.6499C34.3857 48.6501 34.602 48.7398 34.7614 48.8994L39.059 53.1987ZM45.502 52.9981C45.5809 53.0772 45.6435 53.171 45.6861 53.2742C45.7288 53.3774 45.7507 53.488 45.7506 53.5997C45.7505 53.7114 45.7285 53.8219 45.6857 53.9251C45.6428 54.0283 45.5801 54.122 45.5011 54.2009C45.4221 54.2798 45.3283 54.3424 45.2251 54.385C45.1218 54.4277 45.0112 54.4496 44.8996 54.4496C44.7879 54.4495 44.6773 54.4274 44.5741 54.3846C44.471 54.3418 44.3773 54.2791 44.2984 54.2L34.0984 44C33.939 43.8404 33.8495 43.624 33.8497 43.3985C33.8498 43.1729 33.9396 42.9567 34.0992 42.7973C34.2588 42.6379 34.4752 42.5485 34.7008 42.5486C34.9263 42.5488 35.1426 42.6385 35.302 42.7981L45.502 52.9981ZM52.7916 39.9744C52.9464 40.1347 53.0321 40.3495 53.0301 40.5723C53.0282 40.7952 52.9388 41.0084 52.7812 41.166C52.6236 41.3236 52.4104 41.413 52.1875 41.4149C51.9647 41.4168 51.75 41.3312 51.5897 41.1763L49.1859 38.7725C49.031 38.6122 48.9453 38.3975 48.9473 38.1746C48.9492 37.9518 49.0386 37.7386 49.1962 37.581C49.3538 37.4234 49.567 37.334 49.7899 37.3321C50.0127 37.3301 50.2274 37.4158 50.3878 37.5706L52.7916 39.9744Z" fill="white"/>
<path d="M36.4001 52.6768L35.1982 51.4749L39.3751 47.298L40.577 48.4999L36.4001 52.6768ZM61.6519 25.3017C61.7304 25.2205 61.8241 25.1558 61.9278 25.1112C62.0316 25.0667 62.1431 25.0432 62.256 25.0423C62.3688 25.0413 62.4807 25.0628 62.5852 25.1055C62.6897 25.1483 62.7846 25.2114 62.8644 25.2912C62.9442 25.371 63.0073 25.4659 63.05 25.5704C63.0928 25.6748 63.1143 25.7868 63.1133 25.8996C63.1123 26.0125 63.0889 26.124 63.0443 26.2277C62.9998 26.3314 62.935 26.4252 62.8538 26.5036L57.7538 31.6036C57.6754 31.6848 57.5816 31.7496 57.4779 31.7941C57.3742 31.8387 57.2627 31.8621 57.1498 31.8631C57.037 31.8641 56.925 31.8426 56.8206 31.7998C56.7161 31.7571 56.6212 31.694 56.5414 31.6142C56.4616 31.5344 56.3985 31.4395 56.3557 31.335C56.313 31.2305 56.2915 31.1186 56.2925 31.0057C56.2935 30.8929 56.3169 30.7813 56.3615 30.6776C56.406 30.5739 56.4708 30.4801 56.5519 30.4017L61.6519 25.3017Z" fill="white"/>
<path fill-rule="evenodd" clip-rule="evenodd" d="M224.452 42.6705C224.136 42.9863 223.885 43.3611 223.715 43.7737C223.544 44.1863 223.456 44.6286 223.456 45.0752C223.456 45.5218 223.544 45.964 223.715 46.3766C223.885 46.7892 224.136 47.1641 224.452 47.4798L226.856 49.8836C227.171 50.1995 227.546 50.4501 227.959 50.621C228.371 50.792 228.814 50.8799 229.26 50.8799C229.707 50.8799 230.149 50.792 230.562 50.621C230.974 50.4501 231.349 50.1995 231.665 49.8836L243.514 38.0329C243.839 37.708 244.095 37.3206 244.266 36.894C244.438 36.4674 244.521 36.0105 244.51 35.5509L244.456 33.159C244.436 32.277 244.074 31.4373 243.447 30.8171C242.819 30.197 241.975 29.845 241.093 29.8355L238.756 29.8117C238.303 29.8069 237.855 29.8923 237.436 30.0631C237.017 30.2339 236.636 30.4865 236.316 30.8062L224.452 42.6705ZM242.314 36.8293L230.463 48.6817C230.305 48.8398 230.118 48.9652 229.911 49.0507C229.705 49.1363 229.484 49.1803 229.26 49.1803C229.037 49.1803 228.816 49.1363 228.609 49.0507C228.403 48.9652 228.215 48.8398 228.058 48.6817L225.654 46.2762C225.335 45.9574 225.156 45.5251 225.156 45.0743C225.156 44.6235 225.335 44.1912 225.654 43.8724L237.518 32.0098C237.678 31.85 237.869 31.7238 238.078 31.6385C238.288 31.5533 238.512 31.5108 238.739 31.5134L241.074 31.5372C241.516 31.5415 241.939 31.7174 242.253 32.0277C242.567 32.3381 242.748 32.7584 242.757 33.1998L242.81 35.5917C242.816 35.8214 242.774 36.0498 242.689 36.2631C242.604 36.4763 242.476 36.6701 242.314 36.8327V36.8293Z" fill="black"/>
<path d="M235.184 43.5818C235.269 43.6594 235.336 43.7532 235.384 43.8576C235.431 43.962 235.456 44.0749 235.459 44.1895C235.461 44.304 235.44 44.4179 235.398 44.5242C235.355 44.6306 235.291 44.7272 235.21 44.8083C235.129 44.8894 235.033 44.9532 234.927 44.9961C234.82 45.0389 234.707 45.0598 234.592 45.0575C234.477 45.0552 234.364 45.0298 234.26 44.9827C234.156 44.9357 234.062 44.868 233.984 44.7837L231.578 42.3782C231.419 42.2186 231.33 42.0022 231.33 41.7767C231.33 41.5511 231.42 41.3349 231.579 41.1755C231.739 41.0161 231.955 40.9267 232.181 40.9268C232.406 40.927 232.623 41.0167 232.782 41.1763L235.184 43.5818ZM225.059 53.1987C225.214 53.359 225.299 53.5738 225.298 53.7966C225.296 54.0195 225.206 54.2327 225.049 54.3903C224.891 54.5479 224.678 54.6373 224.455 54.6392C224.232 54.6411 224.017 54.5555 223.857 54.4006L219.558 50.1013C219.398 49.9417 219.309 49.7253 219.309 49.4998C219.309 49.2742 219.399 49.058 219.559 48.8986C219.718 48.7392 219.935 48.6498 220.16 48.6499C220.386 48.6501 220.602 48.7398 220.761 48.8994L225.059 53.1987ZM231.502 52.9981C231.581 53.0772 231.643 53.171 231.686 53.2742C231.729 53.3774 231.751 53.488 231.751 53.5997C231.751 53.7114 231.728 53.8219 231.686 53.9251C231.643 54.0283 231.58 54.122 231.501 54.2009C231.422 54.2798 231.328 54.3424 231.225 54.385C231.122 54.4277 231.011 54.4496 230.9 54.4496C230.788 54.4495 230.677 54.4274 230.574 54.3846C230.471 54.3418 230.377 54.2791 230.298 54.2L220.098 44C219.939 43.8404 219.85 43.624 219.85 43.3985C219.85 43.1729 219.94 42.9567 220.099 42.7973C220.259 42.6379 220.475 42.5485 220.701 42.5486C220.926 42.5488 221.143 42.6385 221.302 42.7981L231.502 52.9981ZM238.792 39.9744C238.946 40.1347 239.032 40.3495 239.03 40.5723C239.028 40.7952 238.939 41.0084 238.781 41.166C238.624 41.3236 238.41 41.413 238.188 41.4149C237.965 41.4168 237.75 41.3312 237.59 41.1763L235.186 38.7725C235.031 38.6122 234.945 38.3975 234.947 38.1746C234.949 37.9518 235.039 37.7386 235.196 37.581C235.354 37.4234 235.567 37.334 235.79 37.3321C236.013 37.3301 236.227 37.4158 236.388 37.5706L238.792 39.9744Z" fill="black"/>
<path d="M222.4 52.6768L221.198 51.4749L225.375 47.298L226.577 48.4999L222.4 52.6768ZM247.652 25.3017C247.73 25.2205 247.824 25.1558 247.928 25.1112C248.032 25.0667 248.143 25.0432 248.256 25.0423C248.369 25.0413 248.481 25.0628 248.585 25.1055C248.69 25.1483 248.785 25.2114 248.864 25.2912C248.944 25.371 249.007 25.4659 249.05 25.5704C249.093 25.6748 249.114 25.7868 249.113 25.8996C249.112 26.0125 249.089 26.124 249.044 26.2277C249 26.3314 248.935 26.4252 248.854 26.5036L243.754 31.6036C243.675 31.6848 243.582 31.7496 243.478 31.7941C243.374 31.8387 243.263 31.8621 243.15 31.8631C243.037 31.8641 242.925 31.8426 242.821 31.7998C242.716 31.7571 242.621 31.694 242.541 31.6142C242.462 31.5344 242.398 31.4395 242.356 31.335C242.313 31.2305 242.292 31.1186 242.292 31.0057C242.293 30.8929 242.317 30.7813 242.361 30.6776C242.406 30.5739 242.471 30.4801 242.552 30.4017L247.652 25.3017Z" fill="black"/>
</svg>
