<svg width="192" height="192" viewBox="0 0 192 192" fill="none" xmlns="http://www.w3.org/2000/svg">
<path d="M125.651 56.2415C125.236 56.2415 124.821 56.136 124.457 55.9247C114.491 50.6975 105.875 48.48 95.5458 48.48C85.2684 48.48 75.5102 50.9615 66.6343 55.9247C65.3885 56.6111 63.8314 56.136 63.1047 54.8688C62.781 54.2512 62.7084 53.5292 62.9025 52.8578C63.0966 52.1864 63.542 51.6193 64.1428 51.2784C73.7973 45.9456 84.386 43.2 95.5458 43.2C106.602 43.2 116.256 45.6816 126.845 51.2256C128.143 51.912 128.61 53.496 127.935 54.7632C127.73 55.2033 127.406 55.5756 127.002 55.8371C126.598 56.0987 126.13 56.2388 125.651 56.2415ZM51.374 83.9616C50.8955 83.9661 50.4252 83.8357 50.0151 83.5849C49.6051 83.3341 49.2713 82.9726 49.0509 82.5406C48.8305 82.1086 48.7321 81.6229 48.7665 81.1375C48.8009 80.652 48.9668 80.1857 49.2459 79.7904C54.3845 72.3984 60.9247 66.5903 68.7105 62.5247C85.0089 53.9711 105.875 53.9184 122.225 62.472C130.011 66.5375 136.551 72.2927 141.69 79.6319C141.889 79.9157 142.031 80.2368 142.108 80.5766C142.184 80.9165 142.194 81.2684 142.136 81.612C142.078 81.9556 141.954 82.2842 141.77 82.5787C141.587 82.8732 141.348 83.1279 141.067 83.3279C139.873 84.1728 138.264 83.9087 137.434 82.6943C132.888 76.1491 126.85 70.8226 119.838 67.1712C104.941 59.4095 85.8913 59.4096 71.0463 67.224C63.9871 70.92 58.0698 76.2 53.3983 82.8527C52.9831 83.5919 52.2045 83.9616 51.374 83.9616ZM83.8151 147.691C83.4747 147.695 83.1372 147.627 82.8243 147.491C82.5115 147.354 82.2301 147.153 81.9984 146.899C77.4826 142.306 75.043 139.349 71.5653 132.96C67.9838 126.466 66.1152 118.546 66.1152 110.045C66.1152 94.3631 79.2993 81.5856 95.4939 81.5856C111.688 81.5856 124.872 94.3631 124.872 110.045C124.872 111.523 123.731 112.685 122.277 112.685C120.824 112.685 119.682 111.523 119.682 110.045C119.682 97.2671 108.834 86.8656 95.4939 86.8656C82.1541 86.8656 71.3058 97.2671 71.3058 110.045C71.3058 117.648 72.9668 124.67 76.133 130.373C79.455 136.445 81.7388 139.032 85.7356 143.15C86.7218 144.206 86.7218 145.843 85.7356 146.899C85.1646 147.427 84.4898 147.691 83.8151 147.691ZM121.031 137.923C114.855 137.923 109.405 136.339 104.941 133.224C97.2067 127.891 92.5871 119.232 92.5871 110.045C92.5871 108.566 93.7291 107.405 95.1824 107.405C96.6358 107.405 97.7777 108.566 97.7777 110.045C97.7777 117.49 101.515 124.512 107.847 128.842C111.533 131.376 115.841 132.59 121.031 132.59C122.277 132.59 124.353 132.432 126.43 132.062C127.831 131.798 129.181 132.749 129.44 134.227C129.7 135.653 128.765 137.026 127.312 137.29C124.353 137.87 121.758 137.923 121.031 137.923ZM110.598 148.8C110.391 148.8 110.131 148.747 109.924 148.694C101.671 146.371 96.2724 143.256 90.6147 137.606C87.0295 134.005 84.1866 129.713 82.2525 124.98C80.3185 120.248 79.3321 115.17 79.3512 110.045C79.3512 101.491 86.5142 94.5215 95.3381 94.5215C104.162 94.5215 111.325 101.491 111.325 110.045C111.325 115.694 116.152 120.288 122.121 120.288C128.091 120.288 132.918 115.694 132.918 110.045C132.918 90.1391 116.049 73.9823 95.2862 73.9823C80.545 73.9823 67.0495 82.3247 60.9766 95.2607C58.9522 99.5375 57.9141 104.554 57.9141 110.045C57.9141 114.163 58.2775 120.658 61.3918 129.106C61.9109 130.478 61.2361 132.01 59.8865 132.485C58.537 133.013 57.0317 132.274 56.5646 130.954C54.0634 124.276 52.7794 117.191 52.7755 110.045C52.7755 103.709 53.9693 97.9535 56.305 92.9375C63.2085 78.2063 78.5207 68.6496 95.2862 68.6496C118.903 68.6496 138.108 87.1823 138.108 109.992C138.108 118.546 130.945 125.515 122.121 125.515C113.298 125.515 106.135 118.546 106.135 109.992C106.135 104.342 101.307 99.7487 95.3381 99.7487C89.369 99.7487 84.5418 104.342 84.5418 109.992C84.5418 119.021 87.9675 127.469 94.2481 133.805C99.1792 138.768 103.903 141.514 111.221 143.573C112.623 143.942 113.401 145.421 113.038 146.794C112.778 148.008 111.688 148.8 110.598 148.8Z" fill="#D1E8FF"/>
<circle cx="96" cy="96" r="96" fill="#D1E8FF"/>
<ellipse cx="96.0652" cy="96.0001" rx="67.6516" ry="68.8172" fill="#DEF0FF"/>
<g clip-path="url(#clip0_243_864)">
<path d="M124.021 71.4669C120.592 67.9999 115.959 66.0831 110.976 66.069C105.847 66.0519 100.707 67.9952 96.589 71.4498C91.9054 67.3253 87.6687 65.3143 83.6791 65.3143C78.1074 65.3143 72.9379 67.5087 69.1582 71.4584C66.3174 74.2993 64.3709 78.0292 63.5271 82.2456C63.2745 83.5128 64.0955 84.7449 65.3628 84.9984C66.6285 85.2496 67.8621 84.43 68.1156 83.1627C68.7769 79.8555 70.2811 76.9522 72.5022 74.7305C75.4264 71.6752 79.3965 69.9931 83.6793 69.9931C86.7822 69.9931 90.5409 72.0839 94.8112 76.1661C95.29 76.6473 95.9193 76.9132 96.5829 76.914C96.5837 76.914 96.5853 76.914 96.586 76.914C97.2481 76.914 97.8773 76.6497 98.3569 76.1701C101.804 72.7226 106.382 70.748 110.921 70.748C110.935 70.748 110.949 70.748 110.963 70.748C114.746 70.7581 118.111 72.1455 120.669 74.7305C123.67 77.8647 125.322 81.9696 125.322 86.2913C125.322 90.6162 123.632 94.8233 120.733 97.7881L96.624 121.094L77.5068 102.623C76.5781 101.725 75.0972 101.753 74.1988 102.679C73.3013 103.609 73.3271 105.089 74.2558 105.987L94.9989 126.028C95.4519 126.467 96.0384 126.686 96.624 126.686C97.2095 126.686 97.796 126.467 98.2499 126.029L124.031 101.106C127.824 97.2282 130 91.8287 130 86.2912C130 80.7584 127.886 75.5032 124.021 71.4669Z" fill="#0038A5"/>
<path d="M125.789 91.6723H106.917C106.273 91.6723 105.659 91.9366 105.217 92.4045L98.1234 99.9056L89.9525 81.3709C89.6016 80.5747 88.8374 80.039 87.9695 79.9805C87.1062 79.9251 86.2727 80.3501 85.8179 81.0918L79.3283 91.6723H64.3395C63.0472 91.6723 62 92.7195 62 94.0118C62 95.304 63.0472 96.3513 64.3395 96.3513H80.6369C81.4503 96.3513 82.206 95.9287 82.631 95.2346L87.4721 87.3429L95.2633 105.015C95.5791 105.732 96.2334 106.243 97.0054 106.377C97.1379 106.399 97.2713 106.411 97.4038 106.411C98.0417 106.411 98.6585 106.15 99.1038 105.679L107.925 96.3511H125.789C127.081 96.3511 128.129 95.3038 128.129 94.0116C128.128 92.7195 127.081 91.6723 125.789 91.6723Z" fill="#0038A5"/>
</g>
<defs>
<clipPath id="clip0_243_864">
<rect width="68" height="68" fill="white" transform="translate(62 62)"/>
</clipPath>
</defs>
</svg>
