<svg width="255" height="250" viewBox="0 0 255 250" fill="none" xmlns="http://www.w3.org/2000/svg">
<ellipse cx="127.154" cy="125" rx="127.154" ry="125" fill="#D1E8FF"/>
<circle cx="127.24" cy="125" r="89.6057" fill="#DEF0FF"/>
<g clip-path="url(#clip0_133_1271)">
<path d="M170.75 150C170.75 151.658 170.092 153.247 168.919 154.419C167.747 155.592 166.158 156.25 164.5 156.25H89.5C87.8424 156.25 86.2527 155.592 85.0806 154.419C83.9085 153.247 83.25 151.658 83.25 150V112.5C83.25 110.842 83.9085 109.253 85.0806 108.081C86.2527 106.908 87.8424 106.25 89.5 106.25H96.825C101.795 106.247 106.561 104.271 110.075 100.756L115.263 95.5813C116.431 94.4121 118.016 93.7537 119.669 93.75H134.319C135.976 93.7504 137.566 94.4091 138.738 95.5813L143.912 100.756C145.654 102.498 147.722 103.88 149.997 104.823C152.273 105.765 154.712 106.25 157.175 106.25H164.5C166.158 106.25 167.747 106.908 168.919 108.081C170.092 109.253 170.75 110.842 170.75 112.5V150ZM89.5 100C86.1848 100 83.0054 101.317 80.6612 103.661C78.317 106.005 77 109.185 77 112.5V150C77 153.315 78.317 156.495 80.6612 158.839C83.0054 161.183 86.1848 162.5 89.5 162.5H164.5C167.815 162.5 170.995 161.183 173.339 158.839C175.683 156.495 177 153.315 177 150V112.5C177 109.185 175.683 106.005 173.339 103.661C170.995 101.317 167.815 100 164.5 100H157.175C153.86 99.9993 150.681 98.6819 148.337 96.3375L143.163 91.1625C140.819 88.8181 137.64 87.5007 134.325 87.5H119.675C116.36 87.5007 113.181 88.8181 110.838 91.1625L105.663 96.3375C103.319 98.6819 100.14 99.9993 96.825 100H89.5Z" fill="#0038A5"/>
<path d="M127 143.75C122.856 143.75 118.882 142.104 115.951 139.174C113.021 136.243 111.375 132.269 111.375 128.125C111.375 123.981 113.021 120.007 115.951 117.076C118.882 114.146 122.856 112.5 127 112.5C131.144 112.5 135.118 114.146 138.049 117.076C140.979 120.007 142.625 123.981 142.625 128.125C142.625 132.269 140.979 136.243 138.049 139.174C135.118 142.104 131.144 143.75 127 143.75ZM127 150C132.802 150 138.366 147.695 142.468 143.593C146.57 139.491 148.875 133.927 148.875 128.125C148.875 122.323 146.57 116.759 142.468 112.657C138.366 108.555 132.802 106.25 127 106.25C121.198 106.25 115.634 108.555 111.532 112.657C107.43 116.759 105.125 122.323 105.125 128.125C105.125 133.927 107.43 139.491 111.532 143.593C115.634 147.695 121.198 150 127 150ZM95.75 115.625C95.75 116.454 95.4208 117.249 94.8347 117.835C94.2487 118.421 93.4538 118.75 92.625 118.75C91.7962 118.75 91.0013 118.421 90.4153 117.835C89.8292 117.249 89.5 116.454 89.5 115.625C89.5 114.796 89.8292 114.001 90.4153 113.415C91.0013 112.829 91.7962 112.5 92.625 112.5C93.4538 112.5 94.2487 112.829 94.8347 113.415C95.4208 114.001 95.75 114.796 95.75 115.625Z" fill="#0038A5"/>
</g>
<defs>
<clipPath id="clip0_133_1271">
<rect width="100" height="100" fill="white" transform="translate(77 75)"/>
</clipPath>
</defs>
</svg>
