<svg width="986" height="80" viewBox="0 0 986 80" fill="none" xmlns="http://www.w3.org/2000/svg">
<rect x="75" y="38" width="901" height="4" fill="#5981FC"/>
<circle cx="224" cy="38" r="38" fill="#D1E8FF"/>
<ellipse cx="224.025" cy="37.9999" rx="26.7788" ry="27.2401" fill="#5981FC"/>
<path d="M236.042 23.8334H211.958C211.395 23.8334 210.854 24.0573 210.456 24.4558C210.057 24.8543 209.833 25.3948 209.833 25.9584V50.0417C209.833 50.6053 210.057 51.1458 210.456 51.5443C210.854 51.9428 211.395 52.1667 211.958 52.1667H236.042C236.605 52.1667 237.146 51.9428 237.544 51.5443C237.943 51.1458 238.167 50.6053 238.167 50.0417V25.9584C238.167 25.3948 237.943 24.8543 237.544 24.4558C237.146 24.0573 236.605 23.8334 236.042 23.8334Z" stroke="white" stroke-width="3" stroke-linejoin="round"/>
<path d="M215.5 34.4966C217.855 31.6632 220.689 30.2466 224 30.2466C227.311 30.2466 230.145 31.6632 232.5 34.4966" stroke="white" stroke-width="3" stroke-linecap="round"/>
<path d="M224 42.9584C224.564 42.9584 225.104 42.7345 225.503 42.336C225.901 41.9375 226.125 41.397 226.125 40.8334C226.125 40.2698 225.901 39.7293 225.503 39.3308C225.104 38.9323 224.564 38.7084 224 38.7084C223.436 38.7084 222.896 38.9323 222.497 39.3308C222.099 39.7293 221.875 40.2698 221.875 40.8334C221.875 41.397 222.099 41.9375 222.497 42.336C222.896 42.7345 223.436 42.9584 224 42.9584Z" fill="white"/>
<path d="M220.458 35.875L224.006 40.8333" stroke="white" stroke-width="3" stroke-linecap="round"/>
<path d="M421.737 22.2619C421.573 22.2619 421.408 22.2201 421.264 22.1365C417.32 20.0674 413.909 19.1896 409.82 19.1896C405.752 19.1896 401.889 20.1719 398.376 22.1365C397.883 22.4082 397.267 22.2201 396.979 21.7185C396.851 21.4741 396.822 21.1883 396.899 20.9225C396.976 20.6567 397.152 20.4323 397.39 20.2973C401.211 18.1864 405.403 17.0996 409.82 17.0996C414.197 17.0996 418.018 18.0819 422.209 20.2764C422.723 20.5481 422.908 21.1751 422.641 21.6767C422.56 21.8509 422.432 21.9983 422.272 22.1018C422.112 22.2053 421.926 22.2608 421.737 22.2619ZM392.336 33.2344C392.146 33.2362 391.96 33.1846 391.798 33.0853C391.635 32.986 391.503 32.843 391.416 32.672C391.329 32.501 391.29 32.3087 391.303 32.1165C391.317 31.9244 391.383 31.7398 391.493 31.5833C393.527 28.6573 396.116 26.3583 399.198 24.749C405.649 21.3632 413.909 21.3423 420.381 24.7281C423.463 26.3374 426.052 28.6155 428.086 31.5206C428.164 31.6329 428.221 31.76 428.251 31.8945C428.281 32.0291 428.285 32.1684 428.262 32.3044C428.239 32.4404 428.19 32.5705 428.117 32.687C428.045 32.8036 427.95 32.9044 427.839 32.9836C427.367 33.318 426.73 33.2135 426.401 32.7328C424.602 30.142 422.212 28.0336 419.436 26.5882C413.539 23.5159 405.999 23.5159 400.123 26.6091C397.328 28.0721 394.986 30.1621 393.137 32.7955C392.973 33.0881 392.664 33.2344 392.336 33.2344ZM405.177 58.4607C405.042 58.4624 404.909 58.4353 404.785 58.3814C404.661 58.3274 404.549 58.2476 404.458 58.1472C402.67 56.3289 401.705 55.1585 400.328 52.6296C398.91 50.0589 398.171 46.9239 398.171 43.559C398.171 37.3517 403.389 32.2939 409.8 32.2939C416.21 32.2939 421.429 37.3517 421.429 43.559C421.429 44.1442 420.977 44.604 420.401 44.604C419.826 44.604 419.374 44.1442 419.374 43.559C419.374 38.5012 415.08 34.3839 409.8 34.3839C404.519 34.3839 400.225 38.5012 400.225 43.559C400.225 46.5686 400.883 49.3483 402.136 51.6055C403.451 54.009 404.355 55.0331 405.937 56.6633C406.327 57.0813 406.327 57.7292 405.937 58.1472C405.711 58.3562 405.444 58.4607 405.177 58.4607ZM419.908 54.5942C417.463 54.5942 415.306 53.9672 413.539 52.7341C410.478 50.6232 408.649 47.1956 408.649 43.559C408.649 42.9738 409.101 42.514 409.676 42.514C410.252 42.514 410.704 42.9738 410.704 43.559C410.704 46.5059 412.183 49.2856 414.69 50.9994C416.148 52.0026 417.854 52.4833 419.908 52.4833C420.401 52.4833 421.223 52.4206 422.045 52.2743C422.6 52.1698 423.134 52.546 423.237 53.1312C423.34 53.6955 422.97 54.2389 422.394 54.3434C421.223 54.5733 420.196 54.5942 419.908 54.5942ZM415.779 58.8996C415.696 58.8996 415.594 58.8787 415.511 58.8578C412.245 57.9382 410.108 56.7051 407.868 54.4688C406.449 53.0434 405.324 51.3443 404.558 49.4709C403.793 47.5976 403.402 45.5877 403.41 43.559C403.41 40.1732 406.245 37.4144 409.738 37.4144C413.231 37.4144 416.066 40.1732 416.066 43.559C416.066 45.7953 417.977 47.6136 420.34 47.6136C422.703 47.6136 424.613 45.7953 424.613 43.559C424.613 35.6797 417.936 29.2843 409.718 29.2843C403.882 29.2843 398.54 32.5865 396.137 37.707C395.335 39.3999 394.924 41.3854 394.924 43.559C394.924 45.1892 395.068 47.7599 396.301 51.1039C396.506 51.6473 396.239 52.2534 395.705 52.4415C395.171 52.6505 394.575 52.3579 394.39 51.8354C393.4 49.1922 392.892 46.3876 392.89 43.559C392.89 41.051 393.363 38.7729 394.287 36.7874C397.02 30.9563 403.081 27.1734 409.718 27.1734C419.066 27.1734 426.668 34.5093 426.668 43.5381C426.668 46.9239 423.833 49.6827 420.34 49.6827C416.847 49.6827 414.012 46.9239 414.012 43.5381C414.012 41.3018 412.101 39.4835 409.738 39.4835C407.375 39.4835 405.464 41.3018 405.464 43.5381C405.464 47.112 406.821 50.456 409.307 52.964C411.258 54.9286 413.128 56.0154 416.025 56.8305C416.58 56.9768 416.888 57.562 416.744 58.1054C416.642 58.5861 416.21 58.8996 415.779 58.8996Z" fill="#D1E8FF"/>
<circle cx="410" cy="38" r="38" fill="#D1E8FF"/>
<ellipse cx="410.026" cy="37.9999" rx="26.7788" ry="27.2401" fill="#DEF0FF"/>
<path d="M403.25 27.875C403.25 26.3832 403.843 24.9524 404.898 23.8975C405.952 22.8426 407.383 22.25 408.875 22.25C410.367 22.25 411.798 22.8426 412.852 23.8975C413.907 24.9524 414.5 26.3832 414.5 27.875V40.1375C415.585 41.2451 416.319 42.6485 416.61 44.1717C416.901 45.6948 416.736 47.27 416.135 48.6996C415.534 50.1292 414.525 51.3496 413.233 52.2078C411.942 53.066 410.426 53.5239 408.875 53.5239C407.324 53.5239 405.808 53.066 404.517 52.2078C403.225 51.3496 402.216 50.1292 401.615 48.6996C401.014 47.27 400.849 45.6948 401.14 44.1717C401.431 42.6485 402.165 41.2451 403.25 40.1375V27.875ZM408.875 24.5C407.98 24.5 407.121 24.8556 406.489 25.4885C405.856 26.1214 405.5 26.9799 405.5 27.875V41.1208L405.127 41.4583C404.277 42.2177 403.679 43.2171 403.41 44.3241C403.141 45.4312 403.215 46.5938 403.621 47.6581C404.028 48.7224 404.748 49.6381 405.686 50.2842C406.624 50.9303 407.737 51.2762 408.876 51.2762C410.015 51.2762 411.128 50.9303 412.066 50.2842C413.004 49.6381 413.724 48.7224 414.131 47.6581C414.537 46.5938 414.611 45.4312 414.342 44.3241C414.074 43.2171 413.475 42.2177 412.626 41.4583L412.25 41.1185V27.875C412.25 26.9799 411.894 26.1214 411.261 25.4885C410.629 24.8556 409.77 24.5 408.875 24.5ZM410 33.5C410 33.2016 409.881 32.9155 409.67 32.7045C409.46 32.4935 409.173 32.375 408.875 32.375C408.577 32.375 408.29 32.4935 408.08 32.7045C407.869 32.9155 407.75 33.2016 407.75 33.5V42.6912C406.999 42.9566 406.367 43.4788 405.964 44.1655C405.561 44.8523 405.414 45.6593 405.549 46.444C405.683 47.2286 406.091 47.9405 406.7 48.4536C407.308 48.9668 408.079 49.2482 408.875 49.2482C409.671 49.2482 410.442 48.9668 411.05 48.4536C411.659 47.9405 412.067 47.2286 412.201 46.444C412.336 45.6593 412.189 44.8523 411.786 44.1655C411.383 43.4788 410.751 42.9566 410 42.6912V33.5Z" fill="#101010"/>
<path d="M607.737 26.2619C607.573 26.2619 607.408 26.2201 607.264 26.1365C603.32 24.0674 599.909 23.1896 595.82 23.1896C591.752 23.1896 587.889 24.1719 584.376 26.1365C583.883 26.4082 583.267 26.2201 582.979 25.7185C582.851 25.4741 582.822 25.1883 582.899 24.9225C582.976 24.6567 583.152 24.4323 583.39 24.2973C587.211 22.1864 591.403 21.0996 595.82 21.0996C600.197 21.0996 604.018 22.0819 608.209 24.2764C608.723 24.5481 608.908 25.1751 608.641 25.6767C608.56 25.8509 608.432 25.9983 608.272 26.1018C608.112 26.2053 607.926 26.2608 607.737 26.2619ZM578.336 37.2344C578.146 37.2362 577.96 37.1846 577.798 37.0853C577.635 36.986 577.503 36.843 577.416 36.672C577.329 36.501 577.29 36.3087 577.303 36.1165C577.317 35.9244 577.383 35.7398 577.493 35.5833C579.527 32.6573 582.116 30.3583 585.198 28.749C591.649 25.3632 599.909 25.3423 606.381 28.7281C609.463 30.3374 612.052 32.6155 614.086 35.5206C614.164 35.6329 614.221 35.76 614.251 35.8945C614.281 36.0291 614.285 36.1684 614.262 36.3044C614.239 36.4404 614.19 36.5705 614.117 36.687C614.045 36.8036 613.95 36.9044 613.839 36.9836C613.367 37.318 612.73 37.2135 612.401 36.7328C610.602 34.142 608.212 32.0336 605.436 30.5882C599.539 27.5159 591.999 27.5159 586.123 30.6091C583.328 32.0721 580.986 34.1621 579.137 36.7955C578.973 37.0881 578.664 37.2344 578.336 37.2344ZM591.177 62.4607C591.042 62.4624 590.909 62.4353 590.785 62.3814C590.661 62.3274 590.549 62.2476 590.458 62.1472C588.67 60.3289 587.705 59.1585 586.328 56.6296C584.91 54.0589 584.171 50.9239 584.171 47.559C584.171 41.3517 589.389 36.2939 595.8 36.2939C602.21 36.2939 607.429 41.3517 607.429 47.559C607.429 48.1442 606.977 48.604 606.401 48.604C605.826 48.604 605.374 48.1442 605.374 47.559C605.374 42.5012 601.08 38.3839 595.8 38.3839C590.519 38.3839 586.225 42.5012 586.225 47.559C586.225 50.5686 586.883 53.3483 588.136 55.6055C589.451 58.009 590.355 59.0331 591.937 60.6633C592.327 61.0813 592.327 61.7292 591.937 62.1472C591.711 62.3562 591.444 62.4607 591.177 62.4607ZM605.908 58.5942C603.463 58.5942 601.306 57.9672 599.539 56.7341C596.478 54.6232 594.649 51.1956 594.649 47.559C594.649 46.9738 595.101 46.514 595.676 46.514C596.252 46.514 596.704 46.9738 596.704 47.559C596.704 50.5059 598.183 53.2856 600.69 54.9994C602.148 56.0026 603.854 56.4833 605.908 56.4833C606.401 56.4833 607.223 56.4206 608.045 56.2743C608.6 56.1698 609.134 56.546 609.237 57.1312C609.34 57.6955 608.97 58.2389 608.394 58.3434C607.223 58.5733 606.196 58.5942 605.908 58.5942ZM601.779 62.8996C601.696 62.8996 601.594 62.8787 601.511 62.8578C598.245 61.9382 596.108 60.7051 593.868 58.4688C592.449 57.0434 591.324 55.3443 590.558 53.4709C589.793 51.5976 589.402 49.5877 589.41 47.559C589.41 44.1732 592.245 41.4144 595.738 41.4144C599.231 41.4144 602.066 44.1732 602.066 47.559C602.066 49.7953 603.977 51.6136 606.34 51.6136C608.703 51.6136 610.613 49.7953 610.613 47.559C610.613 39.6797 603.936 33.2843 595.718 33.2843C589.882 33.2843 584.54 36.5865 582.137 41.707C581.335 43.3999 580.924 45.3854 580.924 47.559C580.924 49.1892 581.068 51.7599 582.301 55.1039C582.506 55.6473 582.239 56.2534 581.705 56.4415C581.171 56.6505 580.575 56.3579 580.39 55.8354C579.4 53.1922 578.892 50.3876 578.89 47.559C578.89 45.051 579.363 42.7729 580.287 40.7874C583.02 34.9563 589.081 31.1734 595.718 31.1734C605.066 31.1734 612.668 38.5093 612.668 47.5381C612.668 50.9239 609.833 53.6827 606.34 53.6827C602.847 53.6827 600.012 50.9239 600.012 47.5381C600.012 45.3018 598.101 43.4835 595.738 43.4835C593.375 43.4835 591.464 45.3018 591.464 47.5381C591.464 51.112 592.821 54.456 595.307 56.964C597.258 58.9286 599.128 60.0154 602.025 60.8305C602.58 60.9768 602.888 61.562 602.744 62.1054C602.642 62.5861 602.21 62.8996 601.779 62.8996Z" fill="#D1E8FF"/>
<circle cx="596" cy="42" r="38" fill="#D1E8FF"/>
<ellipse cx="596.026" cy="41.9999" rx="26.7788" ry="27.2401" fill="#DEF0FF"/>
<path d="M609.5 39.6151H605.75C605.552 39.6159 605.355 39.6561 605.172 39.7333C604.99 39.8106 604.824 39.9233 604.685 40.0651L602.825 42.0001L598.625 37.2151C598.485 37.0652 598.315 36.9457 598.127 36.864C597.938 36.7824 597.735 36.7402 597.53 36.7402C597.325 36.7402 597.122 36.7824 596.933 36.864C596.745 36.9457 596.575 37.0652 596.435 37.2151L593.885 39.7651H591.5C591.102 39.7651 590.721 39.9231 590.439 40.2044C590.158 40.4857 590 40.8672 590 41.2651C590 41.6629 590.158 42.0444 590.439 42.3257C590.721 42.607 591.102 42.7651 591.5 42.7651H594.5C594.697 42.7662 594.893 42.7284 595.076 42.6537C595.259 42.5791 595.425 42.4691 595.565 42.3301L597.5 40.3201L601.7 45.1051C601.836 45.2595 602.001 45.3845 602.187 45.4722C602.373 45.5599 602.575 45.6085 602.78 45.6151C602.977 45.6162 603.173 45.5784 603.356 45.5037C603.539 45.4291 603.705 45.3191 603.845 45.1801L606.395 42.6151H609.5C609.898 42.6151 610.279 42.457 610.561 42.1757C610.842 41.8944 611 41.5129 611 41.1151C611 40.7172 610.842 40.3357 610.561 40.0544C610.279 39.7731 609.898 39.6151 609.5 39.6151ZM598.415 47.5651L595.565 50.4151C595.426 50.5556 595.26 50.6672 595.077 50.7434C594.894 50.8195 594.698 50.8588 594.5 50.8588C594.302 50.8588 594.106 50.8195 593.923 50.7434C593.74 50.6672 593.574 50.5556 593.435 50.4151L585.62 42.6001C585.106 42.086 584.698 41.4757 584.419 40.804C584.141 40.1322 583.998 39.4122 583.998 38.6851C583.998 37.9579 584.141 37.2379 584.419 36.5661C584.698 35.8944 585.106 35.2841 585.62 34.7701C586.658 33.7359 588.063 33.1552 589.528 33.1552C590.992 33.1552 592.398 33.7359 593.435 34.7701C593.574 34.9106 593.74 35.0222 593.923 35.0984C594.106 35.1745 594.302 35.2138 594.5 35.2138C594.698 35.2138 594.894 35.1745 595.077 35.0984C595.26 35.0222 595.426 34.9106 595.565 34.7701C596.619 33.7676 598.018 33.2086 599.473 33.2086C600.927 33.2086 602.326 33.7676 603.38 34.7701C603.714 35.1087 604.006 35.4864 604.25 35.8951C604.468 36.1954 604.79 36.404 605.154 36.4806C605.517 36.5571 605.896 36.4962 606.217 36.3096C606.538 36.1229 606.778 35.8238 606.892 35.4702C607.005 35.1165 606.983 34.7334 606.83 34.3951C606.459 33.7794 606.016 33.2103 605.51 32.7001C604.087 31.2598 602.197 30.3737 600.179 30.2005C598.161 30.0274 596.148 30.5785 594.5 31.7551C593.226 30.8375 591.724 30.2897 590.158 30.172C588.593 30.0544 587.026 30.3715 585.629 31.0884C584.233 31.8053 583.061 32.8941 582.244 34.2346C581.428 35.5751 580.997 37.1153 581 38.6851C581 39.8012 581.221 40.9063 581.651 41.9363C582.081 42.9663 582.711 43.9006 583.505 44.6851L591.32 52.5001C592.164 53.3428 593.308 53.8161 594.5 53.8161C595.693 53.8161 596.836 53.3428 597.68 52.5001L600.5 49.6801C600.779 49.399 600.936 49.0188 600.936 48.6226C600.936 48.2263 600.779 47.8461 600.5 47.5651C600.22 47.2947 599.847 47.1436 599.458 47.1436C599.069 47.1436 598.695 47.2947 598.415 47.5651Z" fill="#101010"/>
<path d="M791.737 22.2619C791.573 22.2619 791.408 22.2201 791.264 22.1365C787.32 20.0674 783.909 19.1896 779.82 19.1896C775.752 19.1896 771.889 20.1719 768.376 22.1365C767.883 22.4082 767.267 22.2201 766.979 21.7185C766.851 21.4741 766.822 21.1883 766.899 20.9225C766.976 20.6567 767.152 20.4323 767.39 20.2973C771.211 18.1864 775.403 17.0996 779.82 17.0996C784.197 17.0996 788.018 18.0819 792.209 20.2764C792.723 20.5481 792.908 21.1751 792.641 21.6767C792.56 21.8509 792.432 21.9983 792.272 22.1018C792.112 22.2053 791.926 22.2608 791.737 22.2619ZM762.336 33.2344C762.146 33.2362 761.96 33.1846 761.798 33.0853C761.635 32.986 761.503 32.843 761.416 32.672C761.329 32.501 761.29 32.3087 761.303 32.1165C761.317 31.9244 761.383 31.7398 761.493 31.5833C763.527 28.6573 766.116 26.3583 769.198 24.749C775.649 21.3632 783.909 21.3423 790.381 24.7281C793.463 26.3374 796.052 28.6155 798.086 31.5206C798.164 31.6329 798.221 31.76 798.251 31.8945C798.281 32.0291 798.285 32.1684 798.262 32.3044C798.239 32.4404 798.19 32.5705 798.117 32.687C798.045 32.8036 797.95 32.9044 797.839 32.9836C797.367 33.318 796.73 33.2135 796.401 32.7328C794.602 30.142 792.212 28.0336 789.436 26.5882C783.539 23.5159 775.999 23.5159 770.123 26.6091C767.328 28.0721 764.986 30.1621 763.137 32.7955C762.973 33.0881 762.664 33.2344 762.336 33.2344ZM775.177 58.4607C775.042 58.4624 774.909 58.4353 774.785 58.3814C774.661 58.3274 774.549 58.2476 774.458 58.1472C772.67 56.3289 771.705 55.1585 770.328 52.6296C768.91 50.0589 768.171 46.9239 768.171 43.559C768.171 37.3517 773.389 32.2939 779.8 32.2939C786.21 32.2939 791.429 37.3517 791.429 43.559C791.429 44.1442 790.977 44.604 790.401 44.604C789.826 44.604 789.374 44.1442 789.374 43.559C789.374 38.5012 785.08 34.3839 779.8 34.3839C774.519 34.3839 770.225 38.5012 770.225 43.559C770.225 46.5686 770.883 49.3483 772.136 51.6055C773.451 54.009 774.355 55.0331 775.937 56.6633C776.327 57.0813 776.327 57.7292 775.937 58.1472C775.711 58.3562 775.444 58.4607 775.177 58.4607ZM789.908 54.5942C787.463 54.5942 785.306 53.9672 783.539 52.7341C780.478 50.6232 778.649 47.1956 778.649 43.559C778.649 42.9738 779.101 42.514 779.676 42.514C780.252 42.514 780.704 42.9738 780.704 43.559C780.704 46.5059 782.183 49.2856 784.69 50.9994C786.148 52.0026 787.854 52.4833 789.908 52.4833C790.401 52.4833 791.223 52.4206 792.045 52.2743C792.6 52.1698 793.134 52.546 793.237 53.1312C793.34 53.6955 792.97 54.2389 792.394 54.3434C791.223 54.5733 790.196 54.5942 789.908 54.5942ZM785.779 58.8996C785.696 58.8996 785.594 58.8787 785.511 58.8578C782.245 57.9382 780.108 56.7051 777.868 54.4688C776.449 53.0434 775.324 51.3443 774.558 49.4709C773.793 47.5976 773.402 45.5877 773.41 43.559C773.41 40.1732 776.245 37.4144 779.738 37.4144C783.231 37.4144 786.066 40.1732 786.066 43.559C786.066 45.7953 787.977 47.6136 790.34 47.6136C792.703 47.6136 794.613 45.7953 794.613 43.559C794.613 35.6797 787.936 29.2843 779.718 29.2843C773.882 29.2843 768.54 32.5865 766.137 37.707C765.335 39.3999 764.924 41.3854 764.924 43.559C764.924 45.1892 765.068 47.7599 766.301 51.1039C766.506 51.6473 766.239 52.2534 765.705 52.4415C765.171 52.6505 764.575 52.3579 764.39 51.8354C763.4 49.1922 762.892 46.3876 762.89 43.559C762.89 41.051 763.363 38.7729 764.287 36.7874C767.02 30.9563 773.081 27.1734 779.718 27.1734C789.066 27.1734 796.668 34.5093 796.668 43.5381C796.668 46.9239 793.833 49.6827 790.34 49.6827C786.847 49.6827 784.012 46.9239 784.012 43.5381C784.012 41.3018 782.101 39.4835 779.738 39.4835C777.375 39.4835 775.464 41.3018 775.464 43.5381C775.464 47.112 776.821 50.456 779.307 52.964C781.258 54.9286 783.128 56.0154 786.025 56.8305C786.58 56.9768 786.888 57.562 786.744 58.1054C786.642 58.5861 786.21 58.8996 785.779 58.8996Z" fill="#D1E8FF"/>
<circle cx="780" cy="38" r="38" fill="#D1E8FF"/>
<ellipse cx="780.026" cy="37.9999" rx="26.7788" ry="27.2401" fill="#DEF0FF"/>
<path d="M780 50C779.575 50 779.219 49.856 778.931 49.568C778.643 49.28 778.499 48.924 778.5 48.5V42.5C778.5 42.075 778.644 41.7185 778.932 41.4305C779.22 41.1425 779.576 40.999 780 41H783.75C784.175 41 784.532 41.144 784.82 41.432C785.108 41.72 785.251 42.076 785.25 42.5V48.5C785.25 48.925 785.106 49.2815 784.818 49.5695C784.53 49.8575 784.174 50.001 783.75 50H780ZM780.75 47.75H783V43.25H780.75V47.75ZM787.5 53V48.875C787.5 48.45 787.644 48.0935 787.932 47.8055C788.22 47.5175 788.576 47.374 789 47.375H792V46.25H787.5V44H792.75C793.175 44 793.531 44.144 793.819 44.432C794.107 44.72 794.251 45.076 794.25 45.5V48.125C794.25 48.55 794.106 48.9065 793.818 49.1945C793.53 49.4825 793.174 49.626 792.75 49.625H789.75V50.75H794.25V53H787.5ZM775.5 52.925C772.425 52.575 769.906 51.256 767.943 48.968C765.98 46.68 764.999 43.924 765 40.7C765 38.2 765.994 35.481 767.982 32.543C769.97 29.605 772.976 26.424 777 23C780.3 25.8 782.919 28.45 784.857 30.95C786.795 33.45 788.051 35.8 788.625 38H785.513C784.963 36.425 783.975 34.7125 782.55 32.8625C781.125 31.0125 779.275 29.05 777 26.975C774.025 29.7 771.782 32.2125 770.27 34.5125C768.758 36.8125 768.001 38.875 768 40.7C768 43.1 768.694 45.144 770.082 46.832C771.47 48.52 773.276 49.5385 775.5 49.8875V52.925Z" fill="#101010"/>
<path d="M959.737 22.2619C959.573 22.2619 959.408 22.2201 959.264 22.1365C955.32 20.0674 951.909 19.1896 947.82 19.1896C943.752 19.1896 939.889 20.1719 936.376 22.1365C935.883 22.4082 935.267 22.2201 934.979 21.7185C934.851 21.4741 934.822 21.1883 934.899 20.9225C934.976 20.6567 935.152 20.4323 935.39 20.2973C939.211 18.1864 943.403 17.0996 947.82 17.0996C952.197 17.0996 956.018 18.0819 960.209 20.2764C960.723 20.5481 960.908 21.1751 960.641 21.6767C960.56 21.8509 960.432 21.9983 960.272 22.1018C960.112 22.2053 959.926 22.2608 959.737 22.2619ZM930.336 33.2344C930.146 33.2362 929.96 33.1846 929.798 33.0853C929.635 32.986 929.503 32.843 929.416 32.672C929.329 32.501 929.29 32.3087 929.303 32.1165C929.317 31.9244 929.383 31.7398 929.493 31.5833C931.527 28.6573 934.116 26.3583 937.198 24.749C943.649 21.3632 951.909 21.3423 958.381 24.7281C961.463 26.3374 964.052 28.6155 966.086 31.5206C966.164 31.6329 966.221 31.76 966.251 31.8945C966.281 32.0291 966.285 32.1684 966.262 32.3044C966.239 32.4404 966.19 32.5705 966.117 32.687C966.045 32.8036 965.95 32.9044 965.839 32.9836C965.367 33.318 964.73 33.2135 964.401 32.7328C962.602 30.142 960.212 28.0336 957.436 26.5882C951.539 23.5159 943.999 23.5159 938.123 26.6091C935.328 28.0721 932.986 30.1621 931.137 32.7955C930.973 33.0881 930.664 33.2344 930.336 33.2344ZM943.177 58.4607C943.042 58.4624 942.909 58.4353 942.785 58.3814C942.661 58.3274 942.549 58.2476 942.458 58.1472C940.67 56.3289 939.705 55.1585 938.328 52.6296C936.91 50.0589 936.171 46.9239 936.171 43.559C936.171 37.3517 941.389 32.2939 947.8 32.2939C954.21 32.2939 959.429 37.3517 959.429 43.559C959.429 44.1442 958.977 44.604 958.401 44.604C957.826 44.604 957.374 44.1442 957.374 43.559C957.374 38.5012 953.08 34.3839 947.8 34.3839C942.519 34.3839 938.225 38.5012 938.225 43.559C938.225 46.5686 938.883 49.3483 940.136 51.6055C941.451 54.009 942.355 55.0331 943.937 56.6633C944.327 57.0813 944.327 57.7292 943.937 58.1472C943.711 58.3562 943.444 58.4607 943.177 58.4607ZM957.908 54.5942C955.463 54.5942 953.306 53.9672 951.539 52.7341C948.478 50.6232 946.649 47.1956 946.649 43.559C946.649 42.9738 947.101 42.514 947.676 42.514C948.252 42.514 948.704 42.9738 948.704 43.559C948.704 46.5059 950.183 49.2856 952.69 50.9994C954.148 52.0026 955.854 52.4833 957.908 52.4833C958.401 52.4833 959.223 52.4206 960.045 52.2743C960.6 52.1698 961.134 52.546 961.237 53.1312C961.34 53.6955 960.97 54.2389 960.394 54.3434C959.223 54.5733 958.196 54.5942 957.908 54.5942ZM953.779 58.8996C953.696 58.8996 953.594 58.8787 953.511 58.8578C950.245 57.9382 948.108 56.7051 945.868 54.4688C944.449 53.0434 943.324 51.3443 942.558 49.4709C941.793 47.5976 941.402 45.5877 941.41 43.559C941.41 40.1732 944.245 37.4144 947.738 37.4144C951.231 37.4144 954.066 40.1732 954.066 43.559C954.066 45.7953 955.977 47.6136 958.34 47.6136C960.703 47.6136 962.613 45.7953 962.613 43.559C962.613 35.6797 955.936 29.2843 947.718 29.2843C941.882 29.2843 936.54 32.5865 934.137 37.707C933.335 39.3999 932.924 41.3854 932.924 43.559C932.924 45.1892 933.068 47.7599 934.301 51.1039C934.506 51.6473 934.239 52.2534 933.705 52.4415C933.171 52.6505 932.575 52.3579 932.39 51.8354C931.4 49.1922 930.892 46.3876 930.89 43.559C930.89 41.051 931.363 38.7729 932.287 36.7874C935.02 30.9563 941.081 27.1734 947.718 27.1734C957.066 27.1734 964.668 34.5093 964.668 43.5381C964.668 46.9239 961.833 49.6827 958.34 49.6827C954.847 49.6827 952.012 46.9239 952.012 43.5381C952.012 41.3018 950.101 39.4835 947.738 39.4835C945.375 39.4835 943.464 41.3018 943.464 43.5381C943.464 47.112 944.821 50.456 947.307 52.964C949.258 54.9286 951.128 56.0154 954.025 56.8305C954.58 56.9768 954.888 57.562 954.744 58.1054C954.642 58.5861 954.21 58.8996 953.779 58.8996Z" fill="#D1E8FF"/>
<circle cx="948" cy="38" r="38" fill="#D1E8FF"/>
<ellipse cx="948.026" cy="37.9999" rx="26.7788" ry="27.2401" fill="#DEF0FF"/>
<path d="M937.916 29.1146L937.916 29.1146C938.977 27.7639 940.413 26.95 942.023 26.95C944.246 26.95 945.995 28.3932 947.146 30.7396L947.146 30.7398L947.821 32.1108L948 32.4759L948.18 32.1107L948.853 30.7397L948.853 30.7396C950.004 28.3932 951.753 26.95 953.976 26.95C955.587 26.95 957.023 27.7639 958.085 29.1146C959.151 30.4711 959.8 32.3312 959.8 34.2762C959.8 34.565 959.785 34.8528 959.759 35.1383L959.749 35.2473L959.835 35.3145C960.312 35.6862 960.744 36.1127 961.122 36.5851L961.389 36.9192L961.474 36.5001C961.621 35.7789 961.7 35.0373 961.7 34.2762C961.7 31.9275 960.921 29.6493 959.578 27.9412C958.232 26.2268 956.281 25.05 953.976 25.05C951.371 25.05 949.374 26.455 948 28.4414C946.627 26.4556 944.629 25.05 942.023 25.05C939.719 25.05 937.769 26.2268 936.422 27.9404L936.422 27.9405C935.08 29.6484 934.3 31.9275 934.3 34.2762C934.3 39.4963 937.758 43.6692 941.007 46.4536L941.008 46.4541C942.857 48.0277 944.867 49.4022 947.004 50.5548L947.004 50.555C947.182 50.6504 947.361 50.7433 947.541 50.8336L947.541 50.8336L947.545 50.8353L947.577 50.8503L947.577 50.8504L947.578 50.8509L947.58 50.852L947.588 50.8561L947.924 51.0173L948.013 51.0602L948.102 51.0151L948.435 50.8448L948.439 50.8426L948.444 50.8404L948.45 50.8367L948.479 50.8211L948.591 50.762L948.593 50.7611C948.691 50.7084 948.834 50.6311 949.015 50.5289L949.015 50.5288C949.375 50.3251 949.887 50.0264 950.5 49.6388L950.5 49.6388C950.984 49.3325 951.461 49.0156 951.931 48.6881L952.217 48.4892L951.901 48.3426C951.413 48.116 950.95 47.8386 950.52 47.5152L950.407 47.4299L950.289 47.5087C950.005 47.6983 949.737 47.8729 949.485 48.0317L949.485 48.0318C948.994 48.343 948.495 48.641 947.988 48.9255C947.485 48.6573 946.989 48.3749 946.502 48.0786L946.502 48.0784C945.002 47.1716 943.579 46.1457 942.244 45.0105C939.117 42.3305 936.2 38.6419 936.2 34.2762C936.2 32.3313 936.85 30.4711 937.916 29.1146Z" fill="#101010" stroke="#101010" stroke-width="0.4"/>
<path d="M955.5 43.45L955.5 43.45C955.748 43.4498 955.992 43.3954 956.217 43.2906C956.442 43.1858 956.641 43.0333 956.8 42.8435C956.959 42.6538 957.075 42.4315 957.14 42.1923C957.204 41.953 957.216 41.7026 957.173 41.4585C957.131 41.2143 957.035 40.9825 956.894 40.7791C956.752 40.5757 956.568 40.4057 956.354 40.281C956.14 40.1563 955.901 40.0799 955.654 40.0572C955.45 40.0384 955.245 40.0566 955.048 40.1106L953.41 38.4721L953.269 38.3307L953.127 38.4721L952.067 39.5326L951.925 39.674L952.067 39.8154L953.811 41.5597C953.787 41.7704 953.803 41.984 953.858 42.1895C953.922 42.4293 954.038 42.6521 954.198 42.8424C954.357 43.0326 954.556 43.1856 954.781 43.2906C955.006 43.3955 955.251 43.45 955.5 43.45Z" fill="#101010" stroke="#101010" stroke-width="0.4"/>
<path d="M955.125 47.95C955.988 47.95 956.843 47.7799 957.641 47.4495C958.439 47.1191 959.164 46.6348 959.774 46.0242C960.385 45.4137 960.869 44.6889 961.2 43.8911C961.53 43.0934 961.7 42.2384 961.7 41.375C961.7 40.5116 961.53 39.6566 961.2 38.8589C960.869 38.0611 960.385 37.3363 959.774 36.7258C959.164 36.1152 958.439 35.6309 957.641 35.3005C956.843 34.9701 955.988 34.8 955.125 34.8C953.381 34.8 951.709 35.4927 950.476 36.7258C949.243 37.9588 948.55 39.6312 948.55 41.375C948.55 43.1188 949.243 44.7912 950.476 46.0242C951.709 47.2573 953.381 47.95 955.125 47.95ZM958.431 44.6807C957.554 45.5575 956.365 46.05 955.125 46.05C953.885 46.05 952.696 45.5575 951.819 44.6807C950.943 43.804 950.45 42.6149 950.45 41.375C950.45 40.1351 950.943 38.946 951.819 38.0693C952.696 37.1925 953.885 36.7 955.125 36.7C956.365 36.7 957.554 37.1925 958.431 38.0693C959.307 38.946 959.8 40.1351 959.8 41.375C959.8 42.6149 959.307 43.804 958.431 44.6807Z" fill="#101010" stroke="#101010" stroke-width="0.4"/>
<path d="M49.7369 22.2619C49.5726 22.2619 49.4082 22.2201 49.2644 22.1365C45.3195 20.0674 41.9089 19.1896 37.8202 19.1896C33.7521 19.1896 29.8895 20.1719 26.3761 22.1365C25.883 22.4082 25.2666 22.2201 24.979 21.7185C24.8508 21.4741 24.8221 21.1883 24.8989 20.9225C24.9758 20.6567 25.1521 20.4323 25.3899 20.2973C29.2115 18.1864 33.4029 17.0996 37.8202 17.0996C42.1965 17.0996 46.0181 18.0819 50.2095 20.2764C50.7231 20.5481 50.9081 21.1751 50.641 21.6767C50.5597 21.8509 50.4318 21.9983 50.2718 22.1018C50.1119 22.2053 49.9265 22.2608 49.7369 22.2619ZM20.3356 33.2344C20.1462 33.2362 19.96 33.1846 19.7977 33.0853C19.6354 32.986 19.5033 32.843 19.416 32.672C19.3288 32.501 19.2898 32.3087 19.3034 32.1165C19.3171 31.9244 19.3827 31.7398 19.4932 31.5833C21.5273 28.6573 24.1161 26.3583 27.198 24.749C33.6494 21.3632 41.9089 21.3423 48.3809 24.7281C51.4628 26.3374 54.0516 28.6155 56.0857 31.5206C56.1645 31.6329 56.2207 31.76 56.2509 31.8945C56.2812 32.0291 56.285 32.1684 56.2621 32.3044C56.2392 32.4404 56.19 32.5705 56.1174 32.687C56.0448 32.8036 55.9502 32.9044 55.8391 32.9836C55.3665 33.318 54.7296 33.2135 54.4009 32.7328C52.6016 30.142 50.2116 28.0336 47.4358 26.5882C41.5391 23.5159 33.9987 23.5159 28.1225 26.6091C25.3283 28.0721 22.986 30.1621 21.1369 32.7955C20.9725 33.0881 20.6643 33.2344 20.3356 33.2344ZM33.1768 58.4607C33.0421 58.4624 32.9085 58.4353 32.7847 58.3814C32.6608 58.3274 32.5495 58.2476 32.4577 58.1472C30.6702 56.3289 29.7046 55.1585 28.328 52.6296C26.9103 50.0589 26.1707 46.9239 26.1707 43.559C26.1707 37.3517 31.3893 32.2939 37.7997 32.2939C44.2101 32.2939 49.4287 37.3517 49.4287 43.559C49.4287 44.1442 48.9767 44.604 48.4014 44.604C47.8262 44.604 47.3741 44.1442 47.3741 43.559C47.3741 38.5012 43.08 34.3839 37.7997 34.3839C32.5194 34.3839 28.2253 38.5012 28.2253 43.559C28.2253 46.5686 28.8827 49.3483 30.136 51.6055C31.451 54.009 32.355 55.0331 33.937 56.6633C34.3274 57.0813 34.3274 57.7292 33.937 58.1472C33.711 58.3562 33.4439 58.4607 33.1768 58.4607ZM47.9083 54.5942C45.4634 54.5942 43.306 53.9672 41.5391 52.7341C38.4777 50.6232 36.6491 47.1956 36.6491 43.559C36.6491 42.9738 37.1011 42.514 37.6764 42.514C38.2517 42.514 38.7037 42.9738 38.7037 43.559C38.7037 46.5059 40.183 49.2856 42.6896 50.9994C44.1484 52.0026 45.8537 52.4833 47.9083 52.4833C48.4014 52.4833 49.2233 52.4206 50.0451 52.2743C50.5999 52.1698 51.1341 52.546 51.2368 53.1312C51.3395 53.6955 50.9697 54.2389 50.3944 54.3434C49.2233 54.5733 48.196 54.5942 47.9083 54.5942ZM43.7786 58.8996C43.6964 58.8996 43.5937 58.8787 43.5115 58.8578C40.2447 57.9382 38.1079 56.7051 35.8684 54.4688C34.4492 53.0434 33.3239 51.3443 32.5583 49.4709C31.7928 47.5976 31.4023 45.5877 31.4099 43.559C31.4099 40.1732 34.2452 37.4144 37.7381 37.4144C41.2309 37.4144 44.0662 40.1732 44.0662 43.559C44.0662 45.7953 45.977 47.6136 48.3398 47.6136C50.7026 47.6136 52.6134 45.7953 52.6134 43.559C52.6134 35.6797 45.9359 29.2843 37.7175 29.2843C31.8824 29.2843 26.5405 32.5865 24.1366 37.707C23.3353 39.3999 22.9244 41.3854 22.9244 43.559C22.9244 45.1892 23.0682 47.7599 24.301 51.1039C24.5064 51.6473 24.2393 52.2534 23.7051 52.4415C23.1709 52.6505 22.5751 52.3579 22.3902 51.8354C21.4002 49.1922 20.8919 46.3876 20.8903 43.559C20.8903 41.051 21.3629 38.7729 22.2875 36.7874C25.0201 30.9563 31.0812 27.1734 37.7175 27.1734C47.066 27.1734 54.668 34.5093 54.668 43.5381C54.668 46.9239 51.8326 49.6827 48.3398 49.6827C44.847 49.6827 42.0116 46.9239 42.0116 43.5381C42.0116 41.3018 40.1009 39.4835 37.7381 39.4835C35.3753 39.4835 33.4645 41.3018 33.4645 43.5381C33.4645 47.112 34.8205 50.456 37.3066 52.964C39.2585 54.9286 41.1282 56.0154 44.0251 56.8305C44.5799 56.9768 44.8881 57.562 44.7442 58.1054C44.6415 58.5861 44.2101 58.8996 43.7786 58.8996Z" fill="#D1E8FF"/>
<circle cx="38" cy="38" r="38" fill="#D1E8FF"/>
<ellipse cx="38.0258" cy="37.9999" rx="26.7788" ry="27.2401" fill="#DEF0FF"/>
<path d="M30.5 23C33.17 23 34.505 26.24 32.63 28.13C30.74 30.005 27.5 28.67 27.5 26C27.5 25.2044 27.8161 24.4413 28.3787 23.8787C28.9413 23.3161 29.7044 23 30.5 23ZM28.25 30.5H32.75C33.5456 30.5 34.3087 30.8161 34.8713 31.3787C35.4339 31.9413 35.75 32.7044 35.75 33.5V41.75H33.5V53H27.5V41.75H25.25V33.5C25.25 32.7044 25.5661 31.9413 26.1287 31.3787C26.6913 30.8161 27.4544 30.5 28.25 30.5ZM48.5 32H51.5L47 26L42.5 32H45.5V44H42.5L47 50L51.5 44H48.5M53 23H41V26H53M53 50H41V53H53" fill="#101010"/>
</svg>
